<svg width="1796" height="1501" viewBox="0 0 1796 1501" fill="none" xmlns="http://www.w3.org/2000/svg">
<path d="M619.705 214.535C624.474 211.569 618.116 197.75 617.388 192.826L638.321 187.357L633.409 168.557L652.248 163.635L646.791 142.747L667.725 137.277L673.183 158.166L694.115 152.697L699.027 171.496L717.868 166.574L714.122 147.423L733.877 142.262L738.8 161.105L778.574 150.713L784.031 171.602L804.964 166.133L815.333 205.821L834.174 200.898L844.544 240.587L865.476 235.118L870.934 256.006L891.866 250.537L902.235 290.225L921.077 285.303L931.992 327.08L913.15 332.002L923.52 371.691L942.361 366.768L958.188 427.345L939.347 432.267L949.716 471.956L928.784 477.425L934.241 498.313L913.309 503.782L923.678 543.47L944.61 538.001L949.432 555.384L953.389 557.697L989.83 548.455L994.663 565.881L998.62 568.194L1016.23 563.918L1010.77 543.029L1031.71 537.56L1037.16 558.449L1097.87 542.588L1102.78 561.387L1142.56 550.996L1148.01 571.885L1168.95 566.415L1174.4 587.304L1214.18 576.912L1219.09 595.712L1240.02 590.243L1250.39 629.931L1269.23 625.009L1274.69 645.898L1295.62 640.428L1301.08 661.317L1322.01 655.848L1326.92 674.647L1345.76 669.725L1356.68 711.502L1377.61 706.033L1403.81 806.298L1382.87 811.767L1404.16 893.233L1385.32 898.155L1390.23 916.955L1369.3 922.424L1374.76 943.312L1353.82 948.782L1364.19 988.47L1345.35 993.392L1350.81 1014.28L1329.88 1019.75L1335.34 1040.64L1295.56 1051.03L1300.47 1069.83L1279.54 1075.3L1285 1096.19L1245.23 1106.58L1250.14 1125.38L1229.2 1130.85L1234.66 1151.74L1194.89 1162.13L1200.34 1183.02L1158.48 1193.95L1163.39 1212.75L1145.77 1217.36L1139.67 1198.82L1118.74 1204.29L1123.65 1223.09L1083.88 1233.48L1089.34 1254.37L1068.4 1259.84L1073.86 1280.73L933.607 1317.37L928.15 1296.48L886.283 1307.42L891.74 1328.31L831.034 1344.17L835.946 1362.97L796.173 1373.36L791.261 1354.56L770.326 1360.03L764.869 1339.14L704.163 1355L709.62 1375.89L669.849 1386.28L664.391 1365.4L603.683 1381.26L609.141 1402.15L588.208 1407.61L593.12 1426.41L574.281 1431.34L569.369 1412.54L548.435 1418.01L537.52 1376.23L558.454 1370.76L553.861 1353.18L532.577 1357.48L527.119 1336.6L487.346 1346.99L481.888 1326.1L460.956 1331.57L445.675 1273.08L426.833 1278L421.376 1257.11L400.443 1262.58L379.159 1181.12L399.818 1174.42L395.213 1156.79L374.236 1162.27L363.321 1120.5L384.253 1115.03L358.057 1014.76L376.898 1009.84L366.529 970.152L387.461 964.683L382.004 943.794L400.843 938.872L390.473 899.184L411.408 893.715L400.493 851.938L421.425 846.469L416.513 827.669L496.061 806.886L490.603 785.997L471.762 790.92L466.85 772.12L424.983 783.059L419.526 762.17L401.909 766.773L406.2 788.012L385.266 793.482L379.808 772.593L340.035 782.985L334.577 762.097L313.645 767.566L308.733 748.766L248.027 764.626L242.569 743.738L223.73 748.66L218.273 727.771L197.338 733.241L192.426 714.441L171.494 719.91L160.579 678.133L141.738 683.056L131.368 643.368L110.436 648.837L104.574 630.146L84.0462 633.417L79.1344 614.617C80.2306 612.75 98.0052 612.848 99.2481 606.015L89.1516 567.371L110.084 561.902L99.7147 522.214L118.556 517.291L113.098 496.403L134.031 490.934L129.119 472.134C130.215 470.267 147.992 470.364 149.235 463.531L139.138 424.888L157.977 419.965L153.066 401.166L295.412 363.975L300.324 382.775L361.03 366.914L367.719 387.527L385.383 382.912L379.914 361.98L421.778 351.042L427.236 371.931L467.009 361.539L472.467 382.428L512.241 372.036L518.384 390.561L538.141 385.399L533.218 366.555L572.991 356.164L562.076 314.387L543.235 319.309L538.323 300.51L557.164 295.587L551.707 274.698L572.639 269.229L567.727 250.43L586.46 244.559L583.202 224.072L619.837 214.501L619.705 214.535ZM617.738 279.761L643.935 380.026L625.095 384.948L630.553 405.837L609.621 411.306L614.532 430.105L635.465 424.636L640.922 445.525L680.696 435.133L686.153 456.022L707.086 450.553L717.455 490.241L736.294 485.319L742.158 504.009L762.686 500.738L773.056 540.426L792.561 533.238L788.53 514.069L828.304 503.677L833.762 524.565L852.601 519.643L847.143 498.755L868.078 493.285L863.166 474.486L884.098 469.017L873.183 427.239L892.024 422.317L887.431 404.736L868.229 408.451L858.132 369.807C851.66 365.362 843.474 371.126 836.379 372.143L826.01 332.455L846.944 326.986L831.117 266.409L810.183 271.878L804.725 250.99L783.793 256.459L778.881 237.659L760.042 242.581L749.673 202.893L728.738 208.363L733.65 227.162L714.811 232.084L709.899 213.285L688.965 218.754L683.507 197.866L662.575 203.335L668.032 224.223L649.193 229.145L654.105 247.945L633.171 253.414L638.628 274.303L617.696 279.772L617.738 279.761ZM229.556 445.893L189.782 456.285L200.152 495.973L180.644 503.162L184.675 522.331L165.836 527.253L170.747 546.053L149.815 551.522L171.099 632.987L192.032 627.518L202.401 667.206L221.24 662.284L228.422 681.746L247.632 677.703L253.09 698.592L292.863 688.2L297.775 707L318.708 701.531L324.165 722.419L363.939 712.028L369.8 730.719C372.799 733.282 387.528 729.388 388.901 725.728L384.871 706.559L403.71 701.637C405.579 702.729 405.464 720.471 412.309 721.705L451.035 711.587L455.946 730.386L495.72 719.995L490.808 701.195L591.288 674.943L585.83 654.054L624.556 643.936L626.878 639.982L617.328 603.427L596.393 608.897L586.297 570.253C579.824 565.808 571.641 571.572 564.546 572.589L532.892 451.435L514.053 456.357L509.141 437.558L488.207 443.027L482.749 422.139L382.269 448.391L376.812 427.502L234.468 464.693L229.556 445.893ZM586.754 395.291C582.572 398.01 583.798 416.611 596.003 415.003C604.463 413.862 609.065 412.752 607.906 404.037C606.108 390.56 598.322 387.852 586.798 395.279L586.754 395.291ZM614.882 517.04L625.252 556.728L646.186 551.259L657.101 593.036L678.034 587.567L682.945 606.367L743.651 590.506L738.74 571.706L717.807 577.175L712.35 556.287L691.415 561.756L685.958 540.868L706.628 534.212L702.023 516.587L681.046 522.068L675.588 501.179L656.749 506.102L649.567 486.64L630.359 490.682L635.817 511.571L614.882 517.04ZM651.994 659.082C650.011 652.208 648.475 645.079 646.536 638.194L627.697 643.116L633.155 664.004C639.469 662.494 645.712 660.538 651.994 659.082C653.794 665.26 655.149 671.693 656.905 677.882L677.84 672.412L672.928 653.613C665.96 655.294 658.973 657.445 651.994 659.082ZM889.362 574.751L849.588 585.142L855.046 606.031L894.82 595.639L889.362 574.751ZM944.962 624.936L905.189 635.327L910.646 656.216L849.94 672.077L844.483 651.188L826.864 655.791L831.111 677.043L770.405 692.903L763.716 672.29L743.959 677.452L749.428 698.384L709.654 708.776L714.566 727.575L653.86 743.436L659.317 764.325L556.745 791.124L561.656 809.923L542.817 814.845L548.275 835.734L529.542 841.604L532.8 862.092L511.866 867.561L516.777 886.361L497.938 891.283L493.026 872.483L451.16 883.422L461.529 923.11L442.69 928.032L453.059 967.72L432.125 973.19L437.582 994.078L416.65 999.547L432.477 1060.12L453.409 1054.66L463.778 1094.34L442.846 1099.81L474.5 1220.97L495.432 1215.5L511.259 1276.07L532.193 1270.6L537.651 1291.49L598.357 1275.63L603.269 1294.43L663.975 1278.57L669.432 1299.46L748.977 1278.68L756.159 1298.14L775.369 1294.1L780.281 1312.9L820.055 1302.5L815.143 1283.7L796.302 1288.63L790.44 1269.94L769.912 1273.21L762.73 1253.75L743.52 1257.79L728.239 1199.3L709.4 1204.22L698.484 1162.45L717.324 1157.52L712.412 1138.72L693.573 1143.65L688.115 1122.76L667.183 1128.23L662.044 1108.56L682.714 1101.9L677.802 1083.1L635.935 1094.04L630.477 1073.15L611.636 1078.07L579.982 956.92L598.824 951.997L593.685 932.327L574.482 936.043L564.113 896.354L582.952 891.432L577.495 870.544L598.429 865.074L594.683 845.923L614.438 840.762L619.361 859.605L638.201 854.683L643.658 875.572L624.819 880.494L635.188 920.182L654.027 915.26L669.854 975.837L651.015 980.759L666.842 1041.34L685.681 1036.41L692.863 1055.88L712.073 1051.83L717.531 1072.72L738.463 1067.25L743.375 1086.05L722.705 1092.71L727.855 1112.42L748.832 1106.94L754.29 1127.83L773.131 1122.91L778.043 1141.71L759.202 1146.63L770.117 1188.41L788.958 1183.48L798.509 1220.04C802.935 1225.39 818.39 1216.61 820.26 1217.7L825.172 1236.5L846.104 1231.03L857.019 1272.81L875.86 1267.89L870.403 1247L931.109 1231.14L936.566 1252.03L1018.21 1230.7L1012.75 1209.81L1052.52 1199.42L1047.06 1178.53L1068 1173.06L1052.72 1114.57L1031.78 1120.04L1010.5 1038.58L989.565 1044.04L979.196 1004.36L960.357 1009.28L950.26 970.634C943.788 966.189 935.602 971.953 928.507 972.97L902.311 872.705L883.472 877.627L857.276 777.362L836.341 782.832L826.245 744.188L822.029 742.314L804.142 745.361L799.537 727.736L819.087 720.536L815.057 701.367L835.991 695.897L841.449 716.786L860.288 711.864L865.2 730.663L886.134 725.194L897.049 766.971L915.888 762.049L942.084 862.314L963.017 856.845L989.213 957.11L1010.15 951.64L1021.06 993.417L1039.9 988.495L1049.45 1025.05C1053.88 1030.4 1069.33 1021.62 1071.2 1022.71L1086.41 1079.83L1090.36 1082.14L1107.93 1077.88L1118.3 1117.57L1137.14 1112.64L1142.6 1133.53L1184.47 1122.59L1179.01 1101.7L1218.78 1091.31L1213.87 1072.51L1234.8 1067.04L1229.35 1046.16L1248.18 1041.23L1242.73 1020.34L1284.59 1009.41L1279.68 990.606L1298.52 985.684L1293.06 964.796L1314 959.326L1308.54 938.438L1329.47 932.969L1324.56 914.169L1343.4 909.247L1316.66 806.893L1337.59 801.423L1316.85 722.047L1295.92 727.516L1285 685.739L1266.17 690.661L1261.25 671.862L1240.32 677.331L1234.46 658.64L1213.93 661.912L1208.47 641.023L1189.63 645.945L1184.72 627.145L1163.79 632.615C1161.92 631.523 1162.03 613.78 1155.19 612.547L1097.62 627.587L1092.71 608.787L1011.07 630.117L1005.62 609.229L965.842 619.62L960.384 598.732L941.652 604.602L944.909 625.089L944.962 624.936Z" fill="black"/>
<path d="M617.737 279.761L638.671 274.291L633.214 253.403L654.146 247.934L649.235 229.134L668.074 224.212L662.616 203.323L683.551 197.854L689.008 218.743L709.94 213.274L714.852 232.073L733.693 227.151L728.782 208.351L749.714 202.882L760.083 242.57L778.922 237.648L783.834 256.448L804.769 250.978L810.226 271.867L831.159 266.398L846.986 326.975L826.053 332.443L836.423 372.132C843.518 371.115 851.701 365.351 858.173 369.796L868.27 408.44L887.472 404.725L892.077 422.349L873.193 427.283L884.108 469.06L863.176 474.529L868.088 493.329L847.153 498.798L852.611 519.687L833.772 524.609L828.314 503.72L788.54 514.112L792.571 533.282L773.066 540.47L762.696 500.781L742.168 504.053L736.304 485.362L717.465 490.284L707.096 450.596L686.163 456.065L680.706 435.177L640.932 445.568L635.475 424.68L614.542 430.149L609.631 411.349L630.563 405.88L625.105 384.992L643.945 380.069L617.748 279.804L617.737 279.761Z" fill="white"/>
<path d="M229.557 445.891L234.468 464.691L376.813 427.501L382.27 448.389L482.75 422.137L488.207 443.026L509.142 437.556L514.054 456.356L532.893 451.434L564.547 572.587C571.642 571.57 579.825 565.806 586.297 570.252L596.394 608.895L617.328 603.426L626.879 639.981L624.557 643.935L585.831 654.053L591.288 674.941L490.809 701.193L495.721 719.993L455.947 730.385L451.035 711.585L412.309 721.703C405.465 720.469 405.58 702.727 403.711 701.635L384.872 706.557L388.902 725.727C387.529 729.386 372.8 733.281 369.801 730.717L363.939 712.026L324.166 722.418L318.708 701.529L297.776 706.998L292.864 688.198L253.091 698.59L247.633 677.702L228.423 681.744L221.241 662.283L202.402 667.205L192.033 627.516L171.1 632.985L149.816 551.52L170.748 546.051L165.836 527.251L184.675 522.329L180.645 503.16L200.152 495.971L189.783 456.283L229.557 445.891Z" fill="white"/>
<path d="M586.753 395.289C598.276 387.862 606.065 390.569 607.863 404.046C609.022 412.762 604.464 413.86 595.96 415.012C583.81 416.653 582.529 398.02 586.71 395.3L586.753 395.289Z" fill="white"/>
<path d="M614.881 517.041L635.816 511.571L630.358 490.683L649.566 486.641L656.748 506.102L675.587 501.18L681.045 522.069L701.979 516.599L706.615 534.169L685.957 540.869L691.414 561.757L712.349 556.288L717.806 577.176L738.739 571.707L743.65 590.507L682.944 606.367L678.033 587.568L657.1 593.037L646.185 551.26L625.251 556.729L614.881 517.041Z" fill="white"/>
<path d="M944.963 624.933L941.705 604.446L960.438 598.576L965.895 619.464L1005.67 609.073L1011.13 629.961L1092.76 608.631L1097.68 627.431L1155.24 612.391C1162.09 613.624 1161.97 631.367 1163.84 632.459L1184.77 626.99L1189.69 645.789L1208.53 640.867L1213.98 661.756L1234.51 658.484L1240.37 677.175L1261.31 671.706L1266.22 690.505L1285.06 685.583L1295.97 727.36L1316.91 721.891L1337.65 801.267L1316.71 806.737L1343.45 909.091L1324.61 914.013L1329.53 932.812L1308.59 938.281L1314.05 959.17L1293.12 964.64L1298.57 985.528L1279.74 990.45L1284.65 1009.25L1242.78 1020.19L1248.24 1041.08L1229.4 1046L1234.86 1066.89L1213.92 1072.36L1218.83 1091.16L1179.06 1101.55L1184.52 1122.44L1142.65 1133.38L1137.2 1112.49L1118.35 1117.41L1107.98 1077.72L1090.42 1081.99L1086.46 1079.67L1071.26 1022.56C1069.39 1021.47 1053.93 1030.25 1049.51 1024.89L1039.96 988.339L1021.12 993.261L1010.2 951.484L989.267 956.954L963.07 856.689L942.138 862.158L915.942 761.893L897.101 766.815L886.185 725.038L865.253 730.507L860.341 711.708L841.502 716.63L836.045 695.741L815.11 701.211L819.14 720.38L799.635 727.568L804.24 745.193L822.125 742.147L826.343 744.02L836.439 782.664L857.372 777.195L883.568 877.46L902.409 872.538L928.605 972.803C935.701 971.786 943.884 966.022 950.356 970.467L960.453 1009.11L979.292 1004.19L989.661 1043.88L1010.6 1038.41L1031.88 1119.87L1052.81 1114.4L1068.09 1172.89L1047.16 1178.36L1052.62 1199.25L1012.85 1209.64L1018.3 1230.53L936.662 1251.86L931.205 1230.97L870.499 1246.83L875.956 1267.72L857.117 1272.64L846.202 1230.87L825.268 1236.33L820.356 1217.54C818.487 1216.44 803.031 1225.22 798.605 1219.87L789.054 1183.32L770.215 1188.24L759.3 1146.46L778.139 1141.54L773.227 1122.74L754.388 1127.66L748.931 1106.77L727.996 1112.24L722.857 1092.57L743.527 1085.92L738.615 1067.12L717.683 1072.59L712.225 1051.7L693.015 1055.74L685.833 1036.28L666.994 1041.2L651.167 980.623L670.006 975.701L654.18 915.125L635.34 920.047L624.971 880.358L643.81 875.436L638.353 854.548L619.514 859.47L614.602 840.67L594.847 845.831L598.581 864.939L577.647 870.408L583.104 891.297L564.265 896.219L574.635 935.907L593.837 932.192L598.987 951.906L580.103 956.839L611.757 1077.99L630.596 1073.07L636.054 1093.96L677.921 1083.02L682.832 1101.82L662.162 1108.48L667.313 1128.19L688.29 1122.71L693.748 1143.6L712.587 1138.68L717.498 1157.48L698.659 1162.4L709.574 1204.17L728.414 1199.25L743.695 1257.74L762.905 1253.7L770.087 1273.16L790.615 1269.89L796.477 1288.58L815.318 1283.66L820.23 1302.46L780.456 1312.85L775.544 1294.05L756.334 1298.09L749.152 1278.63L669.607 1299.41L664.15 1278.52L603.444 1294.38L598.532 1275.58L537.826 1291.44L532.368 1270.56L511.434 1276.03L495.607 1215.45L474.675 1220.92L443.021 1099.76L463.953 1094.3L453.584 1054.61L432.652 1060.08L416.825 999.499L437.757 994.03L432.3 973.142L453.234 967.672L442.865 927.984L461.704 923.062L451.334 883.373L493.201 872.435L498.113 891.235L516.952 886.312L512.04 867.513L532.973 862.044L529.717 841.556L548.45 835.686L542.992 814.797L561.831 809.875L556.92 791.075L659.492 764.276L654.035 743.388L714.741 727.527L709.829 708.727L749.603 698.336L744.145 677.447L763.857 672.297L770.548 692.91L831.254 677.049L827.006 655.798L844.669 651.183L850.138 672.115L910.844 656.255L905.387 635.366L945.158 624.975L944.963 624.933Z" fill="white"/>
<path d="M889.363 574.75L849.59 585.142L855.047 606.03L894.821 595.639L889.363 574.75Z" fill="white"/>
<path d="M651.997 659.082C645.715 660.537 639.428 662.505 633.158 664.004L627.7 643.115L646.539 638.193C648.478 645.078 650.015 652.208 651.997 659.082C658.976 657.444 665.963 655.293 672.931 653.612L677.843 672.412L656.909 677.881C655.141 671.649 653.797 665.259 651.997 659.082Z" fill="white"/>
<path d="M1518.99 293.743C1522.25 293.743 1531.21 294.351 1539.31 299.257C1541.26 300.441 1540.88 303.332 1540.21 305.235C1537.19 313.753 1522.45 316.566 1509.68 319.197C1503.55 320.459 1497.95 319.08 1493.63 317.015C1485.06 312.924 1484.4 301.571 1484.22 292.118C1484.13 287.513 1490.68 284.437 1497.14 281.98C1512.96 275.968 1531.46 280.957 1533.03 282.977C1535.42 286.052 1526 288.882 1522.82 289.864C1522.38 290.003 1524.78 290.198 1526.65 290.904C1528.52 291.609 1529.92 293.019 1530.69 295.404C1532.45 300.892 1530.7 306.249 1528.35 309.547C1523.21 316.743 1510 318.02 1501.35 316.858C1497.02 316.277 1500.27 307.746 1500.94 303.633C1501.57 299.701 1504.62 295.957 1508.38 292.806C1510.05 291.407 1511.86 291.254 1513.51 291.681C1515.16 292.108 1516.76 293.335 1517.58 294.817C1518.41 296.298 1518.41 297.998 1517.3 299.117C1511.83 304.662 1502.29 300.627 1496.11 297.352C1495.11 296.82 1497 295.116 1499.28 294.515C1504.67 293.097 1510.89 294.428 1515.77 295.842C1517.96 296.743 1519.54 298.018 1520.39 299.536C1521.25 301.055 1521.34 302.778 1520.02 305.065" stroke="#FFEA00" stroke-width="20" stroke-linecap="round"/>
<path d="M1299.51 321.127C1299.51 321.513 1299.51 324.936 1298.85 330.381C1297.57 340.8 1277.78 340.232 1273.71 339.849C1269.14 339.419 1267.18 332.729 1265.46 327.663C1263.66 322.372 1264.09 316.257 1265.04 310.155C1266.97 297.703 1278.28 293.96 1286.03 290.76C1295.23 286.962 1305.29 290.5 1309.3 293.604C1313.42 296.785 1313.47 303.673 1313.24 310.18C1312.77 323.452 1301.17 329.234 1293.32 333.787C1290.05 335.682 1285.76 336.004 1281.48 335.076C1270.06 332.599 1277.51 312.199 1279.75 307.966C1283.45 301.011 1302.78 302.32 1316.29 304.291C1321.15 305.002 1323.72 309.617 1325.67 313.224C1326.74 315.221 1326.97 318.033 1326.49 320.763C1325.47 326.431 1321.21 329.938 1317.52 331.754C1313.83 333.571 1309.68 334.056 1305.43 333.913C1303.09 333.835 1300.55 332.443 1298.8 330.334C1295.06 325.845 1295.33 318.914 1295.96 313.748C1296.23 311.498 1297.77 310.273 1298.95 310.278C1300.13 310.282 1301.24 311.622 1302.02 313.777C1306.25 325.624 1300.54 343.224 1292.59 356.763C1291.42 358.764 1289.32 356.452 1288.86 353.977C1288.4 351.503 1288.86 348.209 1290.14 345.569C1291.43 342.929 1293.52 341.044 1295.44 339.93C1297.37 338.816 1299.05 338.531 1298.59 339.115C1296.26 342.043 1290.22 343.127 1286.26 342.83C1284.61 342.706 1284.43 340.075 1284.9 338.428C1285.36 336.781 1286.65 335.544 1288.28 335.854C1289.92 336.163 1291.85 338.058 1293 340.129C1295.17 344.066 1294.8 349.685 1293.93 354.106C1293.61 355.736 1291.12 355.126 1290.02 353.79C1287.57 350.795 1288.49 345.27 1288.94 340.282C1289.39 335.337 1292.57 331.186 1295.74 327.822C1298.51 324.883 1302.78 323.731 1306.87 323.887C1308.73 323.957 1309.76 326.084 1310.48 328.227C1313.98 338.623 1307.45 352.565 1300.25 362.521C1298.36 364.473 1296.55 365.945 1294.72 367.049C1292.89 368.153 1291.1 368.845 1288.16 368.151" stroke="#FFEA00" stroke-width="20" stroke-linecap="round"/>
<path d="M1542.82 308.165C1545.88 308.049 1552.95 308.117 1553.85 308.708C1554.28 308.986 1553.77 309.973 1552.24 310.743C1548.17 312.783 1540.7 313.605 1529.27 314.673C1512.72 316.218 1500.5 314.953 1496.52 313.482C1494.72 312.818 1493.88 311.237 1493.24 309.886C1492.6 308.536 1492.31 307.185 1492.57 305.927C1492.83 304.669 1493.64 303.544 1495.41 302.49C1499.6 299.983 1507.09 299.164 1516.41 299.112C1526.48 299.056 1537.01 303.86 1547.15 309.385C1556.79 314.634 1562.75 321.637 1566.63 326.835C1569.95 331.272 1570.56 336.537 1570.24 341.367C1569.54 351.955 1552.16 355.811 1542.39 358.251C1540.59 358.701 1539.32 358.671 1538.71 358.313C1538.1 357.955 1538.16 357.127 1539.26 356.291C1546.52 350.772 1563.49 352.277 1570.2 353.346C1575.55 354.197 1552.15 358.074 1544.68 357.768C1543.8 357.732 1543.42 356.886 1543.42 356.057C1543.42 354.087 1546.05 351.836 1549.98 349.728C1558.94 344.919 1565.98 347.329 1568.51 348.011C1569.67 348.323 1570.35 349.194 1570.64 350.2C1570.92 351.206 1570.73 352.482 1569.8 353.804C1564.78 360.984 1551.51 361.645 1544.29 362.076C1542.96 362.155 1541.99 361.788 1541.47 361.139C1540.95 360.489 1540.91 359.398 1541.64 358.696C1543.39 357.007 1547.58 357.414 1551.8 357.745C1555.83 358.062 1558.81 360.904 1560.78 364.176C1561.81 365.899 1561.84 368.29 1561.2 370.931C1559.78 376.787 1554.08 382.014 1547.27 386.467C1534.19 395.015 1521.9 393.062 1517.55 390.715C1516.67 390.236 1516.76 388.882 1516.73 387.92C1516.7 386.958 1516.89 386.06 1517.52 385.348C1520.95 381.48 1531.18 383.557 1539.58 387.024C1541.47 387.804 1542.37 389.529 1543.1 391.051C1543.84 392.573 1544.15 394.26 1543.49 396.239C1541.98 400.78 1534.94 404.51 1525.55 407.648C1516 410.833 1506.72 410.905 1499.64 410.925C1494.03 410.941 1490.68 409.277 1489.19 407.677C1488.51 406.943 1488.38 406.03 1488.65 405.249C1490.16 400.856 1501.72 401.632 1511.04 402.89C1513.18 403.178 1514.78 404.652 1516.14 406.336C1519.02 409.908 1519.26 416.21 1517.62 423.932C1515.6 433.412 1506.28 441.464 1497.84 448.626C1485.66 458.972 1477.93 459.028 1475.52 459.068C1474.55 459.085 1474.13 458.364 1474.24 457.402C1474.51 454.965 1477.52 452.162 1481.55 449.436C1485.86 446.523 1491.62 446.166 1496.86 445.982C1501.74 445.811 1505.67 447.861 1508.35 450.266C1510.83 452.491 1510.86 456.314 1510.36 459.825C1509.18 468.175 1498.48 471.263 1493.51 472.429C1492.65 472.631 1492.13 471.669 1492.46 470.675C1494.83 463.724 1508.66 461.659 1518.58 461.516C1520.72 461.485 1522.32 462.984 1523.48 464.187C1525.68 466.459 1526.02 470.204 1525.8 474.599C1525.52 479.982 1521.95 484.936 1518.29 488.654C1515.36 491.632 1512.17 492.362 1510.06 492.17C1509.03 492.076 1508.43 490.666 1508.27 489.647C1508.12 488.628 1508.51 487.704 1509.13 486.904C1510.41 485.276 1512.44 484.539 1514.31 484.192C1515.21 484.026 1516.03 484.14 1516.72 484.467C1518.11 485.128 1518.83 487.327 1519.32 490.158C1519.88 493.341 1518.69 496.907 1516.7 500.303C1512.64 507.259 1505.81 508.561 1503.44 508.979C1497.96 509.945 1511.75 501.019 1514.35 500.659C1510.03 505.771 1503.24 510.024 1497.88 511.979C1496.73 512.28 1495.76 512.451 1492.78 512.33" stroke="black" stroke-width="20" stroke-linecap="round"/>
<path d="M1311.87 339.111C1317.44 339.236 1329.18 339.995 1329.75 341.637C1331.85 347.642 1322.49 356.374 1315.1 364.343C1304.72 375.525 1295.41 382.008 1291.85 384.154C1289.01 385.868 1286.71 386.571 1285.25 386.35C1283.63 386.106 1284.31 381.601 1284.71 377.505C1285.02 374.289 1287.09 371.811 1289.37 369.54C1294.05 364.873 1304.14 365.251 1309.35 365.867C1310.17 365.965 1310.5 367.246 1310.43 368.195C1310.08 373.098 1301.71 376.328 1296.03 378.447C1294.93 378.862 1294.03 378.647 1293.47 378.131C1290.05 374.974 1296.95 364.81 1303.1 358.148C1307.48 353.388 1312.07 354.314 1313.79 354.565C1315.37 354.797 1316.39 356.648 1317.24 358.625C1319.01 362.787 1317.55 367.235 1315.74 369.836C1315.32 370.44 1314.55 370.627 1314.18 370.312C1313.15 369.427 1313.85 367.185 1314.58 365.55C1316.39 361.448 1327.77 362.229 1334.04 363.505C1335.07 363.714 1335.43 365.018 1335.62 366.164C1336.54 371.684 1326.22 378.381 1321.67 380.429C1320.1 381.138 1324.82 377.32 1327.54 376.367C1330.24 375.42 1333.89 375.353 1337.41 375.93C1338.91 376.175 1339.38 377.79 1339.58 378.896C1339.94 380.893 1338.78 382.639 1337.48 384.075C1336.18 385.501 1334.49 386.17 1333.12 386.296C1332.42 386.36 1331.78 385.493 1331.55 384.752C1331.33 384.011 1331.54 383.185 1332.1 382.346C1334.85 378.206 1341.64 377.525 1345.91 377.713C1346.94 377.758 1347.79 378.88 1347.97 380.063C1349.07 387.071 1338.28 394.918 1332.07 399.981C1329.86 401.78 1327.81 402.265 1326.86 401.853C1325.28 401.168 1328.07 398.037 1330.08 396.34C1334.63 392.493 1340.39 392.826 1344.07 393.826C1345.93 394.329 1345.83 397.834 1345.67 400.97C1345.37 406.86 1341.81 409.326 1340.77 409.8C1340.34 409.994 1340.03 408.741 1340.44 407.851C1341.4 405.764 1343.9 405.182 1345.5 405.102C1346.29 405.061 1347.06 405.2 1347.78 405.578C1349.31 406.38 1350.18 408.595 1350.55 411.39C1351.52 418.52 1342.52 426.154 1334.71 431.985C1333.71 432.73 1333.89 431.921 1334.72 431.134C1339.37 426.756 1347.76 425.861 1354.67 426.187C1356.24 426.261 1357.5 427.285 1358.56 428.428C1360.78 430.826 1361.42 434.863 1361.53 439.171C1361.65 443.623 1359.23 447.429 1356.95 450.221C1355.01 452.601 1352.51 453.455 1350.9 453.221C1350.02 453.094 1349.92 451.087 1350.23 449.42C1351.62 441.965 1359.64 438.06 1364.19 436.42C1365.14 436.08 1366.12 436.854 1366.53 437.787C1369.01 443.412 1358.79 454.529 1355.39 458.249C1350.28 463.828 1367.91 445.978 1374.21 443.481C1375.45 442.988 1376.55 442.994 1377.52 443.577C1378.48 444.159 1379.33 445.492 1379.52 447.031C1380.35 453.661 1374.56 457.704 1373.07 459.228C1372.3 460.018 1376.13 457.794 1377.79 458.467C1380.16 459.429 1378.9 463.97 1377.87 467.114C1375.88 473.135 1372.66 475.093 1372.12 475.252C1367.3 476.689 1381.89 464.708 1389.21 460.516C1394.26 457.62 1398.27 459.239 1399.83 459.925C1401.47 460.648 1401.56 463.929 1401.27 467.842C1400.9 472.648 1393.4 482.718 1385.15 493.924C1382.57 497.416 1383.78 496.808 1385.94 495.732C1395.79 490.826 1400 490.705 1401.7 490.973C1402.47 491.094 1402.85 491.847 1403.05 492.859C1403.51 495.247 1402.22 498.597 1399.78 502.312C1394.22 510.802 1386.78 511.865 1384.41 512.727C1383.37 513.103 1382.65 513.26 1382.59 512.4C1382.07 504.573 1394.26 496.518 1402.21 490.768C1405.33 488.51 1408.22 488.001 1410.02 487.928C1410.83 487.894 1411.42 488.413 1411.86 489.355C1414.63 495.301 1410.75 506.826 1404.19 521.366C1402.56 524.968 1410.48 522.784 1411.79 524.218C1413.18 525.749 1411.84 528.775 1410.61 531.458C1409.33 534.236 1406.17 536.73 1403.7 538.622C1399.92 541.505 1414.98 527.249 1418.49 525.772C1419.12 525.51 1419.67 526.553 1419.88 527.485C1420.9 531.965 1417.65 536.466 1416.57 539.004C1415.07 542.498 1424.05 536.148 1427.41 536.127C1428 536.123 1427.87 537.244 1427.68 537.955C1427.29 539.361 1426.01 540.741 1425.54 541.132C1416.74 548.546 1445.93 523.768 1447.29 523.841C1453.28 524.159 1441.11 534.815 1437.31 537.438C1436.65 537.893 1435.88 537.038 1435.71 536.127C1434.83 531.26 1439.61 527.089 1442.12 525.192C1442.67 524.782 1443.58 525.556 1443.95 526.501C1444.84 528.764 1443.45 532.263 1441.7 535.801C1439.97 539.3 1436.88 541.461 1434.19 543.083C1431.59 544.655 1428.78 544.703 1426.75 544.489C1424.99 544.304 1423.92 542.423 1423.07 540.602C1421.06 536.324 1423.65 529.608 1427.67 523.932C1429.47 521.375 1432.21 520.518 1434.16 520.519C1435.15 520.52 1435.87 521.963 1436.07 523.37C1436.52 526.446 1434.1 529.939 1431.16 533.079C1424.72 539.964 1415.33 539.536 1413.47 539.288C1412.74 539.19 1412.99 537.813 1413.49 536.652C1415.84 531.198 1420.76 529.207 1422.84 528.334C1423.78 527.941 1424.56 527.881 1424.66 528.936C1424.97 532.24 1421.45 536.336 1417.11 539.596C1412.65 542.034 1408.61 543.459 1405.41 544.114C1403.93 544.373 1402.76 544.485 1401.55 544.599" stroke="black" stroke-width="20" stroke-linecap="round"/>
<path d="M649.167 501.761C649.764 505.08 656.045 522.944 661.517 532.684C665.3 539.417 675.798 544.474 683.751 550.198C686.192 551.955 684.61 552.362 682.954 552.167C674.805 551.207 665.452 543.634 656.157 534.737C646.978 525.95 644.701 514.149 640.502 498.088C639.668 494.896 639.244 493.951 640.127 493.901C641.009 493.85 643.196 494.726 656.855 504.575C670.514 514.424 695.58 533.219 707.227 542.119C718.874 551.018 716.342 549.452 710.81 544.783C705.278 540.114 696.821 532.389 696.462 532.519C696.103 532.648 704.096 540.866 707.285 544.761C709.489 547.453 690.606 533.894 673.493 523.455C670.833 521.832 687.013 546.077 693.424 555.872C699.835 565.667 697.675 564.983 690.818 561.028C672.219 550.297 656.818 539.187 656.934 542.108C657.226 549.424 672.685 563.975 679.545 573.37C686.406 582.765 687.957 585.384 687.564 585.985C685.964 588.427 671.329 573.578 655.164 558.7C650.678 554.571 663.819 567.129 682.693 587.328C689.881 595.021 691.777 597.926 690.949 598.516C690.121 599.106 686.399 597.398 672.232 586.291C658.064 575.183 633.564 554.727 622.404 545.126C613.84 537.757 636.054 555.978 656.333 572.839C657.422 573.744 641.083 556.299 629.141 543.037C617.199 529.776 610.47 520.507 607.618 515.757C604.766 511.006 605.995 511.056 621.059 523.293C636.123 535.531 664.985 559.957 679.024 572.529C693.063 585.102 691.405 585.083 685.654 582.657C679.903 580.231 670.109 575.4 662.231 571.112C648.465 563.62 636.544 554.181 626.371 545.411C622.455 542.034 621.264 540.614 620.951 539.52C620.639 538.426 621.29 537.644 623.126 537.593C624.962 537.542 627.963 538.245 646.537 548.002C665.112 557.759 699.171 576.548 716.264 585.69C733.357 594.832 732.452 593.758 720.055 582.001C707.657 570.243 683.794 547.834 672.618 536.721C661.441 525.608 663.675 526.469 675.669 534.489C687.663 542.509 709.35 557.662 714.601 560.869C719.852 564.076 708.009 554.877 698.249 546.453C688.49 538.029 681.174 530.659 678.219 526.938C675.263 523.216 676.89 523.367 684.805 529.531C692.72 535.695 706.872 547.867 716.746 557.197C726.62 566.526 731.787 572.645 733.547 575.088C735.308 577.53 733.507 576.112 723.936 564.871C714.366 553.63 697.082 532.611 687.87 521.319C678.659 510.028 678.044 509.103 684.502 518.241C690.959 527.379 704.508 546.609 705.386 547.064C706.263 547.519 694.057 528.617 688.833 519.452C683.608 510.286 685.733 511.43 692.098 517.259C709.421 533.124 721.135 546.033 718.816 543.489C715.087 539.398 706.73 529.134 703.331 524.914C701.674 522.856 711.757 538.095 718.587 551.824C719.079 552.814 707.403 539.314 700.49 529.923C693.577 520.532 690.213 515.058 689.043 513.894C687.872 512.73 688.996 516.042 696.622 532.008C704.248 547.975 718.342 576.495 726.196 591.048C734.051 605.602 735.239 605.325 738.572 602.16C741.905 598.995 747.347 592.952 747.943 589.817C750.295 577.429 716.29 590.711 710.646 592.933C706.996 594.37 724.051 589.921 723.784 591.416C721.563 603.856 703.251 603.105 706.739 601.458C709.346 600.227 713.956 598.9 716.981 597.977C720.006 597.053 721.384 596.754 716.85 596.42C701.852 595.315 685.891 594.526 676.49 592.771C668.849 591.345 663.87 588.871 660.866 587.074C659.555 586.289 658.83 585.514 659.693 584.78C662.495 582.393 668.826 583.255 679.177 586.986C698.085 593.801 707.909 600.977 704.968 601C700.067 601.038 692.705 598.94 683.596 596.071C673.674 592.947 663.847 586.764 654.541 580.473C640.432 570.936 637.1 563.995 636.387 561.453C636.086 560.381 637.532 559.605 639.431 559.305C650.391 557.576 665.149 566.548 676.693 574.996C681.333 578.392 683.083 583.134 684.233 586.336C684.731 587.724 684.57 588.784 683.87 589.488C683.171 590.193 681.813 590.549 679.518 590.063C673.861 588.865 667.057 582.852 660.17 574.27C653.152 565.522 650.106 554.014 647.348 543.33C642.713 525.372 645.32 512.198 650.012 505.308C652.367 501.848 658.669 503.284 663.834 503.948C675.564 505.456 682.477 521.693 686.285 533.15C687.687 537.366 686.727 540.836 685.35 543.016C681.048 549.829 662.51 541.787 647.892 533.988C644.122 531.977 640.833 528.822 639.427 527.018C638.02 525.215 638.844 524.449 640.674 524.433C656.658 524.294 675.079 541.53 679.587 546.152C680.163 546.743 678.591 547.54 676.466 547.461C663.286 546.969 648.074 534.911 637.735 526.687C634.333 523.981 632.892 521.08 632.597 519.406C631.762 514.668 648.172 522.524 663.908 533.586C667.031 535.781 667.929 537.025 667.819 537.792C667.708 538.56 666.417 539.006 664.298 538.786C649.179 537.218 635.741 523.702 633.494 521.058C624.68 510.693 662.463 543.666 664.737 546.7C665.395 547.577 664.197 547.608 662.714 547.004C654.209 543.545 646.243 534.858 640.75 527.458C639.922 526.343 641.255 525.634 642.931 525.464C653.116 524.431 667.664 533.664 678.318 541.298C680.275 542.7 681.302 543.968 681.377 544.806C681.453 545.643 680.434 546.155 678.687 545.671C667.837 542.667 659.248 530.038 653.802 522.968C652.795 521.66 652.313 520.537 652.736 519.656C653.16 518.775 654.609 518.095 656.464 518.068C666.064 517.929 676.339 530.658 683.662 540.696C685.084 542.645 685.557 544.346 685.215 545.321C684.874 546.295 683.487 546.632 681.196 545.215C675.132 541.466 669.425 532.515 662.847 520.839C654.385 505.822 650.541 492.828 649.978 487.813C649.794 486.17 652.285 486.547 654.461 487.889C656.636 489.231 659.051 491.574 660.79 493.44C662.528 495.306 663.517 496.623 659.153 493.237C644.764 482.072 633.267 471.413 632.051 469.049C630.492 466.017 644.291 475.571 655.818 485.04C666.213 494.684 672.555 501.39 674.933 504.848C675.985 506.575 676.724 508.246 677.485 509.968" stroke="black" stroke-width="20" stroke-linecap="round"/>
<path d="M1566.11 914.788L1574.22 932.448L1551.28 942.975L1543.17 925.316L1517.68 937.014L1508.68 917.392L1483.19 929.089L1466.08 891.807L1443.14 902.336L1434.13 882.714L1408.64 894.411L1391.53 857.129L1366.05 868.826L1348.94 831.545L1325.99 842.073L1316.99 822.451L1339.93 811.923L1332.39 791.578L1356.41 780.603L1365.42 800.225L1390.91 788.528L1399.91 808.15L1422.85 797.621L1439.96 834.903L1465.45 823.206L1482.56 860.488L1581.97 814.867L1573.87 797.207L1596.81 786.679L1587.8 767.057L1638.78 743.662L1621.67 706.38L1644.61 695.852L1624.22 649.112L1644.22 644.112L1638.78 622.685L1659.22 619.112L1669.22 639.112L1700.52 622.685L1726.63 679.589L1703.69 690.116L1721.7 729.361L1696.22 741.058L1704.32 758.718L1678.83 770.416L1687.83 790.038L1664.89 800.566L1673 818.225L1622.02 841.621L1631.03 861.243L1608.09 871.771L1617.09 891.393L1566.11 914.788Z" fill="black"/>
<path d="M1545.85 656.841C1546.32 656.841 1550.95 656.841 1557.67 657.472C1560.79 657.764 1561.04 666.342 1560.35 676.155C1560.05 680.508 1555.43 682.707 1553.53 683.402C1551.48 682.997 1550.4 675.313 1548.94 664.835C1548.4 660.908 1548.26 659.803 1548.12 658.665" stroke="white" stroke-width="20" stroke-linecap="round"/>
<path d="M1455.11 671.553C1455.19 671.553 1461.33 671.553 1470.55 677.562C1485.88 687.546 1472.89 708.884 1470.7 710.267C1467.57 712.244 1463.5 710.333 1461.28 709.109C1460.31 708.29 1459.67 707.069 1459 702.724C1458.33 698.379 1457.65 690.946 1456.51 682.028" stroke="white" stroke-width="20" stroke-linecap="round"/>
<path d="M1419.58 804.192C1419.58 803.507 1419.74 801.129 1420.97 797.005C1421.39 795.568 1422.32 793.832 1424.35 790.75C1426.38 787.668 1429.61 783.338 1432.59 779.931C1435.56 776.523 1438.19 774.169 1442.11 771.331C1446.03 768.493 1451.15 765.242 1455.44 762.912C1459.73 760.582 1463.04 759.272 1467.34 758.049C1471.64 756.826 1476.84 755.731 1492.91 754.663C1508.99 753.594 1535.79 752.587 1551.03 752.237C1566.27 751.888 1569.14 752.226 1575.96 753.607C1582.78 754.987 1593.47 757.399 1600.3 758.773C1609.78 760.41 1613.41 760.918 1615.09 761.415C1615.89 761.676 1616.56 761.951 1617.21 762.347" stroke="black" stroke-width="20" stroke-linecap="round"/>
<path d="M1546.85 785.119C1546.85 785.051 1546.23 782.831 1545.23 779.13C1544.62 776.867 1544.67 773.328 1544.94 767.776C1545.2 764.927 1545.7 762.013 1546.03 760.251C1546.37 758.489 1546.52 757.968 1546.75 757.134" stroke="black" stroke-width="20" stroke-linecap="round"/>
<path d="M1573.75 783.567C1573.75 783.545 1573.75 783.522 1573.82 781.394C1573.89 779.266 1574.03 775.032 1574.56 771.155C1575.09 767.278 1576 763.886 1577.29 759.8" stroke="black" stroke-width="20" stroke-linecap="round"/>
<path d="M1556.05 761.68C1556.1 761.68 1556.14 761.68 1557.64 761.68C1559.15 761.68 1562.1 761.68 1563.58 761.738C1565.06 761.797 1564.97 761.915 1564.69 763.468C1564.42 765.022 1563.97 768.008 1563.72 770.221C1563.47 772.434 1563.45 773.783 1563.33 774.466C1563.2 775.148 1562.99 775.124 1562.53 775.117C1559.86 775.074 1558.13 775.376 1557.95 775.335C1557.89 775.278 1557.87 775.147 1557.82 773.321C1557.76 771.495 1557.68 767.978 1557.59 764.354" stroke="#FFEA00" stroke-width="10" stroke-linecap="round"/>
<path d="M1585.59 765.016C1585.6 765.016 1587.22 765.016 1589.64 765.203C1590.47 765.267 1590.41 765.764 1590.38 766.883C1590.36 768.003 1590.36 769.856 1589.41 770.873C1588.46 771.889 1586.56 772.013 1585.53 770.906C1584.5 769.798 1584.39 767.455 1584.34 766.311C1584.29 765.294 1584.28 765.239 1584.25 764.775C1584.23 764.496 1584.18 764.131 1585.45 763.862C1586.71 763.594 1589.27 763.434 1590.63 763.569C1591.98 763.704 1592.05 764.139 1592.38 765.537C1592.71 766.935 1593.3 769.285 1593.62 770.592C1593.99 772.091 1594.04 772.926 1593.6 773.9C1593.36 774.436 1592.14 774.288 1591.05 774.381C1589.97 774.474 1588.83 774.616 1587.9 774.69C1586.98 774.764 1586.3 774.765 1585.6 773.892C1584.9 773.019 1584.19 771.273 1583.68 769.783C1582.91 767.114 1582.54 765.633 1582.37 764.936C1582.28 764.506 1582.2 763.92 1582.12 763.315" stroke="#FFEA00" stroke-width="10" stroke-linecap="round"/>
<path d="M1515.59 763.772C1515.61 763.772 1515.63 763.772 1518.5 763.781C1521.37 763.79 1527.1 763.808 1530.16 763.821C1533.23 763.835 1533.47 763.843 1533.79 763.706" stroke="#FFEA00" stroke-width="10" stroke-linecap="round"/>
<path d="M1534.18 763.96C1534.18 763.972 1534.18 763.984 1534.22 766.143C1534.26 768.301 1534.35 772.605 1534.4 774.879C1534.46 777.264 1534.51 777.671 1534.57 778.336C1534.6 778.709 1534.62 779.153 1534.67 779.827" stroke="#FFEA00" stroke-width="10" stroke-linecap="round"/>
<path d="M1507.46 790.935C1506.94 789.381 1505.59 785.105 1505.42 775.844C1505.84 770.774 1505.99 768.129 1506.29 767.085C1506.51 766.553 1506.84 766.018 1507.55 764.897" stroke="black" stroke-width="20" stroke-linecap="round"/>
<path d="M1473.17 766.131C1473.17 766.131 1473.18 766.131 1476.16 766.128C1479.15 766.124 1485.11 766.117 1488.26 766.107C1491.4 766.097 1491.55 766.083 1492.14 765.903C1492.73 765.722 1493.77 765.375 1494.26 765.262C1494.65 765.171 1494.17 766.944 1493.53 770.095C1493.2 771.706 1493.23 773.405 1493.41 775.252C1493.58 777.1 1493.98 779.062 1494.45 780.777C1494.92 782.491 1495.44 783.899 1495.96 785.008C1497.34 787.92 1497.88 788.406 1498.05 789.014C1498.11 789.24 1497.85 789.335 1496.01 789.958C1494.17 790.58 1490.69 791.738 1488.84 792.349C1486.99 792.961 1486.87 792.993 1486.67 793.074C1486.48 793.156 1486.2 793.285 1485.84 792.043C1485.49 790.801 1485.08 788.184 1484.75 786.548C1484.42 784.912 1484.2 784.336 1483.14 782.551C1482.08 780.766 1480.19 777.788 1478.96 775.908C1477.25 773.306 1476.58 772.546 1476.21 772.188C1474.7 770.744 1473.59 769.542 1472.9 768.69C1472.54 768.245 1472.29 767.957 1472.29 767.799C1472.28 767.715 1472.52 767.712 1473.55 768.034C1474.59 768.356 1476.49 769.025 1478.54 769.88C1480.59 770.734 1482.73 771.754 1484.26 772.566C1485.78 773.377 1486.62 773.949 1487.27 774.447C1488.4 775.307 1488.96 775.938 1489.41 776.59C1490.25 777.814 1490.92 779.408 1491.53 781.161C1492.21 783.474 1492.6 784.912 1492.64 785.155C1492.66 785.289 1492.66 785.444 1492.66 785.603" stroke="#FFEA00" stroke-width="10" stroke-linecap="round"/>
<path d="M1517.65 782.989C1517.64 782.984 1517.64 782.98 1517.49 780.298C1517.33 777.615 1517.03 772.256 1516.72 766.733" stroke="#FFEA00" stroke-width="10" stroke-linecap="round"/>
<path d="M1517.73 769.925C1517.74 769.925 1517.74 769.925 1519.33 769.921C1520.91 769.917 1524.08 769.91 1525.86 769.882C1527.63 769.855 1527.92 769.809 1528.22 769.761" stroke="#FFEA00" stroke-width="10" stroke-linecap="round"/>
<path d="M1528.22 769.761C1528.22 769.768 1528.26 770.728 1528.33 772.44C1528.37 773.195 1528.39 773.722 1527.5 774.07C1526.61 774.419 1524.8 774.573 1522.92 774.722" stroke="#FFEA00" stroke-width="10" stroke-linecap="round"/>
<path d="M1462.3 769.912C1462.76 770.333 1467.33 775.587 1471.14 781.31C1473.01 786.099 1474.05 791.835 1474.36 795.676C1474.5 797.137 1474.58 797.603 1474.71 798.471" stroke="black" stroke-width="20" stroke-linecap="round"/>
<path d="M1427.26 810.263C1427.26 810.24 1427.28 809.65 1427.54 807.809C1427.72 806.538 1428.24 804.622 1429.18 801.952C1430.12 799.283 1431.52 795.929 1433.56 791.837C1435.59 787.745 1438.21 783.017 1439.79 780.286C1441.37 777.556 1441.83 776.967 1442.25 776.484C1443.01 775.616 1443.93 774.914 1444.94 774.254C1445.86 773.654 1446.54 773.465 1446.97 773.309C1447.25 773.207 1447.64 773.028 1448.8 774.321C1449.96 775.615 1451.87 778.379 1454.43 783.634C1456.99 788.889 1460.14 796.552 1461.71 800.523C1463.28 804.493 1463.17 804.54 1462.82 804.587C1461.87 804.713 1460.27 804.978 1458.35 805.528C1457.41 805.799 1456.56 806.175 1454.94 807.148C1453.31 808.122 1450.95 809.712 1448.57 811.569C1446.19 813.426 1443.88 815.5 1442.38 816.906C1440.88 818.311 1440.26 818.985 1439.7 819.543C1439.15 820.1 1438.67 820.522 1438.26 820.648C1436.9 821.066 1436.07 819.459 1434.57 817.288C1433.32 815.488 1431.33 812.119 1430.23 810.334C1429.12 808.549 1429.02 808.411 1428.99 808.138C1428.96 807.865 1429 807.462 1429.22 806.809C1429.45 806.155 1429.85 805.264 1433.55 799.447C1437.24 793.63 1444.23 782.914 1447.81 777.448C1451.4 771.981 1451.38 772.089 1450.28 774.495C1449.18 776.901 1447.01 781.602 1445.79 784.36C1444.29 787.759 1444.12 788.623 1444.19 788.815C1444.23 788.922 1444.52 788.838 1445.9 788.063C1447.28 787.288 1449.8 785.773 1451.18 785.013C1452.56 784.254 1452.72 784.298 1452.87 784.379C1453.76 784.842 1454.37 786.062 1454.55 786.732C1454.82 787.683 1453.61 789.569 1452.6 791.278C1452.36 791.695 1453.7 790.371 1455.73 788.48C1457.02 787.276 1457.74 787.136 1459.04 787.095C1459.93 787.067 1460.52 787.598 1461.21 788.334C1461.45 788.592 1461.68 788.998 1461.48 788.812C1460.57 787.931 1459.88 787.122 1459.66 787.294C1459.53 787.397 1459.41 787.597 1457.1 789.811C1454.79 792.024 1450.29 796.262 1447.7 798.637C1445.12 801.012 1444.58 801.396 1444.52 801.441C1444.46 801.485 1444.89 801.178 1446.56 800.402C1448.22 799.627 1451.1 798.392 1453.14 797.615C1455.17 796.838 1456.29 796.556 1454.82 797.869C1453.36 799.182 1449.28 802.098 1447.56 803.296C1445.83 804.493 1446.58 803.884 1447.13 803.398C1448.03 802.601 1448.39 802.125 1448.41 802.001C1448.45 801.843 1447.67 802.228 1445.67 803.414C1444.08 804.352 1441.46 806.152 1440.04 807.06C1438.62 807.968 1438.5 807.976 1438.43 807.873C1437.9 807.093 1438.49 805.428 1439.07 803.552C1439.44 802.355 1440.22 800.75 1441.07 799.147C1441.92 797.543 1442.88 796.013 1443.36 795.302C1443.85 794.592 1443.83 794.748 1442.94 797.453C1442.04 800.158 1440.26 805.408 1439.11 808.636C1437.95 811.865 1437.48 812.915 1436.98 814.055" stroke="#FFEA00" stroke-width="10" stroke-linecap="round"/>
<path d="M1534.95 780.869C1534.91 780.869 1534.88 780.869 1533.77 780.885C1532.67 780.9 1530.49 780.931 1528.12 781.151C1525.75 781.37 1523.25 781.778 1521.71 782.062C1519.68 782.495 1519.01 782.699 1518.63 782.822C1518.42 782.893 1518.17 782.983 1517.83 783.084" stroke="#FFEA00" stroke-width="10" stroke-linecap="round"/>
<path d="M1596.53 785.088C1596.51 785.088 1596.48 785.088 1591.34 785.174C1586.21 785.261 1575.95 785.433 1560.06 787.884C1544.16 790.335 1522.93 795.059 1504.97 800.758C1487 806.457 1472.94 812.988 1464.55 817.031C1456.17 821.073 1453.89 822.43 1451.94 823.4C1446.51 825.497 1445.03 826.366 1443.72 827.734C1443.21 828.289 1443.01 828.56 1442.65 829.181" stroke="black" stroke-width="20" stroke-linecap="round"/>
<path d="M1550.47 797.91C1550.47 797.989 1550.52 800.271 1551.96 809.114C1553.05 815.776 1556.12 826.614 1557.59 832.371C1559.18 838.413 1559.73 840.226 1560.46 842.709C1560.75 843.675 1560.9 844.043 1560.4 844.03" stroke="black" stroke-width="20" stroke-linecap="round"/>
<path d="M1570.14 798.208C1570.18 798.208 1571.41 798.225 1573.4 798.347C1574.19 798.453 1574.53 798.647 1575.19 799.205C1575.85 799.763 1576.82 800.68 1578.04 802.007" stroke="black" stroke-width="20" stroke-linecap="round"/>
<path d="M1561.2 802.959C1561.2 802.976 1561.24 804.946 1561.51 808.809C1561.65 810.72 1562.17 812.492 1562.53 813.75C1563.48 817.093 1564.78 818.552 1565.41 819.651C1565.54 819.863 1565.73 819.817 1565.87 819.766C1566 819.715 1566.13 819.628 1567.58 818.964C1569.03 818.3 1571.8 817.062 1573.32 816.366C1575.42 815.406 1577.04 814.727 1578.03 814.167C1578.33 813.994 1576.94 812.382 1575 810.142C1572.38 807.129 1571.48 806.21 1570.77 804.625C1570.46 803.938 1569.96 803.179 1569.35 802.44C1569.02 802.042 1567.34 802.602 1565.43 803.084C1565.04 803.183 1564.61 803.183 1564.47 803.311C1564.5 803.651 1565.66 805.849 1567.36 809.146C1568.08 810.463 1568.48 811.055 1568.99 811.992" stroke="#FFEA00" stroke-width="10" stroke-linecap="round"/>
<path d="M1531.54 803.858C1531.57 803.858 1532.14 803.847 1533.82 803.664C1534.93 803.542 1536.57 803.158 1537.55 802.948C1538.54 802.738 1538.81 802.663 1538.97 803.666C1539.12 804.669 1539.15 806.753 1539.54 809.488C1539.93 812.223 1540.69 815.545 1541.53 818.552C1542.37 821.559 1543.27 824.152 1543.82 825.832C1544.36 827.512 1544.53 828.202 1544.51 828.567C1544.47 829.333 1542.94 829.408 1542.29 829.709C1541.65 830.006 1541.11 830.213 1540.34 830.715C1540.17 830.826 1540.11 830.374 1539.64 828.43C1539.2 826.616 1538.24 823.148 1537.64 820.442C1537.03 817.736 1536.78 815.905 1536.64 814.301C1536.49 811.377 1536.51 809.829 1536.55 809.289C1536.56 808.938 1536.56 808.428 1536.56 807.903" stroke="#FFEA00" stroke-width="10" stroke-linecap="round"/>
<path d="M1522.21 805.381C1522.21 805.403 1522.24 809.99 1522.42 817.741C1522.53 822.57 1523.67 825.531 1524.95 828.171C1525.64 829.523 1526.4 830.899 1527.11 832.433C1527.82 833.967 1528.44 835.616 1529.18 837.36" stroke="black" stroke-width="20" stroke-linecap="round"/>
<path d="M1531.32 805.815C1531.34 806.157 1531.85 808.224 1533.11 810.755C1533.55 811.645 1533.87 812.593 1534.65 814.537C1535.15 815.78 1536.01 817.48 1536.93 819.101C1537.85 820.722 1538.85 822.195 1539.37 823.026C1539.89 823.857 1539.9 824 1539.97 824.432" stroke="#FFEA00" stroke-width="10" stroke-linecap="round"/>
<path d="M1501.48 812.793C1501.49 812.793 1501.82 812.681 1503.15 812.168C1505.86 811.128 1508.3 810.187 1509.52 809.871C1510.02 809.743 1510.26 809.695 1510.33 809.717C1510.74 809.87 1509.71 811.693 1509.36 814.37C1509.19 815.691 1509.24 816.957 1509.37 818.161C1509.51 819.365 1509.79 820.475 1510.77 822.76C1511.75 825.045 1513.43 828.473 1514.34 830.303C1515.24 832.134 1515.32 832.263 1515.81 833.386C1516.3 834.509 1517.21 836.621 1517.86 837.991C1518.51 839.362 1518.87 839.928 1518.76 840.34C1518.16 842.652 1514.27 842.579 1512.96 843.193C1512.53 843.392 1512.5 843.125 1512.52 842.52C1512.55 841.914 1512.6 840.916 1512.58 838.658C1512.57 836.401 1512.5 832.914 1512.44 831.049C1512.37 829.046 1511.95 827.85 1511.18 825.756C1510.42 823.671 1509.32 821.997 1508.2 820.434C1505.79 817.464 1505.37 817.04 1504.96 816.639C1504.74 816.401 1504.49 816.092 1504.2 815.704" stroke="#FFEA00" stroke-width="10" stroke-linecap="round"/>
<path d="M1489.34 809.971C1489.34 809.993 1489.48 810.778 1491.39 816.253C1493.04 820.995 1496.52 829.563 1498.42 834.749C1500.63 841.437 1501.02 844.929 1501.12 848.029C1501.17 849.186 1501.22 849.496 1501.27 849.916" stroke="black" stroke-width="20" stroke-linecap="round"/>
<path d="M1490.38 858.047C1489.42 858.052 1486.9 858.309 1486.08 858.646C1485.88 858.729 1485.61 858.824 1484.26 856.744C1482.91 854.665 1480.48 850.406 1478.76 847.512C1477.03 844.618 1476.08 843.217 1474.88 840.889C1473.67 838.562 1472.23 835.349 1471.35 833.146C1470.46 830.942 1470.16 829.845 1469.97 829.206C1469.77 828.566 1469.69 828.419 1471.12 827.556C1472.56 826.694 1475.51 825.123 1477.36 824.183C1479.21 823.243 1479.86 822.984 1480.25 822.812C1480.65 822.641 1480.76 822.565 1482.85 826.125C1484.94 829.685 1488.99 836.883 1491.51 841.51C1494.03 846.136 1494.9 847.974 1495.38 848.985C1496.04 850.454 1496.42 851.211 1496.72 851.89C1496.82 852.108 1496.98 852.399 1497.21 852.764" stroke="#FFEA00" stroke-width="10" stroke-linecap="round"/>
<path d="M1474.88 825.166C1474.9 825.444 1474.98 826.117 1475.68 827.923C1476.31 829.537 1477.6 832.526 1478.49 834.497C1479.38 836.469 1479.87 837.322 1480.93 839.332C1482 841.342 1483.64 844.483 1484.58 846.398C1485.79 848.868 1485.99 849.651 1486.21 850.159C1486.57 851.127 1486.96 852.176 1487.27 853.015C1487.42 853.42 1487.55 853.783 1487.5 853.919" stroke="#FFEA00" stroke-width="10" stroke-linecap="round"/>
<path d="M1499.43 855.732C1499.26 855.744 1496.81 856.272 1494.83 856.867C1493.55 857.252 1492.35 857.94 1491.27 858.572C1489.95 859.519 1488.92 860.323 1488.33 860.773C1488.02 860.987 1487.71 861.174 1487.35 861.288" stroke="#FFEA00" stroke-width="10" stroke-linecap="round"/>
<path d="M1471.25 474.553L1466.34 455.753L1485.18 450.831L1490.09 469.631L1511.02 464.161L1516.48 485.05L1537.41 479.581L1547.78 519.269L1566.62 514.346L1572.08 535.235L1593.01 529.766L1603.38 569.454L1624.31 563.985L1634.68 603.673L1653.52 598.751L1658.98 619.639L1640.14 624.562L1644.39 645.813L1624.67 650.919L1619.21 630.031L1598.28 635.5L1592.82 614.611L1573.98 619.534L1563.61 579.846L1542.68 585.315L1532.31 545.626L1450.67 566.957L1455.58 585.756L1436.74 590.678L1442.2 611.567L1400.33 622.506L1410.7 662.194L1391.86 667.116L1402.77 708.893L1381.84 714.362L1385.54 733.524L1365.82 738.631L1360.91 719.831L1342.07 724.754L1326.24 664.177L1345.08 659.255L1334.17 617.478L1355.1 612.009L1350.19 593.209L1371.12 587.739L1365.66 566.851L1384.5 561.929L1379.59 543.129L1421.46 532.191L1416 511.302L1434.84 506.38L1429.38 485.491L1471.25 474.553Z" fill="black"/>
<g filter="url(#filter0_d_2005_488)">
<path d="M1103.5 1233.29L1114.06 1253.74L1094.84 1263.67L1104.34 1282.07L1123.57 1272.14L1134.13 1292.59L1151.43 1283.65L1161.99 1304.1L1181.21 1294.17L1170.65 1273.72L1186.81 1265.32L1198.51 1285.23L1217.74 1275.3L1207.18 1254.86L1226.4 1244.93L1215.84 1224.48L1233.14 1215.55L1223.64 1197.15L1242.86 1187.22L1252.37 1205.62L1288.89 1186.76L1279.39 1168.36L1298.04 1157.21L1288.05 1137.98L1268.83 1147.91L1258.27 1127.46L1221.74 1146.33L1212.24 1127.93L1175.71 1146.79L1185.22 1165.19L1166 1175.12L1176.56 1195.56L1103.5 1233.29Z" fill="black"/>
</g>
<defs>
<filter id="filter0_d_2005_488" x="1054.84" y="1127.46" width="283.194" height="256.632" filterUnits="userSpaceOnUse" color-interpolation-filters="sRGB">
<feFlood flood-opacity="0" result="BackgroundImageFix"/>
<feColorMatrix in="SourceAlpha" type="matrix" values="0 0 0 0 0 0 0 0 0 0 0 0 0 0 0 0 0 0 127 0" result="hardAlpha"/>
<feOffset dy="40"/>
<feGaussianBlur stdDeviation="20"/>
<feComposite in2="hardAlpha" operator="out"/>
<feColorMatrix type="matrix" values="0 0 0 0 0 0 0 0 0 0 0 0 0 0 0 0 0 0 0.25 0"/>
<feBlend mode="normal" in2="BackgroundImageFix" result="effect1_dropShadow_2005_488"/>
<feBlend mode="normal" in="SourceGraphic" in2="effect1_dropShadow_2005_488" result="shape"/>
</filter>
</defs>
</svg>
