<svg width="574" height="415" viewBox="0 0 574 415" fill="none" xmlns="http://www.w3.org/2000/svg">
<path d="M55.9222 92.9674C67.0783 92.9674 70.797 92.9674 70.797 92.9674C70.797 96.6861 55.9222 104.124 41.0474 115.28C0.141708 141.31 -11.0144 148.748 11.2978 148.748C15.0165 145.029 52.2035 156.185 70.797 159.904C81.9531 163.623 89.3904 167.341 89.3904 174.779C93.1091 189.654 93.1091 275.184 89.3904 297.496L85.6718 312.371L107.984 327.245C119.14 330.964 137.734 342.12 148.89 349.558C174.921 360.714 241.857 397.901 256.732 405.338C267.888 416.494 275.325 416.494 279.044 409.057C282.763 405.338 286.481 401.619 286.481 397.901C293.919 390.463 312.512 379.307 353.418 356.995C372.011 349.558 394.324 334.683 401.761 330.964C405.48 327.245 424.073 316.089 438.948 308.652C453.823 301.214 468.698 290.058 472.416 290.058C479.854 282.621 479.854 275.184 472.416 275.184C468.698 275.184 468.698 267.746 468.698 241.715C468.698 223.122 464.979 204.528 464.979 200.81C464.979 197.091 464.979 193.372 476.135 189.654C483.572 185.935 487.291 182.216 491.01 182.216C491.01 178.497 498.447 174.779 502.166 174.779C509.603 171.06 524.478 163.623 535.634 156.185C543.072 148.748 554.228 145.029 557.946 145.029V141.31C557.946 137.592 557.946 137.592 561.665 137.592C569.102 141.311 576.54 133.873 572.821 126.436C572.821 122.717 569.102 122.717 565.384 122.717C561.665 126.436 554.228 126.436 539.353 115.28C517.041 104.124 517.041 104.124 528.197 104.124C535.634 100.405 543.072 100.405 543.072 92.9674C546.79 85.53 546.79 85.53 524.478 78.0927C513.322 78.0927 450.104 48.3431 427.792 33.4683C394.324 14.8748 394.324 14.8748 342.262 11.1561C286.481 7.4374 279.044 7.43739 264.169 14.8748C249.294 22.3122 245.576 22.3122 223.264 11.1561L200.951 0L163.764 22.3122C122.859 44.6244 96.8279 55.7805 59.6409 70.6552C33.61 85.53 29.8913 92.9674 55.9222 92.9674ZM74.5157 148.748C48.4848 145.029 29.8913 137.592 29.8913 133.873C29.8913 133.873 44.7661 126.436 63.3596 115.28C96.8278 92.9674 96.8278 92.9674 145.171 118.998C163.764 126.436 189.795 137.592 200.951 141.31C212.107 148.748 230.701 156.185 241.857 163.623C253.013 171.06 264.169 174.779 267.888 178.497C271.607 178.497 275.325 182.216 271.607 182.216C271.607 182.216 264.169 189.654 253.013 197.091C234.42 215.684 230.701 215.684 226.982 211.966C212.107 197.091 134.015 163.623 74.5157 148.748ZM282.763 356.995C279.044 356.995 279.044 364.432 279.044 375.588C279.044 383.026 275.325 390.463 271.607 394.182C267.888 397.901 264.169 397.901 256.732 390.463C249.294 386.745 223.264 371.87 178.639 349.558C167.483 342.12 152.608 334.683 145.171 330.964C137.734 330.964 126.577 323.527 119.14 316.089L104.265 304.933V171.06L115.421 174.779C134.015 178.497 189.795 204.528 212.107 215.684C223.264 223.122 234.42 230.559 234.42 230.559C234.42 230.559 241.857 223.122 249.294 215.684C256.732 208.247 267.888 204.528 267.888 204.528C271.607 204.528 275.325 211.966 275.325 230.559C275.325 249.153 279.044 267.746 282.763 275.184C286.481 297.496 290.2 356.995 282.763 356.995ZM435.229 293.777C424.073 301.214 409.198 312.371 401.761 316.089C394.324 319.808 375.73 334.683 353.418 342.12C334.824 353.276 312.512 364.432 308.794 368.151C290.2 379.307 286.481 379.307 290.2 371.87C297.638 368.151 297.638 316.089 293.919 290.058C293.919 278.902 290.2 271.465 286.481 215.684L282.763 185.935L301.356 200.81C308.794 208.247 319.95 215.684 319.95 215.684C323.668 215.684 331.106 219.403 338.543 230.559L349.699 245.434L372.011 237.997C383.168 234.278 405.48 226.841 424.073 215.684C438.948 208.247 453.823 204.528 453.823 204.528C457.542 204.528 457.542 223.122 457.542 245.434L461.26 282.621L435.229 293.777ZM539.353 133.873C543.072 137.592 535.634 141.311 483.572 171.06C427.792 200.81 394.324 219.403 379.449 223.122C372.011 223.122 364.574 226.841 364.574 226.841C357.137 226.841 308.794 193.372 308.794 189.654C305.075 185.935 353.418 167.341 424.073 141.31C442.667 133.873 464.979 126.436 468.698 122.717C487.291 107.842 498.447 107.842 517.041 118.998C528.197 126.436 539.353 133.873 539.353 133.873ZM327.387 26.0309C331.106 22.3122 342.262 22.3122 360.855 26.0309C383.168 26.0309 394.324 29.7496 412.917 40.9057C431.511 48.3431 457.542 63.2178 479.854 74.3739C498.447 85.53 513.322 92.9674 509.603 92.9674C505.885 92.9674 498.447 92.9674 498.447 89.2487C494.728 89.2487 472.416 81.8113 453.823 74.3739C431.511 63.2178 398.042 52.0618 375.73 44.6244C357.137 33.4683 334.824 29.7496 331.106 29.7496C327.387 29.7496 323.668 26.0309 327.387 26.0309ZM96.8279 66.9366C107.984 63.2179 130.296 52.0618 145.171 44.6244C186.077 22.3122 200.951 18.5935 215.826 22.3122C234.42 26.0309 230.701 29.7496 212.107 33.4683C204.67 33.4683 189.795 40.9057 178.639 44.6244C167.483 52.0618 145.171 63.2179 130.296 66.9366C115.421 74.3739 96.8278 81.8113 85.6718 81.8113C67.0783 81.8113 67.0783 81.8113 96.8279 66.9366Z" fill="black"/>
</svg>
