<svg width="285" height="240" viewBox="0 0 285 240" fill="none" xmlns="http://www.w3.org/2000/svg">
<path d="M24.8369 70.3997C24.4458 68.2488 24.0548 66.4889 23.6637 64.6313C22.4905 59.6451 23.1746 57.4942 27.6719 55.5388C33.1469 53.1923 38.72 51.0414 44.4883 49.4771C51.7232 47.5217 59.2514 46.153 66.584 44.6864C71.0814 43.8065 72.7433 44.6864 74.992 48.7927C75.5786 49.8682 76.0671 51.0414 76.556 52.2147C77.0448 53.3879 77.5341 54.4633 78.2185 56.0277C86.8221 55.7343 94.7411 52.8013 103.051 50.1615C103.345 47.5217 103.638 45.0775 103.736 42.6333C103.931 39.798 103.736 36.9627 104.029 34.1274C104.616 27.8702 107.549 23.4705 113.903 21.9062C123.094 19.7553 132.186 17.4089 141.376 15.4535C162.299 11.0539 183.222 6.84979 204.242 2.64572C208.544 1.7658 212.845 0.592566 217.147 0.103721C225.457 -0.776201 232.79 4.01448 235.527 11.7382C244.717 37.8426 254.103 63.8492 263.098 89.9535C268.768 106.281 273.168 122.999 275.807 140.207C276.394 143.922 276.59 147.637 277.078 151.548C284.118 157.023 284.02 165.138 284.216 172.862C284.314 176.479 282.163 179.51 278.741 181.074C274.537 183.127 270.235 185.083 265.738 186.549C245.5 193.393 224.87 199.162 203.948 203.463C184.297 207.57 164.45 211.187 144.799 215.489C132.186 218.227 119.867 222.04 107.353 225.168C94.5455 228.297 81.8357 231.914 69.517 236.803C66.5839 237.976 63.5533 238.954 60.5225 239.345C54.6564 240.225 50.5502 238.269 48.3993 232.696C43.2176 219.204 35.8847 206.69 31.5829 192.807C25.9123 174.817 19.5572 157.023 13.6912 139.131C9.19382 125.346 4.98972 111.561 0.785691 97.7751C-0.876367 92.3978 0.395072 87.1182 1.86159 82.0342C2.4482 79.8833 4.79464 77.9279 6.75 76.6569C9.38974 75.0926 12.5179 74.1149 15.4509 73.1372C18.384 72.1596 21.4149 71.2796 24.739 70.3019L24.8369 70.3997ZM17.993 122.022C18.9707 125.639 19.6552 128.67 20.6329 131.603C27.77 153.112 35.0045 174.524 42.3371 195.935C43.9014 200.433 45.5639 204.832 47.617 209.036C51.2344 216.662 54.2651 218.031 62.7709 216.271C64.3352 215.978 65.8021 215.489 67.3663 215.098C73.428 213.436 79.4894 211.676 85.5511 210.014C122.605 199.944 159.464 189.678 196.616 179.901C213.041 175.599 229.466 171.297 245.5 165.725C250.29 164.063 254.885 162.009 259.48 160.152C265.542 157.708 268.084 153.21 267.693 146.757C267.595 144.606 267.498 142.358 267.107 140.207C265.347 131.896 263.587 123.586 261.632 115.373C261.338 114.103 260.36 112.929 259.969 112.245C257.916 113.32 256.45 114.689 254.886 114.787C253.712 114.787 252.148 113.32 251.463 112.147C250.192 109.996 249.41 107.552 248.628 105.206C245.695 96.6018 242.86 87.9004 239.927 79.2967C239.34 77.5369 238.656 75.6792 238.265 73.9194C237.58 70.693 238.46 69.0309 241.98 67.4666C242.958 66.9778 244.033 66.6845 245.597 66.0001C244.424 63.5559 243.544 61.6983 242.567 59.7429C226.728 63.4581 212.258 69.2265 197.593 75.777C200.037 79.2967 202.188 82.3275 204.144 85.4562C227.608 122.217 211.183 168.951 170.12 182.15C155.65 186.745 140.986 186.647 126.516 181.954C92.2971 171.004 72.743 138.447 76.556 108.432C76.6537 107.259 76.3608 106.085 76.263 104.326C56.8071 109.898 37.6445 114.298 18.0908 122.12L17.993 122.022ZM239.047 49.966C239.047 49.3794 239.438 48.695 239.242 48.2061C235.429 37.256 231.714 26.2081 227.804 15.3557C226.435 11.5427 223.404 9.19625 219.102 9.29402C216.658 9.29402 214.116 9.88063 211.672 10.3695C190.749 14.6713 169.827 19.1687 148.905 23.4705C140.301 25.2304 131.599 26.6969 122.996 28.6523C119.769 29.4345 116.055 29.8255 113.513 32.9541C113.317 33.9318 113.024 35.2028 113.024 36.3761C112.926 40.1891 112.926 43.9043 112.828 47.7173C112.73 53.779 110.091 57.8853 104.029 59.5473C100.705 60.525 97.381 61.5027 94.0569 62.3826C69.7126 68.6399 45.368 74.7993 21.0238 81.1543C17.993 81.9365 15.0602 83.0119 12.1271 84.1852C10.1718 84.9673 9.38962 86.8249 9.68292 88.8781C10.8561 96.7974 11.1497 105.108 16.0381 112.538C18.6778 111.854 21.317 111.267 24.0545 110.485C35.2001 107.161 46.2482 103.739 57.3938 100.415C62.1845 98.9483 67.0726 97.7751 71.7654 96.0152C80.6623 92.7888 79.0002 94.4509 83.302 86.3361C91.6123 70.4975 104.616 60.0362 121.628 54.9522C142.745 48.695 162.69 51.9213 181.364 63.2626C184.003 64.8269 186.643 66.5867 189.479 68.4443C203.851 63.3603 218.027 58.3741 232.301 53.2901C234.061 52.7035 235.821 52.1169 237.58 51.3347C238.069 51.1392 238.46 50.5526 238.949 50.1615L239.047 49.966ZM205.904 121.533C205.708 118.991 205.708 116.547 205.415 114.005C205.219 112.147 204.828 110.29 204.339 108.432C197.397 80.3722 171.489 60.134 141.866 60.6228C119.086 61.0139 100.9 70.693 90.6346 91.5178C80.369 112.343 83.3025 132.776 97.2834 150.864C113.513 171.884 135.51 180.097 161.614 175.013C190.847 169.244 206.588 144.313 205.904 121.435V121.533ZM55.8292 227.417C57.1002 228.59 57.8827 230.057 58.6648 230.057C60.8157 230.057 63.0641 229.861 65.0194 229.079C81.1512 222.724 97.9673 219.009 114.588 214.316C140.301 207.081 166.503 201.997 192.705 196.815C213.431 192.709 233.669 187.332 253.907 181.27C259.285 179.608 264.564 177.652 269.844 175.599C271.799 174.817 273.559 173.448 275.221 172.471C275.221 168.658 275.612 165.236 272.582 162.303C266.227 167.582 258.991 170.613 251.463 173.057C238.656 177.261 225.751 181.368 212.747 184.985C193.389 190.265 173.738 194.86 154.38 200.042C131.6 206.201 109.015 212.752 86.3328 219.009C76.3604 221.746 66.4864 224.484 55.7319 227.319L55.8292 227.417ZM68.7346 57.592C68.6369 55.7343 66.4861 54.17 64.5307 54.5611C57.4914 55.9299 50.4524 57.3964 43.5109 59.0585C40.4801 59.7429 37.6447 61.1116 34.8094 62.3826C34.2228 62.6759 33.4407 64.0447 33.6362 64.6313C34.0273 65.609 34.8092 66.88 35.7868 67.2711C36.8623 67.6622 38.231 67.2711 39.4042 67.0756C46.9324 65.2179 54.4605 63.3603 61.9886 61.405C63.7485 60.9161 65.6064 60.4273 67.2685 59.7429C67.9529 59.4496 68.2457 58.3741 68.6368 57.7875L68.7346 57.592Z" fill="black"/>
<path d="M17.9931 122.022C37.5468 114.298 56.7094 109.898 76.1653 104.228C76.263 105.988 76.5566 107.161 76.4589 108.334C72.7437 138.349 92.1994 170.906 126.418 181.857C140.888 186.452 155.553 186.647 170.023 182.052C211.086 168.853 227.51 122.217 204.046 85.3584C202.091 82.2298 199.842 79.199 197.496 75.6793C212.259 69.031 226.728 63.3604 242.469 59.6451C243.447 61.6005 244.327 63.4581 245.5 65.9024C243.935 66.489 242.86 66.8801 241.882 67.3689C238.363 69.031 237.385 70.5953 238.167 73.8217C238.558 75.6793 239.242 77.4391 239.829 79.199C242.664 87.8026 245.597 96.5041 248.531 105.108C249.313 107.454 250.095 109.898 251.366 112.049C252.05 113.223 253.615 114.787 254.788 114.689C256.352 114.689 257.818 113.223 259.871 112.147C260.262 112.832 261.241 114.005 261.534 115.276C263.391 123.586 265.249 131.799 267.009 140.109C267.498 142.26 267.498 144.509 267.595 146.66C267.986 153.015 265.444 157.61 259.383 160.054C254.69 161.912 250.095 163.965 245.402 165.627C229.368 171.2 212.943 175.502 196.518 179.803C159.464 189.58 122.507 199.846 85.4534 209.916C79.3917 211.578 73.3303 213.338 67.2686 215C65.8021 215.391 64.2375 215.88 62.6732 216.173C54.2652 217.836 51.2345 216.565 47.5193 208.939C45.4662 204.735 43.7065 200.237 42.24 195.838C34.9074 174.426 27.77 152.917 20.5352 131.505C19.5575 128.572 18.8729 125.542 17.8953 121.924L17.9931 122.022ZM61.3043 201.508C60.2289 198.868 59.1535 196.62 58.2735 194.273C50.8432 173.546 43.5111 152.819 36.1784 132.19C35.5918 130.43 35.103 128.572 34.3208 126.91C33.5387 125.15 31.094 124.173 29.5297 124.857C27.6721 125.639 26.3039 127.106 26.4016 129.159C26.5972 131.31 27.1834 133.461 27.8678 135.514C35.4937 157.121 43.12 178.728 50.8437 200.335C51.4303 202.095 52.0167 204.05 53.0921 205.517C54.3631 207.179 55.9272 209.232 57.7848 209.916C64.9219 212.654 71.9613 211.285 78.7073 208.254C79.5873 207.863 80.2719 206.103 80.1741 205.126C80.0763 204.148 79.0006 202.681 78.0229 202.388C76.2631 201.801 74.3076 201.801 72.45 201.704C69.0282 201.704 65.6066 201.704 61.2071 201.704L61.3043 201.508Z" fill="white"/>
<path d="M239.047 49.966C239.047 49.966 238.167 50.9437 237.678 51.1392C235.918 51.8236 234.158 52.4102 232.398 53.0946C218.222 58.0808 204.046 63.1648 189.576 68.2488C186.741 66.3912 184.199 64.7291 181.462 63.0671C162.788 51.7259 142.745 48.4995 121.725 54.7567C104.714 59.8407 91.6123 70.302 83.3998 86.1406C79.098 94.2554 80.7601 92.5933 71.8632 95.8197C67.1704 97.5796 62.2823 98.7528 57.4916 100.219C46.3461 103.641 35.2979 106.965 24.1524 110.29C21.5126 111.072 18.775 111.658 16.1353 112.343C11.1491 104.912 10.9539 96.6996 9.78072 88.6826C9.48742 86.6294 10.3673 84.8696 12.2249 83.9897C15.0602 82.8164 18.0908 81.741 21.1216 80.9588C45.4658 74.7016 69.8104 68.4444 94.1547 62.1872C97.4788 61.3072 100.802 60.3295 104.127 59.3518C110.09 57.6898 112.828 53.4857 112.926 47.5218C112.926 43.7088 112.926 39.9936 113.122 36.1806C113.122 34.9096 113.513 33.7363 113.61 32.7586C116.25 29.63 119.867 29.239 123.094 28.4568C131.697 26.5014 140.399 25.0349 149.002 23.275C169.925 18.9732 190.847 14.4758 211.769 10.174C214.214 9.68514 216.756 9.19629 219.2 9.09852C223.502 9.00075 226.435 11.3472 227.901 15.1602C231.91 26.1103 235.625 37.0605 239.34 48.0106C239.536 48.4995 239.242 49.1839 239.144 49.7705L239.047 49.966ZM226.142 36.6694C225.164 32.4653 224.089 26.8925 222.524 21.4174C221.155 16.3334 218.613 14.7691 213.529 15.1602C212.258 15.1602 211.085 15.5513 209.814 15.7468C200.819 17.4089 191.922 19.071 182.928 20.8308C179.897 21.4174 176.768 22.1996 173.835 23.275C171.293 24.155 169.632 26.7947 170.512 29.239C173.249 37.256 176.084 45.2731 179.115 53.1924C180.288 56.2232 182.928 57.2987 185.958 57.0054C187.523 56.8098 189.087 56.6143 190.554 56.0277C200.917 52.2147 211.183 48.4017 221.448 44.5887C224.381 43.5132 225.848 41.1668 226.044 36.6694H226.142Z" fill="white"/>
<path d="M205.903 121.533C206.588 144.411 190.847 169.342 161.614 175.11C135.608 180.194 113.513 171.982 97.2832 150.961C83.3024 132.874 80.3688 112.44 90.6345 91.6156C100.9 70.7908 119.085 61.1117 141.865 60.7206C171.391 60.2317 197.397 80.4699 204.339 108.53C204.828 110.387 205.219 112.245 205.415 114.103C205.708 116.645 205.708 119.089 205.903 121.631V121.533ZM95.132 115.374C95.3275 138.349 110.286 158.979 131.893 166.311C157.019 174.719 183.319 161.912 192.118 136.883C201.504 110.29 187.23 79.3945 160.832 69.422C151.936 66.0979 142.745 64.5336 133.164 66.7823C110.286 71.964 94.9365 91.5179 95.132 115.374Z" fill="white"/>
<path d="M55.8293 227.417C66.5838 224.484 76.5562 221.844 86.4308 219.106C109.113 212.751 131.698 206.201 154.478 200.139C173.836 194.86 193.487 190.362 212.845 185.083C225.848 181.563 238.754 177.359 251.561 173.155C258.992 170.711 266.227 167.68 272.68 162.4C275.71 165.236 275.221 168.658 275.319 172.568C273.559 173.546 271.897 174.915 269.942 175.697C264.662 177.75 259.383 179.706 254.006 181.368C233.865 187.429 213.529 192.807 192.803 196.913C166.601 202.095 140.399 207.081 114.686 214.414C98.0654 219.106 81.1514 222.822 65.1174 229.177C63.1621 229.959 60.9138 230.154 58.7629 230.154C57.9807 230.154 57.1982 228.786 55.9272 227.515L55.8293 227.417Z" fill="white"/>
<path d="M68.7347 57.592C68.4414 58.0808 68.0507 59.2541 67.3664 59.5474C65.7043 60.3295 63.8463 60.8184 62.0865 61.2095C54.5584 63.1648 47.0302 65.0224 39.5021 66.8801C38.3289 67.1734 36.9602 67.4667 35.8847 67.0756C34.907 66.6845 34.1252 65.5113 33.7341 64.4358C33.5386 63.8492 34.2229 62.4805 34.9073 62.1871C37.7426 60.9161 40.5774 59.6451 43.6082 58.863C50.5497 57.2009 57.5893 55.8322 64.6286 54.3656C66.5839 53.9745 68.7348 55.5388 68.8325 57.3965L68.7347 57.592Z" fill="white"/>
<path d="M61.3046 201.508C65.7042 201.508 69.1263 201.508 72.5482 201.508C74.4058 201.508 76.3612 201.508 78.1211 202.192C79.0987 202.486 80.0761 203.952 80.2717 204.93C80.3694 205.908 79.6854 207.667 78.8055 208.059C72.0595 211.089 65.0201 212.458 57.883 209.721C56.0254 209.036 54.4613 207.081 53.1903 205.321C52.1149 203.854 51.5278 201.899 50.9412 200.139C43.3153 178.532 35.5919 156.925 27.966 135.318C27.2816 133.265 26.597 131.114 26.4992 128.963C26.3037 126.91 27.7703 125.444 29.6279 124.662C31.1922 123.977 33.6363 124.955 34.4184 126.715C35.2005 128.377 35.5916 130.234 36.276 131.994C43.6086 152.721 50.9413 173.448 58.3717 194.078C59.1539 196.424 60.327 198.673 61.4025 201.312L61.3046 201.508Z" fill="black"/>
<path d="M226.142 36.6694C225.946 41.1668 224.479 43.4155 221.546 44.5887C211.281 48.4995 200.918 52.3125 190.652 56.0277C189.185 56.5165 187.621 56.8098 186.057 57.0054C182.928 57.2987 180.288 56.2232 179.213 53.1924C176.182 45.2731 173.347 37.256 170.61 29.239C169.827 26.7947 171.391 24.155 173.933 23.275C176.866 22.2974 179.995 21.5152 183.026 20.8308C191.923 19.071 200.917 17.4089 209.912 15.7468C211.183 15.5513 212.356 15.258 213.627 15.1602C218.711 14.7691 221.155 16.3334 222.622 21.4174C224.088 26.8925 225.262 32.3676 226.24 36.6694H226.142ZM214.116 25.3282C206.588 25.0349 186.546 29.1412 180.777 32.0743C182.537 37.1583 183.417 42.7311 187.425 47.6196C197.202 43.8066 206.784 40.1891 216.952 36.2783C215.974 32.2698 215.094 28.6523 214.214 25.3282H214.116Z" fill="black"/>
<path d="M95.1325 115.373C94.9369 91.5178 110.287 71.964 133.164 66.7822C142.746 64.6313 151.936 66.0978 160.833 69.422C187.23 79.2967 201.504 110.289 192.118 136.883C183.319 161.814 157.02 174.719 131.893 166.311C110.287 159.076 95.328 138.349 95.1325 115.373ZM113.024 108.432C113.024 107.063 113.317 104.423 112.926 102.077C112.731 100.904 111.167 99.2416 109.993 99.046C108.82 98.7527 106.669 99.6326 105.985 100.61C104.909 102.37 104.225 104.619 103.932 106.672C102.759 116.547 104.518 126.03 108.625 135.025C113.611 145.975 122.312 152.623 133.653 156.143C136.195 156.925 138.444 155.948 139.226 153.992C140.106 151.939 139.323 149.788 137.075 148.419C135.217 147.344 133.164 146.464 131.209 145.584C122.996 141.869 117.912 135.514 115.175 127.008C113.317 121.337 112.34 115.471 113.122 108.334L113.024 108.432ZM156.042 151.646C155.749 149.495 152.816 147.931 150.274 148.517C148.416 149.006 147.047 150.766 147.243 152.526C147.439 155.068 149.882 156.828 152.424 156.241C154.575 155.752 156.335 153.601 156.042 151.646Z" fill="black"/>
<path d="M214.116 25.3281C214.996 28.75 215.876 32.2697 216.854 36.2782C206.784 40.189 197.202 43.8065 187.328 47.6195C183.417 42.731 182.537 37.1582 180.679 32.0742C186.448 29.0433 206.491 24.937 214.019 25.3281H214.116Z" fill="white"/>
<path d="M113.024 108.432C112.34 115.569 113.317 121.337 115.077 127.106C117.814 135.612 122.898 141.967 131.111 145.682C133.066 146.562 135.12 147.442 136.977 148.517C139.324 149.886 140.008 152.037 139.128 154.09C138.248 156.045 136.097 157.023 133.555 156.241C122.214 152.721 113.513 146.073 108.526 135.123C104.42 126.128 102.758 116.645 103.834 106.77C104.127 104.619 104.713 102.468 105.887 100.708C106.571 99.7305 108.624 98.8505 109.895 99.1438C111.069 99.3394 112.633 101.001 112.828 102.175C113.317 104.619 112.926 107.161 112.926 108.53L113.024 108.432Z" fill="white"/>
<path d="M156.042 151.646C156.335 153.601 154.575 155.752 152.424 156.241C149.882 156.828 147.439 155.068 147.243 152.526C147.047 150.766 148.416 149.006 150.274 148.517C152.816 147.931 155.651 149.495 156.042 151.646Z" fill="white"/>
</svg>
