<svg width="1244" height="759" viewBox="0 0 1244 759" fill="none" xmlns="http://www.w3.org/2000/svg">
<path d="M5.25903 699.115C1.54033 695.396 -2.17836 721.427 1.54033 728.865C5.25903 743.739 38.7273 747.458 139.132 751.177C224.662 754.896 269.287 754.896 273.005 758.614H306.474C365.973 754.896 421.753 754.896 447.784 758.614C462.659 758.614 503.564 758.614 540.751 754.896C574.22 754.896 659.75 751.177 726.686 751.177C801.06 751.177 867.997 751.177 905.184 747.458C1001.87 740.021 1210.12 740.021 1228.71 751.177C1232.43 751.177 1239.87 754.896 1239.87 751.177C1239.87 751.177 1239.87 740.021 1243.59 725.146V699.115L1221.27 680.522C1210.12 669.365 1187.8 650.772 1172.93 639.616C1154.34 628.46 1132.02 613.585 1120.87 606.148C1113.43 598.71 1102.27 587.554 1098.56 587.554C1079.96 572.679 1039.06 542.93 1031.62 535.492C1027.9 531.774 1016.74 524.336 1009.31 516.899C1001.87 509.461 994.432 505.743 994.432 502.024C990.714 502.024 979.558 494.587 964.683 483.431C953.527 475.993 934.933 461.118 927.496 453.681C912.621 438.806 912.621 438.806 916.34 416.494C916.34 401.619 920.059 375.588 920.059 356.995C923.777 290.058 934.933 215.684 960.964 118.998C964.683 89.2487 972.12 59.4992 972.12 48.3431C972.12 7.4374 949.808 0 830.81 7.43739H745.28C726.686 3.7187 503.564 0 455.221 0C436.628 0 392.004 0 358.535 3.7187H276.724C265.568 0 261.849 0 250.693 7.43739C239.537 18.5935 239.537 22.3122 235.818 66.9365C232.1 104.124 235.818 145.029 261.849 293.777C269.287 334.683 276.724 390.463 276.724 420.213C280.443 468.556 276.724 475.993 273.005 483.431C243.256 520.618 202.35 561.523 180.038 580.117C165.163 591.273 146.57 609.866 139.132 617.304C120.539 632.179 83.3517 658.209 53.6021 676.803C23.8525 691.678 8.97773 699.115 5.25903 699.115ZM1224.99 706.552C1228.71 706.552 1232.43 710.271 1228.71 717.709V728.865H1087.4C994.432 728.865 934.933 732.583 912.621 736.302C890.309 736.302 827.091 740.021 737.842 740.021C656.031 740.021 518.439 743.739 425.472 743.739C328.786 743.739 235.818 743.739 213.506 740.021H109.383C42.446 736.302 16.4151 732.583 20.1338 721.427C20.1338 713.99 23.8525 713.99 42.446 713.99C61.0395 713.99 220.943 717.709 332.504 725.146C451.503 728.865 451.503 728.865 540.751 725.146C581.657 721.427 659.75 717.709 715.53 717.709C767.592 713.99 849.403 710.271 901.465 710.271C1009.31 702.834 1091.12 702.834 1169.21 706.552C1195.24 706.552 1224.99 706.552 1224.99 706.552ZM276.724 304.933C273.005 275.184 265.568 241.715 261.849 230.559C246.974 133.873 239.537 40.9057 250.693 29.7496C254.412 29.7496 254.412 22.3122 254.412 22.3122C254.412 14.8748 265.568 14.8748 328.786 14.8748C365.973 14.8748 414.316 14.8748 436.628 11.1561C458.94 7.43739 477.534 11.1561 488.69 11.1561C499.846 14.8748 570.501 18.5935 715.53 18.5935C834.529 18.5935 931.215 18.5935 938.652 22.3122C968.402 26.0309 968.402 33.4683 942.371 145.029C927.496 200.81 916.34 271.465 912.621 308.652C912.621 319.808 908.902 338.401 908.902 345.839C905.184 386.745 901.465 446.244 905.184 449.962C908.902 453.681 908.902 453.681 901.465 461.118C894.028 464.837 864.278 464.837 760.155 464.837C685.781 464.837 607.688 464.837 589.095 461.118C522.158 457.4 392.004 453.681 339.942 457.4L295.317 461.118L291.599 431.369C287.88 416.494 284.161 394.182 287.88 383.026C287.88 371.87 280.443 334.683 276.724 304.933ZM90.7891 669.365C131.695 643.335 180.038 598.71 273.005 502.024C284.161 490.868 291.599 483.431 291.599 479.712C291.599 475.993 295.317 472.275 299.036 472.275C313.911 468.556 544.47 468.556 563.064 472.275C574.22 475.993 637.438 475.993 734.124 475.993C856.841 475.993 890.309 475.993 905.184 472.275L923.777 468.556L968.402 502.024C990.714 520.618 1020.46 539.211 1024.18 546.648C1031.62 554.086 1050.21 565.242 1061.37 576.398C1072.53 583.835 1083.68 591.273 1083.68 594.992C1087.4 594.992 1087.4 598.71 1091.12 598.71C1091.12 598.71 1102.27 602.429 1113.43 613.585C1124.59 621.022 1146.9 639.616 1165.49 650.772C1180.37 661.928 1202.68 676.803 1206.4 680.522L1221.27 695.396H1161.77C1139.46 691.678 871.716 695.396 856.841 695.396C849.403 695.396 823.372 699.115 801.06 699.115C778.748 702.834 737.842 702.834 708.093 702.834C678.343 702.834 641.156 706.552 626.281 706.552C555.626 717.708 273.005 713.99 183.757 706.552C165.163 702.834 124.257 702.834 90.7891 702.834C57.3208 702.834 35.0086 699.115 38.7273 699.115C42.446 695.396 49.8834 691.678 57.3208 684.24C64.7582 680.522 79.633 673.084 90.7891 669.365Z" fill="black"/>
<path d="M258.13 606.148C265.567 602.429 276.723 602.429 287.879 602.429C295.317 602.429 392.003 602.429 499.845 606.148C607.687 606.148 696.936 609.866 696.936 609.866H827.091C938.651 609.866 957.245 609.866 972.12 602.429C1005.59 591.273 1005.59 587.554 953.526 535.493L908.902 490.868L812.216 494.587C760.154 498.306 693.217 498.306 663.468 498.306C633.718 498.306 548.188 498.306 470.096 494.587H325.066L321.348 505.743C306.473 524.336 291.598 542.93 265.567 568.961C235.818 598.71 235.818 609.866 258.13 606.148ZM380.847 576.398C377.128 591.273 377.128 591.273 358.535 591.273L336.223 594.992L339.941 580.117C339.941 576.398 343.66 568.961 343.66 568.961C343.66 565.242 354.816 565.242 365.972 565.242H384.566L380.847 576.398ZM429.19 580.117C425.471 591.273 425.471 594.992 406.878 594.992C388.284 594.992 388.284 591.273 395.722 576.398C399.44 568.961 399.44 568.961 418.034 568.961H432.909L429.19 580.117ZM410.596 542.93C418.034 535.493 421.753 531.774 432.909 535.493C447.783 539.211 447.783 539.211 444.065 550.367C440.346 554.086 436.627 557.805 425.471 557.805C406.878 557.805 403.159 550.367 410.596 542.93ZM470.096 580.117C470.096 594.992 470.096 594.992 455.221 594.992C436.627 598.71 436.627 594.992 444.065 580.117C447.783 568.961 447.783 568.961 458.94 568.961C473.814 568.961 473.814 568.961 470.096 580.117ZM466.377 554.086C458.94 554.086 455.221 554.086 455.221 554.086C455.221 554.086 455.221 546.649 455.221 542.93C462.658 528.055 488.689 531.774 484.97 546.649C481.252 554.086 481.252 554.086 466.377 554.086ZM525.876 580.117C525.876 583.836 522.157 591.273 522.157 591.273C522.157 591.273 514.72 594.992 503.564 594.992C484.97 594.992 484.97 594.992 484.97 587.554C484.97 568.961 484.97 568.961 507.283 568.961H529.595L525.876 580.117ZM496.126 542.93C499.845 539.211 503.564 539.211 518.439 539.211C533.314 539.211 537.032 539.211 533.313 542.93C533.313 546.649 533.313 550.367 533.313 550.367C533.313 554.086 522.157 554.086 514.72 554.086C492.408 554.086 492.408 554.086 496.126 542.93ZM548.188 594.992C529.595 591.273 529.595 591.273 533.313 583.836C537.032 568.961 537.032 568.961 563.063 565.242C585.375 565.242 585.375 565.242 585.375 572.68C585.375 580.117 585.375 583.836 589.094 587.554C592.813 587.554 592.813 583.836 592.813 576.398C596.531 565.242 596.531 565.242 607.687 565.242C626.281 565.242 630 565.242 633.718 580.117C637.437 587.554 641.156 591.273 644.874 591.273C648.593 594.992 652.312 591.273 648.593 587.554C648.593 583.836 644.874 576.398 644.874 572.68C644.874 565.242 648.593 565.242 663.468 565.242C674.624 565.242 682.061 568.961 682.061 568.961C682.061 568.961 685.78 576.398 685.78 583.836L689.499 594.992H548.188ZM544.47 554.086C544.47 550.367 544.47 546.649 548.188 542.93C548.188 535.493 551.907 535.493 566.782 535.493C585.375 535.493 589.094 535.493 589.094 542.93C589.094 550.367 585.375 550.367 566.782 554.086C555.626 554.086 544.47 554.086 544.47 554.086ZM596.531 542.93C596.531 535.493 596.531 535.493 611.406 535.493C626.281 535.493 630 535.493 630 542.93C630 550.367 626.281 554.086 611.406 554.086C596.531 554.086 596.531 550.367 596.531 542.93ZM641.156 542.93C641.156 535.493 641.156 535.493 659.749 535.493C670.905 535.493 678.343 535.493 678.343 539.211C682.061 550.367 678.343 554.086 659.749 554.086C641.156 550.367 641.156 550.367 641.156 542.93ZM693.217 550.367C689.499 539.211 689.499 539.211 704.374 539.211C715.53 539.211 722.967 542.93 722.967 554.086C722.967 557.805 696.936 557.805 693.217 550.367ZM719.248 598.71C700.655 598.71 696.936 594.992 696.936 591.273V576.398C693.217 568.961 696.936 568.961 708.092 568.961C722.967 568.961 726.686 568.961 730.404 583.836L737.842 598.71H719.248ZM756.435 546.649C760.154 554.086 760.154 557.805 748.998 557.805C734.123 557.805 730.404 554.086 730.404 546.649C726.686 531.774 748.998 531.774 756.435 546.649ZM771.31 602.429C752.717 602.429 748.998 594.992 741.56 576.398C737.842 568.961 741.561 568.961 752.717 568.961C767.591 568.961 767.591 568.961 782.466 598.71C786.185 598.71 778.747 602.429 771.31 602.429ZM782.466 539.211C797.341 539.211 804.778 539.211 808.497 542.93C812.216 546.649 815.934 550.367 815.934 554.086C815.934 554.086 804.778 557.805 793.622 557.805C775.029 557.805 775.029 554.086 771.31 546.649C767.591 539.211 767.591 539.211 782.466 539.211ZM920.058 539.211C923.777 539.211 923.777 535.493 927.495 535.493C927.495 531.774 938.651 539.211 949.808 550.367C960.964 565.242 975.838 572.68 975.838 572.68C979.557 572.68 983.276 576.398 983.276 580.117C983.276 587.554 968.401 591.273 942.37 594.992C916.339 598.71 864.277 598.71 827.091 598.71L797.341 594.992L789.904 580.117L778.747 568.961H801.06C819.653 568.961 823.372 568.961 834.528 580.117C849.403 594.992 856.84 594.992 845.684 580.117C841.965 576.398 841.965 568.961 841.965 568.961C841.965 568.961 849.403 568.961 860.559 568.961C871.715 568.961 882.871 568.961 882.871 568.961C882.871 572.68 886.59 576.398 890.308 580.117C897.746 587.554 901.464 587.554 905.183 580.117V572.68C905.183 568.961 908.902 568.961 912.621 568.961C920.058 568.961 923.777 572.68 927.495 580.117C931.214 587.554 934.933 594.992 934.933 594.992C942.37 594.992 946.089 587.554 938.651 576.398C938.651 572.68 934.933 565.242 934.933 561.523C934.933 557.805 934.933 557.805 931.214 554.086C920.058 554.086 912.621 539.211 920.058 539.211ZM815.934 535.493L838.247 539.211C853.121 539.211 856.84 539.211 860.559 546.649C867.996 554.086 867.996 557.805 849.403 557.805C830.809 557.805 827.091 554.086 823.372 546.649L815.934 535.493ZM912.621 513.18C916.339 516.899 920.058 524.336 916.339 524.336C912.621 528.055 905.183 520.618 901.464 516.899C897.746 505.743 901.465 505.743 912.621 513.18ZM901.464 542.93C908.902 546.649 912.621 550.367 912.621 554.086C912.621 554.086 905.183 557.805 897.746 557.805C882.871 557.805 879.152 554.086 875.434 546.649L864.278 535.493H879.152C890.308 535.493 897.746 535.493 901.464 542.93ZM867.996 509.462C882.871 509.462 886.59 509.462 886.59 516.899C890.308 524.336 860.559 524.336 856.84 513.18C849.403 505.743 853.121 505.743 867.996 509.462ZM656.031 509.462C834.528 509.462 841.965 509.462 845.684 516.899C845.684 520.618 845.684 524.336 827.091 524.336C815.934 524.336 804.778 520.618 804.778 520.618C801.06 513.18 793.622 513.18 793.622 520.618C793.622 524.336 782.466 524.336 745.279 524.336C722.967 524.336 678.343 520.618 648.593 520.618C607.687 520.618 596.531 520.618 596.531 516.899C592.813 513.18 592.813 513.18 589.094 516.899C581.657 524.336 555.626 524.336 551.907 516.899C548.188 509.462 548.188 509.462 544.47 516.899C540.751 520.618 533.313 524.336 522.157 524.336C503.564 528.055 503.564 528.055 499.845 516.899C499.845 509.462 499.845 509.462 492.408 516.899C484.97 524.336 470.096 524.336 470.096 516.899C470.096 509.462 473.814 509.462 656.031 509.462ZM369.691 516.899C369.691 513.18 373.409 509.462 373.409 509.462C373.409 509.462 392.003 509.462 418.034 509.462C466.377 509.462 466.377 509.462 458.94 516.899C451.502 524.336 421.753 524.336 418.034 516.899C418.034 513.18 414.315 513.18 410.596 516.899C403.159 520.618 392.003 524.336 384.566 524.336C369.691 524.336 365.972 520.618 369.691 516.899ZM377.128 535.493C399.44 535.493 399.44 535.493 399.44 542.93C395.722 550.367 392.003 550.367 373.409 550.367C354.816 554.086 351.097 550.367 354.816 546.649C354.816 542.93 358.535 539.211 358.535 535.493C358.535 535.493 365.972 535.493 377.128 535.493ZM328.785 513.18C339.941 505.743 358.535 505.743 354.816 513.18C354.816 520.618 336.223 528.055 325.066 524.336C317.629 520.618 317.629 520.618 328.785 513.18ZM328.785 535.493C343.66 535.493 347.379 535.493 343.66 539.211V550.367C343.66 550.367 332.504 554.086 321.348 554.086C291.598 554.086 295.317 539.211 328.785 535.493ZM276.723 576.398C287.879 565.242 295.317 565.242 302.754 565.242C325.066 565.242 336.223 565.242 332.504 572.68C321.348 591.273 317.629 591.273 291.598 591.273L261.849 587.554L276.723 576.398Z" fill="black"/>
<path d="M719.249 650.772C711.812 647.053 696.937 639.616 689.499 632.178C678.343 621.022 670.906 621.022 670.906 628.46C670.906 628.46 637.438 628.46 577.938 628.46C473.815 628.46 481.252 624.741 466.378 650.772C462.659 658.209 458.94 669.365 451.503 676.803C447.784 680.521 444.065 687.959 447.784 687.959C447.784 691.677 711.812 691.677 730.405 687.959C752.717 684.24 748.999 669.365 719.249 650.772ZM570.501 680.521L462.659 676.803L473.815 658.209L484.971 643.334L514.721 639.616H611.407L682.062 643.334L704.374 658.209C715.53 665.646 722.968 673.084 722.968 673.084C719.249 680.521 670.906 680.521 570.501 680.521Z" fill="black"/>
<path d="M317.629 442.525C317.629 446.243 406.878 449.962 436.627 442.525C447.783 442.525 481.252 438.806 511.001 442.525C581.656 442.525 637.437 442.525 682.061 438.806C704.374 438.806 741.56 438.806 763.873 442.525H823.372C838.247 438.806 838.247 438.806 841.965 423.931C845.684 416.494 849.403 401.619 853.121 394.182C860.559 371.869 867.996 334.683 875.434 290.058C886.59 223.122 890.308 200.809 916.339 115.279C923.777 89.2485 923.777 89.2485 912.621 66.9363L905.183 48.3429L871.715 52.0616C853.121 52.0616 804.778 52.0616 760.154 48.3429C715.53 44.6242 674.624 44.6242 667.187 44.6242C644.874 48.3429 503.564 52.0616 492.408 48.3429H414.315C380.847 48.3429 339.941 44.6242 328.785 40.9055C306.473 37.1868 302.754 37.1868 295.317 48.3429C287.879 52.0616 280.442 59.4989 280.442 66.9363C276.723 85.5298 276.723 174.779 280.442 193.372C291.598 234.278 299.036 290.058 302.754 330.964C310.192 379.307 317.629 438.806 317.629 442.525ZM295.317 66.9363L302.754 52.0616L325.066 55.7803C395.722 63.2176 622.562 63.2176 667.187 59.4989C678.343 55.7803 700.655 55.7803 715.53 59.4989C734.123 59.4989 860.559 66.9363 894.027 66.9363C897.746 66.9363 901.464 70.655 901.464 74.3737C908.902 89.2485 905.183 107.842 894.027 152.466C882.871 189.653 875.434 219.403 864.277 278.902C856.84 334.683 845.684 383.026 834.528 409.056L827.091 427.65H726.686C670.905 427.65 615.125 427.65 600.25 431.369H518.439C488.689 427.65 432.909 431.369 395.722 431.369L328.785 435.087L325.066 423.931C325.066 420.213 321.348 394.182 321.348 364.432C317.629 316.089 310.192 290.058 295.317 200.809C287.879 159.904 287.879 85.5298 295.317 66.9363Z" fill="black"/>
</svg>
