<svg width="455" height="388" viewBox="0 0 455 388" fill="none" xmlns="http://www.w3.org/2000/svg">
<path d="M54.1865 73.0985C54.0665 72.9785 51.1865 72.9085 50.7465 73.0385C49.9065 73.2885 50.1665 78.8585 45.1965 77.1085C46.6265 70.8085 42.1265 74.2784 40.6265 72.1784C39.8565 71.1084 39.8565 56.1184 40.6265 55.0484C41.6565 53.6084 44.8165 54.4384 45.1665 54.0884C45.6365 53.6284 44.8465 50.4985 45.1865 50.1085C45.5665 49.6885 53.7665 50.5484 54.1965 50.1184C54.6265 49.6884 53.7665 41.4984 54.1865 41.1184C54.5665 40.7684 57.6965 41.5585 58.1665 41.0985C58.5165 40.7485 57.6865 37.5884 59.1265 36.5584C60.9265 35.2784 66.1765 36.8384 67.0665 35.9884C67.4865 35.5984 67.0665 33.3185 68.1365 32.5785C69.2065 31.8385 71.6466 32.4785 72.0966 32.0385C72.5466 31.5985 71.9265 29.1585 72.6365 28.0985C74.1865 25.7785 83.8865 28.1085 85.0565 26.9985C85.4765 26.5985 85.0565 24.3284 86.1265 23.5884C87.1965 22.8484 89.6366 23.4884 90.0866 23.0484C90.5666 22.5784 89.7165 19.5785 91.1065 18.5785C92.7765 17.3785 98.7265 18.6385 99.1765 18.1585C99.5265 17.7885 98.8165 14.5084 99.1665 14.1484C100.387 12.8584 129.457 15.1285 134.587 14.2185C135.857 13.9885 134.137 9.15845 137.647 9.15845C140.897 8.86845 139.757 13.6684 140.187 14.1184C140.747 14.7084 155.007 14.4985 156.577 14.2185C157.667 14.0285 156.327 7.91846 160.627 9.16846C162.557 9.72846 161.797 13.6084 162.237 14.0484C162.737 14.5484 165.697 13.6885 166.707 15.0785C167.907 16.7485 166.637 22.6584 167.127 23.1484C167.537 23.5584 172.827 22.6585 174.517 23.2585C176.467 23.9585 175.767 26.5385 176.257 26.9985C177.167 27.8485 182.397 26.2785 184.197 27.5685C185.637 28.5985 184.807 31.7585 185.157 32.1085C185.617 32.5685 188.777 31.7785 189.137 32.1285C189.497 32.4785 188.777 35.7784 189.117 36.1484C189.567 36.6284 195.527 35.3685 197.187 36.5685C198.587 37.5785 197.727 40.5785 198.207 41.0385C198.657 41.4785 201.037 40.8084 202.157 41.5884C203.107 42.2584 202.747 44.2385 203.377 44.8585C204.007 45.4785 205.987 45.1185 206.647 46.0785C207.427 47.1985 206.767 49.5784 207.197 50.0285C207.667 50.5084 210.667 49.6584 211.667 51.0484C212.857 52.7084 211.607 58.6884 212.087 59.1184C212.467 59.4684 215.597 58.6684 216.057 59.1484C216.347 59.4384 215.837 61.9984 216.547 63.1784C217.437 64.6584 219.917 62.8284 220.617 64.0184C221.767 65.9684 220.617 71.6685 221.087 72.1085C221.227 72.2485 224.937 72.2585 225.077 72.1085C225.427 71.7585 224.737 68.4185 225.077 68.0985C225.427 67.7585 228.597 68.5385 229.057 68.0785C229.367 67.7685 228.787 65.1784 229.517 64.0584C230.477 62.5784 233.687 63.4285 234.057 63.0785C234.667 62.4985 233.247 56.8284 234.547 55.0484C235.197 54.1584 237.197 54.4785 237.817 53.8485C238.437 53.2185 238.077 51.2385 239.037 50.5785C240.157 49.7985 242.537 50.4585 242.987 50.0285C243.467 49.5584 242.617 46.5584 244.007 45.5584C245.677 44.3584 251.587 45.6285 252.077 45.1385C252.487 44.7285 251.577 39.4385 252.187 37.7485C252.837 35.9585 255.087 36.5984 255.797 35.8684C256.427 35.2384 256.107 33.2485 256.997 32.5985C259.037 31.1085 269.277 32.8985 270.027 32.1085C270.337 31.7685 269.697 29.2585 270.517 28.0985C271.187 27.1485 273.167 27.5085 273.797 26.8885C274.427 26.2685 274.057 24.2784 275.017 23.6184C276.137 22.8384 278.497 23.5084 278.957 23.0584C279.387 22.6384 278.637 18.7384 280.567 18.1784C284.847 16.9284 283.697 22.6984 284.097 23.1184C284.657 23.7084 298.897 23.4985 300.487 23.2185C301.727 22.9985 300.427 19.6985 301.977 18.5985C305.186 16.3085 312.867 21.5884 311.047 14.1784H349.527C351.227 14.1784 350.867 18.9485 351.057 19.1385C351.527 19.6085 354.677 18.8185 355.027 19.1585C355.367 19.4785 354.667 22.8284 355.007 23.1784C355.347 23.5284 359.667 22.8085 360.017 23.1585C360.367 23.5085 359.657 26.8085 360.007 27.1685C360.627 27.8285 376.547 26.7085 377.997 28.1585C378.397 28.5585 377.647 31.8085 377.997 32.1585C378.347 32.5085 381.677 31.7985 382.017 32.1385C382.357 32.4785 381.657 35.7885 381.997 36.1585C382.737 36.9385 397.917 35.0485 400.067 36.5785C401.507 37.5985 400.677 40.7684 401.027 41.1184C401.497 41.5884 404.627 40.7885 405.007 41.1385C405.447 41.5385 404.507 49.6085 405.037 50.0985C405.377 50.4085 407.897 49.7684 409.047 50.5884C409.997 51.2584 409.637 53.2385 410.267 53.8585C410.897 54.4785 412.877 54.1185 413.537 55.0785C414.317 56.1985 413.657 58.5885 414.087 59.0285C414.517 59.4684 416.937 58.8085 418.047 59.5685C419.156 60.3285 418.697 62.5885 419.117 62.9785C420.267 64.0685 426.667 61.4184 427.807 64.8384C428.777 67.7384 426.327 68.6984 431.987 68.1184C433.727 73.1284 428.186 72.7485 427.917 73.7185C427.737 74.3385 427.716 80.8485 427.977 81.1085C428.727 81.8585 435.687 79.4785 436.797 82.8185C437.767 85.7185 435.316 86.6785 440.977 86.0985C442.716 91.1085 437.177 90.7285 436.907 91.6985C436.737 92.2885 436.737 97.8985 436.907 98.4785C437.227 99.5985 439.747 98.8885 440.527 100.028C441.307 101.168 440.627 103.528 441.067 103.978C441.537 104.458 444.537 103.608 445.537 104.998C446.737 106.668 445.477 112.618 445.957 113.068C446.327 113.418 449.607 112.708 449.977 113.058C450.427 113.478 449.467 121.508 450.007 122.018C450.937 122.898 454.317 120.098 455.017 125.508C455.687 130.698 456.667 141.178 449.917 140.608C448.776 146.078 451.596 183.488 449.987 185.008C449.677 185.298 446.917 184.788 445.977 185.008C444.626 190.478 448.437 188.358 449.537 189.948C450.297 191.048 449.637 193.428 450.087 193.898C450.507 194.328 454.407 193.578 454.967 195.508C456.227 199.808 450.117 198.468 449.917 199.558C448.126 209.528 452.727 206.488 454.017 207.448C455.537 208.578 455.567 219.488 454.017 220.538C452.927 221.278 450.337 220.708 450.017 221.008C448.487 222.458 453.257 232.298 445.987 229.968V260.438C445.987 262.198 441.107 261.478 440.927 262.498C439.077 273.198 442.536 288.978 440.857 300.268C440.457 302.588 436.447 301.508 436.017 301.928C435.557 302.388 436.337 305.568 435.997 305.908C435.657 306.248 432.477 305.468 432.017 305.928C431.657 306.288 432.527 309.508 431.047 310.468C429.927 311.198 427.357 310.628 427.027 310.928C426.457 311.468 427.487 323.448 426.997 323.888C426.617 324.238 423.477 323.448 423.017 323.908C422.657 324.268 423.527 327.488 422.047 328.448C420.927 329.178 418.337 328.598 418.027 328.908C417.567 329.368 418.357 332.528 418.007 332.888C417.657 333.248 414.357 332.528 413.987 332.868C413.147 333.658 414.857 355.088 414.007 355.858C413.627 356.208 410.507 355.408 410.037 355.888C409.567 356.368 410.927 360.858 407.507 360.858C404.087 360.858 405.447 356.398 404.967 355.898C404.657 355.568 396.307 355.518 396.007 355.848C395.657 356.228 396.447 359.358 395.987 359.828C395.627 360.188 392.407 359.318 391.447 360.798C390.717 361.918 391.297 364.508 390.987 364.818C390.527 365.278 387.357 364.488 387.007 364.838C386.657 365.188 387.367 368.508 387.027 368.858C386.687 369.208 382.377 368.488 382.017 368.848C381.657 369.208 382.387 373.478 382.027 373.858C381.617 374.278 373.407 373.428 373.017 373.848C372.667 374.228 373.417 377.448 373.017 377.848C372.147 378.718 360.477 378.368 360.027 378.848C359.737 379.148 360.237 381.918 360.027 382.858C353.487 384.238 357.177 377.298 351.037 378.848C350.767 379.118 351.237 382.848 351.037 382.848H297.067C296.657 382.848 299.167 387.928 292.567 387.928C285.877 387.928 288.997 383.898 288.037 382.878C287.527 382.338 279.497 383.298 279.077 382.848C278.727 382.478 279.437 379.198 279.087 378.838C278.777 378.508 270.387 378.508 270.077 378.838C269.727 379.208 270.437 382.488 270.087 382.848C269.777 383.178 261.387 383.178 261.077 382.848C260.727 382.468 261.517 379.328 261.057 378.868C260.747 378.558 258.157 379.138 257.037 378.408C255.557 377.448 256.417 374.248 256.057 373.878C255.427 373.218 246.887 374.508 244.717 373.728C242.767 373.028 243.467 370.448 242.977 369.988C242.067 369.138 236.817 370.708 235.037 369.418C233.637 368.408 234.497 365.418 234.017 364.948C233.567 364.508 231.167 365.168 230.057 364.408C228.947 363.648 229.407 361.388 228.987 360.998C228.097 360.148 222.847 361.718 221.047 360.428C219.607 359.398 220.437 356.238 220.087 355.888C219.617 355.418 216.497 356.218 216.107 355.868C215.657 355.458 216.617 347.418 216.077 346.908C215.707 346.558 212.567 347.378 211.547 345.948C210.347 344.258 211.607 338.328 211.127 337.878C210.757 337.528 207.477 338.238 207.107 337.888C206.617 337.428 207.647 325.468 207.077 324.928C206.757 324.618 204.187 325.198 203.067 324.468C201.467 323.428 202.817 320.058 201.557 319.848C191.967 318.188 195.417 321.298 193.697 323.958C192.747 325.418 189.527 324.608 189.177 324.968C189.027 325.128 189.027 328.678 189.177 328.838C190.007 329.688 195.117 326.858 194.197 334.418C193.537 339.778 190.237 336.998 189.227 337.988C188.747 338.468 189.597 341.458 188.197 342.458C186.147 343.928 179.267 342.098 176.737 342.818C175.557 343.158 176.527 346.048 174.517 346.768C172.787 347.388 167.647 346.418 167.167 346.918C166.727 347.378 167.967 350.898 165.497 351.748C163.257 352.518 153.657 351.318 153.137 351.868C152.787 352.238 153.497 355.518 153.147 355.878C152.717 356.328 144.697 355.368 144.187 355.908C143.837 356.278 144.657 359.418 143.227 360.438C140.127 362.648 133.497 357.578 135.157 364.868C130.197 366.628 130.427 361.038 129.617 360.798C123.487 358.978 128.697 365.868 123.647 364.888C119.987 364.178 122.867 359.318 117.177 360.848C119.497 368.148 109.687 363.348 108.217 364.888C107.417 365.728 110.037 371.578 101.687 369.858C97.8365 369.068 99.7866 365.558 99.1466 364.888C98.6366 364.348 90.5865 365.308 90.1865 364.858C89.8365 364.478 90.6265 361.338 90.1665 360.878C89.8565 360.568 87.2666 361.148 86.1466 360.418C84.6866 359.468 85.4965 356.248 85.1365 355.898C84.9765 355.748 81.4266 355.748 81.2665 355.898C80.3265 356.818 83.3765 360.928 76.7066 360.928C70.0366 360.928 73.1365 356.898 72.1765 355.888C71.6665 355.348 63.6166 356.308 63.2166 355.858C62.8666 355.478 63.6565 352.348 63.1965 351.878C62.8365 351.518 59.6166 352.388 58.6566 350.908C57.9266 349.788 58.5065 347.198 58.1965 346.888C57.7365 346.428 54.5666 347.218 54.2166 346.868C53.8666 346.518 54.5765 343.218 54.2365 342.848C53.7165 342.298 44.1065 343.498 41.8765 342.728C39.4065 341.878 40.6565 338.338 40.2165 337.888C39.7765 337.438 36.6166 338.208 36.2365 337.868C35.7865 337.458 36.7466 329.418 36.2066 328.908C35.8366 328.558 32.6966 329.378 31.6766 327.948C30.4766 326.268 31.7365 320.328 31.2565 319.878C30.8865 319.538 27.5666 320.228 27.2366 319.898C26.9066 319.568 27.6865 316.388 27.2165 315.918C26.8665 315.568 23.6966 316.398 22.6766 314.958C21.3866 313.158 22.9565 307.938 22.1065 307.018C21.6465 306.528 19.0665 307.228 18.3665 305.278C17.7465 303.548 18.7265 298.418 18.2165 297.928C17.8565 297.588 14.7066 298.408 13.6766 296.968C12.3866 295.168 13.9565 289.948 13.1065 289.028C12.6465 288.538 10.0665 289.238 9.36652 287.288C8.41652 284.638 10.0066 271.708 9.20655 270.958C8.54655 270.328 5.00653 272.268 4.24653 268.428C3.91653 266.778 3.94654 254.808 4.38654 253.568C5.23654 251.118 8.76655 252.318 9.20655 251.868C9.36655 251.708 9.35655 248.148 9.20655 247.998C8.88655 247.678 6.34655 248.288 5.20655 247.478C4.25655 246.808 4.61655 244.848 3.98655 244.208C2.78655 242.988 -0.99347 244.288 0.24653 238.948C1.19653 238.738 3.95654 239.238 4.25654 238.948C4.55654 238.658 4.46655 231.568 4.26655 230.528C4.02655 229.258 0.24653 230.238 0.24653 229.948V180.988C8.26653 182.728 4.11655 177.078 5.23655 175.988C5.58655 175.648 8.88654 176.348 9.25654 175.998C9.72654 175.558 9.67655 163.488 9.20655 163.048C8.77655 162.648 3.01654 163.798 4.25654 159.518C4.82654 157.548 8.88655 158.278 9.20655 157.968C10.0266 157.168 8.20655 146.998 9.70655 144.948C10.3566 144.058 12.3565 144.378 12.9765 143.748C13.5965 143.118 13.2465 141.148 14.1965 140.478C15.3565 139.658 17.8766 140.298 18.2066 139.988C18.9166 139.328 17.5666 122.638 18.2366 122.028C18.6166 121.678 21.7565 122.468 22.2165 122.008C22.5765 121.648 21.7065 118.428 23.1865 117.468C24.3065 116.738 26.8966 117.318 27.2066 117.008C27.6666 116.548 26.8765 113.388 27.2265 113.028C27.5765 112.668 30.8765 113.388 31.2465 113.048C31.7265 112.598 30.4665 106.638 31.6665 104.978C32.6765 103.578 35.6665 104.438 36.1365 103.958C36.5765 103.508 35.9166 101.108 36.6766 100.008C37.7766 98.4185 41.5865 100.548 40.2365 95.0685C35.6366 96.2585 34.2965 92.7585 38.0265 90.3585C41.3365 88.2285 40.2365 87.2085 41.1665 86.5285C42.2065 85.7684 47.3565 85.7385 48.6165 86.1885C50.9565 87.0385 48.8065 91.6584 54.2265 90.0584C53.7665 87.5984 54.8465 73.6585 54.2265 73.0685L54.1865 73.0985ZM113.157 28.1385C105.457 26.6685 109.127 31.1185 108.157 32.1385C107.687 32.6285 95.7465 31.5885 95.1965 32.1685C94.8465 32.5285 95.6665 35.6785 94.2365 36.6985C92.4365 37.9785 87.1865 36.4184 86.2965 37.2684C85.8765 37.6584 86.2965 39.9384 85.2265 40.6784C84.1565 41.4184 81.7165 40.7785 81.2665 41.2185C80.7865 41.6885 81.6365 44.6885 80.2465 45.6885C78.5765 46.8885 72.6265 45.6285 72.1765 46.1085C71.8365 46.4785 72.5265 49.7985 72.1965 50.1285C71.8665 50.4585 68.6766 49.6884 68.2166 50.1484C67.8566 50.5084 68.7265 53.7285 67.2465 54.6885C66.1265 55.4185 63.5365 54.8384 63.2265 55.1484C62.7665 55.6084 63.5565 58.7885 63.2066 59.1285C62.8566 59.4685 59.6865 58.6884 59.2265 59.1484C58.9165 59.4584 59.4965 62.0485 58.7665 63.1685C57.3965 65.2885 52.6965 61.8785 54.1965 68.1085C61.9065 69.5785 58.2265 65.1385 59.1965 64.1085C59.5865 63.6885 67.7965 64.5484 68.2066 64.1184C68.5666 63.7384 67.8365 59.4585 68.1965 59.1085C68.5565 58.7585 71.8766 59.4685 72.2166 59.1285C72.5566 58.7885 71.8565 55.4585 72.1965 55.1085C72.5365 54.7585 76.8465 55.4784 77.2066 55.1184C77.5666 54.7584 76.8365 50.4585 77.1965 50.1085C77.5565 49.7585 80.8766 50.4685 81.2166 50.1285C81.5566 49.7885 80.8565 46.4785 81.1965 46.1085C81.8165 45.4585 98.4866 46.7885 99.1566 46.0785C99.5166 45.7085 98.6565 42.5084 100.137 41.5484C101.257 40.8184 103.847 41.3984 104.157 41.0884C104.617 40.6284 103.827 37.4485 104.177 37.1085C104.527 36.7685 107.697 37.5484 108.157 37.0884C108.467 36.7784 107.887 34.1885 108.617 33.0685C109.987 30.9485 114.687 34.3585 113.187 28.1285L113.157 28.1385ZM189.097 72.0985C189.737 72.7385 204.517 71.6285 207.087 72.0985C209.017 58.8285 203.067 66.5884 199.017 63.6784C197.617 62.6784 198.477 59.6784 197.997 59.2084C197.547 58.7684 195.147 59.4285 194.037 58.6685C192.927 57.9085 193.387 55.6485 192.967 55.2585C192.077 54.4085 186.827 55.9785 185.027 54.6885C183.587 53.6585 184.417 50.4984 184.067 50.1484C183.607 49.6884 180.427 50.4785 180.087 50.1285C179.747 49.7785 180.527 46.6084 180.067 46.1484C179.707 45.7884 176.487 46.6584 175.527 45.1784C174.797 44.0584 175.377 41.4685 175.067 41.1585C174.607 40.6985 171.437 41.4885 171.087 41.1385C170.737 40.7885 171.447 37.4884 171.107 37.1184C170.657 36.6384 164.697 37.8985 163.037 36.6985C161.637 35.6885 162.497 32.6985 162.017 32.2285C161.567 31.7885 159.167 32.4485 158.057 31.6885C156.947 30.9285 157.407 28.6784 156.987 28.2785C156.247 27.5685 150.807 28.4485 149.117 28.1385C146.837 35.2585 155.817 30.7785 157.117 32.1285C157.477 32.5085 156.747 36.7785 157.107 37.1385C157.467 37.4985 161.767 36.7685 162.117 37.1285C162.467 37.4885 161.757 40.8084 162.097 41.1484C162.437 41.4884 165.767 40.7885 166.117 41.1285C166.467 41.4685 165.747 45.7785 166.107 46.1385C166.467 46.4985 170.767 45.7685 171.117 46.1285C171.467 46.4885 170.757 49.8084 171.097 50.1484C171.437 50.4884 174.767 49.7885 175.117 50.1285C175.467 50.4685 174.747 54.7785 175.107 55.1385C175.467 55.4985 179.767 54.7685 180.117 55.1285C180.467 55.4885 179.757 58.8084 180.097 59.1484C180.437 59.4884 183.767 58.7885 184.117 59.1285C184.467 59.4685 183.747 63.7785 184.107 64.1385C184.467 64.4985 188.737 63.7685 189.117 64.1285C189.527 64.5185 188.697 71.7185 189.117 72.1285L189.097 72.0985ZM248.067 64.0985H243.057C242.667 64.4785 243.527 69.8685 242.947 71.4785C242.257 73.4085 239.647 72.7584 239.227 73.2384C235.217 77.8084 244.987 77.4585 248.067 77.0985V64.0985ZM440.947 207.988C436.127 208.598 430.467 205.488 431.947 211.978C436.767 211.368 442.427 214.478 440.947 207.988ZM23.2066 256.928H18.1965C18.6665 259.568 16.9266 270.038 19.7066 270.908C25.2766 272.658 22.6465 259.638 23.1965 256.928H23.2066ZM72.1365 332.908C71.6965 332.448 64.8065 333.148 63.1765 332.868C62.0865 340.388 64.8565 336.638 67.2265 338.328C68.1765 338.998 67.8165 340.978 68.4465 341.598C69.0765 342.218 71.0466 341.868 71.7166 342.818C72.5366 343.978 71.8966 346.488 72.2066 346.828C72.6265 347.278 79.5465 346.588 81.1665 346.868C82.6665 339.208 78.0366 342.788 77.1566 341.878C76.8166 341.528 77.5965 338.358 77.1365 337.898C76.8265 337.588 74.2365 338.168 73.1165 337.438C71.6365 336.478 72.4965 333.278 72.1365 332.908Z" fill="#FAFAFA"/>
<path d="M108.157 19.121C107.837 19.461 108.507 22.771 108.157 23.131C107.677 23.631 95.7465 22.581 95.1965 23.161C94.8465 23.521 95.6665 26.671 94.2365 27.691C92.4365 28.971 87.1865 27.411 86.2965 28.261C85.8765 28.651 86.2965 30.931 85.2265 31.671C84.1565 32.411 81.7165 31.771 81.2665 32.211C80.7865 32.681 81.6365 35.681 80.2465 36.681C78.5765 37.881 72.6265 36.621 72.1765 37.101C71.8365 37.471 72.5265 40.791 72.1965 41.121C71.8665 41.451 68.6765 40.681 68.2165 41.141C67.8565 41.501 68.7265 44.721 67.2465 45.681C66.1265 46.411 63.5365 45.831 63.2265 46.141C62.7665 46.601 63.5565 49.781 63.2065 50.121C62.8565 50.461 59.6865 49.681 59.2265 50.141C58.9165 50.451 59.4965 53.041 58.7665 54.161C57.8065 55.641 54.5965 54.791 54.2265 55.141C53.6165 55.721 55.0365 61.391 53.7365 63.171C53.0865 64.061 51.0965 63.741 50.4665 64.371C49.2365 65.591 50.5665 69.331 45.2065 68.111C46.8465 61.761 41.3965 65.551 40.3365 62.471C39.9165 61.251 39.9165 47.971 40.3365 46.751C41.1865 44.281 44.7265 45.531 45.1765 45.091C45.6265 44.651 44.8565 41.491 45.1965 41.111C45.5765 40.691 53.7765 41.551 54.2065 41.121C54.6365 40.691 53.7765 32.501 54.1965 32.121C54.5765 31.771 57.7065 32.561 58.1765 32.101C58.5265 31.751 57.6965 28.591 59.1365 27.561C60.9365 26.281 66.1865 27.841 67.0765 26.991C67.4965 26.601 67.0765 24.321 68.1465 23.581C69.2165 22.841 71.6565 23.481 72.1065 23.041C72.5565 22.601 71.9365 20.161 72.6465 19.101C74.1965 16.781 83.8965 19.111 85.0665 18.001C85.4865 17.601 85.0665 15.331 86.1365 14.591C87.2065 13.851 89.6465 14.491 90.0965 14.051C90.5765 13.581 89.7265 10.581 91.1165 9.581C92.7865 8.381 98.7365 9.64098 99.1865 9.16098C99.5365 8.79099 98.8265 5.51101 99.1765 5.15101C100.396 3.86101 129.447 6.10098 134.597 5.22098C135.757 5.02098 134.577 0.790995 136.667 0.170995C140.967 -1.08901 139.627 5.02098 140.717 5.22098C142.277 5.50098 156.537 5.71101 157.107 5.12101C157.507 4.70101 156.357 -1.069 160.637 0.181005C162.567 0.741005 161.807 4.62101 162.247 5.06101C162.747 5.56101 165.707 4.70101 166.717 6.09101C167.917 7.76101 166.647 13.671 167.137 14.161C167.547 14.571 172.837 13.671 174.527 14.271C176.477 14.971 175.777 17.551 176.267 18.011C177.177 18.861 182.407 17.291 184.207 18.581C185.647 19.611 184.817 22.771 185.167 23.121C185.627 23.581 188.787 22.791 189.147 23.141C189.507 23.491 188.787 26.791 189.127 27.161C189.577 27.641 195.537 26.381 197.197 27.581C198.597 28.591 197.737 31.591 198.217 32.051C198.667 32.491 201.047 31.821 202.167 32.601C203.117 33.271 202.757 35.251 203.387 35.871C204.017 36.491 205.997 36.131 206.657 37.091C207.437 38.211 206.777 40.591 207.207 41.041C207.677 41.521 210.676 40.671 211.676 42.061C212.867 43.721 211.617 49.701 212.097 50.131C212.477 50.481 215.607 49.681 216.067 50.161C216.357 50.451 215.846 53.011 216.557 54.191C217.447 55.671 219.927 53.841 220.627 55.031C221.777 56.981 220.627 62.681 221.097 63.121C221.237 63.261 224.947 63.271 225.087 63.121C225.437 62.771 224.747 59.431 225.087 59.111C225.437 58.771 228.607 59.551 229.067 59.091C229.377 58.781 228.797 56.191 229.527 55.071C230.487 53.591 233.697 54.441 234.067 54.091C234.677 53.511 233.257 47.841 234.557 46.061C235.206 45.171 237.207 45.491 237.827 44.861C238.447 44.231 238.087 42.251 239.047 41.591C240.167 40.811 242.547 41.471 242.997 41.041C243.477 40.571 242.627 37.571 244.017 36.571C245.687 35.371 251.597 36.641 252.087 36.151C252.497 35.741 251.587 30.451 252.197 28.761C252.847 26.971 255.096 27.611 255.807 26.881C256.436 26.251 256.116 24.261 257.007 23.611C259.047 22.121 269.287 23.911 270.037 23.121C270.347 22.781 269.707 20.271 270.527 19.111C271.197 18.161 273.176 18.521 273.806 17.901C274.436 17.281 274.067 15.291 275.027 14.631C276.147 13.851 278.507 14.521 278.967 14.071C279.397 13.651 278.647 9.75098 280.577 9.19098C284.857 7.94098 283.707 13.711 284.107 14.131C284.667 14.721 298.917 14.511 300.496 14.231C301.656 14.021 300.697 11.301 301.496 10.131C303.336 7.43099 323.236 10.461 327.436 9.241C328.406 8.961 327.156 3.39099 335.556 5.16098C338.916 5.87099 337.347 8.861 338.647 9.241C341.167 9.971 348.017 8.12099 350.107 9.60099C351.547 10.621 350.716 13.771 351.066 14.131C351.586 14.671 359.607 13.711 360.027 14.161C360.377 14.531 359.667 17.811 360.017 18.171C360.647 18.841 371.117 17.191 373.087 18.591C374.527 19.611 373.697 22.781 374.047 23.131C374.507 23.591 377.667 22.801 378.027 23.151C378.387 23.501 377.667 26.801 378.007 27.171C378.806 28.021 397.797 25.971 400.066 27.591C401.507 28.611 400.677 31.781 401.027 32.131C401.497 32.601 404.626 31.801 405.007 32.151C405.447 32.551 404.507 40.621 405.037 41.111C405.377 41.421 407.897 40.781 409.047 41.601C409.997 42.271 409.637 44.251 410.267 44.871C410.897 45.491 412.877 45.131 413.537 46.091C414.317 47.211 413.657 49.601 414.087 50.041C414.517 50.481 416.937 49.821 418.047 50.581C419.157 51.341 418.696 53.601 419.116 53.991C420.266 55.081 426.666 52.431 427.806 55.851C428.776 58.751 426.326 59.711 431.986 59.131C433.726 64.141 428.187 63.761 427.917 64.731C427.737 65.351 427.717 71.861 427.977 72.121C428.727 72.871 435.687 70.491 436.797 73.831C437.767 76.731 435.317 77.691 440.977 77.111C442.717 82.121 437.177 81.741 436.907 82.711C436.737 83.301 436.737 88.911 436.907 89.491C437.227 90.611 439.747 89.901 440.527 91.041C441.307 92.181 440.626 94.541 441.066 94.991C441.536 95.471 444.537 94.621 445.537 96.011C446.737 97.681 445.477 103.631 445.957 104.081C446.327 104.431 449.607 103.721 449.977 104.071C450.427 104.491 449.466 112.521 450.007 113.031C450.477 113.481 453.987 112.231 454.837 114.701C455.257 115.911 455.257 128.221 454.837 129.421C453.927 132.011 450.147 130.301 449.917 131.621C448.777 137.091 451.596 174.501 449.986 176.021C449.676 176.311 446.917 175.801 445.977 176.021C444.627 181.491 448.437 179.371 449.537 180.961C450.297 182.061 449.637 184.441 450.087 184.911C450.507 185.341 454.407 184.591 454.967 186.521C456.227 190.821 450.117 189.481 449.917 190.571C448.127 200.541 452.727 197.501 454.017 198.461C455.536 199.591 455.566 210.501 454.017 211.551C452.927 212.291 450.337 211.721 450.017 212.021C448.487 213.471 453.256 223.311 445.986 220.981V251.451C445.986 253.151 441.247 252.791 441.037 252.991C440.227 253.751 441.827 266.671 440.876 269.321C440.176 271.271 437.596 270.571 437.137 271.061C436.286 271.971 437.857 277.191 436.566 279.001C435.536 280.441 432.387 279.621 432.027 279.961C431.517 280.441 432.496 285.581 431.876 287.311C431.176 289.261 428.596 288.561 428.137 289.051C427.286 289.961 428.857 295.181 427.566 296.991C426.536 298.431 423.387 297.611 423.027 297.951C422.517 298.431 423.496 303.571 422.876 305.301C422.176 307.251 419.596 306.551 419.137 307.041C418.286 307.951 419.857 313.181 418.566 314.981C417.536 316.421 414.397 315.601 414.037 315.941C412.917 317.011 415.156 345.841 414.007 346.881C413.626 347.231 410.507 346.431 410.037 346.911C409.567 347.391 410.927 351.881 407.507 351.881C404.086 351.881 405.447 347.421 404.967 346.921C404.527 346.451 392.497 346.451 392.047 346.921C391.697 347.281 392.517 350.421 391.087 351.451C389.337 352.701 385.426 351.301 383.616 351.811C382.507 352.121 383.207 354.651 382.077 355.431C380.947 356.211 378.556 355.531 378.116 355.971C377.676 356.411 378.346 358.801 377.566 359.921C376.906 360.871 374.917 360.511 374.287 361.141C373.657 361.771 374.026 363.751 373.066 364.411C371.947 365.191 369.566 364.531 369.116 364.961C368.636 365.431 369.487 368.431 368.097 369.431C365.027 371.631 358.357 366.571 360.027 373.861C353.487 375.241 357.177 368.301 351.037 369.851C350.767 370.121 351.237 373.851 351.037 373.851H333.047C332.847 373.851 333.307 370.111 333.047 369.851C327.577 368.961 329.827 371.111 328.566 372.821C326.656 375.421 302.707 372.911 297.637 373.791C296.036 374.071 299.367 378.911 292.577 378.931C285.786 378.951 288.997 374.891 288.047 373.891C287.537 373.351 279.507 374.311 279.087 373.861C278.737 373.491 279.447 370.211 279.097 369.851C278.787 369.521 270.397 369.521 270.087 369.851C269.737 370.221 270.447 373.501 270.097 373.861C269.787 374.191 261.397 374.191 261.087 373.861C260.737 373.481 261.526 370.341 261.066 369.881C260.757 369.571 258.167 370.151 257.047 369.421C255.567 368.461 256.417 365.251 256.066 364.881C255.587 364.381 250.447 365.351 248.717 364.731C246.707 364.011 247.676 361.121 246.497 360.781C243.967 360.061 237.087 361.891 235.037 360.421C233.637 359.421 234.497 356.421 234.017 355.951C233.567 355.511 231.167 356.171 230.057 355.411C228.947 354.651 229.406 352.391 228.986 352.001C228.216 351.271 223.627 352.371 221.747 351.731C219.286 350.891 220.527 347.341 220.087 346.891C219.647 346.441 216.487 347.211 216.107 346.871C215.657 346.461 216.617 338.421 216.077 337.911C215.707 337.561 212.567 338.381 211.547 336.951C210.347 335.261 211.607 329.331 211.127 328.881C210.757 328.531 207.477 329.241 207.107 328.891C206.617 328.431 207.647 316.471 207.077 315.931C206.757 315.621 204.187 316.201 203.067 315.471C201.467 314.431 202.816 311.061 201.557 310.851C191.967 309.191 195.417 312.301 193.697 314.961C192.747 316.421 189.527 315.611 189.176 315.971C189.027 316.131 189.027 319.681 189.176 319.841C190.007 320.691 195.117 317.861 194.197 325.421C193.537 330.781 190.237 328.001 189.227 328.991C188.747 329.471 189.597 332.461 188.197 333.461C186.147 334.931 179.266 333.101 176.736 333.821C175.557 334.161 176.527 337.051 174.517 337.771C172.787 338.391 167.647 337.421 167.167 337.921C166.727 338.381 167.967 341.901 165.497 342.751C163.257 343.521 153.657 342.321 153.137 342.871C152.787 343.241 153.497 346.521 153.147 346.881C152.717 347.331 144.697 346.371 144.187 346.911C143.837 347.281 144.657 350.421 143.227 351.441C140.127 353.651 133.497 348.581 135.157 355.871C130.197 357.631 130.426 352.041 129.617 351.801C123.487 349.981 128.697 356.871 123.647 355.891C119.987 355.181 122.866 350.321 117.176 351.851C119.496 359.151 109.687 354.351 108.217 355.891C107.417 356.731 110.036 362.581 101.687 360.861C97.8365 360.071 99.7865 356.561 99.1465 355.891C98.6365 355.351 90.5865 356.311 90.1865 355.861C89.8365 355.481 90.6265 352.341 90.1665 351.881C89.8565 351.571 87.2665 352.151 86.1465 351.421C84.6865 350.471 85.4965 347.251 85.1365 346.901C84.9765 346.751 81.4265 346.751 81.2665 346.901C80.3265 347.821 83.3765 351.931 76.7065 351.931C70.0165 351.931 73.1365 347.901 72.1765 346.891C71.6665 346.351 63.6165 347.311 63.2165 346.861C62.8665 346.481 63.6565 343.351 63.1965 342.881C62.8365 342.521 59.6165 343.391 58.6565 341.911C57.9265 340.791 58.5065 338.201 58.1965 337.891C57.7365 337.431 54.5665 338.221 54.2165 337.871C53.8665 337.521 54.5765 334.221 54.2365 333.851C53.7165 333.301 44.1065 334.501 41.8765 333.731C39.4065 332.881 40.6565 329.341 40.2165 328.891C39.7765 328.441 36.6165 329.211 36.2365 328.871C35.7865 328.461 36.7465 320.421 36.2065 319.911C35.8365 319.561 32.6965 320.381 31.6765 318.951C30.4765 317.271 31.7365 311.331 31.2565 310.881C30.8865 310.541 27.5665 311.231 27.2365 310.901C26.9065 310.571 27.6865 307.391 27.2165 306.921C26.8665 306.571 23.6965 307.401 22.6765 305.961C21.3865 304.161 22.9565 298.941 22.1065 298.021C21.6465 297.531 19.0665 298.231 18.3665 296.281C17.7465 294.551 18.7265 289.421 18.2165 288.931C17.8565 288.591 14.7065 289.411 13.6765 287.971C12.3865 286.171 13.9565 280.951 13.1065 280.031C12.6465 279.541 10.0665 280.241 9.36653 278.291C8.41653 275.641 10.0065 262.711 9.20652 261.961C8.54652 261.331 5.00653 263.271 4.24653 259.431C3.91653 257.781 3.94652 245.811 4.38652 244.571C5.23652 242.121 8.76652 243.321 9.20652 242.871C9.36652 242.711 9.35652 239.151 9.20652 239.001C8.88652 238.681 6.34652 239.291 5.20652 238.481C4.25652 237.811 4.61652 235.851 3.98652 235.211C2.78652 233.991 -0.993469 235.291 0.246531 229.951C1.19653 229.741 3.95651 230.241 4.25651 229.951C4.55651 229.661 4.46652 222.571 4.26652 221.531C4.02652 220.261 0.246531 221.241 0.246531 220.951V193.971C7.51653 195.641 2.47652 188.991 4.67652 185.911C5.78652 184.361 9.08653 185.661 9.30653 184.421C9.92653 180.851 9.93653 158.111 9.30653 154.571C9.10653 153.481 3.00651 154.831 4.25651 150.521C4.82651 148.551 8.88652 149.281 9.20652 148.971C10.0265 148.171 8.20652 138.001 9.70652 135.951C10.3565 135.061 12.3565 135.381 12.9765 134.751C13.5965 134.121 13.2465 132.151 14.1965 131.481C15.3565 130.661 17.8765 131.301 18.2065 130.991C18.9165 130.331 17.5665 113.641 18.2365 113.031C18.6165 112.681 21.7565 113.471 22.2165 113.011C22.5765 112.651 21.7065 109.431 23.1865 108.471C24.3065 107.741 26.8965 108.321 27.2065 108.011C27.6665 107.551 26.8765 104.391 27.2265 104.031C27.5765 103.671 30.8765 104.391 31.2465 104.051C31.7265 103.601 30.4665 97.641 31.6665 95.981C32.6765 94.581 35.6665 95.441 36.1365 94.961C36.5765 94.511 35.9165 92.111 36.6765 91.011C37.7765 89.421 41.5865 91.551 40.2365 86.071C35.6365 87.261 34.2965 83.761 38.0265 81.361C41.3365 79.221 40.2265 78.211 41.1665 77.531C42.3065 76.701 48.1565 76.701 49.2965 77.531C50.1865 78.181 49.8665 80.181 50.4965 80.801C51.1265 81.421 53.1065 81.061 53.7665 82.021C54.5465 83.141 53.8865 85.541 54.3165 85.971C54.7465 86.401 57.1465 85.741 58.2665 86.521C59.2165 87.181 58.8565 89.161 59.4865 89.791C60.6865 91.011 64.4565 89.691 63.2265 95.051C57.5665 94.471 60.0166 95.431 59.0466 98.331C57.9066 101.751 51.5065 99.091 50.3565 100.191C49.9365 100.581 50.3565 102.861 49.2865 103.601C48.2165 104.341 45.7665 103.711 45.3265 104.141C44.8865 104.571 45.5565 106.971 44.7765 108.091C44.1165 109.041 42.1265 108.681 41.5065 109.311C40.8865 109.941 41.2365 111.911 40.2865 112.581C39.1265 113.401 36.6065 112.761 36.2765 113.071C35.5665 113.731 36.9165 130.421 36.2465 131.031C35.8665 131.381 32.7265 130.591 32.2665 131.051C31.9565 131.361 32.5365 133.951 31.8065 135.071C30.8465 136.551 27.6365 135.701 27.2665 136.051C26.1765 137.091 29.7965 145.281 23.1665 145.621C22.5965 150.931 24.5365 182.951 22.2765 184.541C21.1565 185.331 18.2365 184.781 18.2365 184.981V202.961C18.2365 203.161 14.4965 202.701 14.2265 202.961C12.6465 208.361 17.2765 206.241 18.1165 208.571C19.3765 212.071 16.6665 223.551 19.2265 225.521C20.5765 226.561 23.1065 222.821 23.3065 229.421C23.5565 237.541 18.4565 233.961 18.2165 235.431C17.1365 242.091 23.3265 235.691 23.3265 243.431C23.3265 250.121 19.2865 247.001 18.2765 247.961C17.8265 248.381 18.0265 259.161 18.3865 260.271C19.2565 263.001 22.3765 260.041 23.0965 262.531C23.7665 264.821 22.7465 274.471 23.2265 274.901C23.6065 275.251 26.7365 274.451 27.1965 274.921C27.4865 275.211 26.9765 277.761 27.6865 278.951C28.5465 280.391 31.7265 278.391 32.2165 280.391C33.5165 285.711 25.4365 281.431 27.3265 287.281C28.1165 289.741 31.0365 287.561 31.7665 288.781C33.0565 290.931 31.6365 294.341 32.1565 296.261C32.4765 297.421 35.4165 296.471 36.1065 298.471C36.7965 300.471 35.4765 304.291 36.6465 305.921C37.6665 307.351 40.8465 306.531 41.1865 306.871C41.6465 307.331 40.8565 310.511 41.2065 310.851C41.5565 311.191 44.7265 310.411 45.1865 310.871C45.5465 311.231 44.6765 314.451 46.1565 315.411C47.2765 316.141 49.8665 315.561 50.1765 315.871C50.6365 316.331 49.8465 319.501 50.1965 319.851C50.5465 320.201 53.8765 319.491 54.2165 319.831C54.5565 320.171 53.8565 323.481 54.1965 323.851C54.6465 324.331 60.6065 323.071 62.2665 324.271C63.6665 325.281 62.8065 328.281 63.2865 328.741C63.7365 329.181 66.1165 328.511 67.2365 329.291C68.1865 329.951 67.8265 331.941 68.4565 332.561C69.0865 333.181 71.0565 332.831 71.7365 333.771C72.5565 334.931 71.9165 337.441 72.2265 337.781C72.5365 338.121 80.8465 338.101 81.1465 337.781C81.6465 337.251 80.1765 329.991 88.5465 332.951C90.9865 333.811 89.6965 337.141 90.2765 337.711C90.7165 338.151 93.1065 337.481 94.2265 338.261C95.1765 338.921 94.8165 340.911 95.4465 341.531C96.0765 342.151 98.0465 341.801 98.7165 342.751C99.5565 343.931 98.6665 346.651 99.6665 346.821C105.577 347.801 101.896 343.671 104.116 342.231C106.336 340.791 109.167 344.031 108.167 337.801C114.707 336.431 111.017 343.361 117.157 341.811C117.427 341.541 116.957 337.811 117.157 337.811H144.137C144.367 337.811 143.557 334.331 145.067 333.251C146.757 332.041 152.637 333.321 153.137 332.821C153.417 332.541 153.387 325.131 153.097 324.861C152.727 324.501 149.527 325.361 148.567 323.881C147.837 322.761 148.407 320.181 148.107 319.861C147.527 319.251 141.857 320.671 140.077 319.371C139.187 318.721 139.507 316.731 138.877 316.101C138.157 315.381 135.907 316.011 135.267 314.221C134.627 312.431 135.626 307.351 135.117 306.871C134.796 306.571 132.227 307.141 131.097 306.411C129.637 305.461 130.447 302.241 130.087 301.891C129.927 301.741 126.387 301.731 126.217 301.891C125.747 302.351 127.047 306.841 123.647 306.841C120.247 306.841 121.586 302.341 121.116 301.871C120.646 301.401 117.527 302.191 117.147 301.841C116.487 301.231 117.826 284.561 117.116 283.891C116.846 283.631 114.826 284.001 113.877 283.681C110.357 282.491 113.057 274.391 112.227 271.471C111.887 270.291 109.007 271.271 108.277 269.251C107.467 266.981 108.816 257.581 108.116 256.921C107.906 256.721 103.167 257.081 103.167 255.381V229.901C103.167 229.701 99.4265 230.161 99.1565 229.901C97.4165 224.891 102.957 225.271 103.227 224.301C103.397 223.711 103.397 218.101 103.227 217.521C102.907 216.411 100.387 217.061 99.6065 215.991C99.0665 215.241 98.6765 203.371 99.1565 202.921C99.6365 202.471 102.926 203.721 103.187 202.351C103.377 201.311 103.486 194.221 103.176 193.931C102.806 193.581 99.5265 194.291 99.1565 193.941C98.8265 193.631 98.8265 185.251 99.1565 184.941C99.4465 184.661 102.227 185.121 103.167 184.941V168.451C103.167 166.691 108.047 167.411 108.227 166.391C108.407 165.371 108.427 158.291 108.127 158.001C107.697 157.591 101.936 158.761 103.176 154.471C103.746 152.501 107.817 153.221 108.127 152.921C108.646 152.411 107.657 147.321 108.287 145.581C108.987 143.631 111.567 144.331 112.027 143.841C112.877 142.931 111.307 137.701 112.597 135.901C113.627 134.461 116.787 135.291 117.137 134.941C118.147 133.931 114.707 129.721 121.167 130.971C122.717 124.841 115.777 128.521 117.157 121.981C123.397 122.971 120.107 120.221 121.587 117.931C122.537 116.471 125.757 117.281 126.107 116.921C126.257 116.761 126.267 113.221 126.107 113.061C125.717 112.661 119.936 113.761 121.176 109.501C121.746 107.531 125.837 108.261 126.137 107.961C126.607 107.481 125.817 104.331 126.157 103.991C126.497 103.651 129.677 104.431 130.137 103.971C130.497 103.611 129.627 100.391 131.107 99.431C132.227 98.701 134.817 99.281 135.127 98.971C135.587 98.511 134.797 95.331 135.147 94.991C135.497 94.651 138.667 95.431 139.127 94.971C139.487 94.611 138.617 91.391 140.097 90.431C141.217 89.701 143.807 90.281 144.117 89.971C144.577 89.511 143.787 86.331 144.137 85.991C144.487 85.651 147.656 86.441 148.117 85.971C148.467 85.621 147.637 82.451 149.077 81.431C152.157 79.231 158.877 84.271 157.147 77.011C152.547 78.201 151.207 74.701 154.937 72.301C158.257 70.161 157.137 69.161 158.077 68.471C160.127 66.971 170.327 68.781 171.097 67.971C171.297 67.761 170.937 63.021 172.637 63.021H207.117C209.046 49.751 203.097 57.511 199.047 54.601C197.647 53.601 198.507 50.601 198.027 50.131C197.577 49.691 195.177 50.351 194.067 49.591C192.957 48.831 193.417 46.571 192.997 46.181C192.107 45.331 186.857 46.901 185.057 45.611C183.617 44.581 184.447 41.421 184.097 41.071C183.637 40.611 180.456 41.401 180.117 41.051C179.777 40.701 180.557 37.531 180.097 37.071C179.737 36.711 176.517 37.581 175.557 36.101C174.827 34.981 175.407 32.391 175.097 32.081C174.637 31.621 171.467 32.411 171.117 32.061C170.766 31.711 171.477 28.411 171.137 28.041C170.687 27.561 164.727 28.821 163.067 27.621C161.667 26.611 162.527 23.621 162.047 23.151C161.597 22.711 159.187 23.371 158.087 22.611C156.987 21.851 157.657 19.311 156.537 18.991C155.957 18.831 150.337 18.831 149.747 18.991C148.217 19.421 150.907 22.861 144.667 23.131C137.257 23.451 139.567 19.061 139.147 19.061C134.977 19.061 109.217 17.931 108.167 19.061L108.157 19.121ZM279.056 359.831C280.586 361.481 318.397 358.581 324.027 359.831C324.197 358.901 323.737 356.121 324.027 355.821C324.317 355.521 331.406 355.611 332.447 355.811C333.716 356.051 332.737 359.831 333.027 359.831H351.017C351.217 359.831 350.757 356.091 351.017 355.831C357.557 354.451 353.866 361.391 360.007 359.841C357.647 352.581 367.637 357.281 369.007 355.831C369.147 355.691 369.087 352.041 368.947 351.901C368.637 351.581 366.036 352.131 364.957 351.401C362.827 349.961 364.787 343.951 363.857 342.971C363.467 342.561 361.207 342.971 360.447 341.901C359.626 340.751 360.517 337.991 359.507 337.831C353.257 336.791 357.697 344.351 352.517 342.841C350.587 342.281 351.337 338.371 350.907 337.961C350.437 337.511 348.087 338.181 346.967 337.401C346.007 336.741 346.376 334.751 345.746 334.131C345.116 333.511 343.137 333.871 342.467 332.911C341.687 331.791 342.347 329.391 341.917 328.961C341.487 328.531 339.087 329.191 337.967 328.411C337.017 327.751 337.376 325.761 336.746 325.141C336.116 324.521 334.137 324.881 333.467 323.921C332.687 322.801 333.347 320.411 332.917 319.971C332.487 319.531 330.057 320.191 328.957 319.431C327.857 318.671 328.517 316.121 327.417 315.811C325.617 315.311 321.697 316.711 319.947 315.451C318.507 314.421 319.336 311.261 318.986 310.911C318.526 310.441 315.387 311.231 315.007 310.891C314.526 310.451 315.547 298.471 314.977 297.931C314.607 297.571 311.406 298.431 310.447 296.951C309.716 295.831 310.296 293.241 309.986 292.931C309.526 292.471 306.387 293.261 306.007 292.911C305.566 292.511 306.507 284.441 305.977 283.951C305.637 283.641 303.127 284.281 301.967 283.461C301.027 282.791 301.376 280.821 300.746 280.191C300.036 279.471 297.786 280.111 297.137 278.311C296.727 277.181 296.626 256.261 297.007 254.431C297.767 250.701 302.507 253.691 301.027 247.951C300.077 247.741 297.316 248.241 297.017 247.951C296.527 247.481 297.566 235.541 296.986 234.991C296.516 234.541 293.007 235.791 292.157 233.321C291.717 232.061 291.727 209.851 292.157 208.611C293.287 205.361 298.047 209.551 297.047 203.481C296.897 202.551 290.797 203.761 292.037 199.491C292.607 197.521 296.697 198.251 296.996 197.951C298.026 196.901 294.557 192.751 301.037 193.981C302.617 188.571 297.997 190.711 297.157 188.371C296.757 187.261 296.757 182.721 297.157 181.611C297.877 179.591 300.767 180.571 301.097 179.391C301.817 176.851 299.977 170.011 301.457 167.941C302.477 166.501 305.626 167.331 305.986 166.981C306.526 166.461 305.566 158.441 306.017 158.021C306.387 157.671 309.667 158.381 310.037 158.031C310.517 157.581 309.257 151.641 310.457 149.961C311.477 148.521 314.626 149.351 314.986 149.001C315.526 148.491 314.566 140.441 315.017 140.041C315.397 139.691 318.536 140.481 318.996 140.021C319.306 139.711 318.727 137.121 319.457 136.001C320.417 134.521 323.626 135.371 323.996 135.021C324.606 134.441 323.186 128.771 324.486 126.991C325.136 126.101 327.137 126.421 327.757 125.791C328.376 125.161 328.017 123.181 328.977 122.521C330.097 121.741 332.496 122.401 332.926 121.971C333.356 121.541 332.707 119.121 333.467 118.011C334.227 116.901 336.486 117.361 336.876 116.941C337.727 116.051 336.156 110.801 337.447 109.001C338.477 107.561 341.636 108.391 341.986 108.041C342.446 107.581 341.656 104.421 342.007 104.061C342.357 103.701 345.657 104.421 346.027 104.081C346.507 103.631 345.246 97.671 346.447 96.011C347.447 94.611 350.437 95.471 350.917 94.981C351.397 94.491 350.547 91.521 351.947 90.511C353.607 89.311 359.566 90.571 360.017 90.091C360.357 89.721 359.667 86.401 359.996 86.071C360.326 85.741 363.517 86.511 363.977 86.051C364.287 85.741 363.706 83.151 364.436 82.031C365.806 79.921 370.477 83.361 369.007 77.081C375.547 75.711 371.856 82.641 377.996 81.091C378.266 80.821 377.796 77.091 377.996 77.091H395.986C396.246 77.091 395.387 72.711 397.496 72.101C402.676 70.601 398.236 78.141 404.486 77.111C405.586 76.931 404.016 72.081 407.486 72.081C410.956 72.081 409.557 76.581 410.017 77.051C410.477 77.521 413.636 76.731 413.986 77.071C414.336 77.411 413.627 80.721 413.967 81.091C414.277 81.421 422.667 81.401 422.977 81.081C423.097 80.951 423.116 78.281 422.996 77.591C422.826 76.581 420.106 77.481 418.926 76.631C417.976 75.951 418.337 73.991 417.707 73.361C417.077 72.731 415.077 73.051 414.436 72.161C413.137 70.381 414.556 64.711 413.947 64.131C413.577 63.781 410.377 64.631 409.407 63.151C408.677 62.031 409.246 59.451 408.947 59.131C408.466 58.621 403.317 59.611 401.597 58.981C399.877 58.351 400.447 56.081 399.717 55.371C399.087 54.741 397.087 55.061 396.447 54.171C395.147 52.391 396.566 46.721 395.957 46.141C395.637 45.841 393.066 46.411 391.936 45.681C390.456 44.721 391.316 41.521 390.957 41.151C390.687 40.861 383.307 40.871 383.037 41.151C382.637 41.581 383.786 47.341 379.507 46.091C377.577 45.531 378.327 41.621 377.897 41.211C377.427 40.761 375.077 41.431 373.957 40.651C373.007 39.991 373.366 38.001 372.736 37.381C372.106 36.761 370.137 37.111 369.457 36.171C368.637 35.011 369.277 32.501 368.967 32.161C367.547 30.631 357.667 35.411 360.007 28.121C354.607 26.541 356.727 31.161 354.397 32.001C353.287 32.401 348.746 32.401 347.626 32.001C345.607 31.281 346.587 28.391 345.407 28.061C342.867 27.341 336.017 29.181 333.947 27.701C332.436 26.631 333.596 23.281 332.517 23.111C325.846 22.031 332.377 27.901 324.537 28.201C316.697 28.501 320.106 24.341 318.986 23.171C318.406 22.561 302.656 22.561 302.066 23.171C301.707 23.541 302.567 26.741 301.087 27.701C299.967 28.431 297.376 27.851 297.066 28.161C296.607 28.621 297.397 31.761 297.047 32.141C296.747 32.471 288.347 32.471 288.037 32.141C287.687 31.771 288.397 28.491 288.047 28.131C287.737 27.801 279.347 27.801 279.037 28.131C278.697 28.501 279.386 31.821 279.056 32.151C278.727 32.481 275.536 31.711 275.077 32.171C274.767 32.481 275.346 35.071 274.616 36.191C273.656 37.671 270.427 36.811 270.077 37.161C269.617 37.621 270.406 40.801 270.056 41.141C269.706 41.481 266.536 40.701 266.077 41.161C265.717 41.521 266.587 44.741 265.107 45.701C263.987 46.431 261.397 45.851 261.087 46.161C260.627 46.621 261.417 49.801 261.066 50.141C260.716 50.481 257.547 49.691 257.087 50.161C256.737 50.511 257.566 53.681 256.126 54.701C254.146 56.111 243.757 54.431 243.057 55.121C242.646 55.531 243.547 60.821 242.947 62.501C242.227 64.511 239.337 63.541 238.997 64.721C238.257 67.331 240.397 75.111 238.107 76.661C236.937 77.461 234.217 76.501 234.007 77.661C233.537 80.301 233.797 98.821 235.017 99.641C236.107 100.381 238.697 99.811 239.017 100.111C239.607 100.671 238.566 105.961 238.986 107.461C239.316 108.631 242.207 107.661 242.937 109.681C244.187 113.181 241.497 124.681 244.047 126.631C245.087 127.431 247.477 124.891 248.067 128.541C248.797 133.041 248.887 160.361 248.067 164.521C247.167 169.061 242.097 164.811 243.037 169.531C243.817 173.451 246.197 170.171 248.057 172.511C248.786 178.011 242.087 173.761 243.037 178.521C243.787 182.271 246.367 179.921 247.107 180.461C248.647 181.591 248.637 201.501 247.107 202.541C246.017 203.281 243.427 202.711 243.107 203.011C242.187 203.891 244.077 221.211 242.947 224.341C242.227 226.361 239.337 225.381 238.997 226.561C237.807 230.781 240.787 250.661 238.107 252.491C236.987 253.251 234.207 252.431 234.047 253.431C233.017 259.681 240.557 255.241 239.057 260.421C238.486 262.391 234.397 261.661 234.097 261.961C233.617 262.441 234.417 265.581 234.077 265.931C233.737 266.281 230.426 265.571 230.057 265.911C229.577 266.361 230.837 272.301 229.637 273.981C228.617 275.421 225.467 274.591 225.107 274.941C224.567 275.451 225.527 283.501 225.077 283.901C224.697 284.251 221.557 283.461 221.097 283.921C220.787 284.231 221.367 286.821 220.637 287.941C219.677 289.421 216.487 288.561 216.107 288.921C215.707 289.301 215.717 296.431 217.057 297.461C218.396 298.491 220.927 294.761 221.137 301.361C221.397 309.461 217.297 305.771 216.107 306.911C215.877 307.131 215.887 312.351 216.067 313.371C216.737 317.151 219.367 314.781 220.107 315.331C222.347 316.981 220.307 328.181 221.047 328.861C221.427 329.211 224.567 328.421 225.027 328.881C225.337 329.191 224.757 331.781 225.486 332.901C226.856 335.011 231.527 331.571 230.057 337.851C236.217 339.351 232.867 334.861 234.986 333.281C238.986 330.311 237.557 335.531 238.477 336.901C239.397 338.271 242.457 337.451 242.947 337.941C243.437 338.431 242.546 341.471 243.986 342.411C245.096 343.141 247.697 342.551 248.017 342.861C248.477 343.321 247.687 346.491 248.037 346.841C248.387 347.191 251.717 346.481 252.057 346.821C252.396 347.161 251.697 350.471 252.037 350.841C252.557 351.391 262.167 350.191 264.397 350.961C266.867 351.811 265.616 355.321 266.066 355.791C266.616 356.371 278.557 355.321 279.027 355.821C279.367 356.181 278.697 359.481 279.027 359.831H279.056ZM184.117 77.071C182.596 77.321 176.567 76.661 176.157 77.101C175.847 77.421 176.427 79.991 175.697 81.111C174.097 83.571 170.007 78.671 171.087 87.601C172.137 96.331 175.567 86.871 176.107 86.511C177.267 85.751 179.607 86.381 180.027 85.961C180.447 85.541 179.807 83.111 180.567 82.011C181.667 80.431 185.487 82.541 184.127 77.071H184.117ZM157.067 95.101C156.907 94.951 153.347 94.951 153.197 95.101C152.877 95.421 153.477 97.991 152.687 99.111C151.557 100.711 147.797 98.571 149.127 104.051C155.417 102.581 151.967 107.251 154.077 108.621C155.197 109.351 157.787 108.771 158.097 109.081C158.557 109.541 157.777 112.691 158.127 113.051C158.267 113.191 161.967 113.181 162.117 113.051C162.587 112.601 162.557 100.541 162.087 100.091C161.767 99.781 159.197 100.361 158.077 99.631C156.617 98.681 157.427 95.461 157.067 95.111V95.101ZM426.967 100.051C422.187 100.531 417.657 97.761 418.967 104.041C423.747 103.561 428.277 106.331 426.967 100.051ZM359.996 109.041C354.516 107.691 356.646 111.491 355.056 112.601C353.956 113.361 351.537 112.711 351.097 113.141C350.657 113.571 351.327 115.971 350.547 117.091C349.887 118.041 347.897 117.681 347.267 118.311C346.637 118.941 347.007 120.921 346.047 121.581C344.927 122.361 342.527 121.701 342.097 122.131C341.667 122.561 342.316 124.981 341.556 126.091C340.456 127.671 336.637 125.561 337.996 131.031C339.516 130.781 345.536 131.441 345.957 131.001C346.316 130.631 345.456 127.431 346.936 126.471C348.056 125.741 350.647 126.321 350.957 126.011C351.417 125.551 350.627 122.371 350.977 122.031C351.327 121.691 354.497 122.471 354.957 122.011C355.267 121.701 354.687 119.111 355.417 117.991C356.377 116.511 359.577 117.371 359.947 117.011C360.397 116.581 359.727 110.571 359.977 109.051L359.996 109.041ZM381.986 109.041H378.007C376.637 121.021 383.356 121.061 381.986 109.041ZM368.996 131.021C362.507 129.541 365.626 135.201 365.007 140.021C371.496 141.501 368.376 135.841 368.996 131.021ZM234.087 136.021C232.517 136.271 225.407 135.671 225.087 136.021C224.157 137.011 227.577 141.281 221.087 140.031C219.507 145.431 224.137 143.311 224.977 145.641C225.817 147.971 224.447 157.341 225.127 157.981C225.467 158.291 228.007 157.661 229.147 158.461C230.287 159.261 229.667 161.781 230.647 162.071C231.047 162.191 234.087 162.181 234.087 162.011V136.031V136.021ZM130.087 149.051C129.927 148.901 126.377 148.901 126.217 149.051C124.987 150.251 127.737 156.231 117.157 154.001C116.147 160.221 119.017 156.891 121.217 158.441C122.817 159.571 120.677 163.331 126.157 162.001C123.797 154.741 133.787 159.441 135.157 157.991C135.297 157.851 135.237 154.201 135.097 154.061C134.747 153.701 131.527 154.521 130.577 153.051C129.857 151.941 130.397 149.351 130.087 149.051ZM153.127 149.001C146.637 147.521 149.757 153.181 149.137 158.001C155.627 159.481 152.507 153.821 153.127 149.001ZM117.157 171.991V188.481C117.157 188.831 118.677 190.211 119.647 189.981C120.987 189.651 121.027 186.201 122.137 185.441C123.387 184.591 126.007 185.571 126.217 184.421C126.837 180.921 125.657 175.751 126.167 171.991H117.167H117.157ZM162.127 171.981C155.857 170.671 158.617 175.201 158.137 179.981C164.407 181.291 161.647 176.761 162.127 171.981ZM324.027 184.981C323.977 180.131 325.987 174.401 320.037 175.981C320.287 177.571 319.657 184.601 320.037 184.981C320.207 185.151 323.097 184.931 324.037 184.981C324.087 189.831 322.077 195.561 328.027 193.981C327.777 192.391 328.407 185.361 328.027 184.981C327.857 184.811 324.967 185.031 324.027 184.981ZM166.117 180.971C165.977 180.831 162.277 180.831 162.127 180.971C161.657 181.421 161.657 193.521 162.127 193.971C162.267 194.111 165.967 194.111 166.117 193.971C166.587 193.521 166.587 181.421 166.117 180.971ZM431.967 180.971C430.387 181.221 423.307 180.621 422.967 180.971C422.827 181.111 422.887 184.761 423.017 184.901C423.337 185.221 425.907 184.621 427.017 185.411C428.126 186.201 427.536 188.731 428.517 189.021C433.907 190.631 431.547 184.851 431.967 180.961V180.971ZM333.017 198.961C332.876 198.821 329.177 198.821 329.027 198.961C328.557 199.411 328.536 211.511 329.017 211.961C329.387 212.311 332.667 211.601 333.037 211.951C333.487 212.371 332.526 220.421 333.066 220.911C333.406 221.231 335.947 220.591 337.087 221.391C338.677 222.511 336.547 226.301 342.027 224.951C341.777 223.431 342.447 217.421 341.996 216.991C341.637 216.641 338.487 217.461 337.467 216.031C336.177 214.231 337.747 209.011 336.897 208.091C336.437 207.601 333.857 208.301 333.157 206.351C332.577 204.741 333.437 199.351 333.037 198.971L333.017 198.961ZM440.957 198.971C440.647 198.641 432.257 198.631 431.947 198.961C431.017 199.951 434.436 204.221 427.947 202.971C426.607 208.451 430.376 206.311 431.507 207.911C433.056 210.111 429.727 212.981 435.947 211.971C433.716 201.381 439.687 204.141 440.897 202.911C441.037 202.771 441.087 199.121 440.957 198.981V198.971ZM121.157 207.951C119.687 208.191 113.477 207.611 113.157 207.951C113.017 208.091 113.007 211.801 113.157 211.941C113.527 212.291 116.637 211.501 117.127 211.981C117.396 212.241 116.786 216.541 118.676 216.941C122.156 217.671 121.097 209.691 121.167 207.951H121.157ZM126.147 220.941C126.007 220.801 122.357 220.861 122.217 221.001C121.857 221.351 122.677 224.571 121.207 225.521C118.567 227.231 116.116 223.261 117.116 231.491C118.166 240.211 121.577 230.771 122.137 230.401C123.327 229.601 125.796 230.211 126.116 229.911C126.436 229.611 126.477 221.261 126.147 220.951V220.941ZM346.007 225.941C339.737 224.631 342.497 229.161 342.017 233.941C348.286 235.251 345.526 230.721 346.007 225.941ZM431.957 229.931C431.816 229.791 428.167 229.851 428.027 229.991C427.667 230.341 428.487 233.561 427.017 234.511C425.897 235.241 423.327 234.671 423.007 234.971C422.556 235.391 423.237 241.411 422.967 242.931H431.967C431.627 240.921 432.427 230.381 431.967 229.931H431.957ZM351.007 234.931C350.866 234.791 347.167 234.791 347.017 234.931C346.547 235.381 346.526 247.481 347.007 247.931C347.376 248.281 350.657 247.571 351.027 247.921C352.437 249.251 347.786 259.401 355.007 256.921C354.376 253.581 355.867 247.331 355.077 244.531C354.747 243.351 351.846 244.321 351.126 242.311C350.556 240.701 351.406 235.311 351.007 234.931ZM166.117 238.931C159.626 237.451 162.747 243.111 162.127 247.931C168.617 249.411 165.497 243.751 166.117 238.931ZM315.027 238.931C308.537 237.451 311.657 243.111 311.037 247.931C317.527 249.411 314.407 243.751 315.027 238.931ZM126.147 256.911C126.007 256.771 122.307 256.771 122.157 256.911C121.687 257.361 121.687 269.461 122.157 269.911C122.297 270.051 125.997 270.051 126.147 269.911C126.617 269.461 126.617 257.361 126.147 256.911ZM315.027 256.911C314.307 257.041 311.027 256.711 311.027 256.911V274.891C311.027 275.091 315.027 275.091 315.027 274.891V256.911ZM368.996 279.891C368.856 279.751 365.156 279.751 365.007 279.891C364.536 280.341 364.536 292.441 365.007 292.891C365.147 293.031 368.846 293.031 368.996 292.891C369.466 292.441 369.466 280.341 368.996 279.891ZM342.007 288.881C334.697 287.041 339.466 295.611 337.876 300.241C337.096 302.521 329.827 300.991 333.436 305.941C334.486 307.371 337.627 306.551 337.977 306.901C338.437 307.361 337.656 310.521 337.996 310.881C338.336 311.241 341.677 310.521 342.017 310.861C342.357 311.201 341.656 314.511 341.996 314.881C342.447 315.361 348.406 314.101 350.066 315.301C351.466 316.311 350.607 319.301 351.087 319.771C351.537 320.211 353.937 319.551 355.047 320.311C356.157 321.071 355.696 323.321 356.116 323.721C356.406 323.991 363.716 324.141 363.986 323.861C364.126 323.721 364.136 320.011 363.986 319.871C363.636 319.521 360.297 320.211 359.967 319.871C359.627 319.511 360.406 316.351 359.947 315.891C359.587 315.531 356.367 316.401 355.407 314.921C354.677 313.801 355.257 311.211 354.947 310.901C354.487 310.441 351.307 311.231 350.967 310.881C350.627 310.531 351.406 307.361 350.947 306.901C350.637 306.591 348.046 307.171 346.926 306.441C345.446 305.481 346.307 302.261 345.957 301.901C345.497 301.441 342.357 302.231 341.977 301.881C341.497 301.441 342.357 290.811 341.977 288.881H342.007Z" fill="black"/>
</svg>
