<svg width="626" height="912" viewBox="0 0 626 912" fill="none" xmlns="http://www.w3.org/2000/svg">
<path d="M363.419 302.131C367.113 302.131 370.807 298.432 374.501 291.034C378.195 283.636 381.889 276.204 393.005 265.107L400.392 257.71L404.087 283.636C404.087 305.863 411.474 346.586 426.284 387.342C452.176 472.519 511.349 557.73 585.332 613.282C600.142 624.379 614.917 635.51 618.611 635.51C618.611 635.51 622.305 628.112 622.305 624.413C622.305 602.185 622.305 583.657 622.305 583.657C625.999 583.657 626 579.957 626 576.258C626 568.86 625.999 568.861 622.305 568.861C603.801 568.861 552.017 509.61 522.431 461.456C492.845 409.603 478.034 372.546 470.646 346.62C470.646 335.523 463.258 313.295 459.564 298.466C455.87 279.937 452.177 254.011 452.177 235.516L448.482 205.891H459.564C463.258 209.59 474.374 213.288 485.457 220.72C500.267 228.118 507.655 228.118 511.349 224.419C515.043 220.72 507.655 213.322 474.341 176.265C455.837 157.737 444.755 139.242 444.755 139.242C444.755 135.543 441.061 131.844 437.366 131.844C433.672 131.844 429.978 124.446 426.284 113.315C418.896 91.088 411.474 94.7872 411.474 117.015C411.474 124.413 411.474 139.242 407.78 150.338C404.086 157.736 400.392 172.567 400.392 179.965C400.392 183.663 396.698 191.061 396.698 194.794C393.004 198.493 389.31 205.89 389.31 213.322C389.31 217.021 381.921 231.851 378.227 239.249C374.533 250.346 374.534 257.777 374.534 261.476C374.534 265.175 370.839 268.874 367.145 272.573C355.995 279.903 355.997 302.131 363.419 302.131ZM407.78 179.931C411.474 168.834 415.169 154.004 418.863 146.606C422.557 128.077 422.556 128.077 426.25 135.509C429.944 139.208 437.332 146.606 441.06 154.038C444.754 161.435 455.871 172.566 466.953 183.663C478.035 191.061 485.456 202.192 489.15 205.891C492.844 213.288 489.151 213.288 481.763 205.891C470.681 198.493 448.482 191.061 444.788 194.794C441.094 198.493 441.094 246.647 448.482 279.971C459.564 328.125 466.987 357.75 470.681 376.279C478.069 398.506 507.655 461.456 518.771 476.286C548.357 520.741 570.554 542.968 600.141 568.895C611.223 579.991 614.951 579.991 611.223 598.52V613.35L592.719 605.952C563.133 583.724 503.961 524.474 485.457 491.116C481.763 483.718 474.374 472.587 470.646 465.189C455.836 435.563 433.673 387.409 429.945 365.182C426.251 354.085 422.556 339.255 422.556 331.857C415.168 309.63 407.746 254.078 411.474 242.948C415.168 239.249 415.169 231.851 415.169 228.118C411.475 224.419 404.087 224.419 404.087 231.817C404.087 235.516 396.699 246.647 393.005 254.044C378.195 272.505 378.194 265.108 407.78 179.931Z" fill="black"/>
<path d="M8.31582 83.6227C8.31582 98.4523 12.0093 124.379 12.0093 135.476C12.0093 146.572 15.7045 176.231 15.7045 202.158C15.7045 224.385 19.398 250.313 19.398 261.409C19.398 272.506 23.0915 302.165 23.0915 328.092C19.3975 505.878 15.7045 602.185 15.7045 639.209C12.0105 657.737 12.0093 676.232 12.0093 679.965C12.0093 679.965 15.7034 683.664 23.0915 683.664C26.7855 683.664 74.8765 702.192 122.967 728.119C130.355 731.817 163.668 750.347 193.254 765.142C274.625 805.898 304.212 820.694 307.94 824.393C311.668 828.092 315.328 831.791 319.022 828.092C322.716 828.092 341.22 831.791 374.501 846.621C385.583 854.018 407.78 865.149 426.284 872.547C441.094 879.945 459.565 887.376 463.259 891.075C470.647 898.473 478.069 902.172 481.763 902.172C485.457 902.172 489.15 902.172 489.15 905.871C492.844 913.269 507.654 913.269 507.654 909.57C507.654 902.173 552.051 857.717 555.745 854.018C559.439 854.018 559.439 846.62 559.439 824.393C552.051 787.37 552.051 724.386 555.745 720.687C559.439 716.988 559.438 709.59 552.05 698.459C552.05 691.061 548.357 687.363 548.357 691.062C540.969 698.459 529.852 694.761 492.878 665.136L474.374 654.039L478.068 602.186C478.068 572.56 478.068 542.935 478.068 542.935C478.068 539.236 463.258 531.838 448.482 524.407C415.201 509.577 393.003 494.781 389.309 491.082C385.615 487.383 385.616 476.252 385.616 465.155C385.616 454.058 381.922 435.53 381.922 431.831C374.534 413.303 374.534 376.28 381.922 361.45C385.616 346.62 381.922 342.921 363.418 335.523C322.716 320.693 233.958 250.346 230.264 231.817C230.264 224.419 226.568 213.289 226.568 202.192C226.568 187.362 222.876 161.436 219.181 139.243V68.8606C219.181 50.332 219.18 46.6337 215.486 46.6337C211.792 42.9348 204.404 42.9342 196.982 39.2352C189.594 35.5363 178.48 28.1384 171.091 28.1384C167.397 28.1384 145.198 20.7407 130.388 9.60994C100.802 -1.48685 97.1077 -1.48662 93.4137 2.21231C89.7197 5.91124 86.0256 5.91154 82.3315 5.91154C82.3315 5.91154 63.8281 13.3093 49.0519 24.44C30.5479 31.8379 15.7712 35.5368 12.0772 35.5368C4.68911 31.8379 -2.73292 46.6332 0.995007 50.3661C4.58737 53.9971 8.31582 68.793 8.31582 83.6227ZM159.975 328.058V313.228L167.295 317.945L291.062 441.91L290.045 463.154L160.178 333.114C160.043 330.908 159.975 329.143 159.975 328.058ZM318.039 374.413C313.294 379.164 308.074 381.811 304.312 382.93L194.305 272.777C198.948 269.078 203.591 265.889 207.624 263.853L318.039 374.413ZM296.858 501.5C296.925 495.358 297.094 487.892 297.67 480.053L337.898 520.334C331.459 524.474 326.003 527.596 323.291 527.969L296.858 501.5ZM319.767 533.705C318.479 534.791 316.887 535.503 315.294 535.503C311.6 535.503 311.6 535.503 311.6 539.202C311.6 542.901 304.212 542.901 300.518 535.503C296.926 531.906 296.823 524.746 296.823 510.731L319.767 533.705ZM298.449 471.569C298.958 466.886 299.637 462.169 300.518 457.724C300.518 455.552 300.517 453.482 300.551 451.446L357.757 508.728L348.608 513.31C346.88 514.464 345.184 515.583 343.49 516.703L298.449 471.569ZM300.687 442.317C300.89 434.071 301.33 427.216 302.042 421.413L370.772 490.234V502.145L363.892 505.606L300.687 442.317ZM293.333 381.166C283.369 376.822 265.103 367.287 246.937 356.97L177.937 287.878L182.174 283.636C184.41 281.396 186.815 279.123 189.289 276.985L293.333 381.166ZM193.153 334.607L211.76 346.586C220.436 352.796 229.484 358.973 238.126 364.742C245.751 369.832 253.07 374.616 259.476 378.756L292.486 411.809L292.282 415.78L291.47 433.053L193.153 334.607ZM283.606 393.688L293.129 398.473L292.926 403.021L283.606 393.688ZM224.434 343.702C211.827 335.931 201.389 328.804 196.949 324.392C193.255 320.693 189.561 316.995 189.561 316.995C185.867 316.995 182.172 313.296 174.75 309.597L163.668 302.199L173.327 292.528L224.434 343.702ZM160.857 343.023L289.639 471.976L289.436 476.218C289.063 482.225 288.791 487.79 288.554 493.152L162.415 366.845C161.873 357.852 161.297 349.64 160.857 343.023ZM162.889 376.619L288.215 502.111C287.977 510.052 287.876 517.348 287.91 524.067L163.6 399.593C163.532 391.89 163.261 384.085 162.889 376.619ZM163.771 415.814C163.737 413.473 163.702 411.165 163.668 408.925L288.046 533.467C288.249 541.951 288.69 549.654 289.232 556.916L164.178 431.696C164.008 426.3 163.872 420.972 163.771 415.814ZM164.618 441.333L290.147 567.029C290.961 575.377 291.876 583.487 292.825 591.971L165.737 464.748C165.364 457.147 164.957 449.273 164.618 441.333ZM166.245 474.521L293.909 602.355C294.824 611.145 295.706 619.39 296.485 627.195L167.228 497.767C167.058 491.014 166.685 483.073 166.245 474.521ZM167.363 507.133L297.534 637.478C298.416 646.199 299.196 654.412 299.907 662.115L168.143 530.175C167.736 520.572 167.431 512.631 167.363 507.133ZM168.583 539.88L300.822 672.295C301.534 680.779 302.144 688.754 302.653 696.39L169.634 563.194C169.295 554.948 168.922 547.109 168.583 539.88ZM170.006 572.797L303.229 706.197C303.635 714.07 303.94 721.705 304.076 729.307L170.717 595.771C170.548 588.068 170.277 580.331 170.006 572.797ZM304.211 738.707C304.211 740.098 304.245 741.523 304.245 742.915C304.245 749.294 304.55 755.674 304.991 761.715L171.091 627.637V620.68C171.091 615.624 171.024 610.432 170.956 605.24L304.211 738.707ZM305.838 771.827C306.821 782.279 307.94 790.729 307.94 794.768C307.94 795.311 307.974 795.752 308.008 796.261L171.091 659.163V636.901L305.838 771.827ZM174.75 742.915L172.819 733.209L190.272 750.686L174.75 742.915ZM238.126 775.425C228.399 770.64 218.944 765.753 211.76 761.409L208.776 759.916L171.057 722.146V699.885L254.257 783.195C249.037 780.752 243.548 778.106 238.126 775.425ZM307.905 809.563C307.905 809.563 293.095 802.165 278.319 794.734C276.455 793.783 274.253 792.732 271.847 791.578L171.057 690.655V668.393L309.396 806.917C309.735 808.749 309.6 809.563 307.905 809.563ZM404.087 850.319C404.087 850.319 381.887 839.223 355.995 828.092L322.715 816.995L319.022 761.443C307.94 631.811 300.517 572.561 296.823 565.129C296.823 557.731 296.823 554.032 296.823 554.032C296.823 554.032 307.905 557.73 322.715 568.861C333.798 576.259 352.302 587.39 359.69 591.089C400.392 617.015 396.664 617.016 400.392 635.544V665.169C400.392 672.567 400.392 676.266 396.698 679.999C389.31 687.397 389.31 687.397 396.698 691.096C400.392 694.794 400.393 705.925 404.087 772.574C404.087 816.995 404.087 850.319 404.087 850.319ZM466.985 654.005L444.788 665.102C407.814 683.63 411.507 683.63 407.813 650.271C407.813 613.248 407.813 605.817 426.317 594.72C433.705 587.322 444.822 579.89 452.21 572.492L467.02 561.396V654.005H466.985ZM378.194 509.577C389.276 502.179 389.275 502.179 418.895 524.407C429.978 528.106 437.401 535.503 441.095 535.503C441.095 535.503 448.483 539.202 452.177 539.202C463.259 546.6 459.564 554.032 426.284 579.958C411.474 591.055 400.392 598.486 396.698 598.486C396.698 598.486 389.31 594.788 385.616 591.089C378.228 587.39 359.723 576.259 341.219 568.861C307.939 550.333 307.939 546.634 344.913 528.105C355.995 524.372 370.806 513.275 378.194 509.577ZM370.805 479.917V480.969L303.397 413.472C304.855 406.855 306.99 401.935 310.074 397.896L372.296 460.235C372.635 467.938 372.432 475.031 370.805 479.917ZM370.805 431.764C370.805 437.295 371.315 443.811 371.755 450.428L314.547 393.145C316.886 391.075 319.564 389.209 322.715 387.308C324.173 385.849 325.63 384.56 327.02 383.372L369.89 426.3C370.195 428.098 370.5 429.863 370.805 431.764ZM337.526 372.513C338.475 371.563 340.814 370.171 343.796 368.644L365.045 389.921C365.52 396.233 366.569 404.479 368.196 415.339L332.103 379.198C335.289 376.585 337.526 374.549 337.526 372.513ZM367.112 361.416C367.858 361.416 368.265 361.585 368.502 361.891L368.671 362.061C369.179 363.282 367.112 366.065 367.112 368.814C365.722 371.596 364.841 374.922 364.706 380.351L350.099 365.726C358.199 362.163 367.112 359.244 367.112 361.416ZM341.219 335.489C342.27 336.168 343.184 336.813 344.066 337.424L354.132 347.502C350.37 349.403 348.133 350.726 340.508 356.122L294.417 309.97C305.499 316.994 320.445 325.071 341.219 335.489ZM235.415 260.119L238.159 262.834L335.153 359.956C331.832 362.332 327.8 365.217 322.75 368.814C322.615 369.017 322.444 369.187 322.308 369.39L214.538 261.476C214.843 261.442 215.182 261.409 215.453 261.409C223.655 255.912 227.824 254.52 235.415 260.119ZM208.031 105.85C211.726 131.777 215.418 172.533 215.418 198.459L219.114 242.914L204.303 250.312C196.915 254.011 189.493 261.409 185.799 265.142C182.105 272.54 174.717 276.239 170.989 279.972L159.907 287.369L156.213 235.516C156.213 205.891 152.52 165.135 152.52 146.64V109.617L204.303 65.1622L208.031 105.85ZM37.9019 39.1673C41.596 35.4684 78.605 20.6394 89.6871 16.9405C93.3811 16.9405 97.0752 16.9402 100.769 13.2412C104.463 13.2412 115.578 16.9399 126.66 20.6389C137.742 28.0367 152.553 35.4689 159.941 35.4689C167.33 39.1678 178.444 42.8668 185.832 46.5658L200.643 53.9634L174.75 76.1911C152.552 98.4186 145.165 102.118 141.471 98.4188C141.471 98.4188 137.777 94.7195 130.388 94.7195C123 94.7195 115.579 91.0208 108.191 87.3219C104.497 79.924 85.9924 72.4921 71.2163 65.0942C41.5962 50.2646 34.2079 46.5652 37.9019 39.1673ZM19.398 53.9974C23.092 53.9974 30.4794 57.6964 41.5954 65.0942C52.6775 68.7932 63.7951 76.1906 71.1832 79.9234C78.5712 79.9234 85.9925 87.3214 93.3806 91.0203C100.769 94.7192 111.885 102.117 122.967 105.85L141.471 113.248L145.164 142.873V183.629C145.164 187.328 145.165 213.255 148.859 239.182C148.859 265.108 148.859 302.131 152.553 320.66C152.553 342.887 152.552 398.439 156.246 450.292C156.246 498.446 159.941 583.623 159.941 639.175C159.941 691.028 159.941 735.483 159.941 735.483C156.247 735.483 148.858 731.784 137.742 724.386L100.769 705.858C89.6872 702.159 74.8772 694.76 71.1832 691.028L41.5954 676.198C34.2074 672.5 23.0915 665.102 23.0915 665.102C23.0915 661.403 23.0926 642.874 26.7867 620.646C26.7867 587.322 30.4802 379.91 30.4802 313.228C30.4802 294.699 26.7867 250.278 26.7867 209.522C15.7046 76.1912 15.704 53.9974 19.398 53.9974Z" fill="black"/>
</svg>
