<svg width="371" height="347" viewBox="0 0 371 347" fill="none" xmlns="http://www.w3.org/2000/svg">
<path d="M209.229 39.6406C210.408 42.7662 210.825 40.527 212.264 40.5977C213.199 40.6462 213.653 42.3456 213.917 42.4201C214.294 42.533 217.731 39.9603 218.048 40.053C218.307 40.1302 218.857 41.8358 219.106 41.9064C219.355 41.9771 220.698 40.7668 220.949 40.8302C221.2 40.8937 222.013 43.0662 222.274 43.1361C222.535 43.2061 224.318 41.7291 224.575 41.8017C224.831 41.8744 225.378 43.5753 225.634 43.6479C225.969 43.7491 228.365 41.5933 229.456 41.6991C230.389 41.7858 230.848 43.4634 231.102 43.5314C231.436 43.6208 232.688 42.4135 232.937 42.4842C233.186 42.5549 233.669 44.2192 234.003 44.3086C234.228 44.3689 235.264 43.4148 235.973 43.4531C236.908 43.5016 237.37 45.2148 237.624 45.2828C237.957 45.3722 239.21 44.1649 239.459 44.2356C239.708 44.3062 240.191 45.9706 240.524 46.06C240.785 46.1299 242.035 44.8753 242.869 45.3009C243.502 45.622 243.923 46.9667 244.147 47.0269C244.481 47.1163 245.715 45.9196 245.983 45.9797C246.404 46.0733 248.982 52.1734 250.748 53.2138C251.509 53.6627 252.306 52.314 253.453 53.6007C254.379 54.6415 257.085 60.5818 257.566 60.7028C257.788 60.7584 259.464 59.3498 260.253 60.1015C261.959 61.7399 259.003 62.7355 258.914 63.0382C258.815 63.3652 262.003 68.8983 262.341 68.9732C262.57 69.0307 263.601 68.0865 264.307 68.1203C265.242 68.1688 265.696 69.8682 265.959 69.9427C266.335 70.051 269.314 67.7483 269.627 67.8437C269.893 67.9229 270.691 70.0797 270.952 70.1496C271.213 70.2196 272.996 68.7426 273.253 68.8153C273.509 68.8879 274.064 70.6026 274.31 70.6686C274.557 70.7347 275.902 69.529 276.153 69.5925C276.404 69.6559 277.217 71.8284 277.478 71.8983C277.739 71.9683 279.509 70.4993 279.779 70.564C280.136 70.6519 282.83 76.4216 283.232 76.514C283.471 76.5663 284.46 75.6032 285.206 75.6749C285.821 75.7308 286.181 76.7366 286.635 76.8544C287.089 76.9722 287.902 76.2884 288.466 76.5447C289.151 76.8603 289.524 78.1959 289.754 78.2654C290.083 78.3574 291.333 77.1574 291.589 77.2182C291.845 77.2789 292.653 79.4541 292.914 79.5241C293.175 79.594 294.945 78.1251 295.215 78.1897C295.514 78.2621 297.305 82.2666 297.599 82.3298C297.867 82.3899 299.141 81.1885 299.438 81.2682C300.122 81.4554 305.195 91.3989 306.604 92.6818C309.158 91.532 309.426 93.9394 309.978 94.0989C310.285 94.1851 311.879 92.8052 312.649 93.5438C314.369 95.1862 311.205 96.1919 311.402 96.7461C311.581 97.2371 313.219 100.074 313.41 100.117C314.191 100.303 314.991 97.7816 316.919 100.855C319.22 104.522 315.872 104.181 316.174 105.012C316.532 105.982 321.343 114.686 321.89 114.817C322.61 114.99 323.641 112.488 325.414 115.559C327.187 118.63 324.505 118.273 324.295 118.982C324.149 119.483 329.19 126.791 329.046 127.242C328.964 127.504 327.311 127.974 327.221 128.307C327.151 128.569 328.406 129.818 327.98 130.652C327.659 131.285 326.315 131.706 326.254 131.931C326.165 132.264 327.367 133.507 327.302 133.766C327.236 134.024 325.528 134.569 325.448 134.823C325.347 135.158 327.503 137.554 327.397 138.645C327.31 139.577 325.642 140.032 325.569 140.288C325.456 140.666 328.034 144.112 327.934 144.416C327.852 144.677 326.199 145.148 326.109 145.481C326.039 145.742 327.294 146.992 326.868 147.826C326.547 148.459 325.203 148.879 325.142 149.104C325.053 149.438 326.255 150.681 326.19 150.939C326.124 151.198 324.416 151.742 324.336 151.997C324.235 152.331 326.396 154.737 326.285 155.818C326.192 156.73 324.585 157.131 324.501 157.474C324.418 157.797 325.358 158.714 325.296 159.436C325.241 160.05 324.235 160.41 324.117 160.864C323.999 161.319 324.69 162.133 324.424 162.692C324.116 163.347 322.838 163.681 322.754 163.993C322.67 164.305 323.611 165.233 323.55 165.955C323.498 166.567 322.488 166.929 322.366 167.386C322.243 167.843 322.939 168.655 322.673 169.213C322.365 169.869 321.095 170.197 321.003 170.514C320.907 170.858 322.094 172.012 321.72 172.84C321.271 173.835 318.201 174.835 318.122 175.175C318.059 175.438 319.256 176.758 319.191 177.016C319.01 177.776 306.737 184.482 305.629 184.846C303.794 185.458 303.624 182.552 301.815 184.547C301.461 184.942 302.394 185.953 302.093 186.599C301.792 187.245 300.446 187.654 300.372 187.887C300.255 188.279 303.902 193.523 303.798 193.853C303.717 194.115 302.063 194.585 301.974 194.919C301.904 195.18 303.159 196.429 302.733 197.263C302.412 197.896 301.067 198.317 301.007 198.542C300.918 198.875 302.125 200.127 302.054 200.377C301.984 200.626 300.319 201.109 300.23 201.442C300.17 201.667 301.124 202.704 301.085 203.412C301.037 204.348 299.337 204.801 299.263 205.065C299.144 205.465 302.797 210.699 302.689 211.031C302.607 211.293 300.954 211.763 300.865 212.097C300.795 212.358 302.049 213.607 301.624 214.441C301.303 215.074 299.958 215.495 299.898 215.72C299.808 216.053 301.016 217.306 300.945 217.555C300.874 217.804 299.21 218.287 299.12 218.62C299.06 218.845 300.014 219.882 299.976 220.591C299.927 221.526 298.219 221.985 298.146 222.241C298.057 222.575 299.254 223.809 299.193 224.076C299.121 224.407 296.049 225.414 295.595 226.412C295.204 227.263 296.419 228.486 296.356 228.749C296.259 229.154 292.833 230.482 292.734 230.883C292.666 231.149 293.911 232.392 293.485 233.226C293.164 233.859 291.82 234.279 291.759 234.504C291.67 234.838 292.867 236.072 292.807 236.339C292.756 236.571 288.902 238.759 288.674 238.694C288.471 238.64 287.63 236.514 286.648 236.83C285.159 237.31 287.605 239.22 284.791 241.004C281.556 243.055 281.992 240.763 280.843 240.77C279.108 240.779 275.247 243.689 274.934 243.593C274.675 243.516 274.126 241.81 273.876 241.74C273.627 241.669 272.285 242.879 272.034 242.816C271.782 242.753 270.969 240.58 270.708 240.51C270.447 240.44 268.66 241.92 268.408 241.844C268.156 241.769 267.597 240.057 267.35 239.991C267.103 239.925 265.758 241.131 265.507 241.067C264.833 240.887 265.287 237.829 262.149 240.548C262.069 240.834 263.899 243.081 264.06 243.975C264.236 244.97 263.032 245.273 262.899 245.797C262.777 246.254 263.452 247.084 263.215 247.619C262.939 248.244 260.584 249.622 259.881 249.753C258.761 249.958 258.437 248.367 257.814 248.531C257.493 248.612 254.919 250.098 254.693 250.333C254.263 250.777 255.258 251.747 254.941 252.408C254.624 253.07 253.368 253.378 253.271 253.71C253.185 254.017 254.565 255.611 253.826 256.38C252.191 258.091 251.17 255.113 250.894 255.039C250.553 254.948 249.315 256.147 249.064 256.084C248.813 256.02 248.261 254.31 248.006 254.23C247.672 254.129 245.266 256.29 244.185 256.179C243.276 256.091 242.877 254.488 242.525 254.398C242.206 254.312 241.243 255.236 240.57 255.195C239.107 255.102 236.051 247.506 235.475 247.379C235.208 247.319 233.981 248.518 233.645 248.424C233.434 248.367 232.989 247.055 232.35 246.701C231.521 246.242 230.808 248.002 229.876 247.216L218.798 226.997C219.181 226.653 220.583 226.15 220.649 225.935C220.948 224.946 216.131 221.561 220.094 220.738L215.322 212.472C215.274 212.39 214.178 213.347 213.44 212.982C212.788 212.66 212.366 211.335 212.141 211.274C212.033 211.245 210.396 212.19 210.362 212.302C210.138 213.081 212.914 214.089 209.129 216.09C205.916 217.786 206.491 215.205 205.721 214.975C205.491 214.906 201.642 217.103 201.589 217.33C201.526 217.593 202.728 218.922 202.665 219.173C202.601 219.424 200.882 219.982 200.811 220.231C200.741 220.48 202.224 222.284 202.15 222.529C202.077 222.773 200.427 223.248 200.333 223.596C200.272 223.809 201.694 225.496 200.939 226.281C199.307 227.977 198.279 225.028 197.999 224.956C197.883 224.925 196.275 225.835 196.227 225.986C195.527 228.161 209.108 247.511 208.719 248.747C208.637 249.009 206.979 249.482 206.894 249.813C206.835 250.049 207.816 251.058 207.748 251.79C207.68 252.479 206.537 252.888 206.464 253.187C206.278 253.969 209.768 257.912 209.634 259.283C209.547 260.216 207.87 260.675 207.802 260.929C207.708 261.265 208.906 262.492 208.849 262.764C208.782 263.073 204.822 264.782 204.733 265.159C204.676 265.4 205.641 266.381 205.572 267.132C205.516 267.747 204.51 268.107 204.388 268.564C204.266 269.021 204.954 269.831 204.698 270.395C204.382 271.08 203.047 271.453 202.977 271.683C202.885 272.012 204.085 273.262 204.024 273.518C203.964 273.774 201.788 274.582 201.718 274.843C201.648 275.104 203.125 276.887 203.053 277.144C202.98 277.4 201.265 277.955 201.199 278.202C201.133 278.448 202.339 279.793 202.276 280.044C202.212 280.296 200.04 281.108 199.97 281.37C199.9 281.631 201.369 283.4 201.304 283.67C201.227 283.972 197.232 285.758 197.159 286.057C197.097 286.32 198.294 287.639 198.228 287.898C197.959 289.034 191.853 289.256 195.415 292.581L177.04 303.189C176.715 302.807 176.189 301.407 175.976 301.346C175.414 301.18 166.25 306.924 165.602 306.735C165.396 306.676 164.87 305.276 164.537 304.891L156.267 309.666C154.945 305.519 153.442 308.925 152.644 308.699C152.395 308.629 151.833 306.912 151.586 306.846C151.34 306.78 149.994 307.985 149.743 307.922C149.492 307.859 148.679 305.686 148.418 305.616C148.157 305.546 146.369 307.026 146.118 306.951C145.866 306.875 145.306 305.163 145.06 305.097C144.813 305.031 143.477 306.231 143.217 306.173C142.754 306.061 138.943 298.049 138.436 297.925C138.171 297.857 136.928 299.102 136.094 298.676C135.461 298.355 135.04 297.011 134.815 296.95C134.482 296.861 133.248 298.058 132.98 297.998C131.814 297.739 122.208 277.608 121.049 277.321C120.779 277.257 119.005 278.728 118.748 278.656C118.09 278.472 118.465 275.564 115.85 277.871L111.077 269.605L104.646 273.319C104.522 273.39 106.11 274.931 105.186 275.986C104.717 276.52 94.9614 282.153 94.2818 282.281C92.9318 282.534 92.6383 280.656 92.2204 280.548C91.9013 280.462 90.9805 281.404 90.2585 281.343C89.644 281.287 89.2839 280.281 88.8297 280.164C88.3755 280.046 87.5609 280.737 86.9981 280.473C86.3422 280.166 86.0086 278.887 85.6968 278.803C85.385 278.72 84.4568 279.66 83.7349 279.599C83.123 279.548 82.7629 278.542 82.3061 278.42C81.4306 278.177 80.0451 279.78 79.1906 276.994C79.5716 276.645 80.9778 276.14 81.0341 275.93C81.0717 275.804 79.8349 273.662 79.7043 273.627C79.4486 273.566 78.1219 274.761 77.8589 274.698C76.8504 274.459 76.3345 268.597 73.6339 271.627L60.1857 249.374L58.3422 250.439L53.5699 242.173C53.5169 242.081 55.4619 241.203 55.4088 241.111L49.7076 231.236C49.2564 230.455 51.5448 229.354 51.5817 229.217C51.7853 228.486 49.0837 227.459 52.3853 226.319C51.4708 223.09 49.2571 226.623 48.1557 223.251C51.9476 222.079 47.8511 220.356 48.0503 218.365C48.143 217.453 49.7459 217.055 49.8345 216.709C49.9174 216.386 48.9769 215.458 49.0344 214.75C49.0918 214.043 50.2502 213.65 50.318 213.353C50.4726 212.718 48.3573 210.722 48.4726 209.552C48.5639 208.616 50.237 208.159 50.305 207.905C50.3944 207.572 49.1924 206.329 49.2577 206.07C49.3231 205.812 51.0313 205.267 51.1111 205.013C51.226 204.628 48.1236 200.528 47.8857 199.299C47.6209 197.938 49.5663 197.581 49.663 197.249C49.7739 196.878 47.4758 193.896 47.5639 193.582C47.6404 193.311 49.7933 192.527 49.8698 192.256C49.9567 191.961 47.3861 188.4 47.4764 188.122C47.5582 187.86 49.2115 187.39 49.3009 187.056C49.3708 186.795 48.1162 185.546 48.5418 184.711C48.8629 184.078 50.2075 183.658 50.2678 183.433C50.3571 183.099 49.1553 181.856 49.2206 181.598C49.2859 181.339 50.9941 180.795 51.074 180.54C51.1868 180.162 48.7444 177.429 48.8735 176.251C48.9361 175.669 49.9405 175.286 50.0583 174.831C50.1761 174.377 49.4923 173.564 49.7512 173.004C50.0668 172.319 51.3952 171.945 51.4646 171.715C51.6074 171.24 48.4858 167.256 48.2583 166.002C48.0532 164.882 49.6418 164.566 49.485 163.933C49.3877 163.542 46.4898 158.331 46.1688 158.253C45.9493 158.202 44.8205 159.166 44.3253 159.317C42.3464 157.174 44.3939 156.814 44.6486 155.906C44.832 155.237 43.6647 154.531 44.9103 153.451C46.7251 151.869 46.4551 154.385 47.1481 154.598C47.3782 154.668 51.4719 152.935 51.5295 152.706C51.5754 152.52 50.6192 151.448 50.664 150.729C50.7171 149.791 52.4257 149.332 52.4937 149.078C52.5831 148.745 51.3759 147.493 51.4466 147.243C51.5172 146.994 53.1816 146.511 53.2709 146.178C53.3312 145.953 52.3771 144.916 52.4154 144.208C52.4639 143.272 54.1771 142.81 54.2451 142.557C54.3345 142.223 53.1273 140.971 53.1979 140.722C53.2686 140.472 54.9329 139.99 55.0223 139.656C55.0825 139.431 54.1284 138.395 54.1668 137.686C54.2153 136.751 55.9285 136.289 55.9965 136.035C56.0858 135.701 54.8786 134.449 54.9493 134.2C55.02 133.951 56.6843 133.468 56.7737 133.134C56.8339 132.91 55.8798 131.873 55.9181 131.164C55.9666 130.229 57.6798 129.767 57.7478 129.513C57.8372 129.18 56.63 127.927 56.7007 127.678C56.7713 127.429 58.4357 126.946 58.525 126.613C58.595 126.352 57.3404 125.102 57.766 124.268C58.0871 123.635 59.4317 123.214 59.4919 122.99C59.5813 122.656 58.3741 121.404 58.4448 121.155C58.5154 120.905 60.1824 120.427 60.2691 120.089C60.3371 119.835 59.1142 118.598 59.5055 117.747C60.0395 116.581 65.2842 114.57 65.4026 114.085C65.4543 113.877 64.505 112.721 64.3382 112.241L74.4475 106.405C75.5592 109.711 76.6882 107.005 77.35 107.175C77.6085 107.24 78.4043 109.404 78.6752 109.481C78.9706 109.568 82.5312 106.997 82.8147 107.085C83.0764 107.166 83.5466 108.82 83.8802 108.909C84.105 108.969 85.1417 108.015 85.8504 108.054C86.7856 108.102 87.2476 109.815 87.5013 109.883C87.8349 109.973 89.0871 108.765 89.3364 108.836C89.5856 108.907 90.0638 110.574 90.4019 110.66C90.6557 110.728 91.8927 109.506 92.7438 109.897C93.7414 110.351 94.7388 113.416 95.0789 113.495C95.3419 113.558 96.6613 112.361 96.9243 112.424C97.3877 112.536 101.203 120.546 101.705 120.672C101.971 120.74 103.214 119.495 104.048 119.92C105.34 120.578 104.561 122.72 107.157 120.602C112.738 129.357 117.251 139.329 122.926 147.969C123.497 148.841 125.827 152.282 126.252 152.699C126.676 153.116 127.666 152.134 128.325 152.446C128.983 152.759 129.3 154.029 129.626 154.116C129.861 154.183 131.858 152.791 132.299 153.554L136.676 161.135C139.28 158.755 139.328 162.141 140.899 164.213C143.054 163.03 143.764 163.221 142.136 161.047L158.217 151.763C159.279 155.121 161.017 152.218 163.416 151.213C162.85 149.585 159.302 145.797 160.534 144.406C161.61 143.19 162.706 144.059 160.932 141.613C162.75 139.485 164.112 142.119 164.564 142.011C164.78 141.96 166.175 141.149 166.13 141.071L161.753 133.49C161.469 132.998 162.885 132.107 162.998 131.686C163.18 130.993 162.021 130.313 163.259 129.23C164.724 127.956 164.723 129.176 165.495 130.416C167.076 129.736 167.956 129.179 166.448 127.757C166.045 127.377 165.036 128.327 164.388 128.021C163.739 127.715 163.337 126.36 163.102 126.293C162.773 126.201 161.535 127.4 161.267 127.34C160.228 127.113 152.533 110.991 150.656 108.961C154.453 107.798 150.362 106.084 150.553 104.08C150.64 103.147 152.317 102.687 152.385 102.433C152.475 102.1 151.267 100.847 151.338 100.598C151.409 100.349 153.073 99.8662 153.162 99.5326C153.223 99.3078 152.269 98.2711 152.307 97.5624C152.355 96.6273 154.069 96.1653 154.137 95.9115C154.226 95.5779 153.019 94.3257 153.089 94.0765C153.16 93.8273 154.824 93.3445 154.914 93.0109C154.984 92.7499 153.729 91.5005 154.155 90.6663C154.476 90.0335 155.82 89.6127 155.881 89.3879C155.97 89.0543 154.763 87.802 154.834 87.5529C154.904 87.3036 156.571 86.8255 156.658 86.4873C156.726 86.2335 155.503 84.9965 155.894 84.1454C156.348 83.1478 159.413 82.1504 159.493 81.8103C159.553 81.5546 158.358 80.216 158.424 79.9695C158.49 79.7229 160.66 78.9054 160.73 78.6443C160.8 78.3833 159.331 76.614 159.395 76.3438C159.479 76.001 165.299 73.2353 165.374 72.8979C165.435 72.6422 164.239 71.3036 164.305 71.057C164.371 70.8105 166.541 69.9929 166.611 69.7319C166.681 69.4708 165.212 67.7016 165.277 67.4313C165.364 67.0932 171.174 64.321 171.256 63.9855C171.308 63.7778 170.358 62.6219 170.192 62.142L180.301 56.3054C180.626 56.6878 181.152 58.0879 181.365 58.1489C181.607 58.2176 185.253 56.0391 185.698 55.6532C186.219 55.2058 184.765 53.7281 184.898 53.6512L209.25 39.5918L209.229 39.6406Z" fill="white" fill-opacity="0.5"/>
<path d="M291.713 156.626C291.958 156.684 293.322 155.48 293.585 155.546C293.822 155.602 296.083 159.518 296.01 159.746C295.943 159.965 294.518 160.471 294.138 160.827C295.057 164.099 297.317 160.523 298.432 163.942C298.046 164.296 296.623 164.807 296.561 165.023C296.499 165.239 298.453 168.517 298.825 168.956C299.443 169.681 300.724 166.932 301.551 169.311C302.205 171.211 299.161 171.176 301.406 173.415C304.084 171.091 303.623 173.989 304.356 174.182C304.585 174.243 305.637 173.274 306.357 173.313C307.306 173.362 307.774 175.09 308.037 175.168C308.399 175.277 310.534 173.434 311.508 173.258C312.822 173.022 313.076 175.757 315.175 173.561C312.123 170.787 318.018 170.358 318.268 169.261C318.326 169.016 317.346 168.02 317.416 167.258C317.473 166.634 318.494 166.268 318.614 165.807C318.733 165.346 318.039 164.521 318.302 163.952C318.623 163.257 319.967 162.879 320.042 162.643C320.373 161.568 315.483 158.249 319.513 157.372C318.584 154.094 316.337 157.681 315.219 154.257C318.542 153.222 315.712 152.062 316.288 150.796C316.768 149.741 318.97 149.34 319.678 148.615C320.108 148.174 319.111 147.181 319.421 146.51C319.731 145.84 321.095 145.444 321.168 145.203C321.281 144.827 318.671 141.33 318.768 141.013C318.846 140.75 320.568 140.197 320.646 139.934C320.749 139.595 318.561 137.162 318.668 136.055C318.756 135.108 320.447 134.641 320.524 134.386C320.668 133.892 317.502 129.864 317.273 128.583C317.065 127.446 318.678 127.125 318.518 126.483C318.42 126.085 315.478 120.795 315.152 120.716C314.539 120.572 313.393 122.951 312.587 120.628C312.003 118.937 313.828 118.736 313.682 118.117C312.887 114.767 311.073 119.051 310.164 116.433C309.572 114.727 311.421 114.599 311.248 113.89C311.146 113.476 307.301 106.828 306.999 106.53C306.527 106.068 305.425 107.308 304.557 106.558C303.688 105.809 303.365 103.805 302.28 103.23C301.328 102.722 300.827 104.928 299.512 103.328C296.109 99.201 299.602 99.1941 299.783 98.4614C299.814 98.3436 298.85 96.6847 298.74 96.6551C298.504 96.592 297.483 97.5612 296.733 97.4903C296.109 97.4336 295.746 96.4171 295.282 96.2928C294.818 96.1686 293.966 96.8595 293.428 96.6166C292.321 96.1228 291.977 93.6831 290.81 93.0626C290.009 92.635 289.326 94.1368 288.682 93.7747C287.502 93.1115 286.879 90.4156 286.257 90.2212C285.91 90.1164 284.882 91.1391 284.042 90.4169C283.202 89.6946 282.816 87.5592 281.769 87.0933C281.233 86.855 280.378 87.5414 279.914 87.4171C279.451 87.2928 279.088 86.2763 278.464 86.2196C277.702 86.1495 276.702 87.1245 276.46 87.0715C276.073 86.9836 274.375 82.9857 274.032 82.8976C273.585 82.782 269.478 85.9622 268.219 86.185C267.204 86.3667 266.901 85.1414 266.369 85.0067C265.901 84.8851 265.081 85.5887 264.514 85.3185C263.848 85.0059 263.515 83.7172 263.193 83.6231C262.844 83.5257 261.673 84.7308 260.832 84.3515C260.283 84.102 256.691 78.0301 256.539 77.228C256.204 75.4734 259.351 75.8471 257.703 73.9734C256.342 72.4252 255.771 74.2173 255.28 74.1647C254.269 74.0515 251.321 68.9769 251.753 68.0551C252.272 66.9592 254.363 67.2948 252.855 65.5769C251.44 63.9668 250.845 66.1152 250.083 65.6902C248.984 65.08 248.034 62.1309 247.688 62.0382C247.401 61.9613 245.17 63.7781 244.213 63.9635C242.834 64.237 242.461 62.2433 242.134 62.1519C241.808 62.0604 240.54 63.2713 240.271 63.215C240.036 63.1639 237.773 59.2434 237.846 59.0144C237.929 58.7487 239.607 58.2712 239.698 57.9326C239.789 57.5939 238.248 56.2933 239.171 55.231C242.638 51.2321 243.951 55.0914 244.393 55.2218C244.76 55.3278 246.887 53.4833 247.864 53.3112C248.842 53.139 249.183 54.3548 249.715 54.4895C250.178 54.6137 251.021 53.9282 251.564 54.1684C252.901 54.7594 255.727 61.8093 256.381 61.9728C256.607 62.0293 258.308 60.5992 259.109 61.3623C260.841 63.0258 257.84 64.0366 257.75 64.3438C257.656 64.6658 260.579 69.5994 261.042 70.1535C261.453 70.6384 262.464 69.4573 263.225 69.5154C264.811 69.6327 267.508 77.0742 268.433 77.3495C268.733 77.4378 269.679 76.63 270.313 76.93C270.946 77.23 271.312 78.5433 271.632 78.6328C271.951 78.7223 272.891 77.7628 273.624 77.8251C274.245 77.8771 274.613 78.9029 275.074 79.0225C275.535 79.1422 276.36 78.4479 276.931 78.7034C277.626 79.0239 278.007 80.3725 278.24 80.443C278.725 80.5926 282.776 77.4133 284.045 77.1851C285.055 77.0061 285.36 78.224 285.895 78.3634C286.359 78.4876 287.169 77.8209 287.745 78.0423C289.581 78.7554 289.076 80.4663 287.185 80.8985C288.028 83.8153 289.235 81.7992 290.177 82.2448C290.828 82.5535 291.177 83.8581 291.494 83.9429C291.81 84.0278 292.753 83.073 293.485 83.1352C294.107 83.1873 294.475 84.2131 294.936 84.3327C295.397 84.4523 296.224 83.7507 296.791 84.021C297.457 84.3335 297.78 85.6155 298.114 85.709C298.426 85.7965 300.044 84.3955 300.826 85.1454C302.562 86.8062 299.557 87.8196 299.466 88.1268C299.404 88.331 301.39 91.7708 301.601 91.8234C301.868 91.887 303.112 90.6582 303.974 91.0507C305.061 91.5432 305.743 94.4166 306.379 94.603C306.674 94.6939 307.625 93.8835 308.259 94.1835C308.893 94.4835 309.244 95.7808 309.58 95.8789C309.892 95.9664 311.51 94.5654 312.292 95.3153C314.039 96.9828 310.826 98.0038 311.026 98.5664C311.208 99.0649 312.871 101.945 313.064 101.989C313.858 102.178 314.665 99.6204 316.627 102.738C318.946 106.421 316.019 105.846 315.775 106.684C315.615 107.237 320.818 115.882 321.494 116.687C321.71 116.942 325.045 114.462 325.927 119.062C326.192 120.447 324.226 120.804 324.128 121.141C323.977 121.645 329.097 129.069 328.951 129.527C328.868 129.792 327.189 130.27 327.098 130.608C327.027 130.873 328.301 132.142 327.869 132.989C327.543 133.631 326.178 134.058 326.117 134.287C326.026 134.625 327.246 135.887 327.18 136.15C327.114 136.412 325.379 136.965 325.298 137.224C325.196 137.563 327.384 139.996 327.277 141.103C327.189 142.05 325.495 142.512 325.421 142.772C325.307 143.156 327.924 146.654 327.822 146.962C327.739 147.228 326.06 147.705 325.97 148.044C325.899 148.309 327.172 149.577 326.74 150.424C326.414 151.067 325.049 151.494 324.988 151.722C324.897 152.061 326.117 153.323 326.051 153.585C325.985 153.847 324.25 154.401 324.169 154.659C324.067 154.998 326.261 157.441 326.148 158.539C326.054 159.464 324.422 159.871 324.337 160.219C324.252 160.548 325.206 161.478 325.144 162.211C325.088 162.835 324.066 163.201 323.947 163.662C323.827 164.123 324.529 164.95 324.259 165.517C323.946 166.183 322.648 166.521 322.563 166.838C322.478 167.154 323.433 168.097 323.371 168.83C323.319 169.451 322.293 169.819 322.169 170.283C322.044 170.747 322.751 171.571 322.48 172.138C322.168 172.804 320.879 173.137 320.785 173.459C320.688 173.808 321.893 174.979 321.514 175.82C321.057 176.83 317.941 177.845 317.86 178.191C317.797 178.458 319.012 179.797 318.945 180.06C318.751 180.875 305.158 188.3 304.322 188.21C303.732 188.146 303.347 187.136 302.881 187.007C302.206 186.818 301.485 188.006 300.388 186.741C298.772 184.892 301.415 185.072 301.594 184.477C301.692 184.14 298.467 179.449 298.086 178.412C294.225 179.571 298.403 181.322 298.184 183.377C298.12 183.968 297.101 184.358 296.981 184.819C296.862 185.28 297.563 186.107 297.293 186.674C296.98 187.339 295.682 187.678 295.598 187.995C295.513 188.311 296.471 189.27 296.413 189.988C296.354 190.707 294.988 191.078 295.141 191.687C295.218 192.004 296.737 194.624 296.968 194.852C297.355 195.232 299.843 193.559 300.376 196.369C297.197 197.588 299.474 197.985 299.4 199.453C299.351 200.402 297.623 200.871 297.545 201.134C297.417 201.569 299.607 203.832 299.48 205.013C299.417 205.604 298.397 205.994 298.277 206.455C298.158 206.916 298.859 207.743 298.589 208.31C298.277 208.976 296.979 209.314 296.894 209.631C296.809 209.947 297.764 210.89 297.701 211.623C297.649 212.244 296.624 212.612 296.499 213.076C296.375 213.54 297.081 214.364 296.811 214.931C296.499 215.597 295.201 215.935 295.116 216.252C295.031 216.568 295.986 217.511 295.923 218.244C295.871 218.865 294.846 219.233 294.721 219.697C294.597 220.161 295.303 220.985 295.033 221.552C294.72 222.218 293.422 222.556 293.338 222.873C293.253 223.19 294.211 224.149 294.153 224.867C294.094 225.585 292.722 225.967 292.878 226.561C293.13 227.536 294.84 228.988 294.723 230.145C294.63 231.094 292.932 231.558 292.863 231.816C292.772 232.155 293.998 233.426 293.926 233.679C293.854 233.932 292.164 234.422 292.074 234.761C292.003 235.026 293.276 236.294 292.844 237.141C292.518 237.784 291.153 238.211 291.092 238.439C291.001 238.778 292.216 240.03 292.155 240.302C292.104 240.537 288.191 242.759 287.96 242.693C287.754 242.638 286.9 240.48 285.902 240.801C284.567 241.236 286.055 243.295 285.294 244.176C284.86 244.676 282.779 245.889 282.139 245.998C281.128 246.177 280.82 244.954 280.288 244.82C279.82 244.698 279 245.402 278.433 245.131C277.768 244.819 277.429 243.521 277.112 243.436C276.796 243.351 275.854 244.306 275.121 244.244C274.499 244.192 274.134 243.171 273.67 243.046C273.206 242.922 272.396 243.589 271.82 243.367C269.984 242.654 270.489 240.943 272.381 240.511C271.569 237.445 270.069 240.097 268.754 238.585C267.148 236.73 269.78 236.922 269.961 236.32C270.059 235.983 266.794 230.338 266.453 230.255C266.35 230.227 264.616 231.222 264.591 231.33C264.522 231.588 265.741 232.956 265.671 233.202C265.602 233.447 263.871 234.017 263.79 234.276C263.687 234.615 265.881 237.057 265.768 238.155C265.679 239.078 264.052 239.483 263.96 239.841C263.868 240.199 265.065 241.356 264.683 242.205C264.227 243.215 261.127 244.214 261.03 244.575C260.949 244.877 262.799 247.101 262.97 248.054C263.149 249.065 261.926 249.372 261.792 249.904C261.667 250.368 262.353 251.211 262.113 251.754C261.832 252.389 259.441 253.788 258.727 253.92C257.59 254.128 257.262 252.513 256.629 252.679C256.304 252.762 253.69 254.271 253.46 254.509C253.024 254.96 254.034 255.945 253.712 256.616C253.39 257.287 252.11 257.603 252.017 257.937C251.914 258.32 253.962 260.617 251.656 261.182C250.583 261.447 249.822 259.342 249.604 259.287C249.25 259.192 248 260.412 247.745 260.347C247.49 260.283 246.93 258.547 246.672 258.466C246.332 258.363 243.89 260.557 242.792 260.444C241.869 260.355 241.467 258.732 241.107 258.636C240.746 258.539 239.587 259.743 238.743 259.359C237.482 258.793 234.488 251.623 233.947 251.506C233.675 251.445 232.43 252.661 232.089 252.566C231.875 252.509 231.426 251.181 230.774 250.817C229.984 250.377 229.039 252.167 228.272 251.366C226.579 249.598 229.529 248.736 229.626 248.387C229.688 248.171 227.781 244.89 227.412 244.444C227.253 244.256 221.622 245.939 224.423 242.834C225.392 241.764 226.617 242.258 224.956 240.224C224.612 239.8 222.166 242.644 220.725 238.317C220.063 236.328 222.476 235.949 222.39 235.8L217.545 227.408C217.491 227.315 219.466 226.423 219.412 226.33L213.489 216.071C213.44 215.987 212.328 216.959 211.579 216.589C210.917 216.262 210.488 214.916 210.26 214.855C210.15 214.825 208.488 215.785 208.454 215.898C208.226 216.689 211.045 217.713 207.202 219.744C203.94 221.466 204.524 218.845 203.742 218.612C203.405 218.514 197.773 221.747 197.682 222.086C197.597 222.402 200.208 225.998 200.112 226.284C200.029 226.549 198.362 227.014 198.267 227.367C198.205 227.584 199.648 229.296 198.882 230.093C197.228 231.819 196.144 228.649 195.67 228.83C192.836 229.893 195.027 230.421 194.928 231.791C194.822 233.246 188.997 235.327 188.858 235.893C188.83 235.996 189.846 237.681 189.945 237.711C190.257 237.798 192.224 235.99 192.945 237.572C193.956 239.011 191.406 239.767 191.314 240.094C191.252 240.298 193.238 243.738 193.448 243.79C193.715 243.854 194.96 242.625 195.821 243.018C197.241 243.667 199.098 249.328 200.422 250.599C200.95 251.103 201.922 249.564 203.159 250.941C206.249 254.385 203.312 255.302 203.443 255.831C203.881 257.613 207.859 262.056 207.708 263.605C207.62 264.552 205.916 265.019 205.847 265.277C205.752 265.618 206.969 266.864 206.91 267.14C206.842 267.453 202.823 269.189 202.732 269.571C202.679 269.813 203.654 270.812 203.584 271.575C203.524 272.194 202.506 272.564 202.386 273.025C202.052 274.257 204.019 274.634 200.713 276.356C197.728 277.912 198.061 275.591 197.229 275.798C195.856 276.136 193.157 278.845 191.783 278.718C190.836 278.63 190.377 276.94 190.114 276.862C189.697 276.742 186.355 279.35 185.929 279.228C185.703 279.16 184.647 276.49 183.419 277.597C182.192 278.704 186.172 282.741 186.031 284.211C185.942 285.158 184.249 285.619 184.175 285.88C184.063 286.268 186.672 289.752 186.575 290.069C186.497 290.333 184.775 290.885 184.696 291.148C184.594 291.487 186.788 293.93 186.675 295.028C186.581 295.953 184.949 296.36 184.864 296.708C184.779 297.037 185.731 297.963 185.671 298.7C185.619 299.321 184.598 299.687 184.474 300.151C184.228 301.04 185.855 302.446 183.027 303.314C182.673 302.927 182.162 301.504 181.946 301.442C181.712 301.372 177.797 303.632 177.741 303.87C177.677 304.137 178.892 305.477 178.826 305.739C178.77 305.976 174.854 308.237 174.621 308.167C174.358 308.088 173.805 306.366 173.545 306.293C173.07 306.15 168.628 309.741 167.331 309.618C166.385 309.53 165.915 307.823 165.66 307.758C165.312 307.673 164.153 308.877 163.805 308.792C163.543 308.726 163.074 306.986 162.124 306.937C161.405 306.898 160.352 307.867 160.124 307.806C159.785 307.715 159.297 306.018 159.042 305.953C158.787 305.889 157.518 307.107 157.179 307.017C156.951 306.955 156.524 305.59 155.881 305.264C155.034 304.832 153.758 306.104 153.501 306.035C153.162 305.944 152.674 304.247 152.419 304.183C152.164 304.118 150.895 305.337 150.556 305.246C150.328 305.185 149.901 303.82 149.258 303.493C148.411 303.061 147.135 304.333 146.878 304.264C146.539 304.173 146.056 302.486 145.796 302.412C145.536 302.338 144.189 303.564 143.925 303.505C143.372 303.376 141.363 297.634 139.808 297.43C139.107 297.337 138.676 299.167 137.417 297.622C136.526 296.531 133.65 290.494 133.245 290.385C132.693 290.237 130.086 293.224 128.668 291.964C127.434 290.872 128.318 289.763 125.833 291.559C123.668 289.685 126.357 288.382 126.224 287.849C126.122 287.435 122.277 280.787 121.974 280.488C121.502 280.027 120.401 281.266 119.532 280.517C118.664 279.767 118.344 277.768 117.256 277.189C116.396 276.733 115.391 278.937 114.48 277.285C113.57 275.633 116.005 275.129 116.111 274.763C116.177 274.532 113.945 270.656 113.707 270.6C113.47 270.544 112.445 271.528 111.702 271.459C110.959 271.39 110.612 270.035 110.003 270.187C109.682 270.267 107.072 271.773 106.834 272.017C106.376 272.486 107.608 273.574 106.862 274.459C106.025 275.446 101.263 277.361 101.145 277.859C101.062 278.199 102.591 279.501 101.668 280.563C101.2 281.1 91.2866 286.824 90.5966 286.955C89.2261 287.211 88.9282 285.304 88.5039 285.195C88.1799 285.108 87.245 286.064 86.5121 286.002C85.8881 285.945 85.5226 284.924 85.0615 284.805C84.6004 284.685 83.7733 285.387 83.2019 285.119C82.536 284.807 82.1973 283.509 81.8807 283.424C81.5642 283.339 80.6219 284.294 79.889 284.231C79.2677 284.179 78.9022 283.158 78.4384 283.034C77.5496 282.788 76.143 284.415 75.2755 281.587C75.6623 281.233 77.0851 280.722 77.147 280.506C77.2175 280.273 74.9594 276.361 74.7218 276.306C74.511 276.253 73.3375 277.217 72.8502 277.386L67.0621 267.361C66.5528 266.479 64.653 268.577 64.1895 267.775L55.9788 253.553C55.9249 253.46 54.1657 254.725 54.1119 254.631L49.2668 246.239C49.2129 246.146 51.1877 245.255 51.1338 245.162L45.3456 235.136C44.8875 234.343 47.2108 233.225 47.2483 233.085C47.4549 232.344 44.7122 231.301 48.0641 230.144C47.1357 226.865 44.8882 230.453 43.77 227.029C47.6198 225.839 43.4607 224.089 43.663 222.068C43.7571 221.143 45.3844 220.738 45.4744 220.388C45.5585 220.059 44.6037 219.117 44.6621 218.399C44.7203 217.68 45.8964 217.281 45.9653 216.98C46.1222 216.336 43.9747 214.309 44.0917 213.121C44.1844 212.171 45.883 211.707 45.952 211.449C46.0428 211.111 44.8225 209.849 44.8889 209.586C44.9552 209.324 46.6895 208.771 46.7706 208.512C46.9135 208.038 43.322 203.596 43.4446 202.299C43.5326 201.352 45.2358 200.885 45.3049 200.628C45.4003 200.286 44.1881 199.038 44.2417 198.765C44.3086 198.471 48.3649 196.658 48.4497 196.341C48.5654 195.895 45.3852 191.788 45.165 190.534C44.986 189.523 46.204 189.218 46.3433 188.683C46.4676 188.22 45.8008 187.41 46.0222 186.834C46.738 185.002 48.4462 185.503 48.8757 187.389C51.5968 187.026 50.1811 184.196 48.7766 182.842C48.3946 182.471 46.1043 184.54 44.6843 180.151C44.1516 178.517 45.5068 178.568 45.6962 177.862C45.8158 177.401 45.1216 176.575 45.3844 176.007C45.7048 175.311 47.0535 174.931 47.124 174.697C47.2689 174.216 44.0997 170.171 43.8687 168.898C43.6605 167.761 45.2734 167.439 45.1141 166.797C45.0154 166.4 42.0733 161.11 41.7474 161.03C41.5246 160.979 40.3785 161.958 39.8758 162.111C37.8621 159.938 39.9614 159.554 40.204 158.648C40.4466 157.743 38.8208 156.36 41.6512 155.485C42.8706 158.664 43.2676 156.388 44.7352 156.461C45.6846 156.511 46.1537 158.25 46.4113 158.319C46.75 158.41 48.0213 157.184 48.2743 157.256C48.5273 157.328 49.0047 159.006 49.3534 159.103C49.5696 159.165 51.2865 157.72 52.0834 158.486C53.8101 160.14 50.6396 161.223 50.8202 161.698C52.021 164.888 54.3511 160.786 55.0421 163.61C55.3009 164.662 53.2738 165.366 53.1983 165.677C53.115 166.017 54.0643 166.95 54.006 167.669C53.9477 168.387 52.5973 168.818 52.7226 169.337C53.5238 172.708 55.8367 168.037 56.4242 171.469C56.5916 172.449 55.3591 172.793 55.2265 173.318C55.1095 173.784 55.801 174.604 55.5382 175.173C55.2244 175.858 53.8745 176.258 53.8113 176.493C53.7818 176.604 54.731 178.259 54.8515 178.295C55.1634 178.382 57.136 176.571 57.8544 178.161C58.8655 179.599 56.3153 180.356 56.2239 180.683C56.1073 181.073 58.7192 184.563 58.6243 184.873C58.5412 185.138 56.8675 185.613 56.7721 185.954C56.703 186.212 57.9419 187.463 57.5474 188.332C57.0674 189.387 54.8653 189.787 54.1579 190.513C53.728 190.954 54.7244 191.947 54.4146 192.618C54.1047 193.288 52.7435 193.701 52.6804 193.936C52.6508 194.047 53.6074 195.704 53.7279 195.74C54.0177 195.821 56.4217 193.755 56.9882 196.073C57.247 197.124 55.2199 197.828 55.1444 198.139C55.061 198.48 56.007 199.396 55.9447 200.129C55.8927 200.75 54.8669 201.119 54.7473 201.58C54.6277 202.041 55.3219 202.866 55.059 203.435C54.7386 204.13 53.3946 204.508 53.3195 204.744C53.2041 205.115 55.8222 208.626 55.7199 208.934C55.6369 209.2 53.9585 209.677 53.8678 210.016C53.8066 210.244 54.7752 211.296 54.7363 212.016C54.687 212.965 52.9598 213.434 52.8814 213.697C52.753 214.132 54.9436 216.396 54.8165 217.577C54.7529 218.167 53.7333 218.557 53.6137 219.018C53.4941 219.479 54.1883 220.304 53.9254 220.873C53.6049 221.568 52.2563 221.948 52.1859 222.182C52.0409 222.664 55.2102 226.709 55.4411 227.982C55.6433 229.097 54.0474 229.502 54.1842 230.052C55.0121 233.426 57.2955 228.747 57.883 232.179C58.0504 233.159 56.818 233.503 56.6853 234.028C56.5684 234.494 57.2599 235.314 56.997 235.883C56.6601 236.625 55.1364 236.864 55.3583 237.464C55.9484 239.09 61.2057 248.196 62.324 249.529C62.8859 250.2 64.2522 247.339 66.0866 250.506C67.8859 253.611 65.1391 253.305 64.9676 253.989C64.9361 254.107 65.8873 255.755 66.0078 255.791C66.3492 255.886 68.0945 254.07 69.0107 255.656C70.1694 257.663 66.1242 257.167 68.2798 259.812C68.6575 260.273 69.9211 258.796 70.8101 259.248C71.4526 259.574 71.8799 260.939 72.1081 261C72.4467 261.091 73.6994 259.876 73.9711 259.937C74.206 259.988 76.4695 263.908 76.3963 264.137C76.3298 264.356 74.9042 264.862 74.5247 265.218C75.2377 268.167 76.8368 265.924 77.852 266.788C78.6076 267.428 79.5399 270.089 79.9026 270.178C80.2405 270.257 81.5373 268.73 82.6043 269.651C86.5958 273.116 82.7458 274.424 82.6181 274.871C82.5582 275.08 84.5383 278.541 84.7444 278.597C85.1052 278.693 87.512 276.513 88.6241 276.618C89.571 276.706 90.0372 278.397 90.2928 278.474C90.7574 278.61 98.5425 274.115 98.6567 273.645C98.7231 273.383 97.4915 272.133 97.8841 271.272C98.3495 270.256 101.457 269.247 101.537 268.901C101.705 268.189 98.9579 267.117 102.324 265.952C101.603 263.001 100.024 265.245 99.0012 264.379C98.4416 263.905 97.0744 261.484 97.1429 260.816C97.2187 260.106 98.568 259.738 98.4202 259.126C98.0819 257.753 95.3726 255.055 95.5028 253.685C95.5909 252.738 97.2821 252.272 97.3585 252.016C97.4243 251.785 95.1877 247.911 94.9548 247.853C94.2247 247.677 93.1772 250.217 91.3772 247.099C89.5771 243.982 92.2961 244.347 92.5134 243.624C92.5753 243.408 90.6608 240.114 90.2993 239.681C89.9169 239.224 87.429 241.5 86.8509 239.152C86.5861 238.079 88.6797 237.318 88.7436 237.095C88.8732 236.64 86.684 234.401 86.8131 233.212C86.8767 232.622 87.8964 232.232 88.016 231.771C88.1356 231.31 87.434 230.483 87.7042 229.916C88.0168 229.25 89.2989 228.927 89.3923 228.593C89.4798 228.281 88.0788 226.663 88.8287 225.881C90.4895 224.145 91.523 227.164 91.8055 227.243C92.1542 227.341 93.3948 226.126 93.6665 226.187C94.2292 226.311 99.2602 235.628 99.3643 236.196C99.5665 237.312 97.9707 237.717 98.1075 238.266C98.9293 241.619 100.719 237.325 101.625 239.951C102.218 241.656 100.367 241.791 100.541 242.493C100.618 242.809 102.133 245.432 102.368 245.657C102.817 246.089 103.818 245.107 104.47 245.396C105.937 246.049 110.976 257.235 111.706 257.411C112.188 257.525 113.296 255.671 114.703 257.255C118.162 261.145 114.618 261.43 114.417 262.106C114.354 262.31 116.343 265.755 116.551 265.803C116.821 265.871 118.082 264.607 118.929 265.04C119.572 265.366 119.999 266.731 120.227 266.792C120.566 266.883 121.819 265.668 122.09 265.729C122.325 265.78 124.586 269.696 124.515 269.929C124.413 270.281 122.54 270.572 122.788 271.281C122.98 271.818 124.844 275.154 125.062 275.208C125.28 275.263 126.446 274.297 126.933 274.128L132.856 284.387C132.91 284.48 134.15 283.416 134.862 283.496C135.864 283.615 136.278 285.28 136.543 285.351C136.882 285.442 138.134 284.227 138.406 284.288C138.879 284.395 142.738 292.534 143.257 292.658C143.519 292.724 144.769 291.492 145.63 291.885C146.646 292.35 147.655 295.458 148.001 295.538C148.268 295.602 149.607 294.387 149.874 294.45C150.197 294.525 151.919 298.541 152.303 298.624C152.545 298.677 153.544 297.702 154.306 297.772C154.926 297.832 155.293 298.845 155.757 298.97C156.221 299.094 157.068 298.406 157.606 298.649C158.675 299.121 159.616 302.193 159.991 302.294C160.367 302.395 162.759 300.211 163.871 300.315C164.818 300.403 165.279 302.097 165.54 302.171C165.928 302.283 169.412 299.674 169.73 299.771C169.993 299.849 170.545 301.571 170.805 301.645C171.039 301.715 174.955 299.454 175.011 299.217C175.074 298.95 173.859 297.61 173.925 297.348C174 297.025 178.016 295.304 178.104 294.917C178.162 294.672 177.176 293.654 177.245 292.911C177.314 292.212 178.474 291.797 178.548 291.493C178.772 290.555 173.676 284.498 174.367 283.066C174.685 282.41 176.204 282.043 176.009 281.533C174.933 278.688 174.427 280.916 173.042 280.782C172.418 280.725 172.055 279.709 171.592 279.584C171.066 279.44 170.189 280.345 169.4 279.68C168.917 279.274 167.688 277.146 167.576 276.52C167.368 275.383 168.98 275.062 168.817 274.422C168.71 274.011 164.87 267.36 164.567 267.062C164.095 266.6 163.01 267.836 162.125 267.09C161.135 266.249 159.233 261.498 158.725 261.374C158.463 261.307 157.214 262.539 156.352 262.146C155.337 261.681 154.327 258.574 153.982 258.493C153.715 258.429 152.375 259.644 152.108 259.581C151.785 259.506 150.069 255.499 149.68 255.407C149.197 255.293 148.072 257.15 146.683 255.563C146.123 254.927 143.979 251.137 144.035 250.513C144.123 249.566 145.827 249.1 145.896 248.842C145.986 248.503 144.761 247.232 144.832 246.979C144.904 246.726 146.583 246.249 146.68 245.9C146.742 245.684 145.299 243.972 146.065 243.175C147.708 241.461 148.663 244.376 149.055 244.485C149.416 244.582 150.573 243.384 151.419 243.761C152.655 244.317 153.655 248.021 154.675 249.013C155.152 249.472 156.232 248.238 157.117 248.985C158.102 249.816 160.023 254.588 160.512 254.704C160.755 254.757 161.754 253.782 162.516 253.852C163.135 253.911 163.503 254.925 163.967 255.049C164.485 255.192 165.402 254.301 166.167 254.936C168.845 257.161 163.654 256.804 166.16 259.203C166.567 259.597 167.716 258.417 168.581 259.15C169.336 259.79 170.266 262.446 170.631 262.54C170.898 262.604 172.167 261.342 173.014 261.774C173.657 262.1 174.084 263.465 174.312 263.526C174.651 263.617 175.904 262.402 176.175 262.463C176.488 262.531 178.224 266.551 178.604 266.637C178.846 266.69 179.845 265.715 180.607 265.785C181.227 265.844 181.594 266.858 182.058 266.982C182.522 267.107 183.369 266.418 183.908 266.661C184.976 267.133 185.917 270.206 186.292 270.307C186.668 270.407 189.06 268.223 190.172 268.328C191.119 268.416 191.585 270.107 191.841 270.184C192.207 270.29 196.861 267.098 197.9 266.71C198.015 266.283 194.873 262.179 194.63 260.906C194.361 259.524 196.336 259.162 196.435 258.825C196.639 258.134 189.558 246.796 188.845 246.703C188.254 246.628 187.686 248.145 186.758 247.261C185.831 246.377 183.727 241.612 183.36 241.525C183.257 241.498 181.572 242.514 181.542 242.612C181.442 242.956 183.263 244.699 181.681 245.612C180.084 246.534 179.507 244.067 179.161 243.974C178.815 243.882 177.571 245.091 177.3 245.03C176.737 244.907 172.828 236.261 171.49 235.098C170.428 234.174 169.113 235.711 168.784 235.627C168.456 235.543 167.958 233.851 167.702 233.775C167.447 233.699 166.096 234.927 165.831 234.868C165.349 234.754 163.298 229.423 162.113 228.881C161.249 228.483 159.993 229.725 159.736 229.656C159.397 229.565 158.914 227.877 158.654 227.804C158.394 227.73 157.047 228.955 156.783 228.896C156.46 228.822 154.739 224.806 154.355 224.723C154.113 224.669 153.113 225.645 152.351 225.574C151.732 225.515 151.364 224.501 150.901 224.377C150.437 224.253 149.594 224.938 149.051 224.698C148.356 224.39 146.78 221.659 146.86 220.904C146.924 220.313 147.939 219.926 148.063 219.462C148.205 218.932 147.303 218.059 147.968 217.271C148.276 216.9 153.398 213.775 153.715 213.871C153.981 213.954 154.459 215.633 154.797 215.724C155.025 215.785 156.078 214.816 156.797 214.855C157.747 214.904 158.216 216.644 158.474 216.713C158.812 216.803 160.084 215.578 160.337 215.649C160.59 215.721 161.075 217.414 161.418 217.502C161.676 217.571 162.927 216.332 163.796 216.726C164.851 217.206 165.251 219.408 165.977 220.116C166.421 220.55 167.413 219.542 168.082 219.859C168.75 220.176 169.074 221.47 169.398 221.557C169.747 221.655 170.918 220.449 171.759 220.829C172.998 221.389 174.476 226.019 175.24 226.243C175.54 226.331 176.477 225.529 177.12 225.824C177.798 226.136 178.186 227.498 178.427 227.571C178.799 227.686 182.309 225.068 182.622 225.168C182.888 225.251 183.365 226.929 183.704 227.02C183.932 227.081 184.984 226.112 185.704 226.151C186.653 226.2 187.114 227.926 187.382 228.001C187.704 228.096 190.328 226.163 191.105 225.87C190.181 222.589 187.929 226.179 186.814 222.76C189.612 221.505 188.21 221.717 187.881 220.103C187.519 218.333 191.671 217.161 191.534 216.923L185.611 206.664C182.831 209.707 182.444 203.863 181.314 203.576C181.088 203.519 179.387 204.949 178.586 204.186C176.854 202.523 179.85 201.515 179.94 201.207C180.004 200.984 178.179 197.887 177.585 197.57C176.777 197.14 176.109 198.646 175.457 198.282C174.285 197.621 173.649 194.914 173.032 194.729C172.732 194.64 171.786 195.448 171.152 195.148C170.518 194.848 170.16 193.537 169.836 193.45C169.413 193.333 168.207 194.832 167.143 193.928C163.502 190.822 167.291 189.549 167.403 189.173C167.465 188.956 165.556 185.671 165.185 185.232C164.748 184.713 163.558 186.209 162.622 185.785C161.609 185.324 160.597 182.212 160.252 182.131C159.985 182.068 158.636 183.288 158.381 183.224C158.126 183.159 157.565 181.423 157.307 181.342C156.967 181.239 154.525 183.433 153.427 183.321C152.504 183.231 152.103 181.609 151.742 181.512C151.381 181.415 150.222 182.62 149.378 182.236C148.375 181.782 147.347 178.654 147.007 178.582C146.736 178.521 145.49 179.738 145.146 179.638C144.933 179.581 144.481 178.249 143.832 177.889C143.017 177.438 142.353 178.961 141.706 178.594C140.524 177.926 140.268 175.964 139.508 175.208C139.046 174.753 137.93 175.988 137.069 175.241C136.208 174.493 135.88 172.492 134.793 171.913C133.992 171.485 133.309 172.987 132.665 172.625C131.485 171.961 130.862 169.266 130.24 169.071C129.893 168.966 128.877 169.988 128.025 169.267C127.29 168.64 126.28 165.931 125.985 165.852C125.625 165.755 123.208 167.941 122.106 167.831C121.187 167.738 120.781 166.119 120.42 166.022C120.17 165.955 118.154 167.368 117.707 166.593L113.263 158.896C112.783 159.068 111.61 160.031 111.392 159.977C110.902 159.861 108.858 154.532 107.674 153.99C106.81 153.593 105.554 154.834 105.296 154.765C104.552 154.566 105.024 151.674 102.345 153.998C100.183 152.129 102.871 150.813 102.736 150.288C102.634 149.874 100.871 147.015 100.682 146.956C100.34 146.849 99.2919 147.858 98.4632 147.166C95.7914 144.932 100.978 145.304 98.4703 142.899C98.0581 142.509 96.9142 143.686 96.0493 142.953C95.4132 142.412 91.7124 135.786 91.7779 135.188C91.8435 134.59 92.8565 134.211 92.9808 133.747C93.2261 132.846 91.5976 131.459 94.428 130.584C95.4342 133.911 96.6868 131.047 97.8948 131.663C99.2073 132.33 98.4155 134.505 101.054 132.36C103.456 135.043 99.2268 135.188 101.605 137.636C101.803 137.689 103.422 136.462 103.476 136.555L110.747 149.148C110.809 149.255 112.214 147.939 113.13 148.35C114.148 148.809 115.155 151.923 115.501 152.004C115.765 152.063 117.129 150.846 117.372 150.911C117.615 150.976 118.11 152.675 118.453 152.763C118.797 152.851 120.105 151.312 121.16 152.234C121.965 152.939 122.688 155.378 123.237 155.54C123.532 155.631 124.488 154.818 125.117 155.121C125.746 155.424 126.106 156.727 126.438 156.816C126.676 156.884 128.704 155.471 129.151 156.245L133.595 163.942C136.35 160.889 136.815 166.781 137.882 167.067C138.199 167.152 141.794 164.541 142.085 164.635C142.35 164.718 142.825 166.391 143.167 166.487C143.432 166.558 144.7 165.284 145.547 165.716C146.189 166.042 146.617 167.407 146.845 167.468C147.183 167.559 148.436 166.344 148.708 166.405C149.028 166.475 150.747 170.487 151.136 170.579C151.403 170.643 152.648 169.414 153.509 169.807C154.525 170.272 155.535 173.379 155.88 173.46C156.147 173.523 157.486 172.308 157.753 172.372C158.079 172.451 159.792 176.453 160.182 176.546C161.211 176.798 163.04 173.844 164.93 179.424C168.969 178.648 164.056 175.118 164.363 174.151C164.446 173.885 166.124 173.408 166.215 173.069C166.276 172.841 165.307 171.788 165.346 171.069C165.395 170.119 167.121 169.658 167.196 169.391C167.314 168.98 163.611 163.688 163.718 163.334C163.785 163.115 165.21 162.609 165.59 162.253C164.661 158.974 162.414 162.562 161.296 159.138C164.475 157.918 162.198 157.521 162.272 156.054C162.322 155.116 164.043 154.627 164.109 154.364C164.136 154.249 163.18 152.592 163.066 152.558C162.74 152.467 161.42 153.975 160.359 153.063C159.778 152.565 157.358 148.287 157.419 147.648C157.553 146.264 160.586 146.666 158.223 144.115C160.069 141.955 161.451 144.629 161.91 144.519C162.129 144.468 163.546 143.644 163.5 143.565L159.056 135.868C158.768 135.369 160.21 134.461 160.32 134.037C160.457 133.497 159.584 132.601 160.21 131.841C162.435 129.163 162.098 134.367 164.482 131.846C164.85 131.459 163.903 130.413 164.204 129.759C164.506 129.106 165.876 128.688 165.951 128.452C166.067 128.081 163.449 124.57 163.551 124.262C163.634 123.996 165.312 123.519 165.403 123.18C165.464 122.952 164.496 121.9 164.534 121.18C164.584 120.231 166.318 119.764 166.392 119.504C166.483 119.165 165.268 117.913 165.329 117.641C165.382 117.399 168.874 115.762 169.529 115.216C168.606 111.623 166.367 115.224 165.442 113.537C164.518 111.849 167.188 111.16 167.107 111.02L162.262 102.628C162.208 102.535 164.078 101.742 164.134 101.547C163.205 98.2687 160.96 101.861 159.839 98.4321C163.245 97.4864 160.008 95.964 161.159 94.6393C161.604 94.1273 165.504 91.8698 166.167 91.7479C167.538 91.4918 167.818 93.3776 168.262 93.5007C168.582 93.5902 170.192 92.1872 170.974 92.9371C172.711 94.5979 169.703 95.6187 169.615 95.9185C169.484 96.361 171.678 98.6294 171.554 99.7957C171.479 100.505 170.127 100.881 170.277 101.485C170.904 104.036 178.741 114.054 177.927 115.694C177.621 116.307 176.316 116.687 176.234 117.008C176.151 117.329 177.104 118.267 177.041 119C176.985 119.624 175.963 119.989 175.844 120.451C175.724 120.912 176.426 121.739 176.156 122.306C175.843 122.971 174.545 123.31 174.46 123.627C174.375 123.943 175.33 124.885 175.268 125.618C175.216 126.24 174.19 126.608 174.066 127.072C173.941 127.535 174.648 128.36 174.377 128.927C174.065 129.592 172.767 129.931 172.682 130.248C172.597 130.564 173.552 131.507 173.49 132.24C173.438 132.861 172.412 133.229 172.288 133.693C172.163 134.157 172.87 134.981 172.599 135.548C172.287 136.214 170.989 136.552 170.904 136.869C170.819 137.185 171.774 138.128 171.712 138.861C171.66 139.482 170.634 139.85 170.51 140.314C170.385 140.778 171.092 141.602 170.821 142.169C170.509 142.835 169.211 143.173 169.126 143.49C169.041 143.807 169.997 144.761 169.941 145.484C169.885 146.207 168.707 146.601 168.638 146.902C168.481 147.546 170.628 149.574 170.511 150.762C170.411 151.784 168.52 152.067 168.752 152.705C169.595 155.006 177.227 166.101 176.982 166.884C176.899 167.149 175.22 167.627 175.13 167.966C175.059 168.231 176.332 169.499 175.9 170.346C175.574 170.988 174.209 171.416 174.148 171.644C174.057 171.982 175.277 173.244 175.211 173.507C175.145 173.769 173.41 174.322 173.329 174.581C173.259 174.814 175.517 178.726 175.755 178.781C175.965 178.834 177.139 177.87 177.626 177.701L189.741 198.685C189.795 198.778 187.926 199.571 187.87 199.766C188.583 202.714 190.182 200.472 191.197 201.336C191.953 201.976 192.882 204.632 193.248 204.726C193.507 204.787 194.757 203.556 195.625 203.95C196.81 204.493 198.858 209.819 199.343 209.937C199.61 210.001 200.959 208.781 201.214 208.845C201.553 208.936 201.857 210.82 202.566 210.572C205.087 209.689 208.074 206.951 210.691 205.869C210.313 204.836 207.085 200.141 207.184 199.804C207.282 199.467 209.159 199.161 208.911 198.452C208.719 197.915 206.86 194.577 206.637 194.525C206.414 194.473 205.268 195.452 204.766 195.605C202.748 193.447 204.863 193.035 205.094 192.142C205.213 191.681 204.527 190.87 204.782 190.288C205.094 189.566 206.6 189.082 206.544 188.984L201.699 180.592C201.645 180.499 203.514 179.706 203.57 179.512C202.853 176.566 201.263 178.803 200.243 177.942C199.867 177.624 196.75 172.516 196.846 172.199C196.929 171.933 198.608 171.455 198.699 171.117C198.76 170.888 197.791 169.836 197.83 169.116C197.879 168.167 199.619 167.698 199.688 167.44C199.778 167.102 198.553 165.83 198.624 165.577C198.696 165.324 200.389 164.839 200.477 164.496C200.577 164.12 197.883 160.984 203.091 159.98C204.473 159.712 204.841 161.696 205.167 161.787C205.494 161.879 206.761 160.668 207.03 160.724C207.265 160.775 209.526 164.691 209.455 164.925C209.396 165.134 207.974 165.668 207.584 166.005L212.027 173.702C212.539 174.589 210.025 175.623 210.098 175.749L214.943 184.141C214.997 184.234 213.022 185.126 213.076 185.219L217.52 192.915C217.978 193.709 215.668 194.818 215.624 194.968C215.471 195.479 220.594 202.896 220.447 203.354C220.364 203.62 218.686 204.097 218.595 204.436C218.534 204.664 219.502 205.717 219.464 206.436C219.414 207.385 217.689 207.846 217.613 208.114C217.551 208.318 219.539 211.763 219.747 211.811C220.088 211.894 221.39 210.365 222.452 211.288C222.977 211.745 226.552 217.938 226.688 218.626C226.957 220.007 224.968 220.378 224.876 220.704C224.785 221.031 226.001 222.308 225.939 222.568C225.878 222.827 224.139 223.383 224.058 223.641C223.987 223.875 226.248 227.791 226.483 227.842C227.095 227.986 228.242 225.607 229.048 227.93C229.64 229.635 227.791 229.763 227.964 230.472C228.066 230.886 231.906 237.537 232.213 237.832C232.823 238.414 233.962 236.064 235.795 239.573C237.511 242.87 233.905 241.872 236.173 244.626C238.856 242.299 238.38 245.193 239.124 245.393C239.381 245.462 240.637 244.22 241.501 244.617C242.668 245.151 244.193 249.398 245.219 250.604C246.073 249.906 251.177 247.451 251.257 247.093C251.31 246.851 250.333 245.847 250.406 245.09C250.462 244.466 251.483 244.1 251.61 243.641C251.737 243.182 251.028 242.353 251.299 241.786C251.611 241.12 252.909 240.782 252.994 240.465C253.079 240.149 252.124 239.206 252.186 238.473C252.238 237.852 253.259 237.487 253.384 237.023C253.508 236.559 252.822 235.716 253.063 235.173C253.543 234.087 256.572 233.222 256.678 232.781C256.742 232.514 255.48 231.244 255.912 230.398C256.239 229.755 257.604 229.328 257.665 229.1C257.865 228.368 255.124 227.318 258.476 226.161C257.548 222.882 255.3 226.47 254.182 223.045C257.509 222.039 254.645 220.787 255.261 219.579C255.587 218.936 256.952 218.509 257.013 218.281C257.104 217.942 255.883 216.68 255.95 216.418C256.016 216.155 257.75 215.602 257.832 215.344C257.948 214.953 254.806 210.793 254.557 209.543C254.282 208.139 256.459 207.598 256.386 207.472L250.463 197.213C250.851 196.883 252.273 196.349 252.335 196.133C252.405 195.899 250.144 191.983 249.909 191.932C249.687 191.88 248.541 192.86 248.038 193.013C245.631 190.332 249.865 190.184 247.487 187.736C246.987 187.894 245.834 188.871 245.615 188.817C245.27 188.736 242.254 183.091 242.303 182.595C242.379 181.886 243.733 181.515 243.581 180.906C243.245 179.538 240.525 176.82 240.661 175.46C240.75 174.537 242.382 174.13 242.472 173.78C242.556 173.451 241.601 172.509 241.66 171.79C241.718 171.072 242.894 170.673 242.963 170.372C243.166 169.539 240.2 167.269 241.489 165.815C242.582 164.581 243.69 165.466 241.894 162.98C244.064 160.962 244.464 163.077 245.357 163.308C245.818 163.428 246.645 162.726 247.212 162.997C247.878 163.309 248.211 164.598 248.533 164.692C249.088 164.845 250.122 163.015 251.525 164.582C254.58 168.009 251.137 168.372 250.965 168.969C250.642 170.071 255.523 173.351 251.494 174.24C252.214 177.191 253.794 174.947 254.816 175.813C255.376 176.286 256.743 178.708 256.675 179.376C256.599 180.086 255.248 180.462 255.397 181.066C255.89 183.072 261.355 189.562 260.622 191.074C260.021 192.318 257.864 191.665 259.789 194.007C260.185 194.488 261.545 192.738 262.645 193.684C263.18 194.147 266.419 199.725 266.715 200.582C267.39 202.581 265.215 202.63 265.077 203.102C264.948 203.537 267.139 205.801 267.012 206.982C266.948 207.572 265.929 207.962 265.809 208.423C265.689 208.884 266.384 209.709 266.121 210.278C265.8 210.973 264.452 211.353 264.381 211.587C264.311 211.821 266.552 215.692 266.785 215.75C267.115 215.827 269.049 214.002 269.784 215.599C270.799 217.011 268.247 217.819 268.167 218.133C268.138 218.255 269.089 219.903 269.207 219.934C269.889 220.125 270.99 217.591 272.788 220.704C274.585 223.818 271.516 223.978 271.629 224.174L276.474 232.565C276.528 232.659 274.659 233.452 274.603 233.646C275.454 236.565 276.637 234.55 277.596 234.992C278.276 235.309 278.667 236.664 278.903 236.739C279.139 236.814 283.012 234.566 283.066 234.336C283.13 234.069 281.901 232.824 282.293 231.963C282.759 230.947 285.866 229.937 285.947 229.592C286.006 229.328 284.789 227.964 284.854 227.721C284.919 227.478 286.616 226.978 286.706 226.639C286.768 226.411 285.799 225.359 285.838 224.639C285.887 223.69 287.622 223.223 287.695 222.963C287.786 222.624 286.571 221.372 286.632 221.1C286.7 220.787 290.72 219.051 290.811 218.669C290.869 218.424 289.889 217.428 289.959 216.665C290.016 216.041 291.037 215.676 291.156 215.215C291.276 214.754 290.582 213.928 290.845 213.36C291.165 212.664 292.509 212.287 292.584 212.05C292.7 211.679 290.082 208.168 290.184 207.86C290.267 207.595 291.945 207.117 292.036 206.779C292.097 206.55 291.128 205.498 291.167 204.778C291.217 203.841 292.939 203.351 293.005 203.089C293.032 202.974 292.083 201.319 291.965 201.287C291.675 201.206 289.274 203.277 288.704 200.954C288.44 199.881 290.533 199.121 290.597 198.897C290.702 198.519 288.869 196.41 288.694 195.428C288.495 194.329 289.888 193.961 289.971 193.608C290.122 192.954 287.98 190.936 288.097 189.749C288.19 188.799 289.888 188.335 289.957 188.077C290.048 187.739 288.828 186.477 288.894 186.214C288.961 185.952 290.695 185.399 290.776 185.14C290.919 184.666 286.7 178.943 286.423 177.472C286.167 176.102 288.074 175.804 288.183 175.38C288.27 175.056 287.313 174.109 287.371 173.39C287.456 172.352 289.808 172.319 287.701 170.125C287.201 170.283 286.048 171.261 285.83 171.206C285.592 171.15 283.332 167.234 283.405 167.005C283.483 166.742 285.205 166.19 285.284 165.927C285.402 165.529 282.246 161.377 282.009 160.126C281.736 158.672 283.961 158.451 283.712 157.773C283.365 156.816 279.993 151.04 279.367 150.462C278.242 149.419 277.194 152.034 276.253 150.306C275.311 148.578 277.775 148.157 277.883 147.784C277.949 147.553 275.717 143.676 275.479 143.621C275.242 143.565 274.238 144.543 273.476 144.473C272.856 144.413 272.489 143.399 272.025 143.275C271.132 143.032 269.732 144.661 268.862 141.828C272.041 140.609 269.765 140.212 269.838 138.744C269.909 137.39 273.016 137.737 270.638 135.202C272.811 133.188 273.195 135.288 274.1 135.53C274.564 135.655 275.411 134.966 275.95 135.209C277.036 135.69 277.901 138.719 278.342 138.825C278.68 138.904 279.985 137.379 281.047 138.303C282.01 139.141 284.037 143.945 284.433 144.039C284.7 144.103 286.04 142.888 286.307 142.952C286.545 143.007 288.803 146.918 288.732 147.152C288.672 147.361 287.251 147.895 286.861 148.233C287.76 149.263 291.233 156.518 291.706 156.625L291.713 156.626ZM177.935 275.169C178.038 275.197 179.762 274.195 179.797 274.094C179.872 273.845 177.93 271.108 177.642 270.36C177.02 270.868 173.966 272.271 173.908 272.516C173.88 272.619 174.875 274.353 174.983 274.378C175.241 274.447 176.609 273.228 176.859 273.295C177.11 273.362 177.682 275.097 177.94 275.166L177.935 275.169Z" fill="black"/>
</svg>
