<svg width="252" height="84" viewBox="0 0 252 84" fill="none" xmlns="http://www.w3.org/2000/svg">
<path d="M27.2037 25.2173C27.4911 24.3793 29.2371 24.6766 29.4106 24.0765C29.5244 23.6764 29.622 17.6048 29.378 17.3778C29.1774 17.1885 27.3989 17.5724 27.1983 17.3832C27.0302 17.2264 27.0845 13.3877 27.1929 12.8254C27.3284 12.0848 29.1123 12.7714 29.378 12.5173C29.6329 12.2794 29.5353 5.80774 29.2967 5.55363C28.8467 5.07786 26.4609 5.76449 27.1983 2.78007C30.3432 4.28309 28.6189 -0.690945 31.265 0.0821926C32.3169 0.390366 31.9048 2.49892 32.1379 2.726C32.3928 2.96929 33.667 2.60706 34.2797 3.02877C34.8002 3.39101 34.5996 4.46151 34.9412 4.80212C35.2828 5.14274 36.3564 4.94269 36.7197 5.46172C37.1426 6.06726 36.7793 7.3432 37.0233 7.59731C37.251 7.82979 39.3657 7.4243 39.6747 8.46777C40.3525 10.7818 37.1968 10.1654 36.9853 10.3709C36.7305 10.625 37.1589 12.328 36.9745 12.5227C36.7359 12.7714 34.9303 12.0902 34.7894 12.8309C34.6863 13.3931 34.6267 17.2318 34.7948 17.3886C34.9954 17.5778 36.7739 17.1939 36.9745 17.3832C37.2348 17.6265 37.0233 24.0495 36.7305 24.4549C36.3076 25.0334 34.9358 24.682 34.7677 25.2822C34.6755 25.6011 34.6755 28.6234 34.7677 28.9532C34.9466 29.5858 36.519 29.0613 36.9094 30.1535C37.5167 31.8457 36.4919 41.2207 36.9962 41.6965C37.3541 42.0371 39.2735 40.9882 39.691 43.0643C39.8591 43.8969 39.8212 48.2654 39.4579 48.779C38.9048 49.5576 37.1968 49.1143 37.0016 49.2981C36.7576 49.5306 36.8227 55.2831 36.9528 56.0022C37.0721 56.6726 38.8614 55.9698 39.4633 56.8078C40.1139 57.7161 39.4307 60.933 39.691 61.1763C39.8916 61.3655 41.6701 60.9816 41.8707 61.1709C42.1147 61.4034 41.9683 67.41 41.8002 67.8696C41.4478 68.8374 40.2332 68.4913 39.8374 68.886C39.4416 69.2807 39.794 70.4864 38.818 70.8378C38.2216 71.0541 35.7382 71.0541 35.1418 70.8378C34.1712 70.4864 34.5183 69.2753 34.1224 68.886C33.7266 68.4967 32.5175 68.8428 32.165 67.8696C31.9481 67.2749 31.9481 64.8041 32.165 64.2094C32.6205 62.9442 35.1255 64.1012 34.2743 61.1763C30.3161 62.4306 32.9133 57.116 32.0783 56.3266C31.8234 56.0833 29.9203 56.7591 29.4594 55.4237C29.2316 54.7695 29.2316 50.2767 29.4594 49.6225C29.9203 48.287 31.8234 48.9629 32.0783 48.7196C32.3331 48.4763 32.2572 42.7237 32.1271 42.0154C32.0132 41.3829 30.5546 41.9343 29.8986 41.4694C29.031 40.8584 30.1968 38.8202 27.22 39.5446C27.1061 40.0583 27.3773 41.5505 27.22 41.7181C27.0519 41.8965 22.5027 41.8965 22.3346 41.7181C22.0798 41.4532 22.7684 39.6798 22.0256 39.5392C21.4617 39.4365 17.6119 39.377 17.4547 39.5446C17.2649 39.7447 17.6499 41.518 17.4601 41.7181C17.2486 41.9452 12.8024 41.4802 12.5747 41.7181C12.4988 41.7938 12.5313 43.7672 12.6072 43.8429C12.7753 44.0159 14.1905 43.7185 14.7707 44.1132C16.0991 45.0107 14.7544 51.531 15.2533 53.2773C15.4322 53.9153 16.9992 53.3854 17.395 54.4776C17.6119 55.0777 17.6119 57.5431 17.395 58.1432C17.0426 59.1164 15.8226 58.765 15.4376 59.1596C15.096 59.5057 15.2966 60.5707 14.7761 60.933C14.1688 61.3547 12.8729 60.9979 12.6344 61.2303C12.3199 61.5385 13.0193 63.3389 11.6963 63.8093C7.21218 65.3934 7.98213 61.5818 7.64053 61.2357C7.40195 60.9979 5.29815 61.4088 4.98909 60.3653C4.30589 58.0351 7.62426 58.7649 7.72729 58.1756C7.87911 57.3322 7.99297 49.6171 7.67306 49.3089C7.42364 49.0764 4.821 49.6928 4.97824 47.9356C4.80473 46.1947 7.43991 46.7786 7.66222 46.5461C7.74898 46.4542 7.74898 44.5403 7.66222 44.4538C7.12001 43.8969 5.07584 45.6865 4.94029 41.9938C4.7722 37.6253 7.03324 39.5987 7.67306 38.9878C7.8303 38.8364 7.84658 34.8301 7.69475 34.6787C7.42907 34.4138 4.22456 35.1005 3.31364 34.4517C2.55453 33.9056 3.02084 32.2945 2.75515 32.0349C2.43524 31.716 0.635078 32.4188 0.168771 31.0996C-0.05896 30.4616 -0.0535379 23.7737 0.168771 23.1357C0.662189 21.73 2.71178 22.66 2.84191 21.9463C3.09675 20.5028 3.09675 12.1118 2.84191 10.6628C2.72262 9.99241 0.9333 10.6953 0.331438 9.85725C-0.0643806 9.30578 -0.0698074 6.53221 0.174191 5.83477C0.635076 4.49935 2.55453 5.17517 2.79853 4.93729C3.04253 4.6994 2.62501 2.99092 2.80937 2.78547C2.97203 2.60705 7.53209 2.60705 7.69475 2.78547C7.88453 2.99092 7.45617 4.68858 7.70559 4.93729C7.87368 5.10489 9.27803 4.7913 9.89074 5.18598C11.0348 5.92668 9.16958 8.45695 12.5801 7.65678C13.5236 10.3709 10.5251 10.16 10.3679 10.6899C9.78771 12.6849 11.2842 21.0704 9.88531 22.0166C9.25092 22.4491 7.77067 21.9301 7.66222 22.5573C7.56462 23.1249 7.54293 26.9474 7.71102 27.0988C7.89537 27.2664 9.26177 26.9203 9.89074 27.3637C10.4058 27.7259 10.2106 28.7964 10.5522 29.137C10.8938 29.4776 11.9457 29.283 12.3253 29.7966C12.797 30.4292 12.4608 31.9863 12.5747 31.9863H22.3346C21.5593 35.4951 24.5794 33.8137 27.2146 34.1489C27.2146 32.3647 26.8459 26.304 27.2146 25.2281L27.2037 25.2173Z" fill="black"/>
<path d="M191.317 10.1528C191.529 10.3357 193.334 10.3196 193.41 10.2442C193.845 9.80831 192.35 7.60712 194.785 8.06997C196.579 8.40902 195.753 10.072 196.459 10.2765C197.824 10.6694 201.574 9.67376 202.689 10.4703C203.45 11.0139 202.988 12.6284 203.243 12.8814C203.488 13.1182 204.782 12.7576 205.39 13.1774C205.907 13.5326 205.711 14.5982 206.054 14.9426C206.396 15.2871 207.483 15.1095 207.836 15.5884C208.543 16.5464 207.771 19.6033 208.103 19.9155C208.277 20.0769 209.679 19.7702 210.288 20.163C211.092 20.6797 210.625 22.4181 210.815 22.6064C211.065 22.854 212.794 22.4288 212.979 22.6172C213.164 22.8056 212.734 24.5116 212.99 24.7592C213.18 24.9475 214.903 24.5008 215.457 25.2758C215.968 25.9862 215.919 31.5726 215.169 32.0732C214.017 32.8481 212.462 31.2067 212.957 34.1936C213.06 34.8072 215.131 33.973 215.615 35.34C216.039 36.5401 215.376 41.7121 215.68 41.9973C215.881 42.1857 217.664 41.8036 217.865 41.992C218.045 42.1588 218.045 46.6742 217.865 46.841C217.664 47.0294 215.881 46.6473 215.68 46.8357C215.512 46.9917 215.572 50.8075 215.675 51.3726C215.849 52.3037 218.366 50.5761 217.876 53.0464C217.55 54.6878 216.333 54.0151 215.827 54.521C215.43 54.9139 215.778 56.1194 214.805 56.4692C213.832 56.8191 211.071 56.2755 210.804 56.55C210.62 56.7437 211.065 58.439 210.283 58.9933C209.304 59.6876 206.45 58.8426 205.961 59.3001C205.733 59.5154 205.961 60.7425 205.38 61.1353C204.798 61.5282 203.472 61.1892 203.227 61.426C202.966 61.6789 203.428 63.2935 202.673 63.837C201.536 64.6443 193.78 63.654 193.388 64.0631C193.203 64.2622 193.578 66.049 193.399 66.2266C193.203 66.4096 191.491 65.9844 191.236 66.2374C191.024 66.4473 191.649 69.5741 189.322 68.9068C188.251 68.6 188.643 66.4096 188.48 66.2427C188.045 65.8014 182.511 66.7809 181.397 65.9736C180.913 65.6238 181.087 64.5474 180.745 64.2084C180.402 63.8693 179.326 64.0684 178.962 63.5518C178.538 62.949 178.896 61.6574 178.663 61.426C178.429 61.1945 177.124 61.5497 176.516 61.1299C175.999 60.7747 176.195 59.7091 175.852 59.3647C175.51 59.0202 174.423 59.1979 174.07 58.7189C173.26 57.621 174.238 52.1153 173.803 51.7063C173.254 51.1896 171.058 52.8634 171.058 49.2629C171.058 45.6624 173.254 47.3362 173.803 46.8195C174.048 46.5881 173.983 40.8618 173.852 40.146C173.732 39.4786 171.939 40.1783 171.335 39.3441C170.846 38.666 170.852 33.058 171.623 32.5468C172.221 32.1485 173.624 32.4553 173.803 32.2938C174.184 31.9332 173.461 22.9562 173.819 22.6226C174.021 22.4342 175.804 22.8163 176.005 22.628C176.266 22.3858 175.581 19.1889 176.233 18.2794C176.787 17.5044 178.5 17.9457 178.695 17.7627C178.989 17.4883 178.467 13.1558 178.712 12.9352C178.918 12.7468 180.625 13.172 180.875 12.9244C181.125 12.6769 180.44 10.7717 181.777 10.3196C182.805 9.97515 185.283 10.5672 185.713 10.1743C185.979 9.92671 185.599 8.54357 186.659 8.16146C187.262 7.94618 189.735 7.94618 190.339 8.16146C191.388 8.53819 191.04 9.93209 191.295 10.1581L191.317 10.1528ZM193.388 17.8004C193.144 17.5475 186.588 17.5259 186.343 17.7735C186.077 18.0372 186.767 21.2071 186.115 22.1221C185.561 22.8971 183.848 22.4557 183.653 22.6387C183.359 22.9186 183.881 27.2348 183.636 27.4663C183.435 27.6546 181.652 27.2725 181.451 27.4609C181.19 27.7031 181.875 30.8999 181.223 31.8095C180.62 32.649 178.826 31.944 178.706 32.6113C178.581 33.3271 178.511 39.0535 178.755 39.2849C178.929 39.4517 180.337 39.1449 180.935 39.5378C181.707 40.0491 181.712 45.657 181.223 46.3351C180.669 47.1101 178.956 46.6688 178.755 46.8518C178.581 47.0187 178.581 51.491 178.755 51.6578C178.956 51.8462 180.663 51.4049 181.218 52.1745C181.87 53.084 181.185 56.2809 181.446 56.523C181.647 56.7114 183.446 56.3293 183.631 56.5123C183.816 56.6953 183.435 58.4767 183.62 58.6758C183.865 58.9341 187.094 58.256 188.012 58.9018C188.833 59.4831 188.202 61.2806 188.79 61.3721C192.008 61.8888 190.002 59.6768 191.208 58.9018C191.817 58.509 193.225 58.8211 193.399 58.6543C193.649 58.4067 193.22 56.7168 193.41 56.5123C193.633 56.2755 198.009 56.7868 198.286 56.4961C198.53 56.2432 197.851 54.3541 199.194 53.8967C200.536 53.4392 204.792 54.225 205.303 53.7514C205.532 53.5361 205.303 52.3252 205.885 51.9162C206.499 51.4856 207.885 51.8301 208.07 51.6578C208.902 50.8882 206.304 45.5763 210.266 46.8303C211.125 43.9133 208.608 45.0704 208.152 43.811C207.63 42.3741 208.511 35.4422 208.065 35.017C207.896 34.8556 205.684 35.2431 205.374 34.1829C204.7 31.874 207.831 32.4983 208.065 32.2831C208.32 32.0409 208.32 25.5665 208.065 25.3297C207.864 25.1359 206.119 25.5988 205.597 24.8022C205.2 24.1995 205.515 22.8056 205.347 22.6333C205.097 22.3858 203.368 22.8109 203.183 22.6226C202.999 22.4342 203.423 20.7228 203.173 20.4806C203.004 20.3137 201.596 20.6259 200.982 20.233C200.177 19.7164 200.645 17.9942 200.449 17.7896C200.303 17.6336 196.291 17.639 196.144 17.7896C195.91 18.0372 196.53 20.6205 194.763 20.4644C192.997 20.6205 193.617 18.0372 193.383 17.7896L193.388 17.8004Z" fill="black"/>
<path d="M76.2134 56.5313C76.3805 56.3482 75.7555 54.3674 77.097 53.9099C77.8296 53.6569 82.732 53.6946 83.2599 54.0714C84.0357 54.6204 83.5886 56.3267 83.7771 56.5151C84.262 56.9996 86.4061 55.487 85.932 57.8931C85.6088 59.5348 84.3967 58.8673 83.901 59.3679C83.5616 59.7124 83.734 60.7836 83.2546 61.1335C82.1556 61.9355 76.6444 60.9666 76.235 61.3972C75.9926 61.6502 76.666 63.5395 75.3353 63.9971C73.9185 64.4869 66.8504 63.7064 66.5164 64.0616C66.3333 64.2608 66.705 66.0479 66.5272 66.2255C66.3332 66.4085 64.647 65.9833 64.3831 66.2363C64.2215 66.3924 64.6147 68.5993 63.5534 68.9061C61.2423 69.5735 61.8672 66.4731 61.6517 66.2416C61.2908 65.8595 56.2214 66.5969 54.9985 66.1555C54.0288 65.8056 54.379 64.5945 53.9857 64.207C53.6463 63.8679 52.5689 64.0401 52.2187 63.5611C51.2328 62.2154 52.515 50.0128 52.0032 47.1385C51.8793 46.4549 49.2719 47.3807 49.2719 45.4914C49.9561 42.9292 52.5365 45.6367 51.9817 42.2617C51.8955 41.7235 50.3924 42.1702 49.789 41.7558C48.3991 40.8084 49.886 32.4652 49.3096 30.479C49.1372 29.8762 47.7796 30.2314 47.3594 29.6555C47.0685 29.2518 46.8584 22.8571 47.117 22.6149C47.284 22.4588 48.7709 22.7333 49.2826 22.6149C50.1177 19.3099 46.3789 21.2961 47.117 17.7759C50.4786 18.3087 48.7062 16.8285 49.5089 15.5905C50.247 14.4547 52.7682 16.3064 51.9709 12.9207C54.6753 11.9841 54.4652 14.9607 54.9931 15.1168C55.3702 15.2245 61.4416 15.3267 61.6733 15.0845C61.8618 14.8854 61.4794 13.1198 61.6679 12.9207C61.9211 12.6569 68.3589 13.2167 68.6552 12.9045C68.8437 12.7107 68.402 11.0152 69.1723 10.4662C70.1151 9.79332 72.2215 10.5469 73.1966 10.2724C73.8862 10.0786 73.0781 8.40459 74.8559 8.06548C77.2694 7.60257 75.7448 9.72873 76.235 10.2186C76.4236 10.407 78.1313 9.96019 78.6808 10.7353C79.0956 11.3166 79.0956 16.6993 78.6808 17.2753C78.1367 18.0288 76.5205 17.5713 76.2673 17.8243C76.0303 18.0665 76.3912 19.3476 75.971 19.9505C75.6101 20.4672 74.5434 20.268 74.204 20.6072C73.8646 20.9463 74.0639 22.012 73.5468 22.3727C72.9434 22.7925 71.6612 22.4373 71.4188 22.6687C71.1602 22.9217 71.6235 24.5365 70.8693 25.0748C70.2875 25.4893 67.5993 25.4893 67.0174 25.0748C66.2632 24.5365 66.7265 22.9217 66.4679 22.6687C66.2255 22.4319 64.9326 22.7871 64.3346 22.3727C63.478 21.7806 64.6255 19.7298 61.6733 20.4564C62.3467 23.939 60.0733 22.0874 59.5292 22.6311C59.3352 22.8248 59.8147 24.4719 59.0012 25.0748C58.4248 25.5054 56.8194 25.1986 56.8194 25.3063V41.9926H66.5164C66.6619 41.9926 66.0477 39.8341 67.3999 39.3712C68.1757 39.1075 75.2276 39.1775 75.7178 39.5273C76.472 40.0656 76.0033 41.6589 76.2727 41.9334C76.5097 42.1702 78.6 41.7611 78.9071 42.8C79.5805 45.1038 76.4451 44.4902 76.235 44.7001C75.9764 44.9531 76.4074 46.6325 76.2188 46.837C75.901 47.1815 68.2996 46.541 66.8235 46.7993C66.1986 46.9124 66.7158 48.3765 66.2848 49.0063C65.5467 50.0882 61.016 49.2808 59.5184 49.523V58.6736C60.6066 58.4852 66.2848 58.9319 66.5272 58.6736C66.678 58.5175 66.4302 57.0211 66.5272 56.5151C67.874 56.246 75.8956 56.8758 76.2242 56.5151L76.2134 56.5313Z" fill="black"/>
<path d="M95.8074 35.0107C96.096 34.1794 97.8548 34.469 98.0236 33.8791C98.1162 33.5466 98.1162 30.5649 98.0236 30.2432C97.8494 29.6479 96.4772 29.9965 96.0524 29.4226C95.7584 29.0204 95.546 22.6495 95.8074 22.4081C96.0089 22.2204 97.7949 22.6012 97.9964 22.4135C98.1761 22.2472 98.1761 17.7479 97.9964 17.5816C97.7949 17.3993 95.9871 17.7693 95.8074 17.5924C95.6222 17.3993 96.0524 15.71 95.7965 15.458C95.5841 15.2488 92.415 15.8655 93.0956 13.5703C93.406 12.5299 95.5188 12.9428 95.7584 12.7069C96.0306 12.4387 95.5623 10.8513 96.3192 10.3097C96.9073 9.89677 99.6245 9.89677 100.213 10.3097C100.975 10.846 100.507 12.4602 100.768 12.7069C101.013 12.9428 102.309 12.5835 102.919 13.0018C103.436 13.3558 103.24 14.4176 103.583 14.7608C103.926 15.104 105.015 14.9271 105.369 15.4043C105.674 15.8119 105.881 22.1722 105.625 22.4189C105.424 22.6066 103.638 22.2258 103.436 22.4135C103.18 22.6495 103.278 29.0633 103.518 29.3208C103.768 29.5889 105.173 29.2081 105.554 30.2592C105.838 31.0315 105.729 38.6091 105.375 39.0864C104.95 39.6602 103.572 39.3116 103.404 39.9069C103.311 40.2179 103.311 43.2372 103.404 43.5482C103.578 44.1488 104.95 43.7681 105.375 44.3794C105.8 44.9908 105.429 46.2564 105.674 46.4977C106.001 46.8195 108.342 46.0794 108.348 47.8921C108.353 49.7047 105.914 48.9968 105.642 49.2542C105.484 49.399 105.484 53.3567 105.642 53.5015C105.843 53.6946 107.586 53.2334 108.114 54.0271C108.511 54.6331 108.201 56.0113 108.364 56.1829C108.675 56.5101 111.784 55.7539 112.742 56.4403C113.325 56.8586 112.971 58.2154 113.575 58.3817C113.995 58.4996 117.387 58.4031 117.534 58.269C117.763 58.0545 117.534 56.8372 118.117 56.4403C118.699 56.0435 120.028 56.3867 120.273 56.1507C120.583 55.8558 119.832 52.0214 124.341 53.5927C125.669 54.0593 124.962 55.829 125.283 56.1507C125.871 56.7299 128 55.0567 128 58.6176C128 62.1785 125.876 60.5 125.283 61.0845C125.016 61.3419 125.484 62.9454 124.722 63.4817C123.813 64.1252 120.567 63.4495 120.322 63.7069C120.132 63.9053 120.518 65.6643 120.328 65.8627C120.093 66.1041 114.049 65.9593 113.581 65.793C112.519 65.4176 112.9 64.034 112.628 63.7873C112.421 63.5943 108.615 63.5996 108.413 63.7873C107.934 64.2325 108.626 66.5867 105.62 65.8627C106.159 62.5164 104.661 64.2807 103.409 63.4817C102.603 62.9668 103.066 61.2454 102.875 61.047C102.609 60.7735 99.8097 61.3044 98.8676 60.9665C97.9256 60.6287 98.2414 59.4113 97.8439 59.0252C97.5009 58.6873 96.4118 58.8589 96.0633 58.3817C95.6495 57.8239 95.6331 55.0621 95.8782 54.381C96.2757 53.2977 97.8439 53.8233 98.0291 53.1905C98.1434 52.799 98.2414 46.7712 97.9964 46.5406C97.8385 46.3905 96.3247 46.6372 95.8128 46.5406C96.39 43.7734 95.0396 37.2309 95.8128 35.0107H95.8074Z" fill="black"/>
<path d="M160.904 58.5123C162.314 58.9816 160.559 62.2279 163.87 61.2403C164.527 64.1648 162.513 63.4446 161.857 64.1102C161.518 64.4539 161.69 65.5451 161.211 65.8998C160.252 66.609 157.195 65.8343 156.882 66.1671C156.646 66.4235 157.313 68.3386 155.983 68.8023C155.3 69.0424 148.872 69.0588 147.978 68.8787C145.911 68.4586 146.95 66.5054 146.616 66.1616C146.369 65.9107 144.657 66.3417 144.474 66.1507C144.291 65.9598 144.711 64.2302 144.463 63.9792C144.269 63.7828 142.536 64.2575 142.014 63.45C141.621 62.8389 141.933 61.4204 141.766 61.2512C141.518 61.0003 139.806 61.4313 139.623 61.2403C139.44 61.0494 139.86 59.3198 139.613 59.0688C139.419 58.8724 137.685 59.3471 137.163 58.5396C136.77 57.9285 137.082 56.5154 136.915 56.3409C136.668 56.0899 134.977 56.5209 134.773 56.3299C134.068 55.6752 135.3 39.7983 134.811 36.9939C134.708 36.3992 131.414 37.1303 132.092 34.7842C132.42 33.6439 134.703 34.2877 134.811 33.6549C135.37 30.3703 133.933 22.6392 134.843 20.1131C135.193 19.131 136.404 19.4856 136.792 19.0874C137.707 18.1489 136.199 16.8504 139.909 17.0141C143.085 17.1559 141.631 18.2308 142.466 19.0874C142.956 19.5948 144.172 18.9182 144.495 20.5823C144.872 22.541 143.801 21.919 142.32 21.9572L142.288 53.2746C145.141 53.5583 144.161 55.948 144.495 56.3136C145.26 57.1429 150.584 54.5458 149.324 58.5123C152.167 59.0852 158.567 57.7376 160.898 58.5123H160.904Z" fill="black"/>
<path d="M246.86 56.1291C246.541 59.273 247.069 57.9121 248.667 58.4509C250.716 59.1453 249.019 66.0664 249.573 68.0161C249.727 68.5604 252.77 68.3438 251.815 71.1267C251.293 71.2433 249.777 70.9656 249.606 71.1267C249.238 71.4766 250.145 77.298 249.376 78.3922C248.815 79.1921 247.069 78.7311 246.882 78.9255C246.629 79.181 247.063 80.9474 246.871 81.1362C246.679 81.3251 244.943 80.8863 244.685 81.1473C244.471 81.364 245.102 84.5968 242.751 83.9025C241.686 83.5858 242.109 81.4306 241.867 81.1862C241.351 80.6696 238.236 82.1083 239.175 77.5201C239.626 75.3149 241.818 76.6147 241.96 75.8204C242.647 71.8877 240.917 62.2503 241.993 59.2563C242.35 58.2621 243.581 58.6176 243.982 58.2121C244.663 57.5233 243.927 55.4569 246.871 56.1346L246.86 56.1291Z" fill="black"/>
</svg>
