<svg width="67" height="198" viewBox="0 0 67 198" fill="none" xmlns="http://www.w3.org/2000/svg">
<path d="M26.0309 23.0329C26.0309 34.189 26.0309 37.9077 18.5935 41.6264C14.8748 49.0638 0 89.9695 0 101.126C0 101.126 0 104.844 3.7187 104.844C7.43739 104.844 11.1561 97.4069 14.8748 86.2508L18.5935 67.6573V97.4069C18.5935 116 14.8748 130.875 14.8748 134.594C14.8748 138.313 14.8748 153.187 11.1561 164.343C11.1561 182.937 11.1561 186.656 18.5935 186.656C22.3122 186.656 22.3122 179.218 26.0309 160.625C26.0309 145.75 29.7496 130.875 29.7496 130.875C29.7496 127.156 40.9057 164.343 40.9057 175.499V190.374C40.9057 194.093 44.6244 197.812 48.3431 197.812C52.0618 197.812 55.7805 190.374 52.0618 168.062C52.0618 153.187 44.6244 127.156 44.6244 112.282C37.187 97.4069 37.187 78.8134 37.187 71.376C40.9057 49.0638 48.3431 56.5012 48.3431 86.2508C52.0618 104.844 52.0618 108.563 59.4992 108.563C63.2178 112.282 66.9365 108.563 66.9365 93.6882C66.9365 82.5321 63.2178 67.6573 59.4992 56.5012C55.7805 45.3451 55.7805 37.9077 55.7805 30.4703C63.2178 15.5955 55.7805 4.43944 44.6244 0.720739C29.7496 -2.99796 22.3122 8.15813 26.0309 23.0329Z" fill="black"/>
</svg>
