<svg width="251" height="127" viewBox="0 0 251 127" fill="none" xmlns="http://www.w3.org/2000/svg">
<path d="M11.1561 7.43739C11.1561 3.7187 7.43739 0 3.7187 0C0 0 0 11.1561 0 55.7805V115.28C0 115.28 3.7187 118.998 7.43739 118.998L11.1561 115.28V7.43739Z" fill="black"/>
<path d="M100.405 55.7799C96.6861 48.3425 78.0926 37.1864 66.9365 37.1864C59.4991 37.1864 59.4991 33.4677 55.7804 26.0303C52.0617 14.8742 44.6243 14.8742 40.9057 22.3116C40.9057 63.2172 40.9057 89.2481 37.187 100.404C33.4683 111.56 33.4683 111.56 44.6244 111.56C48.343 111.56 59.4991 107.842 70.6552 104.123C89.2487 92.9668 104.124 70.6546 100.405 55.7799ZM78.0926 81.8107C70.6552 89.2481 63.2178 96.6855 59.4991 96.6855C48.343 100.404 48.343 100.404 52.0617 74.3733C52.0617 59.4986 55.7804 48.3425 55.7804 44.6238C59.4991 44.6238 78.0926 48.3425 85.53 55.7799C92.9674 59.4986 92.9674 70.6546 78.0926 81.8107Z" fill="black"/>
<path d="M130.155 37.1869C130.155 29.7495 126.436 29.7495 122.718 29.7495C118.999 29.7495 118.999 37.1869 118.999 74.3739V126.436C122.718 126.436 122.718 126.436 122.718 126.436C122.718 126.436 130.155 126.436 137.593 122.717C156.186 115.28 159.905 107.842 141.311 107.842C130.155 111.561 130.155 111.561 130.155 100.405C130.155 89.2487 130.155 89.2487 141.311 85.53C152.467 81.8113 156.186 70.6552 141.311 74.3739C133.874 74.3739 130.155 74.3739 130.155 66.9365C126.436 59.4991 130.155 59.4991 145.03 59.4991C167.342 59.4991 174.779 48.343 152.467 48.343C133.874 48.343 130.155 44.6243 130.155 37.1869Z" fill="black"/>
<path d="M219.404 37.187C211.967 37.187 208.248 40.9057 197.092 59.4992C193.373 70.6553 185.936 85.5301 178.498 96.6862C171.061 111.561 167.342 122.717 174.78 122.717C178.498 122.717 182.217 115.28 185.936 107.842C189.654 96.6862 193.373 96.6862 197.092 96.6862C200.81 96.6862 211.967 100.405 219.404 100.405C226.841 100.405 230.56 104.124 237.997 115.28C241.716 126.436 245.435 126.436 249.154 126.436C252.872 122.717 252.872 118.998 230.56 74.374C223.123 59.4992 219.404 52.0618 223.123 44.6244C223.123 37.187 223.123 37.187 219.404 37.187ZM211.967 89.2488C197.092 89.2488 197.092 85.5301 204.529 70.6553L211.967 59.4992L215.685 70.6553C219.404 74.374 219.404 81.8114 219.404 81.8114C219.404 85.5301 215.685 89.2488 211.967 89.2488Z" fill="black"/>
</svg>
