<svg width="258" height="246" viewBox="0 0 258 246" fill="none" xmlns="http://www.w3.org/2000/svg">
<path d="M172.654 199.222C172.371 199.294 170.876 198.012 170.506 198.135C170.25 198.221 169.845 199.772 169.141 200.173C168.212 200.704 166.727 199.351 166.427 199.442C165.97 199.575 163.196 206.317 162.809 206.418C162.507 206.501 161.035 205.202 160.659 205.322C160.365 205.416 159.939 207.393 158.875 207.499C158.068 207.581 156.834 206.549 156.581 206.63C156.205 206.75 155.747 208.683 155.464 208.769C155.181 208.855 153.689 207.554 153.313 207.674C153.06 207.755 152.653 209.312 151.948 209.712C151.02 210.243 149.518 208.882 149.232 208.973C148.857 209.093 148.404 211.016 148.115 211.112C147.827 211.209 146.238 209.898 145.955 209.984C145.672 210.07 144.853 212.609 144.573 212.69C144.293 212.77 142.799 211.474 142.423 211.594C142.17 211.675 141.762 213.232 141.058 213.633C140.129 214.164 138.633 212.805 138.339 212.899C137.604 213.134 138.023 216.052 135.853 214.346C134.255 213.092 135.928 211.847 135.333 211.281C134.183 210.19 129.956 209.272 129.257 207.902C128.781 206.974 130.075 205.602 129.945 205.207C129.814 204.812 127.942 204.447 127.825 203.404C127.737 202.595 128.773 201.314 128.713 201.099C128.466 200.269 124.697 200.209 124.225 199.18C123.752 198.152 125.05 196.734 124.961 196.456C124.839 196.072 122.927 195.625 122.827 195.342C122.728 195.059 124.325 192.928 124.231 192.648C124.136 192.367 122.147 191.819 122.059 191.541C121.97 191.264 123.267 189.675 123.187 189.381C123.062 188.948 119.027 187.829 118.424 186.618C118.125 186.02 118.853 185.031 118.686 184.522C118.519 184.013 117.36 183.654 117.263 182.956C117.144 182.103 118.189 180.923 118.114 180.659C118.007 180.283 111.522 176.945 111.151 177.068C110.819 177.183 109.835 180.612 107.876 178.749C106.986 177.908 108.48 176.018 108.365 175.672C108.237 175.299 106.771 174.993 106.389 174.278C106.007 173.563 106.878 172.47 106.76 172.143C106.517 171.437 103.251 170.824 102.64 169.629C102.147 168.679 103.465 167.21 103.381 166.921C103.137 166.086 91.3011 161.455 89.768 159.798C88.9786 158.948 89.9542 157.916 89.7582 157.33C89.5856 156.818 88.4321 156.462 88.3351 155.764C88.2154 154.925 89.25 153.725 89.1665 153.464C89.1274 153.341 87.2171 152.35 87.0811 152.388C86.7571 152.487 85.7463 155.903 83.7925 154.056C82.8894 153.201 84.4057 151.213 84.3302 150.963C84.1557 150.389 78.731 148.526 77.7249 147.447C76.8686 146.528 77.9628 145.332 77.8266 144.948C77.5725 144.237 74.3178 143.63 73.7063 142.435C73.2218 141.496 74.5231 140.004 74.429 139.724C74.3873 139.593 72.4715 138.612 72.3436 138.648C71.5813 138.883 72.0827 141.945 68.4884 140.091C64.8941 138.238 67.6846 136.928 67.4507 136.111C67.3726 135.853 62.8999 133.546 62.6439 133.632C62.3035 133.75 61.3332 137.179 59.3688 135.313C58.4656 134.459 59.9957 132.458 59.9146 132.218C59.7893 131.826 57.8749 131.384 57.7808 131.104C57.6867 130.823 58.9892 129.237 58.9088 128.943C58.68 128.157 44.8603 121.698 44.6315 120.911C44.5457 120.615 45.8454 119.034 45.7594 118.751C45.6735 118.468 43.6817 117.925 43.5876 117.644C43.4935 117.364 45.0791 115.255 44.9853 114.947C44.8865 114.61 40.2181 112.775 40.1273 112.449C40.0443 112.147 41.3398 110.679 41.2226 110.298C41.1286 110.004 39.1516 109.578 39.0456 108.514C38.9635 107.707 39.9959 106.473 39.915 106.22C39.7949 105.844 37.8617 105.386 37.7758 105.103C37.6898 104.82 38.9911 103.328 38.8711 102.953C38.7902 102.699 37.2333 102.292 36.8326 101.588C36.0763 100.263 39.2307 98.697 35.4325 97.7546L51.5402 66.5213C54.671 69.0091 54.0312 65.7389 54.81 65.4856C55.0713 65.4021 59.4725 67.5695 59.9247 67.407C60.3442 67.255 60.7609 65.3755 61.0414 65.2814C61.3219 65.1873 62.816 66.4968 63.1917 66.3767C63.4857 66.2828 63.912 64.2923 64.9815 64.2026C65.728 64.1441 66.717 65.0703 67.2313 64.9331C67.6421 64.8243 68.0268 63.5492 68.774 63.4365C69.608 63.314 70.8095 64.3839 71.0763 64.3032C71.4492 64.1885 71.9073 62.2553 72.1931 62.164C72.479 62.0727 74.0708 63.3779 74.3539 63.292C74.637 63.206 75.4551 60.6672 75.7354 60.5866C76.0157 60.5061 77.5046 61.7992 77.8857 61.6819C78.1716 61.5906 78.6053 59.6517 79.6648 59.5022C81.3436 59.2629 91.0018 65.6423 91.6691 65.4066C91.9552 65.3017 92.506 63.3209 92.7755 63.2348C93.0451 63.1487 94.5473 64.4555 94.9258 64.3301C95.3043 64.2047 95.5982 61.9549 97.1655 62.1833C100.711 62.7021 104.368 67.6371 108.324 67.8628C109.172 67.9114 109.412 66.507 110.205 66.3976C111.045 66.2779 112.243 67.3396 112.51 67.2589C112.883 67.1443 113.344 65.2057 113.622 65.117C113.899 65.0282 115.396 66.3323 115.772 66.2123C116.148 66.0922 116.444 63.837 118.012 64.0654C119.07 64.2224 130.751 70.356 131.088 71.0137C131.58 71.9635 130.252 73.4411 130.343 73.727C130.463 74.1027 132.396 74.5608 132.482 74.8439C132.568 75.127 131.262 76.6156 131.387 76.9941C131.478 77.28 133.417 77.7137 133.567 78.7732C133.747 80.012 131.417 82.8628 131.55 83.2387C131.836 84.0476 135.246 83.2821 132.316 87.0447C136.074 89.7329 134.831 87.1683 136.382 86.3714C137.05 86.0273 138.108 86.8459 138.506 86.6963C138.999 86.5072 139.268 85.1791 139.916 84.7967C140.842 84.2442 142.332 85.6133 142.632 85.5221C143.122 85.3791 143.932 81.9291 145.128 81.3311C145.725 81.0322 146.714 81.7604 147.223 81.5933C147.732 81.4261 148.091 80.2672 148.789 80.1702C149.642 80.0507 150.817 81.0931 151.086 81.0206C151.508 80.9038 153.239 76.291 153.593 76.2006C153.895 76.1176 155.367 77.4159 155.743 77.2959C155.996 77.215 156.403 75.6581 157.108 75.2574C158.037 74.7267 159.538 76.0878 159.824 75.9964C160.2 75.8764 160.658 73.9432 160.941 73.8572C161.224 73.7713 162.713 75.078 163.091 74.9526C163.377 74.8612 163.808 72.9277 164.87 72.7728C166.196 72.5833 168.592 74.883 169.307 74.6723C169.642 74.5789 170.049 73.2335 170.832 73.1321C171.614 73.0307 172.735 74.0453 173.113 73.9335C173.462 73.8266 174.141 71.5166 175.337 71.7512C177.972 72.2641 175.775 75.0813 175.885 75.3972C175.93 75.536 177.845 76.5172 177.971 76.4727C178.232 76.3892 178.609 74.8509 179.363 74.4617C179.988 74.136 180.949 74.8775 181.464 74.7131C181.978 74.5486 182.359 73.3873 183.019 73.2844C184.34 73.0786 187 75.4195 187.483 75.252C187.965 75.0845 189.27 70.6752 193.351 74.9837C194.791 76.504 191.203 77.8801 194.76 79.0391C195.589 79.3098 195.245 75.81 198.866 77.6776C202.487 79.5451 199.673 80.7818 199.961 81.6396C200.081 82.0017 201.558 82.3131 201.945 83.0311C202.332 83.7491 201.458 84.8338 201.574 85.166C201.833 85.9069 206.496 87.3292 207.55 88.4325C208.605 89.5358 206.999 91.1156 207.108 91.4994C207.243 91.9648 211.755 93.5479 211.892 94.0214C211.965 94.2637 210.985 95.4907 211.045 96.3267C211.114 97.3173 212.696 97.1852 212.863 97.5371C213.545 98.9395 210.85 101.929 211.004 102.398C211.158 102.866 216.142 104.618 217.089 105.625C218.165 106.766 216.55 108.178 216.704 108.674C216.814 109.03 219.121 109.702 218.887 110.897C218.374 113.532 215.556 111.336 215.241 111.446C215.102 111.49 214.123 113.4 214.168 113.526C214.251 113.787 215.79 114.164 216.179 114.918C216.505 115.543 215.763 116.504 215.927 117.019C216.092 117.533 217.264 117.919 217.361 118.577C217.567 119.925 215.464 121.74 215.59 123.216C215.673 124.18 217.249 124.072 217.419 124.419C218.318 126.26 211.241 135.948 210.698 138.628C210.547 139.356 212.391 139.645 212.209 140.922C212.028 142.2 210.336 143.708 210.443 145.101C210.52 146.089 212.776 145.922 212.487 147.13C211.826 149.88 208.925 147.436 208.828 147.624L197.72 169.163C193.89 165.994 194.548 170.195 193.641 170.471C193.358 170.557 191.758 169.254 191.481 169.343C191.203 169.432 190.649 171.431 190.374 171.515C190.099 171.598 188.6 170.299 188.224 170.419C187.93 170.513 187.559 172.41 186.434 172.594C185.638 172.722 184.188 171.592 184.132 171.7L177.746 184.083C177.69 184.191 179.957 185.087 179.901 185.195C178.934 187.07 173.446 198.996 172.681 199.195L172.654 199.222ZM194.664 85.1502L192.514 84.0413L191.125 86.7357L193.275 87.8446L194.664 85.1502ZM204.552 96.3892C204.443 95.9784 198.012 93.2758 197.013 92.5013L195.623 95.1957L203.162 99.0836C203.27 99.1392 201.977 101.024 202.051 101.239C202.309 102.048 204.721 103.032 205.195 100.514C205.308 99.8969 203.8 99.5146 203.669 98.6968C203.538 97.8789 204.599 96.5634 204.552 96.3892ZM92.0567 142.661C89.7511 141.841 86.8694 138.513 86.2184 141.997C86.1024 142.606 87.6377 143.002 87.7469 143.809C87.8561 144.615 86.8238 145.85 86.9073 146.111C86.9438 146.226 88.8242 147.223 88.9983 147.176C89.2595 147.106 91.6975 143.411 92.0567 142.661Z" fill="#AE3D74"/>
<path d="M150.687 217.544C150.433 217.607 148.971 216.39 148.354 216.197C145.394 219.242 150.667 219.432 147.667 222.774C144.37 220.102 145.36 222.807 143.73 223.642C142.224 224.409 140.663 220.839 139.409 224.986C135.915 224.334 137.992 221.221 137.518 220.738C136.288 219.469 131.671 218.223 130.973 216.679C130.494 215.628 131.995 214.183 131.875 213.733C131.523 212.421 127.287 212.209 132.081 206.794C129.302 203.344 128.475 209.707 126.053 207.184C125.099 206.191 126.897 204.057 126.82 203.787C126.696 203.344 124.624 202.768 124.521 202.437C124.41 202.078 127.658 197.593 127.549 197.204C127.396 196.651 121.404 194.199 120.378 192.979C119.55 191.996 120.683 190.906 120.497 190.248C120.333 189.672 119.075 189.217 119.005 188.44C118.917 187.489 120.136 186.238 120.066 185.942C119.968 185.521 112.967 181.487 112.551 181.603C112.177 181.713 110.908 185.456 108.838 183.291C107.897 182.314 109.649 180.3 109.54 179.912C109.418 179.492 107.812 179.077 107.427 178.265C107.043 177.453 108.063 176.29 107.95 175.922C107.718 175.128 104.136 174.279 103.522 172.924C103.027 171.847 104.562 170.289 104.485 169.966C104.259 169.028 91.4043 163.282 89.7948 161.368C88.966 160.385 90.0998 159.295 89.9136 158.636C89.7495 158.061 88.4918 157.606 88.4211 156.828C88.3328 155.893 89.5407 154.62 89.462 154.327C89.4252 154.189 87.3634 152.991 87.2107 153.027C86.8471 153.12 85.549 156.846 83.484 154.699C82.5294 153.706 84.3119 151.586 84.2415 151.305C84.0785 150.66 78.1734 148.314 77.1166 147.067C76.2174 146.005 77.4911 144.739 77.3605 144.307C77.1167 143.507 73.5469 142.664 72.933 141.309C72.4174 140.174 74.2139 138.62 73.6428 138.159C70.1312 135.293 71.7786 141.038 67.276 138.438C63.3843 136.192 66.5528 134.895 66.3369 133.979C66.264 133.689 61.4357 130.901 61.1479 130.983C60.7649 131.096 59.511 134.84 57.4352 132.672C56.4806 131.678 58.279 129.544 58.2018 129.275C58.0838 128.834 55.9885 128.245 55.8991 127.93C55.8097 127.614 57.3344 125.927 57.2609 125.598C57.1194 124.997 50.4745 122.44 49.7987 120.964C49.3036 119.887 50.8511 118.321 50.7651 118C50.652 117.578 48.5367 116.97 48.4565 116.652C48.3763 116.334 49.8947 114.752 49.7816 114.33C49.6931 114 47.5277 113.424 47.4663 112.241C47.4178 111.344 48.6251 110.032 48.5489 109.748C48.4358 109.326 46.3264 108.721 46.2403 108.399C46.1543 108.078 47.6757 106.397 47.6021 106.068C47.4844 105.573 41.4909 103.043 40.4522 101.847C39.3009 100.522 41.217 98.883 41.1121 98.4734C41.0073 98.0639 38.9104 97.4504 38.8036 97.125C38.6721 96.7079 43.2891 90.0813 43.1389 89.5757C43.0569 89.2879 41.367 88.7622 40.9548 87.958C40.4163 86.9024 42.0014 85.3123 41.9154 84.9911C41.8023 84.569 39.687 83.9606 39.6068 83.6428C39.5266 83.325 41.0407 81.7636 40.9285 81.3266C40.8606 81.0546 38.2303 80.1023 38.5604 78.7648C39.2808 75.8377 42.3759 78.6718 42.8584 78.1049C43.309 77.5662 45.701 73.4634 45.6181 73.1906C45.4777 72.7217 40.7606 71.1385 45.2937 67.2636C46.6135 66.133 48.1174 68.0019 48.6496 67.8593C49.0567 67.7453 49.4822 66.1216 50.2904 65.7428C51.0986 65.3639 52.3545 66.601 52.9168 66.0569C53.2105 65.7766 55.0923 62.5039 55.194 62.1128C55.3627 61.4578 52.0065 59.8149 54.7072 57.4881C58.0047 60.1598 57.0144 57.4551 58.6445 56.62C59.7 56.0815 61.2902 57.6666 61.6113 57.5805C62.0334 57.4674 62.6419 55.3522 62.9597 55.272C63.2775 55.1917 64.8563 56.716 65.2817 56.5971C65.6029 56.511 66.1814 54.394 67.365 54.2784C68.8028 54.139 70.6072 56.2667 71.8314 56.5779C72.5755 56.767 73.0262 55.0727 73.9431 54.9893C74.86 54.9059 76.1376 56.1322 76.4429 56.0602C76.9158 55.9532 79.0735 50.9395 79.4697 50.858C79.8083 50.782 81.3638 52.2928 81.7917 52.1831C82.1128 52.097 82.6947 49.9741 83.875 49.8644C85.7454 49.6878 96.0981 57.255 96.849 57.0292C97.1711 56.9282 97.8847 54.7651 98.1875 54.684C98.4903 54.6028 100.084 56.128 100.51 56.0091C101.078 55.8566 101.156 53.1166 103.645 53.9642C104.586 54.2825 108.782 56.7133 109.334 57.3573C110.512 58.7281 108.331 60.4239 108.93 60.9173C111.853 63.3107 111.04 60.6226 112.586 59.8788C113.701 59.3439 117.797 61.7083 117.891 62.9419C117.964 63.8912 116.492 65.151 117.096 65.6628C117.609 66.0909 121.192 68.1598 121.429 68.0867C121.812 67.9742 123.065 64.2305 125.141 66.3985C126.096 67.3917 124.308 69.5084 124.384 69.7929C124.51 70.3 129.487 72.4134 129.586 72.8196C129.665 73.1524 128.151 74.822 128.233 75.149C128.334 75.5794 132.224 76.8481 132.787 78.1037C133.262 79.1615 131.754 80.6179 131.879 81.0467C131.993 81.4538 133.603 81.8634 133.992 82.6933C134.323 83.3963 133.445 84.433 133.604 85.0053C133.762 85.5776 135.025 86.0356 135.105 86.8108C135.193 87.761 133.977 89.0062 134.043 89.3081C134.11 89.61 138.96 92.4261 139.246 92.3349C139.374 92.3005 140.559 90.1537 140.531 90.0286C140.438 89.6649 136.706 88.3635 138.855 86.3076C139.829 85.3729 141.846 87.1191 142.235 87.01C142.654 86.8878 143.07 85.2816 143.881 84.8969C144.693 84.5123 145.856 85.5331 146.224 85.4198C147.018 85.1875 147.868 81.6061 149.223 80.9923C150.306 80.5005 151.863 82.0355 152.186 81.9586C152.745 81.8236 153.814 78.0507 155.168 77.4519C155.845 77.1525 156.901 78.0103 157.473 77.8521C158.046 77.6938 158.504 76.4303 159.281 76.3596C160.232 76.2721 161.477 77.4875 161.779 77.4213C162.252 77.3143 164.409 72.3006 164.806 72.2191C165.144 72.1431 166.705 73.6573 167.128 73.5442C167.412 73.468 167.945 71.7665 168.745 71.3601C169.801 70.8216 171.391 72.4067 171.712 72.3207C172.134 72.2076 172.743 70.0923 173.061 70.0121C173.378 69.9319 174.957 71.4561 175.383 71.3372C175.704 71.2511 176.282 69.1341 177.466 69.0186C178.943 68.8785 181.473 71.5493 182.276 71.3537C182.652 71.2679 183.173 69.8005 184.044 69.7294C184.915 69.6583 186.102 70.84 186.527 70.7361C186.918 70.6362 187.791 68.1155 189.102 68.438C191.991 69.1441 189.412 72.1462 189.517 72.5016C189.559 72.6576 191.628 73.8441 191.769 73.8014C192.062 73.7227 192.56 72.0402 193.415 71.6491C194.123 71.3215 195.148 72.1926 195.727 72.0377C196.305 71.8828 196.787 70.6176 197.523 70.5384C198.995 70.38 201.816 73.1104 202.359 72.9504C202.901 72.7903 204.577 67.9795 208.868 72.9619C210.381 74.7199 206.338 76.0542 210.213 77.5237C210.569 77.6594 212.643 72.8845 216.424 77.3247C217.555 78.6445 215.686 80.1484 215.832 80.6748C215.94 81.0785 217.564 81.504 217.954 82.3189C218.345 83.1339 217.321 84.2883 217.431 84.662C217.679 85.4955 222.764 87.3144 223.873 88.5908C224.983 89.8672 223.122 91.5311 223.223 91.9615C223.348 92.4836 228.257 94.4726 228.385 95.0039C228.453 95.2758 227.303 96.5821 227.326 97.5104C227.35 98.6103 229.108 98.5473 229.274 98.9455C229.955 100.533 226.816 103.7 226.962 104.227C227.108 104.753 232.531 106.954 233.526 108.118C234.657 109.438 232.796 110.915 232.94 111.471C233.042 111.872 235.56 112.736 235.238 114.047C234.532 116.936 231.53 114.357 231.174 114.462C231.018 114.504 229.835 116.566 229.878 116.707C229.957 117.001 231.639 117.499 232.03 118.353C232.358 119.062 231.487 120.087 231.642 120.665C231.797 121.243 233.073 121.732 233.147 122.465C233.303 123.967 230.881 125.865 230.942 127.506C230.983 128.577 232.734 128.54 232.903 128.933C233.801 131.018 225.461 141.367 224.719 144.304C224.514 145.102 226.539 145.518 226.271 146.922C226.003 148.327 224.051 149.907 224.097 151.454C224.13 152.551 226.635 152.485 226.252 153.807C225.399 156.735 222.626 154.095 222.192 154.201C221.463 154.377 219.09 160.919 217.529 161.608C216.852 161.907 215.796 161.049 215.223 161.207C214.651 161.366 214.2 162.618 213.415 162.7C212.283 162.821 209.675 160.044 209.802 164.135C209.838 165.296 213.388 165.259 211.295 167.634C210.141 168.519 208.363 166.802 207.916 166.932C207.496 167.054 207.081 168.661 206.269 169.045C205.458 169.43 204.205 168.187 203.643 168.731C201.73 170.566 198.461 179.654 196.565 180.507C195.507 180.982 194.057 179.477 193.622 179.599C193.215 179.713 192.793 181.33 191.981 181.715C191.17 182.1 190.012 181.082 189.638 181.192C188.805 181.44 186.986 186.525 185.709 187.634C184.433 188.743 182.769 186.883 182.339 186.984C180.962 187.313 180.432 194.64 176.985 190.842L171.447 200.435C170.889 201.401 168.362 199.639 168.065 199.724C167.652 199.834 167.23 201.452 166.418 201.837C165.606 202.221 164.443 201.2 164.075 201.314C163.282 201.546 162.432 205.128 161.077 205.741C159.935 206.254 158.183 204.614 158.106 204.747C157.102 206.487 151.441 217.366 150.723 217.534L150.687 217.544ZM214.702 142.912C214.436 142.044 222.525 129.363 223.764 127.217C223.841 127.083 221.545 126.385 221.418 125.141C221.278 123.757 224.012 120.728 223.884 120.305C223.783 119.983 221.62 119.269 221.539 118.967C221.458 118.664 222.977 117.067 222.864 116.645C222.788 116.36 221.086 115.828 220.68 115.027C220.141 113.971 221.726 112.381 221.64 112.06C221.527 111.638 219.412 111.029 219.332 110.712C219.251 110.394 220.776 108.815 220.657 108.39C220.571 108.068 218.454 107.49 218.338 106.306C218.199 104.868 220.326 103.064 220.634 101.846C220.823 101.102 219.129 100.651 219.046 99.7339C218.962 98.8171 220.188 97.5394 220.117 97.2342C219.971 96.5995 209.809 91.7793 209.679 91.1846C209.603 90.846 211.117 89.2847 211.004 88.8626C210.928 88.5782 209.226 88.0457 208.82 87.2449C208.289 86.2018 209.842 84.6007 209.75 84.2762C209.708 84.1352 207.642 82.9429 207.499 82.9764C207.089 83.0813 206.605 85.532 204.891 85.2094C203.061 84.8588 195.925 79.6063 195.334 79.7845C195.012 79.8855 194.298 82.0486 193.995 82.1298C193.692 82.2109 192.099 80.6858 191.673 80.8047C191.248 80.9236 190.808 83.392 189.085 83.0569C182.63 81.8117 185.928 77.8988 185.797 77.4275C185.762 77.299 183.656 76.044 183.531 76.0726C183.143 76.1667 180.871 81.2307 180.508 81.3082C180.169 81.3842 178.608 79.87 178.186 79.9831C177.764 80.0962 177.311 82.5729 175.595 82.2411C174.405 82.0042 171.622 79.7456 171.264 79.8415C170.814 79.9619 169.575 83.8149 168.309 84.395C167.232 84.8901 165.667 83.3426 165.346 83.4286C164.923 83.5417 164.315 85.6569 163.997 85.7372C163.679 85.8174 162.097 84.299 161.675 84.4121C161.345 84.5006 160.769 86.666 159.586 86.7274C158.689 86.7759 157.38 85.5777 157.093 85.6448C156.641 85.7561 155.479 89.072 154.537 89.8701C153.443 90.7976 152.079 89.2651 151.494 89.8349C151.19 90.1327 149.316 93.3787 149.217 93.779C149.048 94.434 152.404 96.077 149.703 98.4037C146.023 94.9838 146.729 100.573 144.41 101.607C143.229 102.135 140.219 98.9239 140.337 103.141C140.383 104.727 143.72 103.179 141.54 107.249C138.971 112.048 137.825 108.525 136.75 108.788C136.39 108.875 134.001 113.026 134.435 114.075C134.724 114.77 137.755 114.72 135.784 117.112C134.615 117.995 132.878 116.287 132.401 116.415C131.979 116.528 131.14 119.03 129.82 118.71C126.91 117.999 129.525 115.002 129.435 114.648C129.323 114.211 127.239 113.628 127.135 113.297C127.014 112.917 130.271 108.538 130.127 108.075C130.034 107.78 128.353 107.306 127.959 106.443C127.631 105.734 128.506 104.703 128.348 104.131C128.189 103.559 126.917 103.103 126.855 102.323C126.778 101.409 127.968 100.235 127.862 99.8403C127.756 99.4458 126.138 99.0236 125.749 98.1937C125.418 97.4907 126.292 96.4598 126.137 95.8817C125.982 95.3036 124.711 94.8181 124.638 94.0854C124.481 92.6374 127.212 89.7076 127.087 89.2397C126.961 88.7717 123.102 87.5439 122.533 86.2849C122.055 85.233 123.562 83.7766 123.441 83.342C123.25 82.6654 120.185 82.2919 121.639 79.0748L96.764 64.7133C94.6899 67.5802 92.8729 65.1117 92.1639 65.2918C91.7727 65.3918 90.8991 67.9124 89.5883 67.59C86.6787 66.8796 89.2856 63.9093 89.194 63.5306C89.1343 63.2712 84.8371 60.7592 84.5802 60.8281C84.1305 60.9485 82.8844 64.8131 81.6254 65.3816C80.5768 65.8543 79.1438 64.3599 78.6792 64.4794C78.2754 64.5876 77.4144 67.1 76.1036 66.7776C73.2147 66.0715 75.7901 63.0752 75.6884 62.7139C75.654 62.5855 73.5566 61.328 73.4223 61.3591C72.7809 61.5162 70.2894 68.1289 68.7684 68.802C68.0913 69.1014 67.0354 68.2436 66.4631 68.4018C65.8908 68.5601 65.4352 69.8328 64.6551 69.8943C63.7416 69.9719 62.5671 68.7819 62.1725 68.8876C61.778 68.9934 61.3433 70.6194 60.5284 71.0099C59.7135 71.4004 58.5591 70.3771 58.1853 70.4871C57.7715 70.6127 53.6532 77.5039 53.7755 77.9236C53.9027 78.3616 56.2373 78.7244 55.9284 79.6087C55.6897 80.2775 53.3666 84.4356 53.0947 84.5035C52.8227 84.5714 51.3826 83.3444 50.7619 83.1567C48.1419 85.8945 51.0654 85.9225 51.1737 87.2261C51.2464 88.1213 50.0555 89.3108 50.1612 89.7053C50.2669 90.0999 51.8848 90.522 52.2743 91.3519C52.6053 92.0549 51.7275 93.0917 51.8858 93.6639C52.044 94.2362 53.3168 94.6918 53.3841 95.4753C53.4617 96.3888 52.2717 97.5633 52.3774 97.9578C52.4831 98.3524 54.1009 98.7745 54.4905 99.6044C54.8215 100.307 53.9437 101.344 54.1019 101.916C54.2602 102.489 55.5329 102.944 55.6003 103.728C55.6778 104.641 54.4912 105.81 54.5936 106.21C54.6959 106.611 56.3312 107.043 56.7158 107.855C57.1005 108.666 55.8601 109.928 56.3959 110.478C57.2751 111.373 60.0257 111.875 60.6205 113.196C61.1123 114.279 59.5681 115.838 59.6541 116.159C59.7673 116.582 61.8708 117.183 61.9627 117.508C62.0546 117.832 60.5274 119.51 60.6009 119.84C60.7399 120.432 68.8501 123.997 70.0777 125.404C71.2291 126.728 69.3264 128.344 69.427 128.775C69.4916 129.053 73.6145 131.41 74.2741 131.651C74.972 131.906 76.2355 127.904 78.3263 130.073C79.2808 131.067 77.495 133.192 77.5654 133.473C77.6875 133.947 80.981 135.081 81.7816 136.032C82.8583 137.297 80.0666 139.284 83.7386 140.179C84.274 137.828 86.4064 137.197 87.2986 139.481C87.5745 140.199 86.7401 141.214 86.8984 141.786C87.0566 142.358 88.3202 142.816 88.3909 143.594C88.4792 144.529 87.2712 145.802 87.3499 146.096C87.3868 146.233 89.4486 147.431 89.6012 147.395C89.9649 147.303 91.2721 143.574 93.328 145.723C94.2626 146.697 92.5165 148.714 92.6256 149.103C92.7478 149.522 94.354 149.938 94.7387 150.749C95.2942 151.923 92.7755 153.424 96.4168 154.479C96.858 153.997 97.4941 152.224 97.7636 152.147C98.1648 152.029 104.52 155.908 104.922 156.38C105.835 157.458 104.365 158.89 104.855 159.398C107.851 162.524 107.4 156.051 110.179 159.392C110.97 160.346 109.855 161.486 110.039 162.135C110.203 162.71 111.46 163.165 111.531 163.943C111.63 164.954 110.134 166.161 110.747 166.67C111.292 167.124 115.395 169.516 115.664 169.439C116.133 169.299 117.716 164.582 121.591 169.115C122.722 170.435 120.853 171.938 120.999 172.465C121.107 172.869 122.727 173.3 123.121 174.109C123.515 174.918 122.485 176.084 122.598 176.452C122.831 177.245 126.412 178.095 127.026 179.45C127.518 180.533 125.973 182.093 126.059 182.414C126.173 182.836 128.276 183.438 128.368 183.762C128.46 184.087 126.933 185.765 127.006 186.094C127.107 186.524 130.985 187.786 131.56 189.049C132.055 190.126 130.517 191.674 130.597 192.006C130.722 192.529 135.634 194.527 135.762 195.043C135.847 195.379 134.272 196.952 134.811 198.007C135.217 198.808 136.919 199.341 136.995 199.625C137.108 200.047 135.6 201.612 135.67 201.947C135.74 202.282 139.164 203.592 139.932 204.493C140.859 205.587 139.327 206.952 139.897 207.537C140.762 208.416 143.117 209.039 144.216 209.984C144.685 208.688 148.71 202.844 148.582 202.421C148.499 202.148 146.728 201.522 146.249 201.075C147.316 197.548 149.084 199.577 150.192 199.271C150.767 199.107 151.222 197.849 152 197.778C153.722 197.617 154.365 200.385 155.697 196.842C155.919 196.256 151.965 194.896 154.123 192.838C155.097 191.903 157.12 193.653 157.502 193.54C157.922 193.418 158.322 191.826 159.152 191.436C159.855 191.105 160.891 191.983 161.464 191.825C162.036 191.667 162.494 190.403 163.272 190.332C164.207 190.244 165.479 191.452 165.773 191.373C165.911 191.336 167.105 189.28 167.07 189.128C166.977 188.764 163.248 187.457 165.397 185.401C166.371 184.466 168.388 186.213 168.777 186.103C169.196 185.981 169.612 184.375 170.423 183.99C171.235 183.606 172.399 184.626 172.767 184.513C173.56 184.281 174.41 180.699 175.765 180.086C176.848 179.594 178.399 181.126 178.723 181.049C179.239 180.92 182.66 173.611 183.093 173.519C183.431 173.443 184.993 174.958 185.415 174.845C185.699 174.768 186.232 173.067 187.033 172.661C188.088 172.122 189.661 173.697 189.997 173.612C190.794 173.413 194.341 164.61 195.998 163.875C196.675 163.576 197.731 164.434 198.304 164.276C198.876 164.117 199.334 162.854 200.112 162.783C201.047 162.695 202.32 163.903 202.613 163.824C202.751 163.787 203.946 161.731 203.91 161.579C203.8 161.151 200.751 160.399 201.893 158.421C203.035 156.443 205.072 158.705 205.617 158.554C206.033 158.438 206.452 156.826 207.264 156.441C208.075 156.056 209.328 157.299 209.89 156.755C210.178 156.472 212.065 153.202 212.167 152.811C212.431 151.777 209.526 152.186 211.465 148.465C213.989 143.624 215.347 148.566 217.032 144.303C216.565 143.863 214.781 143.205 214.7 142.957L214.702 142.912Z" fill="black"/>
</svg>
