<svg width="649" height="721" viewBox="0 0 649 721" fill="none" xmlns="http://www.w3.org/2000/svg">
<path d="M70.6553 258.904L107.842 262.623L148.748 303.529L141.311 340.716C130.154 403.934 137.592 441.121 156.185 441.121C171.06 441.121 178.497 418.808 189.654 370.465C193.372 348.153 197.091 329.56 200.81 325.841C204.528 322.122 200.81 377.903 197.091 407.652C189.654 448.558 182.216 478.308 182.216 504.339L178.497 530.369L171.06 519.213L167.341 508.057L111.561 504.339C78.0926 504.339 59.4992 504.339 55.7805 508.057C48.3431 511.776 59.4992 515.495 107.842 515.495L152.467 519.213L167.341 530.369C178.497 545.244 178.497 545.244 174.779 563.838C163.623 649.368 163.623 660.524 171.06 682.836C178.497 705.148 185.935 716.304 197.091 720.023C208.247 720.023 215.684 716.304 223.122 701.43C237.997 675.399 249.153 582.431 252.871 515.495C252.871 463.433 252.871 452.277 260.309 463.433C264.028 467.152 267.746 478.308 264.027 504.339C260.309 541.525 260.309 619.618 264.027 656.805C267.746 682.836 267.746 686.555 278.902 697.711C290.058 708.867 293.777 712.586 304.933 708.867C323.527 708.867 327.245 697.711 334.683 653.086C338.401 623.337 338.401 619.618 349.558 608.462C360.714 597.306 368.151 597.306 401.619 601.025C412.775 604.743 438.806 604.743 461.118 608.462C502.024 608.462 502.024 608.462 502.024 597.306C505.743 589.869 505.743 589.869 475.993 593.587C461.118 593.587 423.931 593.587 397.901 589.869L353.276 586.15L345.839 593.587L338.401 604.743L334.683 571.275C330.964 552.682 327.245 515.495 327.245 493.182C327.245 467.152 323.527 437.402 323.527 426.246C323.527 407.652 319.808 348.153 319.808 325.841C323.527 310.966 327.245 307.248 330.964 318.404C330.964 322.122 334.683 344.435 334.683 370.465C338.401 418.808 342.12 426.246 364.432 437.402C375.588 444.839 375.588 444.839 379.307 437.402C383.026 433.683 386.745 426.246 386.745 418.808C386.745 400.215 390.463 377.903 397.901 374.184C401.619 370.465 416.494 355.591 431.369 344.435L457.4 318.404H498.305C535.492 322.122 539.211 322.122 539.211 310.966C539.211 310.966 531.774 307.248 520.618 307.248C494.587 307.248 483.431 307.248 468.556 299.81C461.118 296.091 457.4 299.81 427.65 333.278L394.182 366.747V344.435C390.463 314.685 386.745 262.623 379.307 240.311C375.588 221.717 360.714 206.843 342.12 195.687C334.683 191.968 338.401 191.968 345.839 180.812C349.558 173.374 360.714 165.937 364.432 158.5C371.87 143.625 383.026 143.625 442.525 143.625C475.993 143.625 479.712 143.625 479.712 136.187C479.712 128.75 475.993 128.75 446.244 132.469H390.463C364.432 136.187 364.432 136.187 356.995 147.344C349.558 154.781 342.12 169.656 334.683 177.093L323.527 191.968L275.184 184.531C219.403 180.812 189.654 184.531 178.497 199.405C167.341 206.843 152.467 258.904 152.467 273.779C152.467 288.654 145.029 284.935 130.154 266.342L115.28 251.467L74.3739 247.748C52.0618 247.748 26.0309 244.03 14.8748 244.03C0 240.311 0 244.03 0 247.748C0 255.186 11.1561 255.186 70.6553 258.904ZM189.654 322.122C189.133 323.312 188.687 324.428 188.204 325.506L162.284 351.425C157.004 350.272 156.297 346.554 156.223 337.629L244.765 249.087C250.864 249.384 257.222 249.719 263.693 250.053L204.566 309.18C199.62 305.945 192.48 310.78 189.654 322.122ZM182.067 339.897C178.125 348.599 175.82 351.165 170.242 351.723L182.067 339.897ZM326.39 251.838C333.084 252.136 339.48 252.508 345.17 252.954L238.852 359.272H219.44C218.734 359.979 218.139 360.424 217.693 360.573L326.39 251.838ZM215.759 354.214C215.685 351.723 215.684 348.525 215.684 344.435C215.684 341.497 215.424 338.299 214.978 335.138L298.76 251.355C302.144 251.43 305.454 251.467 308.652 251.467C311.924 251.467 315.16 251.503 318.395 251.615L215.759 354.214ZM213.676 328.146C212.263 321.973 210.255 316.656 208.247 314.648C208.173 314.387 208.061 314.201 207.986 313.978L271.539 250.426C277.973 250.723 284.406 250.983 290.69 251.169L213.676 328.146ZM230.559 630.774C226.841 660.524 219.403 686.555 211.966 697.711C208.247 701.43 204.528 705.148 204.528 705.148C185.935 705.148 174.779 675.399 178.497 641.93C178.497 627.056 182.216 615.899 182.216 615.899C182.216 612.181 197.091 612.181 208.247 612.181L234.278 608.462L230.559 630.774ZM260.309 448.558C249.153 444.839 241.715 455.995 241.715 478.308L237.997 504.339L226.841 500.62C197.091 500.62 197.091 500.62 193.372 485.745C193.372 478.308 197.091 448.558 204.528 422.527C211.966 366.747 211.966 366.747 271.465 370.465H308.652L312.371 407.652C312.371 429.965 316.089 455.995 316.089 470.87L319.808 496.901H278.902L275.184 482.026C275.184 463.433 271.465 448.558 260.309 448.558ZM295.079 359.309H275.221L310.846 323.684C309.507 329.671 308.689 335.807 308.689 340.716V345.736L295.079 359.309ZM308.652 353.991V359.309H303.334L308.652 353.991ZM327.245 612.181C327.245 612.181 316.089 623.337 304.933 634.493C293.777 649.368 290.058 656.805 290.058 660.524C293.777 664.243 297.496 660.524 308.652 649.368L323.527 634.493L319.808 660.524C319.808 675.399 319.808 690.273 316.089 690.273C308.652 701.43 297.496 697.711 290.058 690.273C278.902 679.117 275.184 660.524 275.184 627.056V608.462H301.214C316.089 608.462 327.245 608.462 327.245 612.181ZM375.588 381.621C371.87 389.059 371.87 392.778 371.87 392.778C375.588 392.778 375.588 400.215 375.588 407.652C371.87 426.246 368.151 429.965 360.714 422.527C353.276 415.09 349.558 403.934 349.558 381.621C349.558 359.309 349.558 359.309 356.995 355.591C379.307 351.872 386.745 363.028 375.588 381.621ZM374.696 344.174L382.319 336.55C381.204 341.273 378.638 343.505 374.696 344.174ZM382.989 327.626L366.18 344.435H353.239C351.38 344.435 350.45 343.504 349.52 341.199L381.018 309.702C382.096 316.618 382.84 322.94 382.989 327.626ZM379.939 302.562L347.549 334.952C347.066 333.353 346.545 331.642 345.839 329.56C345.132 326.064 344.203 322.717 343.05 319.593L376.816 285.828C377.931 291.294 379.009 297.021 379.939 302.562ZM372.837 268.796C373.655 271.882 374.473 275.378 375.291 279.06L340.559 313.792C338.104 308.771 335.204 304.756 332.303 302.19L371.312 263.181C371.796 264.854 372.316 266.751 372.837 268.796ZM369.192 257.045L326.873 299.363C325.683 299.178 324.568 299.29 323.489 299.81C320.18 299.81 316.87 304.978 314.23 311.969L266.891 359.309H247.033L352.756 253.623C362.09 254.441 368.151 255.186 368.151 255.186C368.449 255.483 368.821 256.115 369.192 257.045ZM178.497 214.28C185.935 199.405 197.091 195.687 245.434 195.687C267.746 195.687 293.777 199.405 301.214 199.405C312.371 203.124 316.089 203.124 308.652 206.843C304.933 210.561 304.933 217.999 304.933 217.999C304.933 229.155 312.371 221.717 319.808 214.28C327.245 199.405 334.683 199.405 353.276 217.999C375.588 236.592 371.87 236.592 323.527 240.311H267.746C260.309 240.311 252.871 240.311 252.871 240.311C252.871 240.311 234.278 236.592 211.966 236.592C171.06 236.592 167.341 236.592 178.497 214.28ZM167.341 247.748C169.535 247.748 174.333 246.483 183.183 246.149L161.912 267.42C162.768 259.424 164.515 251.951 167.341 247.748ZM161.243 276.308L191.401 246.149C196.161 246.335 201.739 246.781 208.247 247.711C208.693 247.711 209.214 247.711 209.698 247.711L162.284 295.125C161.392 290.439 161.02 283.559 161.243 276.308ZM159.904 310.966C166.523 307.657 167.23 304.346 164.701 301.037L217.804 247.934C223.494 248.12 229.964 248.38 236.881 248.752L156.185 329.448C156.222 317.139 156.52 310.966 159.904 310.966ZM167.341 363.028C174.779 363.028 178.497 363.028 178.497 363.028C178.497 374.184 171.06 415.09 167.341 418.808C163.623 422.527 159.904 426.246 156.185 426.246C148.748 426.246 145.029 389.059 148.748 370.465C152.467 363.028 152.467 363.028 167.341 363.028Z" fill="black"/>
<path d="M612.663 77.9692C620.1 85.4066 631.256 85.4066 638.693 81.6879C646.131 74.2505 642.412 70.5318 631.256 70.5318C620.1 70.5318 620.1 63.0944 631.256 59.3757C634.975 59.3757 638.693 55.657 638.693 51.9383C642.412 48.2196 638.693 48.2196 631.256 48.2196C627.537 51.9383 623.819 48.2196 627.537 44.5009C627.537 40.7822 631.256 37.0635 638.693 37.0635C653.568 33.3448 649.85 29.6261 634.975 25.9074C616.381 25.9074 616.381 25.9074 608.944 51.9383C605.225 70.5318 605.225 74.2505 612.663 77.9692Z" fill="black"/>
<path d="M111.561 69.2505H156.186L185.935 87.844C204.529 102.719 211.966 110.156 211.966 117.594C215.685 136.187 223.122 151.062 237.997 158.499C256.59 165.937 260.309 162.218 282.621 147.343C293.777 132.468 297.496 128.75 297.496 113.875C301.215 87.844 293.777 80.4066 271.465 69.2505C249.153 58.0945 237.997 61.8131 226.841 80.4066L215.685 95.2814L200.81 84.1253C193.373 76.6879 185.935 72.9692 185.935 69.2505C182.217 69.2505 178.498 65.5318 171.06 61.8131C159.904 54.3758 156.186 54.3758 126.436 54.3758C107.843 58.0945 85.5304 58.0945 78.093 54.3758C63.2182 54.3758 59.4995 54.3758 63.2182 61.8131C66.9369 65.5318 81.8117 69.2505 111.561 69.2505ZM237.997 84.1253C252.872 65.5318 290.059 80.4066 290.059 106.438C290.059 121.312 286.34 125.031 271.465 136.187C264.028 147.343 252.872 151.062 252.872 151.062C245.434 151.062 237.997 143.624 234.278 136.187C230.56 132.468 230.56 128.75 234.278 125.031C237.997 117.594 237.997 113.875 234.278 110.156C226.841 99.0001 226.841 91.5627 237.997 84.1253Z" fill="black"/>
<path d="M567.444 44.4074C574.881 55.5635 578.725 54.3754 582.444 46.938C597.319 32.0632 601.704 11.1561 590.548 11.1561C586.829 11.1561 586.829 83.5327 590.548 98.4074C594.266 120.72 600.881 15.4802 593.444 11.7615C589.725 11.7615 568.235 52.0618 568.235 29.7496C568.235 14.8748 568.235 11.1561 571.954 18.5935C579.391 29.7496 579.391 26.0309 571.954 11.1561C568.235 3.7187 564.517 0 560.798 0C557.079 3.7187 557.079 3.7187 560.798 3.7187C568.235 7.43739 568.235 14.8748 560.798 14.8748C557.079 14.8748 550 72.9692 553.719 95.2813C553.719 110.156 563.725 36.97 567.444 44.4074Z" fill="black"/>
</svg>
