<svg width="225" height="312" viewBox="0 0 225 312" fill="none" xmlns="http://www.w3.org/2000/svg">
<path d="M108.943 56.4271L110.943 2.42712L151.443 12.4271L150.971 70.4271" stroke="black" stroke-width="5" stroke-linejoin="bevel"/>
<circle cx="103.943" cy="55.9271" r="7.5" fill="black"/>
<circle cx="145.943" cy="70.9271" r="7.5" fill="black"/>
<circle cx="176.943" cy="96.9271" r="7.5" fill="black"/>
<path d="M181.943 96.4271L187.443 43.4271L198.443 48.4271" stroke="black" stroke-width="5" stroke-linejoin="bevel"/>
<circle cx="209.361" cy="104.509" r="4.91803" fill="black"/>
<path d="M212.64 104.181L216.246 69.4271L223.459 72.7058" stroke="black" stroke-width="5" stroke-linejoin="bevel"/>
<path d="M46.943 253.927C34.543 232.727 39.443 198.427 42.443 182.927C46.3205 143.183 108.928 111.896 136.443 125.957M46.943 253.927C54.1097 255.26 70.043 265.127 68.443 285.927C67.1097 294.427 59.443 311.427 42.443 309.427M46.943 253.927C59.1097 266.26 75.243 294.627 42.443 309.427M42.443 309.427C35.6097 309.427 19.943 305.127 11.943 299.927C1.94301 293.427 -8.05714 259.927 20.4429 250.927C13.1096 198.094 24.8429 97.2271 130.443 116.427C139.499 119.161 153.643 126.712 166.196 140.427M136.443 125.957C137.312 126.402 138.147 126.891 138.943 127.427C159.743 141.427 167.61 179.927 168.943 197.427C162.143 201.027 156.61 211.427 155.443 216.927C151.043 236.527 168.776 246.26 177.443 247.927C193.843 251.527 205.943 240.76 209.943 234.927C217.143 215.327 200.943 201.76 191.943 197.427C188.629 172.082 178.132 153.468 166.196 140.427M136.443 125.957L166.196 140.427" stroke="black" stroke-width="3.5"/>
<path d="M27.4036 282.217L27.8772 269.427L37.4694 271.796L37.3576 285.532" stroke="black" stroke-width="2.5" stroke-linejoin="bevel"/>
<circle cx="25.943" cy="282.822" r="2.5" fill="black"/>
<circle cx="35.8904" cy="286.374" r="2.5" fill="black"/>
<path d="M174.943 237.927C165.343 232.327 170.943 218.26 174.943 211.927C193.943 207.427 195.943 223.927 196.943 229.427C197.943 234.927 186.943 244.927 174.943 237.927Z" stroke="black" stroke-width="1.8"/>
<path d="M195.443 208.427C197.11 209.094 200.543 211.127 200.943 213.927" stroke="black" stroke-width="2" stroke-linecap="round"/>
</svg>
