<svg width="447" height="382" viewBox="0 0 447 382" fill="none" xmlns="http://www.w3.org/2000/svg">
<path d="M385.25 297.496C388.969 297.496 388.969 278.902 381.531 275.184C370.375 264.027 377.812 200.81 396.406 156.185C400.125 145.029 411.281 118.998 414.999 96.6861C418.718 78.0926 429.874 52.0618 433.593 40.9057C444.749 18.5935 448.468 0 444.749 0C441.03 0 433.593 3.7187 426.155 11.1561C411.281 22.3122 396.406 29.7496 366.656 40.9057C344.344 48.3431 325.751 59.4992 288.564 78.0926C251.377 92.9674 188.159 115.28 128.66 133.873C110.066 141.31 76.598 148.748 58.0045 159.904C35.6923 167.341 13.3802 174.779 9.66146 174.779C-1.49463 174.779 -1.49463 174.779 2.22406 182.216C5.94276 189.654 13.3802 189.654 20.8175 189.654C28.2549 189.654 54.2858 193.372 72.8793 197.091C91.4728 204.528 117.504 208.247 124.941 208.247C158.409 208.247 158.409 208.247 158.409 234.278C158.409 293.777 162.128 368.151 165.847 375.588C169.565 386.745 173.284 383.026 177.003 364.432C180.722 349.558 188.159 338.401 229.065 278.902C255.095 241.715 255.095 241.715 281.126 249.153C292.282 252.871 318.313 264.027 340.625 275.184C362.938 286.34 381.531 297.496 385.25 297.496ZM158.409 197.091C136.097 197.091 91.4728 193.372 61.7232 185.935L31.9736 182.216L46.8484 174.779C54.2858 171.06 65.4419 167.341 69.1606 163.623C76.598 159.904 106.348 152.467 154.691 137.592C173.284 133.873 206.752 122.717 225.346 115.28C262.533 100.405 269.97 96.6861 329.469 70.6552C344.344 63.2178 359.219 59.4992 359.219 59.4992C359.219 59.4992 351.782 66.9365 340.625 74.3739C329.469 81.8113 307.157 96.6861 292.282 111.561C273.689 122.717 247.658 141.31 232.783 152.467C217.908 163.623 195.596 178.497 188.159 185.935C177.003 197.091 169.565 197.091 158.409 197.091ZM184.44 316.089C180.722 327.245 177.003 334.683 177.003 334.683C173.284 334.683 165.847 230.559 169.565 223.122C173.284 211.966 199.315 189.654 229.065 167.341C240.221 159.904 266.252 141.31 281.126 130.154C322.032 100.405 329.469 96.6861 307.157 118.998C292.282 133.873 255.095 171.06 221.627 208.247C210.471 223.122 206.752 230.559 195.596 286.34C191.878 293.777 188.159 308.652 184.44 316.089ZM221.627 267.746C203.034 301.214 199.315 304.933 203.034 290.058C203.034 286.34 206.752 271.465 210.471 260.309C217.908 234.278 217.908 234.278 229.065 234.278C236.502 237.997 240.221 237.997 240.221 237.997C240.221 237.997 232.783 252.871 221.627 267.746ZM281.126 237.997C273.689 237.997 266.252 234.278 262.533 234.278C258.814 230.559 251.377 226.841 243.939 226.841C236.502 226.841 232.783 223.122 232.783 219.403C232.783 211.966 325.751 115.28 355.5 89.2487L377.812 66.9365C385.25 55.7805 414.999 37.187 418.718 40.9057C422.437 40.9057 407.562 89.2487 388.969 148.748C377.812 178.497 370.375 215.684 366.656 234.278C366.656 252.871 362.938 271.465 359.219 271.465C359.219 271.465 344.344 264.027 329.469 256.59C310.876 249.153 288.564 237.997 281.126 237.997Z" fill="black"/>
</svg>
