<svg width="302" height="97" viewBox="0 0 302 97" fill="none" xmlns="http://www.w3.org/2000/svg">
<path d="M223.629 -26.4066C223.971 -30.6515 224.735 -28.4823 225.946 -29.6853C226.4 -30.1341 225.996 -31.5304 227.114 -31.9356C227.797 -32.1849 230.636 -32.1849 231.319 -31.9356C232.773 -31.412 231.443 -28.5323 234.804 -29.5172C235.369 -30.0906 233.288 -32.8144 237.295 -32.0165C238.258 -35.8375 233.947 -33.5438 234.804 -37.6204C238.574 -36.4423 236.636 -40.2695 238.226 -40.7308C240.885 -41.5037 240.164 -37.9132 240.419 -37.6514C240.804 -37.2463 251.165 -37.24 251.544 -37.6514C251.824 -37.9444 251.047 -40.1323 252.581 -40.6621C254.215 -41.2294 262.359 -40.3256 262.744 -40.737C262.955 -40.9676 262.526 -43.0369 262.731 -43.2426C262.955 -43.4546 264.899 -42.9622 265.197 -43.2551C265.384 -43.4359 264.93 -45.9854 266.154 -46.3407C268.8 -47.1074 268.117 -43.5107 268.365 -43.2676C268.471 -43.1679 270.67 -43.1679 270.769 -43.2676C270.993 -43.4858 270.489 -45.4929 271.396 -46.085C272.819 -47.0138 274.533 -44.963 273.912 -48.8463C277.229 -49.6193 276.422 -47.2631 277.179 -46.5151C277.577 -46.1286 278.794 -46.3468 279.211 -45.7547C279.72 -45.0316 279.322 -43.4671 279.515 -43.2551C279.844 -42.8998 284.72 -43.5669 285.056 -43.2116C285.279 -42.981 284.745 -40.9863 285.664 -40.3879C286.36 -39.9329 287.969 -40.2944 288.161 -40.1012C288.447 -39.8145 287.956 -37.8323 288.174 -37.6204C288.391 -37.4085 290.36 -37.8946 290.646 -37.6079C290.839 -37.4147 290.478 -35.8003 290.932 -35.1021C291.528 -34.1796 293.535 -34.7157 293.752 -34.4975C294.038 -34.2108 293.547 -32.2409 293.764 -32.0165C293.982 -31.7922 296.032 -32.241 296.261 -32.029C296.541 -31.7672 295.945 -26.7495 296.28 -26.4441C296.491 -26.2508 298.05 -26.6498 298.771 -26.1386C299.355 -25.721 299.137 -24.493 299.529 -24.1003C299.97 -23.6516 301.367 -24.0506 301.771 -22.9286C301.964 -22.3987 302.131 -15.4735 301.852 -15.2117C301.622 -14.9936 299.585 -15.4361 299.355 -15.218C298.939 -14.8253 299.964 -8.29916 299.094 -7.07121C298.46 -6.17362 296.497 -6.68462 296.274 -6.47269C295.889 -6.10493 296.777 -2.57704 295.969 -1.46752C295.566 -0.912758 294.323 -1.1121 293.938 -0.719406C293.553 -0.326714 293.777 0.907486 293.18 1.31888C292.485 1.80507 290.994 1.39356 290.727 1.66159C290.46 1.92962 290.87 3.42572 290.385 4.12384C289.975 4.716 288.745 4.49159 288.354 4.88428C287.963 5.27698 288.162 6.51741 287.609 6.92257C286.255 7.91365 277.552 6.67947 277.037 7.22799C276.844 7.42746 277.204 9.02941 276.751 9.72753C276.155 10.6501 274.148 10.114 273.931 10.3321C273.645 10.6189 274.136 12.601 273.918 12.813C273.701 13.0249 271.75 12.5325 271.452 12.8254C271.266 13.0062 271.719 15.5556 270.496 15.9109C267.868 16.6776 268.595 13.2118 268.259 12.869C267.806 12.4139 265.222 13.3802 265.216 11.2422C265.21 9.10416 268.011 9.95187 268.303 9.66514C268.595 9.37841 268.104 7.40872 268.315 7.19056C268.527 6.97239 270.583 7.41497 270.812 7.20303C271.111 6.92254 270.328 3.20748 271.073 2.17276C271.694 1.3001 273.552 1.83614 273.85 1.53071C274.148 1.22528 273.62 -0.63221 274.49 -1.25554C275.763 -2.17182 280.037 -1.03105 281.608 -1.47985C282.341 -1.69178 281.739 -3.49331 282.987 -3.9421C284.994 -4.65893 288.677 -2.55197 287.609 -6.16103C287.453 -6.69085 283.993 -6.52258 285.081 -9.62051C288.957 -9.00342 286.913 -10.7176 287.832 -12.145C288.429 -13.0675 290.416 -12.5315 290.646 -12.7559C290.814 -12.9179 290.808 -16.7513 290.702 -17.3684C290.578 -18.0915 287.95 -17.356 287.565 -18.6587C286.783 -21.339 290.578 -20.5038 290.702 -21.1832C290.826 -21.8626 290.832 -26.2321 290.64 -26.4129C290.41 -26.631 288.46 -26.12 287.826 -27.0114C287.074 -28.0648 287.87 -31.7361 287.565 -32.0415C287.261 -32.3469 279.763 -31.7361 279.49 -32.0353C279.31 -32.2223 279.627 -33.9489 279.49 -34.5348C275.676 -35.501 277.968 -31.1751 273.906 -32.0353C273.775 -32.6274 274.086 -34.3478 273.906 -34.5348C273.633 -34.8278 266.204 -34.7156 265.912 -34.4414C265.601 -34.1546 266.042 -32.5527 264.825 -32.1101C262.874 -31.4058 252.128 -32.5964 251.575 -32.0105C250.737 -31.1316 252.619 -27.5847 245.966 -28.9186C245.339 -25.0416 247.121 -27.1173 248.488 -26.1511C249.184 -25.6587 248.761 -24.0817 249.445 -23.8948C250.563 -23.5831 252.998 -24.4494 254.085 -23.6703C254.979 -23.0283 254.464 -21.0585 254.681 -20.8404C254.967 -20.5536 256.93 -21.046 257.153 -20.8279C257.377 -20.6097 256.93 -18.5527 257.141 -18.3221C257.42 -18.0229 261.122 -18.8083 262.154 -18.0604C263.017 -17.437 262.489 -15.5858 262.793 -15.2803C263.129 -14.9438 266.589 -15.6792 265.825 -13.0426C265.47 -11.8146 262.93 -12.2696 262.744 -12.0826C262.445 -11.7834 262.942 -9.82619 262.731 -9.60803C262.52 -9.38987 260.464 -9.83244 260.234 -9.62051C259.818 -9.22781 260.843 -2.70156 259.973 -1.47361C259.34 -0.576019 257.377 -1.08717 257.153 -0.875237C256.768 -0.507477 257.656 3.02057 256.849 4.13008C256.445 4.68484 255.203 4.48535 254.818 4.87804C254.433 5.27074 254.656 6.50493 254.06 6.91633C253.364 7.40252 251.873 6.991 251.606 7.25904C251.339 7.52707 251.743 9.03564 251.271 9.72753C250.799 10.4194 249.395 10.1326 249.153 10.3944C248.699 10.8743 249.383 13.7354 248.985 14.9072C248.463 16.4406 246.258 15.6678 245.979 15.9421C245.699 16.2163 246.177 18.186 245.966 18.4229C245.78 18.6286 240.562 18.6286 240.369 18.4229C240.152 18.1923 240.593 16.1477 240.376 15.9233C240.183 15.7177 234.972 15.7177 234.779 15.9233C234.568 16.154 234.996 18.2234 234.791 18.4291C234.586 18.6348 232.605 18.1486 232.319 18.4416C232.102 18.6598 232.617 20.6295 231.723 21.2715C230.605 22.0756 227.356 21.0969 226.791 21.6267C226.487 21.9134 226.921 23.5216 225.71 23.9579C224.635 24.3444 221.443 23.7399 221.145 24.0515C220.927 24.2822 221.455 26.2831 220.536 26.8815C219.84 27.3365 218.231 26.9749 218.039 27.1682C217.753 27.4549 218.244 29.4121 218.026 29.649C217.753 29.9482 210.312 29.3124 209.976 29.6677C209.815 29.836 210.044 31.0951 209.846 31.6873C209.069 33.9998 201.342 32.0924 199.155 32.7157C198.422 32.9214 199.031 34.7228 197.776 35.1778C196.366 35.6827 190.521 34.8413 190.111 35.2776C189.894 35.502 190.403 37.4655 189.515 38.1013C188.465 38.8493 184.782 38.0639 184.502 38.3631C184.285 38.5937 184.726 40.6382 184.509 40.8626C184.241 41.1431 179.26 40.5447 178.943 40.8813C178.726 41.112 179.235 43.0692 178.347 43.705C177.297 44.453 173.613 43.6676 173.334 43.9668C173.116 44.1974 173.557 46.2419 173.34 46.4663C173.073 46.7468 168.091 46.1484 167.775 46.485C167.557 46.7156 168.066 48.6729 167.178 49.3087C166.128 50.0567 162.445 49.2712 162.165 49.5704C161.948 49.8011 162.389 51.8456 162.172 52.07C161.88 52.3754 154.463 51.7272 154.121 52.0887C153.904 52.3131 154.413 54.2766 153.525 54.9124C152.407 55.7165 149.158 54.7377 148.593 55.2676C148.289 55.5543 148.723 57.1625 147.512 57.5988C146.438 57.9853 143.245 57.3807 142.947 57.6924C142.673 57.9791 143.45 60.167 141.916 60.7031C136.164 62.6915 137.002 58.0165 136.679 57.7049C136.58 57.6051 134.368 57.6114 134.275 57.7049C134.076 57.9043 134.455 59.4876 133.952 60.1982C133.536 60.7903 132.312 60.5659 131.921 60.9586C131.53 61.3513 131.728 62.5917 131.176 62.9969C129.908 63.9257 123.548 62.8099 123.082 63.3023C122.889 63.5143 123.287 65.0788 122.778 65.8019C122.361 66.3878 121.131 66.1696 120.746 66.5623C120.361 66.955 120.554 68.1954 120.001 68.6006C118.895 69.4109 115.38 68.5195 115.013 68.906C114.802 69.1304 115.311 71.0939 114.417 71.7297C112.957 72.7706 106.242 71.3743 104.199 71.954C103.466 72.1597 104.068 73.9675 102.82 74.4163C101.745 74.8027 98.5585 74.198 98.2541 74.5097C98.0429 74.7341 98.5523 76.6976 97.6579 77.3334C96.5398 78.1312 93.2787 77.1589 92.7259 77.6887C92.465 77.9318 92.7258 79.3529 92.0612 79.8142C91.3965 80.2755 89.8747 79.8828 89.6014 80.1508C89.3281 80.4189 89.7443 81.9148 89.2598 82.6129C88.8498 83.2051 87.6199 82.9807 87.2285 83.3734C86.7813 83.8159 87.1789 85.2185 86.0608 85.6236C84.6632 86.1348 78.7994 85.287 78.3957 85.7171C78.1161 86.01 78.8926 88.198 77.3584 88.7278C75.7247 89.295 67.5812 88.3911 67.1961 88.8025C66.9849 89.0331 67.4135 91.1026 67.2086 91.3083C66.9849 91.5202 65.0407 91.0278 64.7426 91.3208C64.5562 91.5015 65.0096 94.0509 63.786 94.4062C61.1585 95.1729 61.8791 91.6823 61.5561 91.3644C61.2704 91.0839 59.7857 91.4953 59.1024 91.0216C58.4191 90.5479 58.767 88.9458 58.1769 88.7713C54.3692 87.6306 57.5992 91.9316 54.4623 91.3208C52.4374 90.9281 53.2883 88.9832 52.5864 88.7713C48.7787 87.6306 52.015 91.9254 48.8781 91.3208C46.8842 90.9343 47.6856 89.295 47.2632 88.8961C46.9712 88.6218 39.5421 88.5095 39.2688 88.8025C39.0514 89.0331 39.4924 91.0777 39.275 91.302C39.0824 91.5077 33.8709 91.5077 33.6783 91.302C33.5044 91.1213 33.7901 89.3884 33.6783 88.8025H22.5037C22.3981 89.3822 22.6838 91.1151 22.5037 91.302C22.2055 91.6137 14.7951 90.9592 14.4535 91.3208C14.236 91.5452 14.7454 93.5087 13.8572 94.1444C12.6335 95.0171 6.12989 93.9886 5.73856 94.4062C5.24784 94.9298 6.94981 97.4668 4.17322 96.9245C2.27868 96.5505 3.05514 95.1542 2.47125 94.5807C2.0178 94.1257 0.632547 94.5247 0.228793 93.409C0.0362332 92.8854 -0.131407 85.9477 0.148115 85.6921C0.384156 85.474 2.33459 85.9664 2.62032 85.6796C2.84394 85.4552 2.30351 83.4481 3.22283 82.8497C3.91853 82.3947 5.52735 82.7562 5.7199 82.563C6.34107 81.9459 4.2105 79.3093 8.2232 80.0884C9.186 76.2674 4.87514 78.5613 5.73234 74.4847C9.63944 75.7439 7.24797 71.3619 9.76988 71.3619C11.8818 71.3619 11.0682 74.1606 11.3663 74.4473C11.4719 74.547 13.6707 74.547 13.7701 74.4473C13.9937 74.2291 13.4906 72.222 14.3975 71.6299C15.0932 71.1748 16.702 71.5364 16.8946 71.3432C17.1803 71.0564 16.6896 69.0743 16.907 68.8623C17.1244 68.6504 19.0935 69.1366 19.3792 68.8499C19.5718 68.6566 19.2115 67.0422 19.6649 66.3441C20.2612 65.4216 22.249 65.9576 22.4788 65.7332C22.8329 65.3966 22.1931 57.9292 22.4975 57.655C22.7335 57.4368 24.6839 57.9292 24.9697 57.6425C25.1622 57.4492 24.8019 55.8348 25.2554 55.1367C25.8517 54.2142 27.8518 54.7503 28.0755 54.5321C28.3612 54.2454 27.8705 52.2881 28.0879 52.0513C28.3364 51.777 33.3491 52.3629 33.6597 52.0325C33.8585 51.8206 33.4547 50.2561 33.964 49.533C34.3802 48.9408 35.6101 49.1653 35.9953 48.7726C36.3804 48.3799 36.1629 47.1519 36.7531 46.7343C37.4736 46.2232 39.0389 46.6221 39.2439 46.4289C39.6725 46.0299 38.834 40.1332 39.3372 38.737C39.7409 37.6212 41.1322 38.0202 41.5795 37.5652C41.9708 37.1725 41.772 35.9757 42.3248 35.5269C42.7783 35.1591 44.6977 35.0968 44.8468 35.234C44.971 35.3524 44.5735 38.8742 46.3935 38.3506C47.2879 38.095 47.17 35.7263 48.344 35.3149C49.431 34.9347 52.6113 35.5207 52.9032 35.2152C53.1765 34.9285 52.4064 32.7344 53.9407 32.2045C55.3321 31.7246 61.2951 32.4726 61.6181 32.1298C61.8355 31.8992 61.3945 29.8547 61.6119 29.6303C61.9038 29.3248 69.3205 29.9731 69.6621 29.6115C69.8795 29.3872 69.3703 27.4237 70.2586 26.7879C71.3766 25.9838 74.6253 26.9624 75.1905 26.4325C75.4949 26.1458 75.0601 24.5376 76.2713 24.1013C77.3459 23.7148 80.5386 24.3195 80.8368 24.0079C81.0542 23.7772 80.5262 21.7763 81.4455 21.1779C82.1412 20.7229 83.75 21.0845 83.9426 20.8912C84.2283 20.6045 83.7376 18.6473 83.955 18.4104C84.4147 17.9055 97.105 18.909 97.5957 18.3917C97.7882 18.1922 97.4343 16.5778 97.8878 15.8984C99.0121 14.2216 111.423 16.0979 114.001 15.3437C114.696 15.138 114.262 13.5796 114.963 13.0872C115.665 12.5948 117.144 13.0248 117.423 12.7506C117.703 12.4763 117.318 10.9554 117.759 10.2947C118.703 8.87352 123.573 10.2013 125.182 9.74001C125.914 9.52808 125.306 7.73278 126.56 7.27776C127.958 6.77286 133.834 7.60818 134.226 7.18431C134.418 6.97239 134.021 5.40783 134.53 4.68478C134.946 4.09885 136.17 4.31703 136.561 3.92434C137.008 3.48178 136.611 2.07923 137.729 1.67406C139.667 0.969707 150.432 2.16655 150.985 1.58063C151.146 1.41233 150.916 0.153217 151.115 -0.438942C151.854 -2.63305 156.892 -0.950157 158.699 -1.46752C159.432 -1.67945 158.823 -3.4746 160.078 -3.92962C161.488 -4.43452 167.333 -3.59297 167.743 -4.0293C167.961 -4.2537 167.451 -6.21719 168.34 -6.85298C169.389 -7.60098 173.073 -6.81554 173.353 -7.11473C173.57 -7.34536 173.129 -9.38987 173.346 -9.61427C173.607 -9.89476 178.595 -9.29639 178.912 -9.63299C179.191 -9.92595 178.415 -12.1139 179.949 -12.6437C182.682 -13.5849 189.521 -11.8957 192.217 -12.6811C192.913 -12.8868 192.478 -14.4513 193.18 -14.9375C193.882 -15.4237 195.366 -14.9998 195.64 -15.2741C195.913 -15.5484 195.497 -17.0381 195.981 -17.7362C196.391 -18.3284 197.627 -18.104 198.019 -18.4967C198.41 -18.8894 198.18 -20.1235 198.777 -20.5349C199.472 -21.0211 200.944 -20.6035 201.224 -20.884C201.429 -21.0835 201.187 -23.932 202.218 -23.932H212.461C211.02 -28.4761 217.088 -25.4841 218.02 -26.4503C218.206 -26.6435 217.759 -29.1742 218.983 -29.5295C221.641 -30.3024 220.909 -26.737 221.176 -26.4503C221.35 -26.2633 223.014 -26.4565 223.629 -26.4253C223.542 -25.347 223.84 -21.0086 223.629 -20.8154C223.393 -20.5972 221.443 -21.0897 221.157 -20.8029C220.933 -20.5785 221.474 -18.5716 220.554 -17.9732C219.859 -17.5181 218.25 -17.8795 218.057 -17.6863C217.772 -17.3996 218.262 -15.4423 218.045 -15.2055C217.772 -14.9063 210.33 -15.5421 209.995 -15.1868C209.771 -14.9561 210.305 -12.9616 209.386 -12.3632C208.69 -11.9082 207.082 -12.2696 206.889 -12.0764C206.603 -11.7896 207.094 -9.83242 206.877 -9.59555C206.603 -9.29636 199.156 -9.93213 198.826 -9.57683C198.634 -9.37737 198.994 -7.77557 198.54 -7.07745C197.944 -6.15493 195.938 -6.69085 195.72 -6.47269C195.435 -6.18596 195.925 -4.2038 195.708 -3.99186C195.491 -3.77993 193.54 -4.27235 193.242 -3.97939C193.056 -3.79862 193.509 -1.24925 192.285 -0.893955C189.627 -0.121033 190.347 -3.71135 190.093 -3.97315C189.708 -4.37831 179.353 -4.37831 178.968 -3.97315C178.75 -3.74875 179.26 -1.78541 178.371 -1.14962C177.322 -0.401627 173.638 -1.18691 173.359 -0.887718C173.141 -0.657085 173.582 1.38743 173.365 1.61182C173.098 1.89232 168.116 1.29395 167.799 1.63054C167.582 1.86117 168.091 3.81828 167.203 4.45407C165.911 5.37659 161.668 4.22974 160.084 4.67854C159.351 4.89046 159.96 6.68561 158.706 7.14064C157.295 7.64553 151.457 6.80414 151.04 7.24047C150.916 7.37137 151.14 10.3259 150.084 10.3259H139.841C141.294 14.8575 135.176 11.8842 134.275 12.8379C134.114 13.0125 134.344 14.2653 134.145 14.8575C133.406 17.0516 128.368 15.3686 126.56 15.8859C125.827 16.0978 126.436 17.893 125.182 18.348C123.784 18.8529 117.908 18.0177 117.516 18.4416C117.324 18.6535 117.721 20.2181 117.212 20.9411C116.796 21.5271 115.566 21.3089 115.181 21.7016C114.796 22.0943 114.988 23.3347 114.435 23.7399C113.324 24.5564 109.826 23.6588 109.447 24.0515C109.261 24.2448 109.715 26.7817 108.485 27.137C105.826 27.9099 106.547 24.3196 106.292 24.0578C106.012 23.7648 98.5461 23.7648 98.2666 24.0578C98.0492 24.2822 98.5585 26.2457 97.6703 26.8815C96.4466 27.7541 89.943 26.7256 89.5517 27.1432C89.3343 27.3738 89.7753 29.4184 89.5579 29.6427C89.297 29.9232 84.3091 29.3249 83.9923 29.6615C83.8308 29.836 84.0607 31.0889 83.8619 31.681C83.1227 33.8751 78.0851 32.1921 76.2776 32.7095C75.5446 32.9214 76.1471 34.7228 74.8986 35.1716C73.824 35.558 70.6312 34.9535 70.333 35.2652C70.0597 35.5519 70.83 37.7459 69.2957 38.2757C67.9043 38.7557 61.9411 38.0078 61.6181 38.3506C61.4007 38.5812 61.8417 40.6257 61.6243 40.8501C61.3386 41.1556 53.9095 40.5135 53.5741 40.8689C53.3816 41.0683 53.7419 42.6703 53.2884 43.3684C52.6921 44.2909 50.7106 43.7548 50.4745 43.9792C50.313 44.1351 50.3255 47.9436 50.5305 48.542C51.0523 50.0754 53.2573 49.3024 53.5368 49.5767C53.8163 49.8509 53.3381 51.8331 53.5493 52.0575C53.7604 52.2819 55.8165 51.8331 56.0463 52.045C56.3258 52.3068 55.7296 57.3121 56.065 57.63C56.2948 57.8482 58.2453 57.337 58.8789 58.2284C59.6242 59.2818 58.8415 62.9781 59.1397 63.2586C59.3695 63.4768 61.4069 63.0342 61.6368 63.2524C61.9784 63.5765 61.2331 69.5605 61.7114 70.9568C62.2394 72.4964 64.4382 71.7172 64.7177 71.9914C64.9972 72.2657 64.5189 74.2354 64.7301 74.4723C65.0034 74.7715 72.5319 74.1668 72.8052 74.4598C73.0226 74.6904 72.5816 76.7349 72.799 76.9593C73.0661 77.2398 80.0418 77.1214 80.4953 76.9968C81.2282 76.7911 80.6257 74.9835 81.8742 74.5347C82.9488 74.1482 86.1353 74.7527 86.4397 74.4411C86.6509 74.2167 86.1415 72.2532 87.0359 71.6174C88.154 70.8195 91.4152 71.792 91.9681 71.2622C92.229 71.0191 91.968 69.5978 92.6326 69.1366C93.2972 68.6753 94.8192 69.0681 95.0925 68.8001C95.3658 68.5321 94.9495 67.036 95.4341 66.3378C95.844 65.7457 97.0677 65.9701 97.4653 65.5774C97.9063 65.1411 97.5523 63.7075 98.6207 63.3086C102.025 62.0432 100.055 66.9986 102.279 66.3628C103.118 66.1197 103.143 63.9941 103.826 63.5391C104.509 63.0841 105.981 63.4582 106.255 63.1902C106.696 62.7601 105.739 60.1358 107.87 60.1358C110 60.1358 109.168 62.9345 109.466 63.2212C109.572 63.3209 111.771 63.3209 111.864 63.2212C112.063 63.028 111.727 61.4011 112.174 60.7341C113.156 59.288 119.162 60.7405 119.889 60.0486C120.15 59.7992 119.889 58.3842 120.554 57.9229C121.219 57.4617 122.734 57.8607 123.014 57.5865C123.312 57.2935 122.784 55.4234 123.647 54.8001C124.921 53.8838 130.393 55.0807 131.064 54.4449C131.325 54.1956 131.064 52.7805 131.729 52.3193C132.393 51.858 133.89 52.257 134.182 51.9765C134.449 51.7148 133.983 49.2837 135.182 48.9346C137.841 48.1555 137.126 51.752 137.375 52.0138C137.543 52.1946 142.127 52.1946 142.294 52.0138C142.512 51.7832 142.003 49.8259 142.891 49.1901C144.009 48.3923 147.27 49.3648 147.823 48.835C148.084 48.5919 147.823 47.1706 148.487 46.7093C149.152 46.2481 150.661 46.6471 150.941 46.3666C151.146 46.1672 150.904 43.3185 151.935 43.3185H162.178C160.731 38.7807 166.83 41.7601 167.743 40.8064C167.961 40.5758 167.451 38.6186 168.34 37.9828C169.389 37.2348 173.073 38.0202 173.353 37.721C173.57 37.4904 173.129 35.4459 173.346 35.2215C173.613 34.941 178.595 35.5394 178.912 35.2028C179.129 34.9721 178.62 33.0149 179.508 32.3791C180.558 31.6311 184.241 32.4165 184.521 32.1173C184.738 31.8867 184.297 29.8422 184.515 29.6178C184.782 29.3373 189.764 29.9357 190.08 29.5991C190.298 29.3684 189.788 27.4112 190.677 26.7754C191.726 26.0274 195.41 26.8128 195.689 26.5136C195.907 26.283 195.466 24.2385 195.683 24.0141C196.149 23.5154 208.833 24.5065 209.324 23.9954C209.541 23.771 209.032 21.8075 209.92 21.1717C211.038 20.3676 214.287 21.3462 214.852 20.8164C215.156 20.5296 214.722 18.9215 215.933 18.4851C217.008 18.0987 220.194 18.7096 220.499 18.3917C220.71 18.1673 220.2 16.2038 221.095 15.568C222.182 14.7889 224.611 15.6616 225.735 15.3437C226.424 15.1505 225.99 13.5734 226.691 13.0872C227.393 12.601 228.878 13.0248 229.151 12.7506C229.425 12.4763 229.008 10.9866 229.493 10.2885C229.903 9.6963 231.133 9.92072 231.524 9.52803C231.915 9.13533 231.717 7.8949 232.269 7.48974C233.375 6.67942 236.897 7.56454 237.257 7.18431C237.475 6.95369 236.947 4.95279 237.866 4.35439C239.295 3.42564 241.003 5.47642 240.382 1.59311C243.469 0.502285 243.301 3.97425 243.829 4.13008C247.426 5.2022 245.32 1.49953 246.041 -0.507572C246.476 -1.72306 248.078 -1.28672 248.364 -1.59215C248.892 -2.15938 247.916 -5.4131 248.718 -6.54132C249.358 -7.43891 251.314 -6.92776 251.538 -7.13969C251.855 -7.44512 251.246 -10.6428 251.631 -11.7212C252.153 -13.1735 255.035 -11.8458 254.041 -15.218C252.706 -15.4237 250.047 -14.7629 249.028 -15.5047C248.476 -15.9098 248.674 -17.1565 248.283 -17.5429C247.892 -17.9294 246.668 -17.7112 246.252 -18.3034C245.705 -19.0701 246.345 -20.7344 245.618 -20.8591C244.804 -21.0024 238.183 -21.0772 237.922 -20.8029C237.556 -20.4165 238.462 -15.7977 232.704 -17.7986C231.17 -18.3284 231.946 -20.5349 231.673 -20.8092C231.4 -21.0834 229.412 -20.6097 229.201 -20.8216C228.99 -21.0336 229.474 -23.0157 229.189 -23.3025C228.965 -23.5269 226.965 -22.9847 226.368 -23.9072C225.076 -25.9019 227.984 -26.1947 223.617 -26.4316L223.629 -26.4066ZM44.8468 49.5704C41.4428 48.729 42.7659 51.1039 41.7783 51.7895C41.095 52.2632 39.5918 51.8581 39.3185 52.1261C39.0452 52.3942 39.4614 53.8901 38.9769 54.5882C38.5669 55.1804 37.3308 54.956 36.9394 55.3487C36.5481 55.7414 36.7779 56.9756 36.1816 57.387C35.4859 57.8732 33.9952 57.4618 33.7281 57.7298C33.461 57.9979 33.8647 59.5063 33.3926 60.1982C32.9205 60.8901 31.5168 60.6032 31.2745 60.865C30.7465 61.4198 31.7217 64.6924 30.9204 65.8143C30.2806 66.7119 28.3177 66.1945 28.1003 66.4127C27.8146 66.6994 28.3053 68.6691 28.0879 68.8935C27.8705 69.1179 25.8206 68.6691 25.5908 68.8811C25.3858 69.0743 25.3858 74.304 25.5908 74.491C26.1188 74.9896 28.6345 73.2693 28.1003 76.0618C27.7152 78.0502 26.0629 77.2834 25.6964 77.6948C25.4852 77.9379 25.5101 80.0074 25.5908 80.0947C25.8766 80.4001 33.3926 79.7955 33.6659 80.0947C33.8833 80.3253 33.4423 82.3698 33.6597 82.5942C33.8398 82.7874 38.2439 82.7251 38.89 82.6004C39.7409 82.4446 38.952 80.4001 39.2439 80.0884C39.5359 79.7768 47.0022 79.8703 47.6358 80.7367C48.4185 81.8026 47.0208 83.1427 50.4186 82.588C49.7664 80.4437 51.1516 78.9602 52.9467 80.3689C53.9406 81.1481 52.5864 83.3858 56.0028 82.588C55.2015 78.5675 57.9222 80.6557 58.4937 80.0884C59.4751 76.7162 56.5992 78.044 56.0774 76.5917C55.6923 75.5133 56.3009 72.3156 55.9841 72.0102C55.7605 71.7982 53.804 72.3094 53.1642 71.4118C52.3629 70.2898 53.3381 67.0361 52.8101 66.4626C52.5244 66.1572 50.9218 66.5935 50.487 65.378C49.9776 63.9631 50.8223 58.1038 50.3875 57.6861C50.1639 57.468 48.2074 57.9791 47.5738 57.0878C46.8284 56.0406 47.6109 52.338 47.3128 52.0575C46.6978 51.4778 44.0455 53.6096 44.8219 49.5642L44.8468 49.5704Z" fill="black" fill-opacity="0.25"/>
</svg>
