<svg width="444" height="525" viewBox="0 0 444 525" fill="none" xmlns="http://www.w3.org/2000/svg">
<path d="M299.82 452.051C311.642 463.869 335.322 459.929 351.121 444.172C366.92 432.354 366.921 428.379 359.003 412.622C343.204 388.95 315.582 385.011 299.82 400.804C291.938 408.683 287.997 412.622 291.937 428.416C291.937 440.234 295.879 448.112 299.82 452.051ZM347.181 424.44C355.062 428.379 355.063 428.379 343.241 436.258C331.419 448.076 315.619 448.075 315.619 444.136C315.619 424.44 331.382 416.561 347.181 424.44ZM303.76 416.562C303.76 412.622 307.701 408.683 311.642 408.683C311.642 408.683 319.524 408.683 319.524 404.744C331.346 396.865 331.346 404.744 319.524 416.562C303.761 428.379 299.819 428.379 303.76 416.562Z" fill="black"/>
<path d="M394.543 483.602C418.223 440.198 398.483 377.097 355.099 349.486C343.277 341.607 331.418 337.668 327.477 337.668C315.655 337.668 280.117 357.4 260.414 377.096C236.733 400.768 232.792 420.501 232.792 452.052C236.733 503.335 240.673 515.152 252.532 515.152C252.532 515.152 260.413 515.152 272.271 519.091C292.011 526.97 288.07 526.97 323.573 519.091C366.92 515.188 386.625 503.335 394.543 483.602ZM264.318 392.89C268.259 388.951 272.199 385.011 272.199 381.072C280.08 373.194 307.702 357.4 315.62 357.4C319.561 357.4 327.442 353.461 327.442 349.522C327.442 345.583 355.062 361.339 366.884 377.132C378.706 385.011 394.506 420.537 394.506 428.416C394.506 432.355 390.565 440.234 382.684 448.148C374.802 463.942 359.003 471.82 323.5 475.759C272.199 487.577 244.579 471.82 244.579 436.331C244.579 416.562 252.46 404.744 264.318 392.89ZM272.199 503.334C268.258 499.395 260.378 499.395 256.401 499.395C252.46 499.395 248.519 495.456 248.519 487.577C240.638 475.759 244.578 475.76 260.341 483.638C280.081 495.456 291.903 499.431 323.465 491.517C358.967 483.638 370.826 479.699 382.648 467.845C394.471 459.966 394.471 463.905 382.648 479.663C374.767 491.48 366.848 499.395 339.227 503.334C315.619 511.249 276.139 511.249 272.199 503.334Z" fill="black"/>
<path d="M23.6092 416.562C23.6092 412.623 39.4081 408.683 55.171 400.768C70.97 396.829 90.6728 388.951 98.5904 384.975L130.152 369.182C145.951 365.243 197.217 341.571 220.898 325.777C228.779 321.838 240.638 313.96 244.579 313.96C244.579 313.96 256.4 306.081 272.199 302.142C299.82 294.263 311.642 286.349 323.5 278.471C339.299 266.653 414.246 235.066 414.246 242.981C418.187 246.92 426.068 246.92 426.068 239.041C426.068 235.102 430.009 231.163 433.95 231.163C449.749 227.224 445.773 211.43 430.01 211.43C430.01 211.43 430.01 203.552 430.01 187.758C430.01 160.147 426.069 124.658 418.188 124.658C414.247 124.658 382.685 144.39 378.744 152.269C374.803 152.269 362.944 160.148 351.122 168.062C323.501 187.795 299.821 203.552 287.998 211.467C284.058 215.406 280.116 219.345 280.116 219.345C276.176 219.345 264.319 223.284 252.496 231.163C240.674 235.102 216.994 246.956 201.195 258.773C110.45 298.202 90.7089 310.056 86.7681 313.996C82.8274 317.935 67.0285 321.875 55.2063 329.789C39.4073 333.729 23.6445 337.668 23.6445 341.607C19.7037 341.607 15.7641 341.607 15.7641 341.607C7.88271 337.668 3.94192 345.546 3.94192 361.34C3.94192 369.218 0 381.072 0 385.012C0 392.89 3.94079 396.83 11.8222 408.684C19.6675 416.562 23.6092 420.501 23.6092 416.562ZM386.626 235.102C370.827 242.981 355.063 250.895 351.122 250.895C343.241 250.895 327.442 258.774 315.62 270.628C299.821 278.506 280.117 286.421 268.259 290.36C256.437 294.299 240.638 302.178 236.697 306.154C228.816 310.093 213.017 317.971 201.195 325.886C189.373 329.825 173.573 337.704 165.691 345.618C157.81 349.558 142.011 357.437 130.189 361.412C114.39 365.351 98.6268 373.229 90.7454 377.205C71.0056 389.023 31.5618 400.877 31.5618 396.938C31.5618 392.999 31.563 385.12 35.5038 381.144C35.5038 369.327 43.3839 365.351 63.1237 357.472C106.544 341.679 126.248 329.861 185.431 302.25C216.993 286.457 248.556 270.7 256.474 270.7C264.355 266.761 284.094 258.882 295.916 250.968C307.738 247.028 331.418 235.174 347.217 231.235C363.016 227.296 378.779 219.417 378.779 215.441C386.661 211.502 410.342 199.649 414.283 199.649C414.283 199.649 418.223 203.588 418.223 207.527C418.187 219.345 414.247 223.285 386.626 235.102ZM39.3715 345.546C47.253 341.607 74.8746 329.753 98.5551 317.935C122.236 306.118 149.856 294.264 165.619 286.385C177.441 282.446 193.241 274.567 209.04 266.653C220.862 258.774 236.66 250.86 248.482 246.92C256.364 242.981 264.283 239.041 268.224 239.041C268.224 235.102 276.104 231.162 284.021 227.223C291.939 223.284 307.703 211.431 319.525 203.552C331.347 195.674 339.264 191.734 343.205 191.734C343.205 191.734 355.026 183.855 366.885 172.001C378.707 164.122 390.565 152.269 398.446 148.33C410.269 140.451 410.269 140.451 414.246 148.33C418.187 152.269 418.188 160.148 418.188 168.062C418.188 175.977 414.247 179.88 390.566 195.673C370.826 203.552 351.123 215.406 339.265 219.345C327.442 223.284 311.643 231.163 299.821 235.139C291.939 243.017 276.14 250.931 268.259 250.931C264.318 250.931 216.958 274.604 165.656 298.275C114.354 321.947 63.053 345.619 51.2308 349.558C27.5504 361.376 27.5493 361.376 27.5493 353.498C27.5493 353.461 31.4901 349.521 39.3715 345.546ZM19.669 381.072C19.669 392.89 19.669 400.804 19.669 400.804C15.7283 400.804 11.7869 381.072 11.7869 373.194C15.7276 357.401 19.669 365.279 19.669 381.072Z" fill="black"/>
<path d="M122.272 195.673C142.012 199.612 153.833 199.612 161.714 195.673C165.655 191.734 173.538 187.795 185.396 183.855C205.136 175.977 216.958 164.123 232.757 136.512C244.579 116.78 244.579 108.901 244.579 81.29C244.579 57.6182 244.579 49.7393 236.697 33.946C216.958 6.33497 193.277 -5.48279 157.774 2.39576C149.893 6.33504 134.093 10.2741 130.153 10.2741C122.271 10.2741 110.414 14.2137 106.473 14.2137C98.5913 14.2137 86.7332 30.0068 86.7332 33.946C86.7332 37.8853 82.7924 45.7637 74.9109 53.6784C70.9702 65.4962 67.0289 73.411 67.0289 108.901C66.9927 172.001 74.9113 183.819 122.272 195.673ZM216.958 140.451C209.076 156.244 197.218 164.123 169.596 175.941C141.975 187.759 134.095 187.759 114.355 179.88C94.6151 172.002 78.8523 156.208 82.793 140.451C82.793 128.633 82.7925 128.634 86.7332 136.512C114.354 164.123 173.538 164.123 213.018 136.512C216.958 132.573 224.84 128.633 224.84 128.633C224.84 128.633 224.839 132.572 216.958 140.451ZM78.8511 89.1683C82.7918 65.4965 94.6501 33.9466 110.413 30.0073C114.354 26.0681 126.213 22.1281 134.094 22.1281C138.035 22.1281 153.833 18.1891 161.714 14.2498C189.336 6.37129 213.016 18.1894 228.815 49.7397C240.637 77.3508 240.638 85.2294 224.875 104.962C209.112 124.694 185.432 136.512 161.751 140.451C153.87 140.451 142.012 144.391 142.012 144.391C130.19 144.391 110.45 136.512 94.6506 124.658C74.9108 108.901 74.9104 108.901 78.8511 89.1683Z" fill="black"/>
<path d="M197.217 77.314C197.217 65.4962 181.418 37.8851 169.596 33.9097C169.596 33.9097 157.774 33.9097 149.856 33.9097C138.034 37.849 134.058 41.7881 126.176 53.6421C114.354 73.3746 114.354 97.0465 126.176 108.864C149.893 132.572 197.217 108.901 197.217 77.314ZM173.536 57.6178C173.536 45.8 181.418 69.4358 181.418 81.2898C181.418 89.1683 177.477 101.022 169.596 104.962C138.034 108.901 126.175 104.962 141.974 81.2898C145.915 73.4112 153.796 65.4961 161.713 65.4961C165.654 61.5569 173.536 61.5571 173.536 57.6178ZM134.094 65.4961C134.094 57.6176 138.033 49.7033 141.974 49.7033C145.915 49.7033 153.796 45.7637 157.773 45.7637C161.75 45.7637 165.655 45.7637 165.655 45.7637C165.655 49.703 161.714 53.6421 157.773 53.6421C157.773 53.6421 149.891 57.5814 141.974 65.46L126.176 77.2779L134.094 65.4961Z" fill="black"/>
</svg>
