<svg width="339" height="160" viewBox="0 0 339 160" fill="none" xmlns="http://www.w3.org/2000/svg">
<path d="M237.294 85.53C244.732 85.53 241.013 70.6553 233.576 74.3739C229.857 74.3739 222.42 66.9366 218.701 52.0618C211.264 29.7496 211.264 26.0309 214.982 18.5935C222.42 3.7187 222.42 0 214.982 0C211.264 0 211.264 0 211.264 0C211.264 3.7187 207.545 7.43739 200.107 11.1561C196.389 18.5935 192.67 22.3122 196.389 22.3122C196.389 26.0309 181.514 59.4992 170.358 74.3739C166.639 78.0926 166.639 85.53 166.639 85.53C166.639 92.9674 174.077 92.9674 177.795 85.53C177.795 81.8113 181.514 81.8113 188.951 85.53C196.389 85.53 203.826 89.2487 211.264 89.2487C218.701 89.2487 218.701 89.2487 222.42 104.124C222.42 111.561 226.138 118.998 226.138 122.717C229.857 126.436 241.013 126.436 241.013 118.998C241.013 115.28 237.294 107.842 233.576 100.405C229.857 89.2487 229.857 89.2487 237.294 85.53ZM203.826 78.0926C196.389 78.0926 188.951 59.4992 196.389 48.3431L200.107 37.187L207.545 55.7805C211.264 63.2179 214.982 70.6553 214.982 74.3739C214.982 74.3739 211.264 78.0926 203.826 78.0926Z" fill="black"/>
<path d="M43.923 66.9362C51.3604 63.2175 62.5165 52.0614 66.2352 48.3427C73.6725 37.1866 73.6725 37.1866 66.2352 33.4679C62.5165 29.7492 51.3604 26.0306 43.923 22.3119C36.4856 22.3119 29.0482 18.5932 25.3295 14.8745C25.3295 11.1558 21.6108 11.1558 17.8921 11.1558C14.1734 11.1558 14.1734 11.1558 14.1734 11.1558C14.1734 14.8745 10.4547 18.5932 6.736 18.5932C-4.42009 22.3119 -0.70139 29.7492 10.4547 29.7492C14.1734 29.7492 17.8921 29.7492 17.8921 44.624C17.8921 63.2175 14.1734 63.2175 6.736 66.9362C-0.70139 66.9362 -0.70139 74.3736 6.736 78.0923C10.4547 81.811 14.1734 81.811 14.1734 81.811C17.8921 85.5297 17.8921 122.717 14.1734 141.31C10.4547 156.185 14.1734 159.904 17.8921 159.904C25.3295 159.904 25.3295 148.748 29.0482 115.279C29.0482 100.404 32.7669 85.5297 32.7669 85.5297C32.7669 81.811 32.7669 81.811 32.7669 78.0923C29.0482 74.3736 32.7669 70.6549 43.923 66.9362ZM29.0482 63.2175V48.3427C29.0482 37.1866 29.0482 33.4679 32.7669 33.4679C40.2043 33.4679 58.7978 37.1866 58.7978 40.9053C58.7978 44.624 51.3604 48.3427 43.923 55.7801L29.0482 63.2175Z" fill="black"/>
<path d="M333.98 18.5941C326.543 14.8754 326.543 22.3128 322.824 59.4997C322.824 78.0932 322.824 92.968 322.824 92.968C319.105 92.968 311.668 85.5306 300.512 78.0932C281.918 59.4997 281.918 55.781 281.918 40.9062C281.918 29.7502 278.2 22.3128 274.481 26.0315C274.481 26.0315 270.762 29.7502 270.762 33.4689C270.762 40.9062 267.044 44.6249 267.044 44.6249C263.325 44.6249 263.325 63.2184 263.325 89.2493C259.606 126.436 263.325 133.874 267.044 133.874C274.481 133.874 274.481 130.155 278.2 111.561C278.2 104.124 278.2 104.124 278.2 104.124C270.762 107.843 270.762 92.968 274.481 81.8119C278.2 74.3745 278.2 74.3745 300.512 92.968C319.105 111.561 322.824 111.562 322.824 130.155V148.748C330.262 152.467 337.699 141.311 333.98 130.155C333.98 126.436 333.98 118.999 333.98 118.999C341.418 118.999 337.699 18.5941 333.98 18.5941Z" fill="black"/>
<path d="M110.859 122.717H133.171C159.202 130.154 166.639 130.154 162.92 118.998C162.92 111.561 159.202 111.561 144.327 111.561C114.577 111.561 114.577 111.561 118.296 85.5297C122.015 48.3427 118.296 11.1558 114.577 11.1558C110.859 11.1558 107.14 14.8745 103.421 22.3119C103.421 29.7492 103.421 37.1866 107.14 37.1866C110.859 37.1866 107.14 55.7801 103.421 104.123C99.7026 126.435 99.7026 126.435 110.859 122.717Z" fill="black"/>
</svg>
