<svg width="160" height="304" viewBox="0 0 160 304" fill="none" xmlns="http://www.w3.org/2000/svg">
<path d="M44.6242 260.309C29.7494 260.309 22.312 286.34 33.4681 297.496C37.1868 304.933 52.0616 304.933 59.499 301.215C66.9364 297.496 74.3738 282.621 70.6551 275.184C66.9364 267.746 52.0616 260.309 44.6242 260.309ZM55.7803 290.058C52.0616 297.496 44.6242 297.496 37.1868 286.34C33.4681 275.184 40.9055 267.746 52.0616 271.465C63.2177 278.902 63.2177 286.34 55.7803 290.058Z" fill="black"/>
<path d="M89.2487 211.966C148.748 159.904 159.904 141.311 159.904 107.842C159.904 74.3739 145.029 33.4683 133.873 26.0309C126.436 22.3122 115.28 14.8748 107.842 7.43739C92.9674 0 92.9674 0 70.6552 0C52.0618 3.7187 44.6244 7.4374 33.4683 18.5935C14.8748 37.187 7.43739 55.7805 3.7187 85.53L0 111.561H11.1561C18.5935 111.561 26.0309 111.561 29.7496 115.28C29.7496 118.998 33.4683 122.717 37.187 122.717C40.9057 122.717 40.9057 104.124 37.187 100.405C33.4683 100.405 33.4683 92.9674 33.4683 89.2487C33.4683 70.6552 78.0926 48.3431 96.6861 59.4992C115.28 66.9366 122.717 111.561 111.561 137.592C96.6861 163.623 81.8113 182.216 70.6552 185.935C48.3431 197.091 33.4683 211.966 33.4683 219.403C33.4683 230.559 37.187 234.278 52.0618 237.997C66.9365 241.715 74.3739 237.997 74.3739 230.559C78.0926 226.841 81.8113 219.403 89.2487 211.966ZM59.4992 223.122C59.4992 223.122 55.7805 219.403 55.7805 215.684C48.3431 211.966 52.0618 208.247 66.9365 200.81C89.2487 193.372 100.405 182.216 115.28 148.748C126.436 133.873 126.436 126.436 126.436 107.842C126.436 81.8113 118.998 55.7805 104.124 48.3431C70.6552 37.187 22.3122 63.2178 18.5935 96.6861C14.8748 85.53 14.8748 59.4992 22.3122 48.3431C22.3122 44.6244 33.4683 37.187 44.6244 26.0309C66.9366 7.4374 85.53 7.4374 111.561 26.0309C137.592 44.6244 148.748 66.9366 145.029 107.842C145.029 133.873 145.029 133.873 126.436 159.904C115.28 174.779 96.6861 193.372 85.53 204.528C70.6552 211.966 59.4992 223.122 59.4992 223.122Z" fill="black"/>
</svg>
