<svg width="595" height="419" viewBox="0 0 595 419" fill="none" xmlns="http://www.w3.org/2000/svg">
<g filter="url(#filter0_g_2002_26)">
<path d="M50.7785 300.399C49.3132 299.444 50.793 296.407 50.6061 296.072C50.2877 295.485 40.4138 293.73 40.1544 293.245C39.9542 292.863 41.2728 290.492 40.9989 290.029C40.8018 289.699 38.5954 289.67 37.8506 288.77C37.1972 287.981 37.9703 286.355 37.6426 285.835C36.9895 284.786 31.0023 283.277 30.8213 282.952C30.5851 282.542 31.893 280.082 31.6862 279.724C31.4795 279.366 28.6469 279.221 28.438 278.871C28.2291 278.521 29.742 275.198 29.5293 274.83C29.3166 274.462 25.6808 274.119 25.4843 273.755C24.9511 272.808 28.6235 270.012 23.1214 269.662C25.5701 265.042 31.8925 231.086 33.7098 230.145C34.0922 229.945 36.4552 231.262 36.9258 230.99C37.243 230.807 37.335 228.591 38.1662 227.845C39.2609 226.859 41.6815 228.251 42.0396 228.044C42.5102 227.773 42.5603 225.036 42.9163 224.837C43.2722 224.638 45.6616 225.953 46.1323 225.681C46.5006 225.469 46.4948 222.682 47.8967 222.227C48.9583 221.881 50.9229 222.909 51.2401 222.726C51.7108 222.454 51.7609 219.717 52.1168 219.518C52.4728 219.319 54.8622 220.634 55.3328 220.363C55.7012 220.15 55.6954 217.363 57.0972 216.909C58.1589 216.562 60.1235 217.59 60.4407 217.407C60.9113 217.135 60.9614 214.398 61.3174 214.199C61.6733 214.001 64.0627 215.316 64.5334 215.044C64.9017 214.831 64.8959 212.045 66.2978 211.59C67.3594 211.243 69.324 212.271 69.6412 212.088C70.1119 211.816 70.162 209.079 70.5179 208.881C70.8739 208.682 73.2611 210.005 73.7339 209.725C74.092 209.518 74.1077 206.781 75.4903 206.269C77.1054 205.664 81.6263 207.965 82.0932 207.675C82.4557 207.452 82.5919 204.652 82.9522 204.437C83.3884 204.165 89.6607 206.676 90.189 206.35C90.6538 206.068 90.404 202.965 92.581 202.814C95.7358 202.595 112.075 208.755 113.05 208.151C113.382 207.946 113.417 205.75 114.306 205.011C115.149 204.32 116.876 205.137 117.29 204.885C118.438 204.181 118.641 195.872 120.863 195.1C121.98 194.708 123.967 196.071 124.387 195.18C125.506 192.781 129.756 176.951 129.977 174.32C130.051 173.397 124.837 173.168 126.777 169.96C127.663 168.494 130.806 169.967 131.113 169.79C131.604 169.506 131.637 166.799 131.987 166.59C132.337 166.382 134.855 167.67 135.227 167.476C135.56 167.297 137.374 160.527 137.173 160.213C136.986 159.912 134.656 159.729 133.937 159.346C134.083 154.767 136.86 156.635 138.093 155.91C138.731 155.528 138.873 153.871 139.784 153.535C140.918 153.113 142.92 154.419 143.274 153.649C145.462 148.838 139.582 151.189 140.512 147.719C141.247 144.976 144.587 147.004 145.062 146.716C145.236 146.615 145.997 143.775 145.897 143.601C145.677 143.196 140.767 142.832 142.688 139.662C143.558 138.226 146.524 139.678 146.974 139.418C147.486 139.123 147.432 136.548 148.77 136.042C150.369 135.432 154.906 137.738 155.373 137.448C156.337 136.85 154.501 132.665 159.468 135.077C161.912 131.053 157.716 131.771 157.542 129.709C157.415 128.179 159.313 124.259 159 123.751C158.747 123.337 153.834 123.016 155.766 119.84C156.636 118.404 159.629 119.855 160.052 119.596C160.517 119.314 160.485 117.273 161.356 116.538C162.094 115.914 163.622 116.635 164.259 116.26C164.895 115.886 165.033 114.211 165.95 113.886C167.023 113.498 168.817 114.55 169.257 114.296C169.697 114.042 169.683 111.962 170.555 111.227C171.293 110.603 172.821 111.324 173.465 110.952C174.11 110.58 174.239 108.902 175.157 108.577C176.229 108.19 178.023 109.241 178.463 108.987C178.903 108.733 178.889 106.654 179.761 105.919C180.499 105.295 182.027 106.016 182.664 105.641C183.3 105.267 183.444 103.602 184.355 103.266C185.469 102.855 187.356 103.915 187.697 103.738C188.233 103.449 189.205 96.7558 189.659 96.5141C190.033 96.3117 192.526 97.5938 192.9 97.3914C193.385 97.132 193.657 92.0501 194.984 90.9701C196.094 90.0565 198.321 91.3971 198.814 91.1054C199.307 90.8138 199.266 88.2253 200.612 87.721C202.586 86.97 207.752 89.9629 209.937 89.9085C210.912 89.8843 210.888 87.7156 211.971 87.3224C213.053 86.9293 214.833 88.0029 215.283 87.7429C215.733 87.483 215.724 85.3874 216.575 84.6641C217.426 83.9408 219.349 85.0269 219.829 84.2042C220.622 82.8597 220.34 79.3937 221.735 78.254C222.877 77.3147 225.248 78.6678 225.606 78.461C226.077 78.1893 226.127 75.4523 226.483 75.2536C226.839 75.0549 229.228 76.3698 229.699 76.0981C230.067 75.8854 230.061 73.0989 231.463 72.6442C232.525 72.2973 234.489 73.3254 234.807 73.1423C235.277 72.8705 235.319 70.1658 235.683 69.9349C236.101 69.6663 242.41 72.1698 242.928 71.8502C243.252 71.6429 243.278 69.479 244.191 68.7202C244.935 68.1066 246.457 68.8172 247.093 68.4428C247.73 68.0685 247.91 66.3956 248.769 66.0635C250.737 65.3023 258.613 68.9609 259.389 68.4855C259.713 68.2782 259.739 66.1143 260.652 65.3556C261.396 64.7419 262.918 65.4524 263.554 65.0781C264.191 64.7038 264.371 63.0309 265.23 62.6989C266.947 62.0347 271.215 64.4066 271.815 64.0397C272.272 63.7556 272.03 60.6551 274.207 60.5032C276.181 60.3662 283.669 63.4103 284.207 63.0789C284.57 62.856 284.706 60.0557 285.066 59.8408C285.388 59.6416 292.105 61.4933 292.286 61.8185C292.437 62.0926 290.731 66.3317 293.249 66.3579C294.56 66.3718 295.95 61.0878 299.583 63.7307C299.743 64.007 298.557 66.9153 298.719 66.9585L326.542 74.4139C328.076 74.8247 326.454 78.7146 326.672 78.773L348.443 84.6067C348.379 85.3939 347.407 87.5378 347.576 87.8426C347.745 88.1474 353.486 89.6078 354.369 89.6713C355.528 89.7658 355.213 86.8444 355.7 86.5425C356.022 86.3432 362.792 88.1573 362.971 88.4907C363.173 88.8649 361.891 91.3582 362.096 91.7244C362.355 92.2091 367.421 92.4766 368.517 93.8082C369.458 94.9427 368.108 97.3052 368.312 97.6713C368.615 98.2195 375.294 99.179 375.536 99.6329C375.738 100.007 374.456 102.5 374.661 102.867C375.024 103.544 383.83 104.476 385.117 106.032C386.058 107.166 384.701 109.553 384.91 109.903C385.198 110.378 387.789 110.328 388.076 110.803C388.291 111.163 386.899 113.584 387.886 114.679C388.632 115.51 390.847 115.602 391.03 115.919C391.302 116.39 389.979 118.777 390.186 119.135C390.392 119.493 393.233 119.64 393.434 119.988C393.635 120.336 392.354 122.856 392.549 123.228C392.808 123.712 397.89 123.984 398.97 125.312C399.881 126.429 398.539 128.664 398.827 129.139C399.095 129.592 401.16 129.566 401.895 130.437C402.517 131.183 401.798 132.703 402.173 133.34C402.547 133.976 404.222 134.114 404.556 135.033C404.943 136.106 403.891 137.9 404.145 138.34C404.399 138.78 406.471 138.764 407.214 139.638C407.852 140.388 407.133 141.908 407.471 142.552C408.551 144.623 417.236 145.843 417.489 146.318C417.692 146.692 416.405 149.201 416.604 149.557C416.803 149.913 419.643 150.06 419.852 150.41C420.061 150.76 418.548 154.083 418.761 154.451C418.973 154.819 422.609 155.162 422.806 155.526C423.002 155.89 421.72 158.418 421.92 158.766C422.121 159.114 424.96 159.269 425.169 159.619C425.378 159.969 423.865 163.291 424.077 163.66C424.29 164.028 427.894 164.362 428.122 164.735C428.596 165.519 422.917 181.676 423.401 182.454C423.6 182.775 425.772 182.804 426.53 183.716C427.198 184.518 426.263 186.136 427.09 186.954C429.032 188.875 436.566 189.934 436.808 190.388C437.01 190.762 435.724 193.272 435.923 193.628C436.121 193.984 438.962 194.131 439.171 194.481C439.38 194.831 437.863 198.135 438.08 198.522C438.546 199.364 456.186 202.638 456.642 203.487C456.844 203.861 455.558 206.37 455.756 206.726C455.955 207.082 458.796 207.229 459.005 207.579C459.214 207.929 457.701 211.252 457.913 211.62C458.126 211.988 461.762 212.331 461.958 212.695C462.155 213.059 460.872 215.587 461.073 215.935C461.274 216.283 464.112 216.438 464.321 216.788C464.53 217.138 463.017 220.46 463.23 220.829C463.443 221.197 467.046 221.531 467.275 221.904C467.563 222.379 464.166 231.925 464.456 232.392C465.054 233.357 469.247 231.522 466.819 236.485C471.057 238.036 498.49 244.106 499.674 246.145C499.91 246.554 498.602 249.014 498.809 249.372C499.016 249.731 501.848 249.876 502.057 250.226C502.266 250.576 500.753 253.898 500.966 254.266C501.179 254.635 504.814 254.977 505.011 255.341C505.208 255.705 503.925 258.233 504.126 258.581C504.326 258.929 507.165 259.084 507.374 259.434C507.583 259.784 506.07 263.107 506.283 263.475C506.495 263.843 510.099 264.177 510.328 264.55C510.578 264.972 508.119 271.405 508.374 271.811C508.599 272.165 511.427 272.326 511.622 272.664C511.817 273.001 510.506 275.409 510.777 275.88C510.96 276.197 513.176 276.289 513.922 277.12C514.909 278.215 513.516 280.635 513.723 280.993C513.995 281.464 516.732 281.514 516.93 281.87C517.129 282.226 515.814 284.615 516.086 285.086C516.299 285.454 519.085 285.449 519.54 286.851C519.887 287.912 518.859 289.877 519.042 290.194C519.313 290.665 522.05 290.715 522.249 291.071C522.448 291.427 521.125 293.814 521.405 294.287C521.611 294.645 524.349 294.66 524.861 296.043C525.472 297.668 523.165 302.145 523.455 302.646C523.744 303.147 530.37 304.049 530.676 304.616C530.846 304.92 529.895 306.854 530.211 307.968C530.593 309.316 533.592 308.389 533.555 310.109C533.473 313.901 529.294 311.614 528.805 311.89C528.249 312.19 527.287 318.878 526.844 319.113C526.461 319.314 524.098 317.997 523.628 318.269C523.259 318.482 523.308 321.141 521.855 321.721C520.821 322.127 518.537 321.031 518.494 321.192L512.876 342.157C506.393 338.076 508.49 347.52 506.904 348.34C506.521 348.541 504.158 347.224 503.688 347.496C503.319 347.709 503.325 350.495 501.923 350.95C500.862 351.297 498.897 350.269 498.58 350.452C498.109 350.723 498.059 353.46 497.703 353.659C497.347 353.858 494.958 352.543 494.487 352.815C494.119 353.027 494.125 355.814 492.723 356.268C491.661 356.615 489.697 355.587 489.379 355.771C488.909 356.042 488.859 358.779 488.503 358.978C488.147 359.177 485.757 357.862 485.287 358.133C484.969 358.317 484.877 360.532 484.046 361.278C482.951 362.265 480.531 360.872 480.173 361.079C479.7 361.359 479.704 364.024 479.292 364.268C478.623 364.668 470.422 362.35 469.099 362.35C468.244 362.345 467.541 365.452 466.516 365.178L449.982 360.747C453.118 354.66 447.663 356.779 447.026 355.64C446.827 355.284 448.106 352.772 447.901 352.406C447.693 352.021 443.129 351.525 441.961 350.719C440.547 349.735 441.664 347.794 441.356 347.331C441.134 346.995 437.634 346.048 437.458 346.157C437.098 346.372 436.947 349.194 436.599 349.395C436.252 349.596 433.716 348.311 433.36 348.51C433.004 348.708 432.857 351.549 432.507 351.758C432.157 351.967 428.834 350.454 428.466 350.666C428.098 350.879 427.757 354.507 427.391 354.711C427.025 354.916 424.499 353.625 424.151 353.826C423.803 354.027 423.648 356.866 423.298 357.074C422.948 357.283 419.626 355.77 419.257 355.983C418.889 356.196 418.555 359.799 418.182 360.028C417.709 360.308 408.159 356.927 407.694 357.209C407.405 357.383 407.175 359.725 406.827 360.445L389.082 355.69C388.848 355.628 390.456 352.789 389.483 352.321C388.647 351.924 382.211 350.087 381.879 350.292C381.591 350.466 381.361 352.808 381.012 353.528L363.267 348.773C365.709 343.858 361.442 345.612 360.894 344.686C360.679 344.326 362.202 341.032 361.986 340.646C361.754 340.22 354.931 339.119 354.713 338.706C354.512 338.323 355.831 335.952 355.557 335.49C355.36 335.16 353.146 335.129 352.407 334.239C351.747 333.44 352.539 331.775 352.221 331.283C351.822 330.675 349.955 330.702 349.251 329.942C348.244 328.86 349.652 326.443 349.442 326.067C349.17 325.596 346.465 325.555 346.234 325.19C345.968 324.764 348.473 318.482 348.147 317.953C347.927 317.583 345.158 317.585 344.704 316.183C344.357 315.121 345.385 313.157 345.202 312.84C344.93 312.369 342.225 312.328 341.994 311.963C341.702 311.504 345.116 302.057 344.773 301.498C344.581 301.179 342.368 301.079 341.646 300.254C339.642 297.953 346.531 285.64 346.552 282.074L334.859 278.941C334.553 278.859 333.378 279.694 332.346 279.089C330.634 278.086 332.279 275.144 332.062 274.758C331.468 273.716 327.325 275.59 329.732 270.639C325.113 268.061 326.59 274.459 321.611 271.931C324.535 266.41 318.05 269.049 316.056 266.612C315.145 265.494 316.486 263.267 316.2 262.784C315.932 262.332 313.852 262.345 313.121 261.492C312.39 260.639 313.25 258.914 312.995 258.509C312.461 257.631 307.885 257.762 306.711 256.332C305.772 255.19 307.125 252.819 306.918 252.461C306.648 251.982 303.944 251.941 303.711 251.584C303.43 251.146 306.031 242.312 306.498 241.633C307.585 240.03 309.924 241.34 309.971 241.162L313.859 226.653C312.731 226.152 307.566 225.252 307.403 224.923C307.203 224.541 308.517 222.186 308.248 221.707C308.035 221.339 305.249 221.345 304.794 219.943C304.447 218.881 305.475 216.917 305.292 216.599C305.02 216.129 302.291 216.081 302.085 215.723C301.878 215.365 303.167 212.847 302.97 212.483C302.872 212.301 299.111 211.293 298.927 211.4C298.641 211.565 298.409 213.916 298.06 214.636L280.315 209.881C280.154 209.838 281.374 207.06 281.149 206.671C280.925 206.282 278.158 206.31 277.698 204.898C277.345 203.826 278.362 201.807 278.208 201.541C278.029 201.208 271.091 200.248 270.777 200.449C270.267 200.771 270.247 203.429 269.897 203.638C269.547 203.847 267.029 202.559 266.657 202.753C265.99 203.111 264.32 213.993 263.023 215.929C261.726 217.865 258.807 215.975 258.749 216.193L253.78 234.737C254.993 235.278 260.86 236.332 261.042 236.683C261.245 237.057 259.958 239.567 260.157 239.923C260.356 240.279 263.196 240.426 263.405 240.776C263.614 241.126 262.101 244.448 262.314 244.817C262.527 245.185 266.162 245.528 266.359 245.892C266.555 246.256 265.279 248.794 265.474 249.131C265.682 249.481 268.409 249.537 268.681 250.008C268.864 250.325 267.836 252.29 268.183 253.352C268.638 254.753 271.412 254.762 271.635 255.124C272.139 255.951 268.671 260.955 271.148 262.587C273.279 263.997 274.583 262.228 272.891 266.67C277.488 269.657 275.936 263.152 279.212 264.03C281.972 264.77 279.901 268.107 280.179 268.588C280.456 269.069 283.145 269.106 283.376 269.47C283.686 269.96 280.718 277.485 280.808 279.473C280.914 281.628 283.328 280.719 283.718 281.203C284.69 282.415 282.383 291.251 280.887 291.767C279.848 292.128 277.881 291.108 277.558 291.281C276.92 291.629 273.843 303.916 273.719 305.284C273.63 306.359 277.908 306.017 277.149 308.85C276.68 311.535 273.045 309.575 272.589 309.825C271.953 310.165 271.893 315.035 270.449 316.196C269.732 316.774 268.187 316.083 267.551 316.458C266.914 316.832 266.777 318.508 265.859 318.833C264.787 319.22 262.993 318.168 262.553 318.423C262.113 318.677 262.129 320.748 261.255 321.491C260.459 322.169 258.828 321.221 258.017 322.051C256.888 323.201 255.922 327.578 255.658 327.724C255.233 327.956 252.935 326.622 252.456 326.891C252.098 327.098 252.094 329.891 250.692 330.345C249.63 330.692 247.666 329.664 247.349 329.847C246.878 330.119 246.828 332.856 246.472 333.055C246.116 333.253 243.718 331.936 243.258 332.202C242.928 332.399 242.905 334.616 242.007 335.353C241.208 336.012 239.543 335.22 239.052 335.538C238.443 335.937 238.47 337.804 237.711 338.509C236.628 339.516 234.212 338.107 233.835 338.318C233.365 338.59 233.311 341.308 232.959 341.525C232.606 341.742 229.27 340.217 228.92 340.426C228.57 340.635 228.421 343.449 228.061 343.664C227.584 343.96 218.158 340.534 217.596 340.886C216.945 341.282 217.745 344.558 214.482 344.341C211.924 344.174 191.713 338.776 189.465 337.646C187.017 336.42 188.628 334.732 188.136 333.986C187.688 333.304 185.292 333.432 184.846 332.127C184.487 331.08 185.523 329.117 185.344 328.784C184.841 327.854 166.724 323.388 164.875 323.221C163.81 323.127 164.181 326.132 162.657 326.623C161.596 326.97 159.631 325.942 159.314 326.125C158.843 326.397 158.802 329.102 158.437 329.333C158.019 329.601 151.71 327.098 151.192 327.417C150.869 327.625 150.842 329.788 149.93 330.547C149.186 331.161 147.696 330.459 147.027 330.825C146.438 331.151 145.656 333.683 144.792 333.452L127.451 328.805C127.29 328.762 126.747 332.076 126.586 332.033L108.841 327.278C112.293 321.915 103.329 323.639 102.492 322.083C102.376 321.87 103.692 318.123 102.32 317.756L89.0132 314.19C88.7792 314.127 90.3895 311.281 89.4144 310.821C86.0809 309.253 85.4379 309.651 84.9784 313.109L67.2335 308.354C67.0721 308.311 68.2598 305.17 68.0984 305.126C64.7092 304.218 52.6852 301.74 50.7569 300.48L50.7785 300.399ZM253.453 206.938L249.41 205.855L248.547 209.075L252.59 210.158L253.453 206.938ZM271.162 286.004L267.119 284.92L266.256 288.14L270.299 289.223L271.162 286.004Z" fill="white"/>
</g>
<path d="M140.197 193.861C140.987 190.439 143.631 181.438 147.218 170.01C148.836 164.857 150.16 161.054 149.777 162.326C148.529 166.472 145.446 177.812 145.924 176.076C146.403 174.339 150.614 159.204 152.126 151.67C153.637 144.136 152.321 144.663 149.274 149.475C146.227 154.286 141.49 163.367 138.391 170.414C135.292 177.461 133.976 182.199 138.76 173.848C143.543 165.497 154.467 143.913 158.712 134.9C160.854 130.354 152.74 143.913 148.261 153.796C148.085 154.184 153.39 145.253 158.335 137.747C163.281 130.242 168.019 124.451 170.854 121.665C173.69 118.879 174.48 119.274 174.031 121.254C173.582 123.234 171.871 126.788 175.136 123.881C178.4 120.973 186.691 111.497 189.91 108.985C191.871 107.454 184.641 123.33 179.313 132.389C178.23 134.23 180.302 130.393 185.006 123.689C189.71 116.985 196.949 107.509 203.771 100.588C210.592 93.6663 216.778 89.5864 213.845 93.078C210.911 96.5697 198.672 107.756 186.51 120.889C174.348 134.022 162.635 148.763 157.127 156.159C151.619 163.555 152.672 163.16 160.387 154.204C168.102 145.249 182.448 127.745 192.338 116.359C202.229 104.973 207.23 100.235 211.781 96.6753C216.331 93.1159 220.279 90.8786 224.88 88.6731C229.48 86.4677 234.613 84.3619 239.955 82.6191C250.57 79.1562 258.49 78.0726 261.09 78.0048C261.459 77.9952 259.874 78.3318 258.665 78.3358C257.457 78.3398 256.667 78.0766 257.379 76.2959C259.557 70.8488 267.372 65.2028 274.09 62.0043C275.413 61.3744 267.092 71.7514 255.732 82.9142C251.54 87.0335 250.294 87.7598 253.501 86.0609C264.41 80.2804 272.205 76.8642 273.719 77.4066C275.222 77.9454 278.259 74.7904 275.673 78.5093C273.087 82.2283 264.795 91.8357 262.366 95.2715C261.604 96.3503 276.369 87.2972 286.967 83.006C288.742 82.2873 282.694 91.3492 283.131 92.7769C285.505 100.539 299.177 84.7169 300.055 86.364C300.816 87.7931 296.852 90.7749 298.918 90.3581C300.984 89.9414 307.827 86.1247 311.287 84.685C314.747 83.2452 314.615 84.2981 312.31 87.5385C310.005 90.7789 305.53 96.1748 306.779 96.454C316.144 98.5486 325.878 85.3949 328.43 86.9562C330.887 88.4592 322.296 96.4141 324.651 96.6474C327.006 96.8807 337.14 90.4319 340.123 90.729C347.767 91.4903 332.837 108.749 333.938 110.375C335.441 112.594 342.014 103.05 346.379 99.6704C350.744 96.2905 353.508 95.6324 352.826 99.3075C352.144 102.983 347.932 111.011 350.04 112.119C352.148 113.228 360.702 107.174 363.069 108.004C371.461 110.945 356.1 128.551 357.861 129.791C360.908 131.938 367.387 118.66 368.936 119.055C370.485 119.45 366.669 129.189 367.598 130.126C368.527 131.063 374.318 122.903 375.788 125.149C377.257 127.394 374.23 140.292 374.645 142.593C375.06 144.894 379.008 136.208 381.437 132.918C383.425 130.224 383.626 144.966 383.006 154.601C382.909 156.112 388.572 141.073 389.756 144.633C390.941 148.192 388.835 168.329 390.448 169.423C392.061 170.518 397.457 151.961 400.632 145.034C403.806 138.106 404.596 143.371 403.687 155.229C402.777 167.088 400.145 185.382 399.842 190.002C399.495 195.294 407.631 165.246 411.703 162.793C418.061 158.963 408.536 195.217 407.168 209.941C405.8 224.665 406.59 228.35 409.563 221.562C412.536 214.775 417.669 197.402 419.392 194.244C421.115 191.085 419.272 202.667 418.718 207.58C418.164 212.493 418.953 210.388 419.492 207.526C420.03 204.665 420.293 201.111 420.963 198.646" stroke="#8CFF00" stroke-width="15" stroke-linecap="round"/>
<path d="M229.042 236.339C227.022 231.797 224.589 226.112 222.764 224.176C221.793 223.146 220.123 228.086 219.264 231.207C219.021 232.091 218.304 224.792 218.096 218.784C217.888 212.777 217.988 206.553 218.592 204.501C219.079 202.844 223.144 213.361 226.281 222.69C227.372 225.931 228.817 225.595 230.189 218.063C231.561 210.532 233.167 195.676 234.446 194.296C242.183 185.952 238.262 219.095 239.678 215.592C241.276 211.637 241.094 202.252 242.208 193.832C243.323 185.412 244.829 177.984 245.906 180.933C246.983 183.882 247.585 197.434 248.548 199.044C249.51 200.655 250.815 189.914 253.094 181.269C255.372 172.625 258.584 166.401 260.59 165.554C264.942 163.716 263.621 181.011 264.117 186.132C264.294 187.962 267.223 174.389 269.465 167.56C271.707 160.731 273.915 157.519 274.751 160.883C275.588 164.247 274.986 174.285 275.278 177.047C275.57 179.809 276.774 174.991 278.951 168.895C281.127 162.799 284.239 155.572 286.494 152.953C288.75 150.334 290.055 152.542 290.426 157.143C290.797 161.744 290.195 168.67 291.44 169.076C298.428 171.354 300.911 154.033 303.349 155.248C306.805 156.971 302.977 169.412 303.816 172.831C304.644 176.203 313.167 165.193 317.481 163.537C325.307 160.533 315.439 181.96 315.074 185.671C314.789 188.567 323.402 179.384 327.725 179.793C330.987 180.101 325.723 192.348 324.981 197.107C324.239 201.866 325.443 201.765 327.871 200.158C330.298 198.55 333.912 195.438 334.619 197.499C335.326 199.56 333.018 206.888 333.384 210.01C333.842 213.908 343.682 208.174 347.25 209.043C350.338 209.794 343.39 220.953 341.124 226.807C338.858 232.661 338.256 235.371 340.806 233.254C343.357 231.137 349.078 224.111 351.624 224.757C354.17 225.403 353.367 233.936 353.456 237.126C353.544 240.317 354.548 237.908 355.582 235.426" stroke="#FF0000" stroke-width="15" stroke-linecap="round"/>
<path d="M170.108 200.242C168.266 201.558 166.527 198.156 165.265 192.369C164.439 188.584 166.639 209.889 168.962 218.595C169.789 221.696 170.627 221.906 170.44 214.605C170.252 207.305 169.199 192.433 168.788 183.456C168.378 174.478 168.641 171.846 170.685 178.979C172.729 186.112 176.545 203.089 179.893 215.981C183.242 228.873 186.005 237.164 187.758 241.172C189.511 245.18 190.169 244.654 188.534 229.511C186.899 214.368 182.95 184.624 181.377 173.25C179.804 161.876 180.725 169.772 183.569 183.711C186.412 197.65 191.15 217.391 193.722 226.64C196.295 235.888 196.558 234.046 194.983 220.988C193.407 207.931 189.985 183.715 188.289 168.279C186.592 152.843 186.723 146.92 188.633 154.069C190.544 161.218 194.229 181.617 196.193 190.481C198.157 199.345 198.289 196.054 197.83 188.24C197.372 180.425 196.319 168.185 195.908 158.524C195.497 148.863 195.76 142.15 196.093 138.232C196.426 134.314 196.821 133.393 198.406 141.275C199.992 149.158 202.756 165.872 204.311 173.43C205.866 180.987 206.13 178.881 205.607 171.348C205.085 163.814 203.769 150.916 203.683 140.785C203.597 130.653 204.782 123.677 205.918 120.084C207.055 116.491 208.108 116.491 210.295 127.151C212.483 137.811 215.773 159.132 217.797 169.918C219.821 180.704 220.479 180.309 220.62 175.039C220.762 169.768 220.367 159.635 220.888 149.216C221.408 138.796 222.856 128.399 224.194 122.122C225.532 115.845 226.716 114.002 228.05 122.726C229.384 131.45 230.832 150.797 231.775 159.513C232.719 168.229 233.113 165.728 233.514 159.044C233.915 152.36 234.31 141.568 235.698 132.784C237.086 124 239.455 117.552 240.872 116.138C243.004 114.012 242.96 132.475 243.156 144.998C243.195 147.539 244.272 142.254 246.456 135.265C248.639 128.276 252.193 119.721 254.352 116.367C256.512 113.013 257.17 115.119 257.311 119.428C257.665 130.183 257.046 138.278 258.368 136.852C265.431 129.236 264.209 115.729 267.266 111.727C268.853 109.649 268.353 121.496 268.151 128.146C268.107 129.605 270.726 123.063 274.766 112.842C276.606 108.186 279.99 105.515 281.153 109.091C282.315 112.666 281.657 122.8 283.49 123.348C285.322 123.897 289.665 114.552 291.903 112.239C294.334 109.726 294.535 123.765 296.186 126.782C296.869 128.03 299.548 120.981 301.488 119.061C303.428 117.141 305.139 118.588 306.218 121.045C307.297 123.502 307.692 126.924 308.751 127.173C309.81 127.422 311.52 124.395 313.586 123.889C318.165 122.766 321.383 131.606 323.832 136.404C324.626 137.96 327.465 134.884 329.603 134.256C333.709 133.049 339.174 139.849 343.96 145.106C345.423 146.712 345.587 145.493 344.6 143.831C343.613 142.17 341.639 139.933 342.136 142.466C342.632 144.998 345.659 152.368 349.522 159.587C357.266 174.06 365.368 182.411 367.119 183.095C373.846 185.723 351.23 167.08 346.732 166.181C340.361 164.907 357.105 192.656 363.887 205.793C370.669 218.93 375.012 224.458 376.196 226.384C377.381 228.311 375.275 226.468 370.439 220.057C365.604 213.646 358.102 202.723 352.527 193.805C346.951 184.888 343.529 178.307 342.425 177.615C341.32 176.923 342.636 182.319 346.473 191.877C350.309 201.434 356.626 214.99 360.605 222.895C364.583 230.799 366.031 232.642 367.369 232.209C368.707 231.776 369.891 229.012 370.435 223.838C370.98 218.663 370.848 211.161 371.51 205.028" stroke="#1E130B" stroke-width="15" stroke-linecap="round"/>
<path d="M449.249 295.086C450.602 297.792 452.652 304.091 454.279 311.691C454.847 314.341 453.708 314.725 453.103 313.208C452.498 311.691 452.16 308.309 452.747 308.765C453.334 309.221 454.856 313.618 457.5 311.402C460.145 309.185 463.866 300.221 465.529 296.027C467.192 291.832 466.685 292.677 465.07 292.944C453.043 294.929 434.468 298.612 429.856 302.523C429.026 303.226 432.131 298.899 432.326 297.759C432.548 296.458 423.178 305.767 413.776 316.798C410.97 319.712 412.154 317.175 413.44 314.854C414.726 312.532 416.079 310.502 417.473 308.411" stroke="#8CFF00" stroke-width="15" stroke-linecap="round"/>
<path d="M354.947 292.011C353.594 295.393 350.868 298.489 347.962 299.947C342.007 302.935 361.395 284.005 369.41 281.094C375.403 278.918 379.538 285.328 381.836 286.373C387.089 288.763 389.255 272.074 394.882 264.302C397.073 261.276 399.495 261.434 401.048 263.377C402.6 265.319 403.615 269.378 404.73 268.932C405.845 268.487 407.029 263.413 410.175 259.953C418.396 254.803 427.344 253.567 433.574 255.266C436.083 256.458 437.267 258.318 438.486 259.723" stroke="#1E130B" stroke-width="15" stroke-linecap="round"/>
<path d="M195.044 315.074C194.224 308.78 186.849 303.963 185.912 304.058C185.192 304.13 185.143 301.615 183.193 299.558C181.243 297.5 177.691 295.301 172.901 297.636C160.17 303.841 154.741 317.939 153.705 322.311C150.834 334.435 162.249 297.848 161.057 293.408C160.615 291.757 159.528 291.673 159.007 292.262C158.487 292.852 158.318 294.205 158.654 294.14C158.989 294.076 159.835 292.554 159.425 290.586C159.015 288.618 157.324 286.25 155.099 284.777C152.875 283.303 150.169 282.796 148.268 283.042C145.117 283.45 141.431 289.069 137.244 293.185C136.266 294.145 136.27 290.535 135.768 288.544C135.265 286.553 133.912 285.707 132.031 286.54C130.151 287.373 127.783 289.91 127.07 290.286C125.732 290.994 128.587 284.011 126.56 278.978C125.41 276.122 119.798 275.467 114.232 276.123C101.863 277.581 92.5733 285.318 88.7218 287.562C89.4368 282.027 90.3285 275.626 88.8807 273.235C88.1094 272.367 87.2637 272.197 86.3925 272.536" stroke="#FF0000" stroke-width="15" stroke-linecap="round"/>
<path d="M14.7801 253.821C15.1438 253.625 17.8178 254.955 18.2054 254.739C18.5582 254.549 20.4785 247.383 20.2653 247.051C20.0669 246.732 17.6011 246.538 16.84 246.133C17.0139 241.282 19.9343 243.264 21.2385 242.496C21.9123 242.1 22.058 240.326 23.0291 239.982C24.1643 239.572 26.0632 240.685 26.529 240.417C26.9947 240.148 26.9802 237.947 27.9028 237.168C28.684 236.508 30.3014 237.271 30.9838 236.877C31.6661 236.483 31.8032 234.707 32.7743 234.363C33.9095 233.953 35.8085 235.066 36.2742 234.797C36.7399 234.528 36.7255 232.327 37.6481 231.549C38.4292 230.889 40.0381 231.649 40.7205 231.255C41.4028 230.862 41.5849 229.089 42.4939 228.737C44.3119 228.034 48.8301 230.545 49.4651 230.156C49.9485 229.856 49.6927 226.574 51.9971 226.413C54.0867 226.268 62.0121 229.49 62.5822 229.139C62.9008 228.941 63.0946 226.475 63.5 225.714C68.3599 225.89 66.3718 228.8 67.137 230.113C67.5332 230.786 69.296 230.938 69.6509 231.903C70.0983 233.103 68.7156 235.223 69.5309 235.597C74.4527 237.831 72.3519 232.517 74.957 232.464C79.7249 232.369 74.2004 237.782 79.781 238.344C80.7533 238.439 80.5064 235.26 82.0616 234.752C83.1853 234.385 85.2501 235.46 85.5921 235.277C86.0943 235.009 88.8391 224.731 88.5469 224.25C88.2712 223.81 83.0879 223.474 85.1267 220.102C86.0645 218.549 89.391 220.109 89.7159 219.921C90.2357 219.621 90.2711 216.756 90.6416 216.535C91.0121 216.314 93.677 217.678 94.0708 217.472C94.5838 217.198 94.8717 211.818 96.2766 210.675C97.4598 209.71 99.8169 211.129 100.328 210.827C100.807 210.543 100.795 208.334 101.694 207.576C102.592 206.819 104.602 207.962 105.14 207.081C106.341 205.096 106.328 198.821 108.071 197.374C109.272 196.378 111.775 197.799 112.16 197.591C113.18 197.031 118.108 177.066 118.283 175.081C118.362 174.104 112.842 173.861 114.897 170.466C115.834 168.913 119.161 170.473 119.486 170.285C120.006 169.985 120.041 167.12 120.412 166.899C120.782 166.678 123.447 168.042 123.841 167.836C124.194 167.647 126.114 160.48 125.901 160.148C125.702 159.83 123.236 159.636 122.475 159.231C122.63 154.383 125.57 156.361 126.874 155.594C127.55 155.189 127.7 153.435 128.664 153.08C129.824 152.649 131.854 153.751 132.2 153.551C132.363 153.457 133.181 150.436 133.084 150.254C132.798 149.747 128.665 149.83 129.444 146.926C130.222 144.022 133.757 146.168 134.26 145.863C134.444 145.757 135.25 142.75 135.144 142.566C134.91 142.138 129.713 141.752 131.747 138.397C132.667 136.877 135.808 138.414 136.284 138.139C136.826 137.826 136.768 135.101 138.185 134.565C139.877 133.92 144.68 136.36 145.174 136.053C146.195 135.42 144.251 130.99 149.509 133.543C152.096 129.284 147.654 130.044 147.47 127.861C147.336 126.241 149.345 122.092 149.013 121.555C148.746 121.117 143.546 120.776 145.593 117.407C146.513 115.886 149.681 117.422 150.13 117.148C150.622 116.85 150.587 114.689 151.51 113.911C152.291 113.251 153.908 114.014 154.582 113.617C155.256 113.221 155.402 111.447 156.373 111.103C157.508 110.693 159.407 111.807 159.873 111.538C160.338 111.269 160.324 109.068 161.247 108.289C162.028 107.629 163.645 108.392 164.327 107.998C165.01 107.604 165.147 105.828 166.118 105.484C167.253 105.074 169.152 106.187 169.618 105.918C170.084 105.65 170.069 103.448 170.992 102.67C171.773 102.01 173.39 102.773 174.064 102.377C174.738 101.98 174.89 100.218 175.855 99.8627C177.033 99.4278 179.031 100.549 179.392 100.362C179.959 100.056 180.988 92.9711 181.468 92.7154C181.865 92.5011 184.504 93.8583 184.9 93.644C185.413 93.3695 185.701 87.9902 187.106 86.8469C188.28 85.8799 190.638 87.2988 191.16 86.9901C191.682 86.6814 191.638 83.9415 193.063 83.4077C195.152 82.6127 200.621 85.7807 202.934 85.7231C203.966 85.6976 203.94 83.4019 205.086 82.9857C206.232 82.5696 208.116 83.706 208.593 83.4308C209.069 83.1557 209.059 80.9375 209.96 80.1719C210.861 79.4062 212.897 80.5559 213.405 79.685C214.244 78.2619 213.945 74.5931 215.422 73.3867C216.631 72.3924 219.141 73.8246 219.52 73.6057C220.018 73.3181 220.071 70.421 220.448 70.2107C220.824 70.0004 223.354 71.3922 223.852 71.1045C224.242 70.8794 224.236 67.9299 225.72 67.4486C226.843 67.0814 228.923 68.1696 229.259 67.9757C229.757 67.6881 229.801 64.8252 230.187 64.5807C230.629 64.2964 237.307 66.9463 237.856 66.6081C238.198 66.3886 238.226 64.0981 239.192 63.2949C239.979 62.6454 241.59 63.3975 242.264 63.0013C242.938 62.6051 243.129 60.8343 244.038 60.4828C246.121 59.6769 254.458 63.5496 255.28 63.0465C255.622 62.827 255.65 60.5365 256.616 59.7334C257.404 59.0838 259.015 59.836 259.689 59.4397C260.362 59.0435 260.553 57.2727 261.462 56.9212C263.28 56.2182 267.798 58.7288 268.433 58.3405C268.917 58.0398 268.661 54.7578 270.965 54.597C273.055 54.452 280.98 57.6743 281.55 57.3235C281.934 57.0875 282.078 54.1233 282.46 53.8959C282.8 53.685 289.91 55.6451 290.102 55.9893C290.262 56.2795 288.455 60.7666 291.121 60.7943C292.509 60.8091 293.98 55.2159 297.826 58.0134C297.995 58.3058 296.74 61.3843 296.911 61.4301L326.363 69.3218C327.986 69.7567 326.269 73.8742 326.5 73.936L349.546 80.1111C349.478 80.9444 348.449 83.2138 348.628 83.5364C348.807 83.859 354.884 85.4049 355.818 85.4721C357.045 85.5721 356.711 82.4797 357.227 82.1602C357.567 81.9492 364.734 83.8695 364.923 84.2223C365.137 84.6185 363.78 87.2577 363.997 87.6453C364.271 88.1583 369.633 88.4416 370.794 89.8511C371.79 91.052 370.36 93.5527 370.577 93.9403C370.898 94.5206 377.968 95.5361 378.224 96.0166C378.438 96.4128 377.081 99.052 377.297 99.4396C377.682 100.156 387.003 101.143 388.365 102.79C389.362 103.991 387.925 106.517 388.146 106.888C388.451 107.39 391.193 107.338 391.498 107.841C391.725 108.222 390.251 110.784 391.296 111.943C392.086 112.823 394.431 112.92 394.624 113.256C394.912 113.754 393.512 116.281 393.731 116.66C393.949 117.039 396.956 117.195 397.169 117.563C397.382 117.931 396.026 120.598 396.232 120.992C396.506 121.505 401.886 121.793 403.029 123.198C403.994 124.381 402.572 126.747 402.877 127.25C403.161 127.729 405.347 127.701 406.125 128.624C406.783 129.413 406.023 131.022 406.419 131.696C406.815 132.37 408.589 132.515 408.941 133.489C409.351 134.624 408.238 136.523 408.507 136.989C408.776 137.454 410.977 137.44 411.755 138.362C412.416 139.144 411.653 140.761 412.049 141.435C412.445 142.109 414.219 142.254 414.571 143.228C414.981 144.363 413.868 146.262 414.137 146.728C414.406 147.193 416.607 147.179 417.385 148.102C418.046 148.883 417.283 150.5 417.679 151.174C418.075 151.848 419.849 151.993 420.201 152.967C420.611 154.102 419.498 156.001 419.767 156.467C420.036 156.932 422.237 156.918 423.015 157.84C423.676 158.622 422.913 160.239 423.309 160.913C423.705 161.587 425.479 161.732 425.823 162.703C426.233 163.839 425.124 165.72 425.389 166.203C425.68 166.721 428.437 166.681 428.973 168.098C429.616 169.799 427.178 174.593 427.485 175.087C427.721 175.471 430.685 175.615 430.921 175.998C431.209 176.46 428.547 183.117 428.896 183.659C429.116 184.001 431.406 184.029 432.209 184.995C432.859 185.783 432.109 187.385 432.503 188.068C432.897 188.75 434.687 188.937 435.03 189.843C435.687 191.558 433.705 194.414 433.825 196.323C433.964 198.603 437.304 198.372 437.579 198.848C437.875 199.349 436.482 201.85 436.685 202.253C436.951 202.763 447.418 204.634 447.749 205.244C447.971 205.643 446.504 208.179 447.549 209.338C448.338 210.218 450.684 210.315 450.877 210.651C451.165 211.149 449.78 213.653 449.984 214.055C450.187 214.458 454.99 214.948 456.271 215.841C457.651 216.806 456.592 218.573 457.05 219.355C457.444 220.037 459.234 220.224 459.577 221.13C460.288 222.987 457.855 226.226 458.492 228.292C458.909 229.639 461.122 228.997 461.471 229.438C462.817 231.144 459.954 236.841 460.33 236.941L505.149 248.951C506.909 249.422 503.366 255.092 508.711 254.483C508.385 260.383 503.31 255.645 503.22 261.242C508.929 261.426 504.913 264.625 506.402 266.278C507.192 267.158 509.537 267.255 509.731 267.591C510.018 268.089 508.616 270.625 508.837 270.995C509.058 271.366 511.944 271.425 512.232 271.923C512.426 272.259 511.337 274.339 511.705 275.463C512.186 276.946 515.133 276.949 515.361 277.33C515.648 277.828 514.255 280.33 514.467 280.734C514.739 281.256 520.07 281.485 521.257 282.966C521.869 283.725 521.137 285.36 521.534 286.034C521.93 286.707 523.704 286.853 524.048 287.824C524.457 288.959 523.344 290.858 523.613 291.324C523.882 291.79 526.083 291.775 526.861 292.698C527.522 293.479 526.759 295.097 527.155 295.77C527.551 296.444 529.325 296.59 529.678 297.563C530.087 298.698 528.974 300.597 529.243 301.063C529.512 301.529 531.713 301.514 532.491 302.437C533.152 303.218 532.389 304.835 532.785 305.509C533.181 306.183 534.944 306.335 535.31 307.294C535.745 308.472 534.624 310.47 534.811 310.831C535.133 311.439 542.077 312.311 542.412 312.941C542.591 313.263 541.576 315.308 541.919 316.489C542.371 318.048 546.112 316.624 545.249 319.606C544.386 322.588 540.987 320.341 540.431 320.641C539.842 320.959 538.824 328.038 538.355 328.287C537.95 328.499 535.449 327.106 534.95 327.393C534.56 327.618 534.567 330.568 533.083 331.049C531.959 331.416 529.879 330.328 529.544 330.522C529.045 330.81 528.997 333.69 528.616 333.917C528.234 334.145 525.58 332.774 525.186 332.98C524.673 333.254 524.386 338.634 522.981 339.777C521.797 340.742 519.432 339.321 518.929 339.625C518.45 339.909 518.48 342.087 517.555 342.873C516.774 343.534 515.156 342.771 514.483 343.167C513.809 343.563 513.657 345.326 512.692 345.681C511.514 346.116 509.516 344.995 509.155 345.182C508.59 345.479 507.554 352.59 507.078 352.828C506.674 353.04 504.172 351.647 503.674 351.934C503.284 352.16 503.29 355.109 501.807 355.59C500.683 355.958 498.603 354.87 498.267 355.063C497.769 355.351 497.721 358.231 497.339 358.458C496.958 358.686 494.304 357.315 493.91 357.521C493.397 357.796 493.112 363.166 491.704 364.318C490.393 365.386 485.45 362.34 487.047 367.657C487.301 368.485 493.264 369.158 489.626 371.973C488.411 372.92 486.1 371.569 485.591 371.863C484.743 372.359 485.67 375.665 482.248 375.453C480.87 375.368 473.976 373.456 473.32 372.658C472.28 371.381 473.766 368.603 473.57 368.55L454.786 363.517C454.615 363.471 455.872 360.146 455.702 360.1L441.616 356.326C440.164 355.937 441.556 351.971 441.434 351.746C441.165 351.243 430.89 348.49 430.398 348.788C430.016 349.016 429.998 351.886 428.541 352.438C426.76 353.105 423.74 351.015 422.078 351.036C421.059 351.047 421.077 353.368 419.934 353.776C418.79 354.183 416.904 353.055 416.428 353.33C415.951 353.606 415.976 355.801 415.054 356.579C414.272 357.239 412.664 356.478 411.981 356.872C411.299 357.266 411.117 359.039 410.208 359.391C407.982 360.25 396.476 355.354 395.558 355.914C394.866 356.342 395.731 359.778 392.261 359.572C383.762 359.07 387.414 353.814 386.532 353.413C385.734 353.044 380.472 351.634 380.191 351.796C379.534 352.197 379.105 358.857 371.913 353.991C369.997 352.7 371.866 349.996 371.589 349.492C371.258 348.881 360.792 347.01 360.526 346.5C360.314 346.095 361.707 343.594 361.42 343.096C361.226 342.76 358.881 342.662 358.091 341.782C357.062 340.637 358.49 338.072 358.263 337.69C358.161 337.526 355.139 336.707 354.957 336.805C354.526 337.046 354.145 342.227 350.788 340.201C349.236 339.263 350.796 335.937 350.606 335.62C350.297 335.098 347.466 335.072 347.221 334.686C346.937 334.244 349.593 327.576 349.247 327.026C348.948 326.534 345.672 326.8 345.512 324.496C344.938 316.661 350.829 319.549 351.319 319.259C351.47 319.171 352.348 316.065 352.269 315.916C351.974 315.379 346.618 315.106 345.474 313.701C344.507 312.527 345.926 310.17 345.618 309.648C345.249 309.008 342.115 309.359 341.939 307.078C341.859 305.976 343.77 298.844 344.393 297.921C345.684 296.006 348.407 297.871 348.901 297.6C349.446 297.307 349.786 292.692 350.711 291.356C351.962 289.558 355.429 292.437 355.318 287.455C354.74 286.467 350.232 288.326 352.81 283.112C348.559 280.526 349.311 284.966 347.128 285.15C344.946 285.335 337.283 282.018 336.559 282.465C336.111 282.738 335.786 287.916 332.414 285.877C330.861 284.939 332.421 281.612 332.231 281.296C331.57 280.176 327.231 282.19 329.765 276.937C324.875 274.207 326.438 280.98 321.168 278.304C324.263 272.459 317.399 275.253 315.288 272.673C314.324 271.49 315.743 269.133 315.44 268.622C315.157 268.143 312.955 268.157 312.181 267.254C311.407 266.351 312.317 264.526 312.048 264.096C311.557 263.296 307.385 263.185 305.925 262.209C304.016 260.928 305.888 258.179 305.615 257.694C305.342 257.209 302.467 257.144 302.22 256.766C301.923 256.302 304.703 246.885 305.165 246.221C306.242 244.661 308.486 246.159 309.047 245.229C310.707 242.451 310.938 231.134 314.393 230.915C315.277 230.859 316.918 231.637 317.208 231.477C317.518 231.313 319.239 224.99 319.064 224.687C318.758 224.156 313.419 223.888 312.267 222.481C311.3 221.307 312.717 218.958 312.411 218.427C312.104 217.897 309.362 217.949 308.828 216.524C308.183 214.832 310.623 210.029 310.316 209.535C310.078 209.16 307.084 208.989 306.878 208.632C306.672 208.275 308.06 205.726 307.772 205.228C307.578 204.892 305.233 204.795 304.443 203.915C303.414 202.769 304.843 200.204 304.615 199.823C304.513 199.658 301.491 198.839 301.31 198.937C300.879 199.179 300.498 204.359 297.14 202.333C295.588 201.396 297.135 198.084 296.949 197.75C296.633 197.189 292.058 196.87 290.716 195.934C288.918 194.683 291.797 191.216 286.815 191.327C286.404 197.131 283.595 193.229 282.501 193.861C282.122 194.079 282.105 196.977 280.642 197.519C278.921 198.166 274.183 195.724 273.653 196.031C273.122 196.337 272.859 201.659 271.447 202.828C270.246 203.824 267.728 202.39 267.349 202.609C266.851 202.896 266.802 205.776 266.421 206.004C266.04 206.231 263.386 204.861 262.992 205.067C262.178 205.508 260.499 218.095 258.728 219.543C257.452 220.583 254.665 219.095 254.612 219.291L246.379 250.016C246.276 250.4 253.709 251.531 254.015 252.099C254.173 252.397 252.369 256.876 255.035 256.904C256.24 256.915 257.152 253.955 258.181 253.599C263.159 251.866 260.736 256.399 261.178 257.689C261.685 259.18 264.615 259.178 264.834 259.557C265.121 260.055 263.719 262.59 263.94 262.961C264.161 263.331 267.047 263.391 267.335 263.889C267.529 264.225 266.441 266.304 266.808 267.428C267.495 269.544 272.271 267.674 269.578 272.702C274.292 276.126 273.171 267.769 277.112 270.143C278.664 271.081 277.105 274.408 277.295 274.724C277.603 275.246 280.434 275.272 280.679 275.658C281.103 276.33 277.365 284.676 278.072 286.925C278.599 288.614 281.751 286.657 281.407 290.025C281.251 291.494 279.71 297.417 279.03 298.415C277.66 300.419 274.823 298.094 274.324 299.169C273.701 300.503 270.031 313.38 270.432 314.037C270.708 314.477 275.891 314.813 273.852 318.185C272.914 319.738 269.603 318.191 269.269 318.376C268.591 318.753 268.533 323.892 267.004 325.121C266.245 325.732 264.61 325.001 263.936 325.398C263.263 325.794 263.117 327.567 262.146 327.912C261.011 328.321 259.112 327.208 258.646 327.477C258.18 327.746 258.195 329.947 257.272 330.725C256.491 331.386 254.874 330.623 254.191 331.017C253.509 331.411 253.372 333.187 252.401 333.531C251.265 333.941 249.366 332.828 248.901 333.096C248.435 333.365 248.45 335.566 247.527 336.345C246.746 337.005 245.128 336.242 244.446 336.636C243.764 337.03 243.627 338.806 242.655 339.15C241.52 339.56 239.638 338.451 239.156 338.716C237.681 339.538 238.746 345.097 230.261 340.818C227.082 345.679 233.984 344.041 233.055 347.509C232.272 350.43 228.74 348.238 228.231 348.532C227.722 348.826 227.682 351.672 227.296 351.916C226.147 352.652 202.023 344.146 200.853 344.858C200.461 345.092 200.463 348.022 198.979 348.503C197.855 348.871 195.775 347.782 195.44 347.976C194.941 348.264 194.898 351.127 194.512 351.371C194.026 351.681 183.961 348.618 183.451 347.995C182.715 347.084 183.852 345.064 182.972 344.553C181.541 343.712 177.891 344.007 176.682 342.538C175.688 341.329 177.11 338.826 176.899 338.449C176.543 337.795 171.36 337.697 170.141 336.199C169.425 335.32 170.459 333.236 169.712 332.779C164.892 329.821 167.766 336.899 163.668 334.904C160.704 333.46 164.277 329.968 159.066 329.972C158.655 335.776 155.827 331.878 154.753 332.506C154.417 332.7 154.319 335.045 153.44 335.834C152.281 336.879 149.727 335.407 149.34 335.624C148.841 335.911 148.798 338.774 148.412 339.019C147.969 339.303 141.291 336.653 140.743 336.991C140.4 337.211 140.372 339.501 139.406 340.305C138.619 340.954 137.016 340.204 136.334 340.598C135.556 341.04 135.479 343.244 133.902 343.252C129.008 340.878 93.5489 334.188 92.564 332.294C92.352 331.889 93.7455 329.388 93.4578 328.89C93.264 328.554 90.9189 328.457 90.1293 327.577C89.0848 326.418 90.5587 323.856 90.3398 323.477C90.0522 322.979 87.1551 322.926 86.9448 322.549C86.7345 322.172 88.1348 319.645 87.8386 319.145C87.6198 318.766 84.7306 318.751 84.1804 317.286C83.5132 315.505 85.6039 312.485 85.5803 310.831C85.5673 309.82 83.2591 309.824 82.8406 308.687C82.4222 307.549 83.5462 305.507 83.3507 305.143C83.1552 304.78 76.0609 302.897 75.7315 303.102C75.3478 303.338 75.3296 306.207 73.8746 306.751C71.7592 307.54 66.3315 304.392 64.0033 304.436C62.9711 304.462 62.9604 306.757 61.8679 307.178C60.3782 307.749 39.8707 302.044 39.3073 300.593C38.6225 298.844 41.0364 297.522 36.1604 297.03C35.7636 297.794 35.559 300.266 35.2426 300.456C34.9023 300.667 27.7357 298.746 27.5464 298.394C27.3344 297.989 28.7279 295.488 28.4403 294.989C28.2464 294.654 25.9014 294.556 25.1118 293.676C24.0821 292.531 25.511 289.966 25.2836 289.584C25.1812 289.419 22.1597 288.601 21.9779 288.698C21.4711 288.984 21.5539 293.117 18.6497 292.339C15.7455 291.56 17.92 288.023 17.6261 287.514C17.3322 287.005 14.4864 286.966 14.2419 286.58C13.9326 286.094 17.5458 276.095 17.1825 275.503C16.9489 275.111 14.0187 275.113 13.5374 273.629C13.1702 272.505 14.2647 270.436 14.0646 270.09C13.8355 269.681 10.6345 269.326 10.6803 269.156C11.2548 267.012 14.0921 254.167 14.7955 253.797L14.7801 253.821ZM221.941 95.2838C222.865 95.7327 224.513 95.5609 225.298 96.5952C226.408 98.0554 223.712 100.601 228.703 100.767C228.392 94.0002 235.673 100.346 237.281 99.3666C237.664 99.1306 237.683 96.2608 239.138 95.7168C240.856 95.0786 245.633 97.5122 246.127 97.2051C246.511 96.9692 246.655 94.005 247.036 93.7776C247.507 93.4916 254.137 96.1473 254.697 95.8027C255.08 95.5668 255.099 92.6969 256.553 92.153C258.272 91.5148 263.049 93.9483 263.543 93.6413C263.926 93.4053 264.071 90.4411 264.452 90.2137C265.276 89.702 282.326 95.7355 283.208 95.212C283.535 95.0158 283.85 91.3831 285.663 91.3471C289.63 91.2658 287.081 96.1673 287.966 96.5876C293.717 99.2821 309.246 100.541 313.416 103.462C314.805 104.429 313.734 106.202 314.195 106.976C314.6 107.652 316.354 107.801 316.709 108.766C317.144 109.945 316.021 111.951 316.21 112.303C316.636 113.104 331.181 115.747 333.691 117.006C336.394 118.362 334.37 120.584 335.396 121.198C338.155 122.862 349.496 123.072 349.719 126.546C349.775 127.431 348.994 129.08 349.154 129.37C349.51 130.024 354.678 130.109 355.901 131.627C356.513 132.386 355.782 134.021 356.178 134.695C356.574 135.369 358.348 135.514 358.692 136.485C359.102 137.62 357.993 139.502 358.258 139.985C358.549 140.503 361.306 140.463 361.842 141.88C362.485 143.581 360.048 148.338 360.354 148.869C360.679 149.432 371.066 151.226 371.415 151.869C371.594 152.192 370.577 154.245 370.922 155.418C371.344 156.885 373.881 155.89 374.206 157.067C374.809 159.224 372.807 161.809 372.827 163.545C372.841 164.556 375.149 164.552 375.567 165.689C375.986 166.827 374.862 168.869 375.057 169.233C375.446 169.969 383.838 170.972 385.572 172.187C386.952 173.152 385.893 174.919 386.352 175.701C386.745 176.384 388.459 176.55 388.87 177.475C390.174 180.433 387.602 181.832 384.906 180.139C382.306 184.377 386.782 183.663 386.947 185.813C387.089 187.709 385.137 190.381 385.727 192.315C386.16 193.74 388.694 192.79 389.022 193.958C389.618 196.104 387.638 198.677 387.643 200.437C387.651 201.501 390.379 201.362 390.511 203.228C390.643 205.095 388.641 208.055 389.267 209.716C389.811 211.17 392.707 211.196 392.925 211.575C393.213 212.073 391.826 214.585 392.042 214.973C392.13 215.124 395.293 215.963 395.451 215.886C397.005 215.039 395.275 205.438 400.936 209.116C403.663 204.235 396.893 205.79 399.568 200.519C404.624 203.174 402.688 198.545 404.825 197.744C406.606 197.077 409.625 199.167 411.288 199.146C412.307 199.135 412.289 196.814 413.432 196.406C414.576 195.999 416.462 197.127 416.938 196.851C417.415 196.576 417.405 194.358 418.306 193.593C419.207 192.827 421.223 193.981 421.753 193.097C422.117 192.49 423.389 187.127 423.235 186.848C422.99 186.397 420.955 186.237 420.567 185.153C420.18 184.07 421.285 182.132 421.01 181.656C420.719 181.138 417.961 181.177 417.425 179.761C416.783 178.06 419.221 173.266 418.914 172.772C418.675 172.397 415.682 172.226 415.475 171.869C415.269 171.512 416.657 168.963 416.369 168.465C416.175 168.129 413.83 168.032 413.041 167.152C411.996 165.993 413.468 163.439 413.251 163.052C412.964 162.554 410.101 162.51 409.856 162.124C409.572 161.681 412.222 155.003 411.881 154.463C411.662 154.121 409.363 154.091 408.568 153.127C407.91 152.337 408.671 150.728 408.274 150.055C407.878 149.381 406.105 149.235 405.761 148.264C405.351 147.129 406.461 145.238 406.195 144.764C405.928 144.29 403.701 144.298 402.936 143.397C402.17 142.496 403.318 140.469 402.449 139.952C401.026 139.113 397.357 139.412 396.151 137.935C395.156 136.725 396.589 134.216 396.37 133.837C396.082 133.339 393.185 133.286 392.975 132.909C392.764 132.532 394.156 130.003 393.868 129.505C393.643 129.115 390.694 129.121 390.213 127.637C389.845 126.513 390.934 124.434 390.74 124.098C390.452 123.6 387.563 123.549 387.345 123.17C387.126 122.791 388.487 120.135 388.282 119.741C388.007 119.228 382.645 118.945 381.485 117.535C380.488 116.334 381.918 113.834 381.701 113.446C381.381 112.866 374.311 111.85 374.055 111.37C373.841 110.973 375.198 108.334 374.981 107.947C374.707 107.434 369.344 107.15 368.184 105.741C367.141 104.473 368.63 101.686 368.433 101.633L337.7 93.3979C337.529 93.3521 338.786 90.027 338.616 89.9812L324.53 86.207C323.078 85.8179 324.47 81.8515 324.348 81.6264C323.588 80.2236 294.408 74.7669 293.655 73.3749C293.478 73.0437 294.546 70.8029 294.573 69.9496C290.201 67.5423 291.148 71.2842 289.539 71.8599C288.425 72.2573 286.507 71.1482 286.032 71.4148C285.558 71.6814 285.581 73.8847 284.659 74.6629C283.877 75.3233 282.277 74.5649 281.586 74.9566C280.272 75.6938 280.515 79.2287 276.237 76.9473C276.275 76.0878 277.334 73.8447 277.155 73.5221C276.891 73.0393 267.255 70.6313 266.585 70.635C265.502 70.6468 265.667 73.346 263.785 73.5009C262.165 73.6346 257.997 71.6296 257.472 71.9468C257.143 72.1515 257.039 74.4857 256.16 75.2753C255.001 76.3198 252.439 74.846 252.06 75.0648C251.561 75.3524 251.508 78.2495 251.132 78.4599C250.755 78.6702 248.228 77.2698 247.727 77.566C247.348 77.7849 247.332 80.6826 245.868 81.2243C243.854 81.9755 235.364 78.1624 234.608 78.5916C234.164 78.848 233.722 83.5726 232.825 84.8703C231.781 86.3757 229.737 85.1873 229.232 85.5005C228.428 86.0082 228.324 90.1551 227.344 91.623C226.064 93.5321 223.377 91.6678 222.836 91.944C222.527 92.1083 222.174 94.4855 221.896 95.3174C220.972 94.8686 219.324 95.0404 218.539 94.0061C217.429 92.5459 220.126 90 215.135 89.8346C214.724 95.6387 211.896 91.7407 210.821 92.3682C210.485 92.5621 210.388 94.9072 209.508 95.6968C208.349 96.7412 205.787 95.2674 205.408 95.4862C204.91 95.7738 204.857 98.671 204.48 98.8813C204.103 99.0916 201.576 97.6912 201.076 97.9874C200.697 98.2063 200.683 101.095 199.217 101.646C197.436 102.313 194.416 100.222 192.754 100.243C191.743 100.257 191.747 102.565 190.61 102.983C189.472 103.402 187.43 102.278 187.066 102.473C186.501 102.77 185.466 109.881 184.99 110.12C184.585 110.332 182.084 108.938 181.585 109.226C181.25 109.42 181.152 111.765 180.272 112.554C179.114 113.599 176.566 112.138 176.17 112.352C175.516 112.708 175.432 117.876 173.914 119.099C173.155 119.711 171.52 118.98 170.846 119.376C170.172 119.772 170.02 121.535 169.055 121.89C167.877 122.325 165.879 121.204 165.518 121.391C163.886 122.253 165.71 131.778 160.016 128.119C157.289 133.001 164.06 131.446 161.384 136.716C155.537 133.63 158.332 140.485 155.753 142.596C154.57 143.56 152.213 142.141 151.701 142.444C151.222 142.727 151.235 144.937 150.336 145.694C149.437 146.451 147.419 145.306 146.889 146.19C146.611 146.646 145.333 151.449 145.337 151.981C145.346 152.871 150.174 153.817 147.532 157.696C142.429 155.422 144.609 158.524 142.821 160.141C141.662 161.186 139.134 159.721 138.727 159.942C138.405 160.121 136.925 165.849 137.246 166.905C137.716 168.432 141.439 167.04 140.579 170.014C139.718 172.987 136.308 170.746 135.761 171.048C135.009 171.46 134.022 179.792 132.802 181.544C131.582 183.295 128.081 180.471 128.195 185.445C134.947 185.121 128.639 192.467 129.552 194.048C129.846 194.557 136.872 195.534 137.196 196.133C137.379 196.475 135.5 200.787 138.216 200.938C140.625 201.071 140.489 194.846 141.947 193.643C143.145 192.655 145.674 194.084 146.044 193.863C147.138 193.231 145.163 188.848 150.395 191.394C152.983 187.134 148.541 187.894 148.356 185.711C148.223 184.092 150.232 179.943 149.9 179.405C149.633 178.967 144.438 178.638 146.479 175.257C147.417 173.705 150.718 175.258 151.062 175.066C151.848 174.627 154.495 160.102 155.196 159.74C155.601 159.528 158.102 160.922 158.601 160.634C158.936 160.44 159.034 158.095 159.914 157.306C161.072 156.261 163.609 157.728 164.007 157.505C164.62 157.166 166.465 146.729 166.999 146.442C167.33 146.265 169.571 147.333 170.424 147.36C173.012 143.1 168.576 143.871 168.394 141.68C168.307 140.64 169.346 136.762 169.941 135.906C170.986 134.4 173.029 135.589 173.534 135.275C174.469 134.693 174.325 129.866 175.838 128.624C177.048 127.629 179.557 129.062 179.936 128.843C180.434 128.555 180.487 125.658 180.864 125.448C181.241 125.237 183.77 126.629 184.268 126.341C184.658 126.116 184.652 123.167 186.136 122.686C187.26 122.318 189.333 123.396 189.675 123.213C190.329 122.857 190.414 117.689 191.932 116.466C192.69 115.854 194.326 116.585 194.999 116.189C195.673 115.793 195.819 114.019 196.79 113.675C197.925 113.265 199.824 114.378 200.29 114.109C200.756 113.841 200.741 111.639 201.664 110.861C202.445 110.201 204.062 110.964 204.745 110.57C205.427 110.176 205.564 108.4 206.535 108.056C207.67 107.646 209.569 108.759 210.035 108.49C210.501 108.221 210.499 106.006 211.403 105.231C212.306 104.457 214.131 105.367 214.56 105.098C215.36 104.607 215.471 100.435 216.448 98.9754C217.729 97.0663 220.415 98.9306 220.956 98.6544C221.265 98.4901 221.619 96.1129 221.896 95.2809L221.941 95.2838ZM178.015 228.503C178.152 230.315 174.989 239.795 174.241 242.588C175.639 242.734 181.575 244.874 181.929 244.648C182.304 244.41 182.474 241.416 182.832 241.21C183.189 241.003 185.738 242.391 186.236 242.104C186.572 241.91 186.669 239.565 187.549 238.775C188.708 237.731 191.27 239.204 191.649 238.986C192.147 238.698 192.195 235.818 192.577 235.591C192.958 235.363 195.612 236.733 196.006 236.528C196.839 236.083 200.971 219.228 200.951 218.279C200.929 217.403 195.879 217.149 199.324 210.409C200.602 207.895 202.115 209.527 203.154 208.927C203.828 208.531 203.98 206.768 204.945 206.413C206.123 205.978 208.13 207.102 208.482 206.912C208.835 206.723 210.726 199.631 210.524 199.293C210.25 198.845 205.063 198.526 207.104 195.145C208.041 193.593 211.368 195.152 211.684 194.962C212.206 194.654 212.233 191.823 212.619 191.578C213.037 191.315 219.847 193.918 220.312 193.649C220.811 193.361 223.534 183.059 223.234 182.576C222.967 182.138 217.775 181.8 219.813 178.428C220.734 176.907 223.874 178.444 224.35 178.169C224.892 177.857 224.835 175.131 226.251 174.595C227.944 173.95 232.746 176.391 233.24 176.084C233.615 175.845 233.786 172.852 234.143 172.645C234.501 172.439 237.049 173.827 237.548 173.539C237.883 173.345 237.981 171 238.861 170.211C240.019 169.166 242.556 170.633 242.954 170.41C243.565 170.08 245.427 159.611 245.946 159.347C246.351 159.135 248.852 160.529 249.35 160.241C249.74 160.016 249.734 157.066 251.218 156.585C252.342 156.218 254.421 157.306 254.757 157.112C255.838 156.495 253.876 152.097 259.108 154.643C261.835 149.762 255.065 151.317 257.74 146.047C262.797 148.701 260.86 144.072 262.997 143.271C264.778 142.604 267.798 144.695 269.461 144.674C270.48 144.663 270.461 142.341 271.605 141.934C272.748 141.526 274.634 142.654 275.111 142.379C275.587 142.104 275.562 139.909 276.485 139.131C277.266 138.47 278.883 139.233 279.566 138.839C280.248 138.445 280.385 136.669 281.356 136.325C282.491 135.916 284.373 137.024 284.856 136.76C285.374 136.468 285.334 133.711 286.75 133.175C287.849 132.764 292.094 133.902 292.849 134.809C293.846 136.01 292.418 138.502 292.632 138.898C292.811 139.221 298.855 140.822 299.776 140.904C300.751 140.991 300.994 135.472 304.391 137.517C305.944 138.455 304.399 141.758 304.585 142.092C304.945 142.728 315.361 144.549 315.648 145.084C315.862 145.48 314.505 148.119 314.722 148.507C315.046 149.106 323.525 150.261 325.252 151.438C327.218 152.78 325.022 155.679 325.952 156.103C331.055 158.413 328.988 150.956 333.069 153.423C334.622 154.361 333.068 157.698 333.252 158.004C333.571 158.519 336.282 158.449 336.593 158.963C336.776 159.268 335.753 161.347 336.089 162.517C336.51 163.985 339.048 162.99 339.373 164.166C339.927 166.164 337.629 170.675 337.915 171.182C338.158 171.604 342.854 172.085 344.18 172.98C346.098 174.263 344.217 177.009 344.49 177.494C344.763 177.979 347.639 178.045 347.885 178.422C348.176 178.875 345.516 185.523 345.86 186.082C346.096 186.466 348.966 186.484 349.51 187.939C350.15 189.649 347.719 194.454 348.022 194.929C348.266 195.314 351.129 195.358 351.417 195.857C351.642 196.246 350.162 198.798 351.206 199.957C351.996 200.836 354.341 200.934 354.535 201.27C354.822 201.768 353.42 204.303 353.641 204.674C353.862 205.044 356.748 205.104 357.036 205.602C357.23 205.938 356.141 208.017 356.509 209.141C356.99 210.625 359.937 210.627 360.165 211.009C360.452 211.507 359.059 214.008 359.271 214.413C359.537 214.923 369.867 217.646 370.35 217.345C370.701 217.128 370.738 214.803 371.68 214.021C372.572 213.289 374.4 214.155 374.838 213.887C375.321 213.587 378.21 203.42 377.912 202.928C377.676 202.545 374.711 202.4 374.476 202.017C374.19 201.547 376.845 194.916 376.501 194.357C376.265 193.973 373.395 193.955 372.851 192.5C372.063 190.384 375.222 184.95 375.164 182.637C375.139 181.605 372.843 181.63 372.427 180.484C372.011 179.338 373.132 177.304 372.937 176.941C372.64 176.376 365.529 175.34 365.282 174.862C365.07 174.457 366.461 171.965 366.175 171.458C365.95 171.068 363.001 171.074 362.52 169.59C362.152 168.466 363.241 166.387 363.047 166.051C362.43 164.97 358.023 166.93 360.578 161.7C355.688 158.971 357.252 165.743 351.981 163.068C353.772 158.366 352.391 160.239 350.136 158.747C347.476 156.99 351.213 152.132 350.536 150.898C350.299 150.45 348.256 150.287 347.868 149.204C347.481 148.12 348.58 146.172 348.314 145.698C348.047 145.223 345.844 145.246 345.065 144.324C344.405 143.542 345.168 141.925 344.772 141.251C344.376 140.577 342.613 140.426 342.247 139.467C341.812 138.288 342.935 136.282 342.746 135.93C342.32 135.129 327.776 132.486 325.266 131.227C322.562 129.871 324.586 127.649 323.56 127.035C320.802 125.371 309.46 125.161 309.237 121.687C309.181 120.802 309.962 119.153 309.802 118.863C309.506 118.326 304.896 117.969 303.558 117.052C302.006 115.977 303.496 113.731 302.566 113.17C299.652 111.437 285.783 110.202 284.883 107.617C284.49 106.487 285.827 104.3 285.009 103.934C280.477 101.887 282.43 105.019 280.714 106.5C278.999 107.982 274.338 104.947 273.262 105.51C272.751 105.776 272.696 108.169 270.932 108.329C265.239 108.836 271.689 103.249 265.987 103.378C265.058 103.395 265.094 106.096 263.241 106.249C261.114 106.43 253.387 103.115 252.663 103.562C252.282 103.789 252.262 106.667 250.807 107.211C249.088 107.849 244.311 105.416 243.817 105.723C243.434 105.959 243.289 108.923 242.908 109.151C242.438 109.436 235.807 106.781 235.248 107.125C234.864 107.361 234.846 110.231 233.391 110.775C231.673 111.413 226.896 108.98 226.401 109.287C226.026 109.525 225.856 112.519 225.498 112.725C225.141 112.932 222.592 111.544 222.094 111.831C221.704 112.057 221.71 115.006 220.227 115.487C219.103 115.855 217.023 114.766 216.687 114.96C216.189 115.248 216.136 118.145 215.759 118.355C215.383 118.566 212.853 117.174 212.355 117.461C212.02 117.655 211.922 120 211.042 120.79C209.884 121.834 207.321 120.361 206.942 120.579C206.444 120.867 206.391 123.764 206.014 123.974C205.637 124.185 203.108 122.793 202.61 123.081C202.274 123.274 202.177 125.62 201.297 126.409C200.138 127.454 197.576 125.98 197.197 126.199C196.699 126.486 196.646 129.383 196.269 129.594C195.892 129.804 193.363 128.412 192.865 128.7C192.529 128.894 192.432 131.239 191.552 132.028C190.393 133.073 187.846 131.612 187.45 131.826C186.913 132.122 186.565 136.734 185.639 138.07C184.564 139.622 182.307 138.139 181.757 139.062C181.472 139.545 180.195 144.311 180.205 144.854C180.216 145.736 185.266 145.954 181.832 152.724C180.456 155.431 178.234 153.407 177.642 154.421C176.8 155.852 177.095 159.502 175.627 160.71C174.439 161.692 171.91 160.3 171.539 160.521C171.366 160.622 170.556 163.645 170.656 163.819C170.898 164.25 176.086 164.633 174.052 167.988C173.115 169.54 169.788 167.98 169.463 168.168C168.943 168.468 168.908 171.333 168.537 171.555C168.167 171.776 165.502 170.412 165.108 170.617C164.755 170.807 162.835 177.973 163.048 178.305C163.284 178.689 166.248 178.833 166.484 179.217C166.683 179.535 164.968 185.558 164.566 186.411C164.088 187.409 161.983 186.003 160.991 185.984C158.375 190.483 163.192 189.146 162.963 192.427C162.674 196.442 159.844 193.166 158.935 193.655C158.582 193.844 156.662 201.01 156.875 201.342C157.12 201.728 159.968 201.759 160.26 202.277C160.416 202.547 158.603 207.06 161.277 207.09C162.482 207.102 163.394 204.142 164.424 203.786C169.341 202.073 167.012 206.494 167.443 207.891C167.875 209.288 170.063 208.602 170.41 209.052C171.88 210.911 168.848 215.427 169.418 216.477C169.664 216.927 171.699 217.088 172.086 218.171C172.473 219.254 171.375 221.203 171.641 221.677C171.908 222.151 174.103 222.126 174.889 223.051C175.55 223.832 174.796 225.415 175.183 226.123C175.57 226.831 177.871 227.265 177.964 228.489L178.015 228.503ZM297.088 152.918C296.811 152.414 286.482 149.655 285.983 149.943C285.453 150.249 285.189 155.571 283.778 156.74C282.577 157.737 280.059 156.302 279.68 156.521C279.182 156.809 279.129 159.706 278.752 159.916C278.375 160.126 275.848 158.726 275.348 159.022C274.969 159.241 274.954 162.13 273.489 162.681C271.708 163.348 268.688 161.257 267.025 161.278C266.006 161.289 266.025 163.61 264.882 164.018C263.738 164.426 261.852 163.298 261.375 163.573C260.899 163.848 260.909 166.066 260.008 166.832C259.107 167.597 257.071 166.448 256.563 167.319C255.724 168.742 256.023 172.411 254.546 173.617C253.337 174.611 250.827 173.179 250.448 173.398C249.95 173.686 249.902 176.566 249.52 176.793C249.139 177.02 246.485 175.65 246.091 175.856C245.375 176.241 244.388 185.562 242.741 186.924C241.54 187.92 239.022 186.486 238.643 186.705C238.145 186.992 238.096 189.872 237.715 190.1C237.334 190.327 234.68 188.957 234.286 189.163C233.569 189.547 232.582 198.868 230.936 200.231C229.735 201.227 227.217 199.793 226.838 200.012C226.34 200.299 226.291 203.179 225.91 203.407C225.529 203.634 222.875 202.264 222.481 202.47C221.892 202.788 220.717 211.271 219.549 213C218.258 214.915 215.554 213.046 215.05 213.323C214.727 213.502 213.25 219.222 213.571 220.278C213.994 221.673 217.15 220.725 217.113 222.536C217.015 227.243 211.73 222.33 211.449 226.521C211.223 230.031 214.407 228.229 214.797 229.606C215.365 231.589 213.045 236.113 213.339 236.622C213.633 237.131 223.957 239.907 224.443 239.597C224.827 239.361 224.971 236.397 225.352 236.17C225.844 235.871 235.952 239.458 236.457 239.145C236.6 239.055 237.402 236.231 237.193 235.818C236.983 235.404 235.412 235.221 234.945 234.639C234.176 233.682 238.313 215.647 239.207 215.182C239.611 214.97 242.113 216.363 242.611 216.075C242.947 215.882 243.044 213.536 243.924 212.747C245.083 211.702 247.619 213.169 248.018 212.947C248.877 212.472 250.461 201.059 251.885 199.024C252.85 197.643 254.626 198.705 255.399 198.244C256.075 197.839 256.225 196.085 257.19 195.73C258.368 195.295 260.366 196.416 260.727 196.229C261.292 195.932 262.328 188.821 262.804 188.583C263.208 188.371 265.71 189.764 266.208 189.477C266.544 189.283 266.641 186.938 267.521 186.148C268.68 185.104 271.227 186.564 271.623 186.35C272.171 186.048 272.499 181.44 273.434 180.106C274.368 178.773 276.165 179.785 276.947 179.327C277.73 178.868 277.702 176.819 279.38 176.673C281.498 176.49 289.222 179.814 289.957 179.361C290.429 179.066 290.554 174.705 293.262 175.706C296.104 176.202 294.023 180.039 294.296 180.524C294.448 180.811 299.701 182.219 300.585 182.3C301.693 182.405 301.331 179.278 302.916 178.695C303.952 178.314 308.338 179.471 309.329 180.148C311.244 181.439 309.364 184.186 309.641 184.654C309.937 185.154 312.682 185.093 312.984 185.604C313.168 185.91 312.144 187.988 312.48 189.159C312.902 190.627 315.439 189.631 315.765 190.808C316.368 192.965 314.366 195.551 314.386 197.286C314.399 198.297 316.707 198.293 317.125 199.43C317.544 200.568 316.42 202.61 316.615 202.974C316.946 203.585 323.882 204.454 324.216 205.084C324.395 205.407 323.381 207.451 323.723 208.632C324.145 210.1 326.682 209.105 327.008 210.281C328.017 213.893 322.486 217.932 328.966 218.212C328.644 211.452 335.972 217.792 337.544 216.812C337.895 216.595 337.932 214.27 338.874 213.488C339.766 212.757 341.594 213.622 342.031 213.355C342.515 213.054 345.404 202.888 345.105 202.396C344.867 202.021 341.873 201.85 341.667 201.493C341.461 201.135 342.848 198.587 342.561 198.089C342.367 197.753 340.022 197.656 339.232 196.776C338.188 195.617 339.659 193.063 339.443 192.676C339.155 192.177 336.292 192.134 336.048 191.748C335.763 191.305 338.413 184.627 338.073 184.087C337.853 183.745 335.554 183.715 334.76 182.751C334.102 181.961 334.862 180.352 334.466 179.679C334.07 179.005 332.296 178.859 331.952 177.888C331.542 176.753 332.653 174.862 332.386 174.388C332.12 173.914 329.893 173.921 329.127 173.021C328.362 172.12 329.509 170.092 328.64 169.576C327.217 168.737 323.557 169.038 322.342 167.559C321.348 166.349 322.767 163.855 322.559 163.47C322.395 163.16 316.091 161.471 315.794 161.657C314.799 162.26 315.861 168.001 308.218 164.168C305.11 162.612 307.588 160.026 307.203 159.346C306.58 158.254 302.188 160.227 304.734 154.995C300.227 152.377 301.572 157.196 298.283 156.965C294.26 156.674 297.544 153.846 297.055 152.937L297.088 152.918ZM399.132 344.009C401.14 343.897 410.313 347.005 413.218 347.783C413.559 347.874 414.116 342.073 415.432 340.988C416.633 339.992 419.15 341.426 419.53 341.207C420.028 340.92 420.076 338.04 420.458 337.812C420.839 337.585 423.493 338.955 423.887 338.749C424.24 338.56 426.158 331.402 425.947 331.062C425.763 330.756 423.283 330.513 422.521 330.144L428.697 307.098C434.522 310.197 431.748 303.329 434.319 301.217C435.494 300.25 437.851 301.668 438.373 301.36C439.553 300.678 437.77 296.639 443.442 298.159C449.114 299.679 445.55 302.285 446.231 303.465C446.532 303.985 449.28 303.944 449.814 305.368C450.995 308.477 445.148 313.044 451.742 313.273L447.627 328.631C446.794 328.564 444.524 327.535 444.202 327.714C443.697 327.99 441.116 338.239 441.384 338.741C441.621 339.189 443.614 339.339 444.052 340.436C444.517 341.604 443.33 343.95 443.51 343.998L458.876 348.116C459.047 348.161 457.79 351.487 457.961 351.532L476.317 356.451C477.744 356.833 476.402 360.813 476.527 361.03C476.615 361.182 479.711 362.066 479.871 361.981C480.332 361.729 481.496 354.515 481.931 354.293C482.335 354.081 484.837 355.474 485.335 355.187C485.725 354.962 485.719 352.012 487.202 351.531C488.326 351.164 490.406 352.252 490.742 352.058C491.24 351.77 491.288 348.89 491.67 348.663C492.051 348.436 494.705 349.806 495.099 349.6C495.612 349.326 495.9 343.946 497.305 342.803C498.488 341.838 500.853 343.26 501.356 342.955C501.835 342.671 501.805 340.493 502.73 339.707C503.511 339.046 505.129 339.809 505.803 339.413C506.476 339.017 506.628 337.254 507.593 336.899C508.772 336.464 510.769 337.585 511.13 337.398C511.695 337.101 512.731 329.99 513.207 329.752C513.611 329.54 516.113 330.933 516.611 330.646C517.001 330.421 516.995 327.471 518.479 326.99C519.602 326.622 521.682 327.711 522.018 327.517C522.516 327.229 522.564 324.349 522.946 324.122C523.327 323.894 525.981 325.265 526.375 325.059C526.855 324.803 529.275 315.125 529.262 314.489C529.236 313.457 526.932 313.481 526.525 312.337C526.117 311.193 527.245 309.307 526.97 308.831C526.695 308.354 524.5 308.379 523.722 307.457C523.061 306.676 523.824 305.058 523.428 304.384C523.032 303.711 521.258 303.565 520.905 302.592C520.496 301.456 521.606 299.566 521.34 299.092C521.073 298.618 518.855 298.627 518.081 297.724C517.307 296.821 518.217 294.996 517.947 294.566C517.457 293.767 513.284 293.656 511.825 292.679C509.916 291.398 511.787 288.65 511.515 288.165C511.242 287.679 508.332 287.605 508.12 287.237C507.907 286.868 509.301 284.331 509.013 283.832C508.82 283.497 506.474 283.399 505.685 282.519C504.64 281.361 506.114 278.798 505.895 278.419C505.608 277.921 502.711 277.868 502.5 277.491C502.29 277.115 503.682 274.585 503.394 274.087C503.2 273.751 500.855 273.654 500.066 272.774C499.021 271.615 500.495 269.053 500.276 268.674C499.989 268.176 497.091 268.123 496.881 267.746C496.671 267.369 498.063 264.84 497.775 264.342C497.55 263.952 494.732 264.012 494.121 262.466C493.691 261.371 494.852 258.954 494.681 258.908L464.802 250.902C464.591 253.876 461.855 258.928 461.908 261.461C461.941 262.842 465.989 261.437 464.044 267.636C462.385 272.904 460.069 269.83 459.345 271.027C459.065 271.492 457.783 276.276 457.793 276.819C457.802 277.709 462.63 278.655 459.988 282.534C454.652 279.657 457.395 285.583 453.292 285.317C451.483 285.198 434.005 280.451 432.951 279.738C430.563 278.128 435.046 274.349 429.248 274.288C428.88 269.648 433.6 271.133 433.993 270.487C436.951 265.668 429.873 268.541 431.866 264.452C433.31 261.488 436.802 265.06 436.795 259.858C430.991 259.447 434.893 256.639 434.253 255.542C434.009 255.12 428.775 254.77 430.822 251.401C431.75 249.882 434.882 251.417 435.359 251.142C435.9 250.83 435.843 248.104 437.259 247.568C438.952 246.923 443.754 249.364 444.249 249.057C444.632 248.821 444.777 245.856 445.158 245.629C446.879 244.57 453.031 250.961 453.67 244.715C453.768 243.734 450.587 243.989 450.073 242.423C449.705 241.3 450.794 239.22 450.6 238.884C450.312 238.386 447.415 238.333 447.205 237.956C446.994 237.579 448.388 235.078 448.096 234.561C447.917 234.238 444.248 233.923 444.212 232.11C444.136 228.19 448.813 230.45 449.238 230.197C449.414 230.089 450.224 227.065 450.121 226.9C449.905 226.513 446.969 226.468 446.492 225.003C446.124 223.879 447.213 221.8 447.019 221.464C446.731 220.966 443.843 220.915 443.624 220.536C443.405 220.157 444.767 217.501 444.561 217.107C443.927 215.921 421.728 211.813 418.625 210.102C416.836 215.684 410.6 210.735 409.487 211.371C408.956 211.677 408.693 216.999 407.281 218.168C406.08 219.164 403.579 217.734 403.192 217.951C402.612 218.271 401.596 225.342 401.115 225.597C400.719 225.812 398.08 224.455 397.684 224.669C397.331 224.858 395.411 232.025 395.624 232.356C395.86 232.74 398.824 232.884 399.06 233.268C399.271 233.608 397.351 240.775 397 240.956C396.596 241.168 394.094 239.774 393.596 240.062C393.26 240.256 393.163 242.601 392.283 243.39C390.63 244.879 387.428 240.872 387.246 246.573C382.56 246.91 384.168 242.278 383.395 241.814C381.401 240.612 375.135 240.626 373.688 238.884C372.706 237.696 374.098 235.167 373.877 234.796C373.777 234.623 370.753 233.813 370.58 233.913C370.149 234.155 369.766 239.343 366.411 237.309C364.858 236.372 366.403 233.068 366.217 232.735C365.79 231.97 357.482 230.998 355.713 229.774C354.153 228.696 355.651 226.452 354.721 225.892C354.146 225.545 344.586 222.819 344.124 223.107C343.74 223.343 343.596 226.307 343.215 226.535C342.753 226.823 336.097 224.161 335.546 224.507C335.195 224.725 335.158 227.049 334.216 227.831C333.274 228.613 331.279 227.447 330.771 228.318C329.932 229.741 330.233 233.402 328.756 234.608C327.547 235.602 325.052 234.183 324.667 234.391C323.723 234.907 322.186 247.34 320.362 248.819C319.45 249.555 317.447 248.423 316.919 249.298C316.555 249.905 315.283 255.268 315.437 255.547C315.683 255.998 317.701 256.154 318.105 257.242C318.53 258.39 317.399 260.422 317.595 260.785C317.923 261.404 324.835 262.259 325.196 262.895C325.369 263.207 323.858 266.693 325.387 267.478C327.35 268.489 328.193 264.797 329.362 264.396C334.361 262.687 331.915 267.168 332.359 268.486C333.078 270.619 337.816 268.721 335.129 273.76C340.177 276.037 337.979 272.93 339.84 271.314C341.701 269.698 347.853 273.324 350.243 273.287C351.329 273.267 351.161 270.576 353.043 270.421C354.663 270.287 358.831 272.292 359.356 271.975C359.685 271.77 359.789 269.436 360.669 268.647C361.827 267.602 364.39 269.076 364.769 268.857C365.267 268.57 365.32 265.672 365.697 265.462C366.074 265.252 368.6 266.652 369.101 266.356C369.48 266.137 369.497 263.239 370.96 262.698C372.07 262.281 377.152 263.643 377.913 264.561C378.91 265.762 377.475 268.279 377.694 268.658C377.979 269.165 380.845 269.2 381.089 269.586C381.38 270.04 378.722 276.679 379.064 277.247C379.337 277.695 384.523 278.023 382.484 281.395C381.546 282.947 378.22 281.388 377.904 281.577C377.381 281.886 377.355 284.717 376.969 284.962C376.527 285.246 369.849 282.596 369.3 282.934C368.949 283.151 368.915 285.468 367.97 286.258C367.026 287.049 365.002 285.957 364.537 286.702C361.553 291.552 369.644 288.794 366.36 293.462C365.341 294.91 363.241 293.762 362.755 294.071C361.818 294.662 361.965 299.48 360.451 300.723C359.263 301.704 356.734 300.313 356.363 300.534C356.19 300.634 355.384 303.677 355.478 303.839C355.678 304.186 357.987 304.246 358.775 305.199C359.433 305.989 358.675 307.589 359.069 308.271C359.463 308.954 361.253 309.14 361.596 310.047C362.309 311.895 359.881 315.117 360.51 317.208C360.927 318.593 364.089 317.655 364.052 319.467C363.97 323.5 359.368 321.095 358.991 321.306C358.764 321.437 358.138 324.116 358.429 324.872C358.999 326.334 361.869 326.352 362.088 326.731C362.375 327.229 360.986 329.75 361.194 330.135C361.402 330.521 364.42 330.67 364.632 331.038C364.845 331.407 363.489 334.074 363.695 334.468C364.08 335.184 373.401 336.171 374.763 337.818C375.76 339.019 374.338 341.522 374.546 341.907C374.71 342.217 381.014 343.906 381.311 343.72C382.536 342.977 380.381 338.582 387.203 340.693C392.986 342.481 389.268 344.845 389.904 346.022C390.056 346.31 395.32 347.711 396.202 347.801C397.248 347.898 397.158 344.066 399.118 343.959L399.132 344.009ZM140.861 213.512C140.502 212.803 127.516 210.394 125.495 209.395C124.965 209.253 123.581 218.485 122.559 219.942C121.537 221.398 119.827 220.263 119.045 220.722C117.702 221.497 117.997 224.973 113.696 222.712C113.734 221.853 114.793 219.61 114.614 219.287C114.424 218.934 107.258 217.014 106.918 217.225C106.534 217.461 106.385 220.442 106.015 220.663C105.644 220.884 102.979 219.52 102.585 219.726C101.538 220.288 98.1705 241.293 95.6995 242.179C93.824 242.857 91.7909 240.024 91.5455 243.775C91.3191 247.285 94.5027 245.483 94.8935 246.861C95.5033 248.992 93.4945 251.603 93.5146 253.339C93.5254 254.358 95.8467 254.339 96.2543 255.483C96.6619 256.627 95.5432 258.479 95.82 258.983C96.0804 259.446 99.5834 259.698 99.62 261.475C99.7064 265.389 95.0102 263.133 94.594 263.388C94.4099 263.494 93.6082 266.52 93.7106 266.685C93.9107 267.031 96.2199 267.092 97.0083 268.045C97.6664 268.834 96.908 270.435 97.302 271.117C97.6959 271.799 99.486 271.986 99.829 272.893C100.542 274.741 98.1135 277.963 98.7432 280.054C99.1597 281.438 102.322 280.5 102.285 282.312C102.201 286.281 97.915 283.897 97.2954 284.262C96.8057 284.552 96.8224 286.744 95.9215 287.51C94.6071 288.623 91.8619 285.919 91.75 290.915C92.5134 291.312 94.9853 291.516 95.1752 291.833C95.5072 292.37 92.3579 300.297 92.4659 302.422C92.5781 304.805 95.5087 303.503 95.861 304.751C96.4645 306.872 94.0549 310.74 94.5516 311.688C94.8324 312.211 97.1964 312.204 97.348 314.03C97.4737 315.611 95.5027 319.926 95.7529 320.359C100.767 320.54 132.483 331.702 134.174 330.654C134.549 330.416 134.719 327.422 135.077 327.215C135.434 327.009 137.981 328.405 138.481 328.109C138.86 327.89 138.874 325.001 140.34 324.451C142.173 323.761 146.281 326.299 147.253 325.781C147.777 325.501 147.769 323.137 149.595 322.985C151.176 322.859 155.491 324.83 155.933 324.582C156.279 324.382 158.206 317.227 157.993 316.895C157.754 316.52 154.761 316.349 154.554 315.992C154.346 315.606 155.737 313.114 155.446 312.596C155.267 312.274 151.597 311.959 151.562 310.145C151.477 306.223 156.413 308.644 156.754 307.884C158.799 303.36 155.663 305.294 154.179 303.587C153.277 302.549 156.368 290.395 157.349 288.955C158.641 287.04 161.378 288.918 161.863 288.645C162.349 288.372 162.414 285.497 162.791 285.25C163.123 285.037 170.253 286.993 170.442 287.346C170.665 287.744 169.198 290.281 170.242 291.439C171.032 292.319 173.377 292.417 173.571 292.752C173.858 293.251 172.456 295.786 172.677 296.157C172.898 296.527 175.784 296.586 176.072 297.085C176.266 297.42 175.178 299.5 175.545 300.624C176.026 302.108 178.982 302.112 179.201 302.491C179.488 302.99 178.09 305.508 178.307 305.896C178.524 306.283 181.507 306.423 181.745 306.799C181.956 307.139 180.036 314.305 179.686 314.486C179.289 314.7 176.65 313.343 176.254 313.558C175.75 313.834 174.048 323.019 173.279 324.662C175.496 325.714 182.21 326.213 183.492 327.783C184.459 328.958 183.038 331.323 183.341 331.835C183.624 332.314 185.825 332.299 186.591 333.2C187.697 334.504 185.006 337.271 189.996 337.372C189.683 330.614 196.985 336.947 198.574 335.972C199.066 335.673 198.802 332.389 201.106 332.228C204.409 331.996 221.842 338.517 222.795 337.93C223.171 337.692 223.341 334.698 223.698 334.492C224.056 334.285 226.604 335.673 227.103 335.385C227.438 335.192 227.536 332.846 228.416 332.057C229.574 331.012 232.128 332.484 232.516 332.267C233.014 331.98 233.058 329.117 233.444 328.872C233.886 328.588 240.564 331.238 241.112 330.9C241.464 330.683 241.483 328.39 242.449 327.587C243.239 326.928 244.847 327.689 245.527 327.304C246.208 326.918 246.347 325.134 247.318 324.79C248.453 324.38 250.352 325.493 250.818 325.224C251.284 324.955 251.282 322.739 252.186 321.965C253.089 321.191 254.905 322.099 255.343 321.832C256.878 320.888 260.636 297.021 263.243 296.108C264.374 295.715 266.56 297.052 266.926 296.234C268.974 291.702 265.833 293.652 264.36 291.939C262.803 290.131 267.139 280.92 266.652 280.139C266.414 279.764 263.42 279.594 263.214 279.236C263.007 278.879 264.395 276.33 264.107 275.832C263.914 275.496 261.568 275.399 260.779 274.519C259.734 273.36 261.201 270.824 260.979 270.425C260.642 269.804 250.202 267.968 249.915 267.433C249.742 267.122 250.772 264.852 250.833 264.008L236.748 260.234C235.296 259.845 236.688 255.878 236.565 255.653C236.247 255.065 229.183 254.06 228.919 253.577C228.704 253.181 230.061 250.542 229.845 250.154C229.656 249.801 222.489 247.881 222.149 248.092C221.765 248.328 221.621 251.292 221.239 251.519C220.745 251.826 210.695 248.776 210.181 248.135C209.107 246.813 211.778 244.086 206.793 243.968C206.382 249.772 203.554 245.874 202.479 246.502C202.144 246.696 202.046 249.041 201.166 249.83C200.008 250.875 197.445 249.401 197.066 249.62C196.568 249.907 196.515 252.804 196.138 253.015C195.762 253.225 193.26 251.832 192.743 252.123C192.42 252.302 192.108 255.963 190.294 255.999C186.374 256.075 188.634 251.398 188.382 250.973C188.273 250.797 185.249 249.987 185.076 250.087C184.689 250.304 184.643 253.24 183.179 253.717C182.055 254.084 179.976 252.996 179.64 253.19C179.142 253.478 179.093 256.358 178.712 256.585C178.33 256.812 175.676 255.442 175.283 255.648C174.77 255.922 174.486 261.284 173.077 262.445C171.876 263.441 169.375 262.012 168.988 262.228C167.336 263.131 169.193 272.601 163.486 268.957C160.759 273.838 167.529 272.283 164.854 277.554C159.8 274.89 161.731 279.537 159.597 280.329C158.561 280.711 154.174 279.553 153.175 278.874C151.26 277.582 153.135 274.853 152.863 274.368C152.59 273.883 149.714 273.818 149.468 273.44C149.254 273.108 151.175 265.942 151.527 265.753C151.839 265.58 154.109 266.609 154.953 266.67L159.068 251.312C159.153 250.996 153.689 251.501 156.517 247.507C157.457 246.184 159.289 247.206 160.052 246.751C160.728 246.346 160.878 244.592 161.843 244.237C163.988 243.439 165.726 246.761 166.225 241.786C166.325 240.833 163.209 241.051 162.632 239.514C161.942 237.681 164.478 233.582 163.962 232.602C163.682 232.078 161.318 232.085 161.166 230.259C161.032 228.64 163.037 224.471 162.72 223.947C162.516 223.617 160.181 223.514 159.392 222.634C158.263 221.379 160.185 218.818 159.159 218.342C158.076 217.841 149.023 215.305 148.555 215.583C147.977 215.931 147.664 222.43 141.131 218.006C139.201 216.702 141.038 213.843 140.851 213.482L140.861 213.512ZM62.7109 242.018C62.6108 241.845 59.5677 241.039 59.4052 241.133C59.0586 241.333 58.9983 243.642 58.0455 244.43C57.2558 245.088 55.6555 244.33 54.9731 244.724C54.2064 245.159 54.1755 247.257 52.5512 247.407C47.6313 247.865 50.9211 243.959 50.5334 243.287C46.0256 240.669 47.371 245.488 44.0822 245.257C40.7934 245.026 42.2972 243.616 42.8458 241.227C37.0296 238.094 39.8074 244.981 37.2233 247.109C35.9204 248.179 33.3991 246.313 32.9274 247.322C32.0462 249.21 27.3516 267.003 27.4267 268.534C27.5389 270.917 30.4695 269.615 30.8218 270.863C31.3867 272.855 29.0692 277.37 29.3631 277.879C29.6695 278.409 34.9912 278.673 36.1602 280.084C37.1567 281.285 35.733 283.797 35.9434 284.174C36.2366 284.719 40.8514 285.058 42.1873 285.984C43.7394 287.059 42.2556 289.316 43.1795 289.866C43.6616 290.151 48.4279 291.428 48.9708 291.418C50.3761 291.401 48.8657 287.847 54.2576 289.044C61.2736 290.604 55.4525 294.015 61.4471 294.706C61.1253 287.946 68.4535 294.285 70.0251 293.306C70.3763 293.089 70.4133 290.764 71.3552 289.982C72.247 289.25 74.0751 290.115 74.5129 289.848C75.7311 289.094 75.9433 280.307 78.2951 279.491C79.4258 279.098 81.6127 280.435 81.9783 279.617C84.2885 274.515 76.8318 276.581 79.2987 272.5C80.221 270.971 83.5613 272.48 83.8714 272.279C84.0555 272.173 84.8549 269.155 84.7549 268.982C84.5445 268.605 81.6583 268.546 81.1206 267.102C80.4306 265.269 82.9664 261.169 82.451 260.189C82.1702 259.665 79.8062 259.672 79.6546 257.847C79.5289 256.266 81.4998 251.951 81.2497 251.518C80.6557 250.489 63.0484 247.968 62.2054 245.545C61.8267 244.464 62.8853 242.358 62.6915 242.022L62.7109 242.018Z" fill="black"/>
<defs>
<filter id="filter0_g_2002_26" x="6.3214" y="43.0257" width="544.034" height="338.969" filterUnits="userSpaceOnUse" color-interpolation-filters="sRGB">
<feFlood flood-opacity="0" result="BackgroundImageFix"/>
<feBlend mode="normal" in="SourceGraphic" in2="BackgroundImageFix" result="shape"/>
<feTurbulence type="fractalNoise" baseFrequency="0.5 0.5" numOctaves="3" seed="477" />
<feDisplacementMap in="shape" scale="33.599998474121094" xChannelSelector="R" yChannelSelector="G" result="displacedImage" width="100%" height="100%" />
<feMerge result="effect1_texture_2002_26">
<feMergeNode in="displacedImage"/>
</feMerge>
</filter>
</defs>
</svg>
