<svg width="447" height="345" viewBox="0 0 447 345" fill="none" xmlns="http://www.w3.org/2000/svg">
<path d="M357.171 342.12C368.327 338.401 372.046 330.964 379.483 271.465C390.639 204.528 390.639 193.372 416.67 118.998C453.857 18.5935 453.857 29.7496 427.826 33.4683L409.233 37.187L412.952 26.0309C412.952 18.5935 416.67 11.1561 416.67 7.43739C420.389 0 416.67 0 372.046 0C338.578 3.7187 215.861 7.43739 204.705 11.1561C178.674 14.8748 85.7062 18.5935 55.9566 18.5935C41.0818 18.5935 22.4884 14.8748 15.051 14.8748C-3.54252 7.43739 -3.54252 7.43739 7.61357 63.2179C11.3323 78.0926 18.7697 115.28 26.2071 145.029C37.3631 200.81 44.8005 267.746 44.8005 304.933C48.5192 338.401 48.5192 342.12 96.8623 342.12C119.174 345.839 152.643 345.839 167.518 342.12C212.142 338.401 238.173 338.401 297.672 342.12H357.171ZM52.2379 234.278C48.5192 208.247 41.0818 163.623 29.9258 130.154C26.2071 104.124 18.7697 59.4992 18.7697 48.3431C18.7697 44.6244 18.7697 44.6244 22.4884 44.6244C26.2071 48.3431 26.2071 40.9057 18.7697 33.4683C11.3323 29.7496 15.051 26.0309 81.9875 26.0309C119.174 26.0309 174.955 26.0309 204.705 22.3122C267.922 14.8748 394.358 11.1561 398.077 14.8748C401.796 18.5935 401.796 22.3122 401.796 26.0309C398.077 37.187 386.921 40.9057 342.296 37.187H308.828L305.109 52.0618C301.391 63.2179 297.672 66.9366 286.516 70.6553C271.641 78.0926 182.392 85.53 134.049 89.2487H100.581L96.8623 104.124C93.1436 111.561 85.7062 145.029 74.5501 174.779C67.1127 204.528 59.6753 234.278 59.6753 241.715C55.9566 252.871 55.9566 252.871 52.2379 234.278ZM152.643 330.964C111.737 330.964 74.5501 330.964 74.5501 330.964C67.1127 327.245 63.394 301.214 63.394 282.621C63.394 275.184 63.394 264.027 67.1127 252.871C70.8314 245.434 74.5501 223.122 78.2688 204.528C85.7062 171.06 108.018 107.842 111.737 104.124C111.737 100.405 152.643 96.6861 204.705 92.9674C253.048 92.9674 286.516 85.53 301.391 81.8113C301.391 81.8113 308.828 74.3739 312.547 63.2179L316.265 52.0618L357.171 48.3431H416.67C424.108 44.6244 431.545 44.6244 431.545 44.6244C431.545 44.6244 427.826 59.4992 420.389 81.8113C386.921 171.06 375.765 204.528 368.327 267.746C360.89 323.527 360.89 327.245 342.296 330.964H297.672C279.078 327.245 256.766 327.245 245.61 327.245C234.454 327.245 193.548 330.964 152.643 330.964Z" fill="black"/>
<path d="M267.922 223.123C264.204 211.967 260.485 185.936 260.485 171.061C260.485 141.311 260.485 141.311 249.329 141.311C245.61 137.593 238.173 141.311 230.735 148.749C227.017 152.467 223.298 156.186 227.017 171.061C227.017 178.498 227.017 189.654 223.298 193.373C219.579 200.811 212.142 215.685 208.423 226.841C204.704 237.998 197.267 252.872 193.548 256.591V267.747C193.548 267.747 212.142 267.747 238.173 267.747H279.078L275.36 256.591C275.36 249.154 271.641 234.279 267.922 223.123Z" fill="black"/>
</svg>
