<svg width="426" height="116" viewBox="0 0 426 116" fill="none" xmlns="http://www.w3.org/2000/svg">
<path d="M420.213 112.783C427.651 109.064 427.651 97.908 420.213 94.1893C412.776 94.1893 405.339 105.345 409.057 112.783C412.776 116.502 412.776 116.502 420.213 112.783Z" fill="black"/>
<path d="M63.218 60.722C63.218 68.1593 63.218 71.878 66.9367 71.878C70.6554 71.878 74.3741 64.4407 74.3741 57.0033C74.3741 49.5659 74.3741 42.1285 78.0928 42.1285C81.8115 38.4098 81.8115 38.4098 78.0928 38.4098C74.3741 38.4098 74.3741 30.9724 74.3741 27.2537C74.3741 19.8163 70.6554 16.0976 66.9367 19.8163C63.218 19.8163 59.4993 23.535 59.4993 27.2537C59.4993 34.6911 55.7806 38.4098 44.6245 38.4098C37.1871 38.4098 37.1871 42.1285 37.1871 45.8472C37.1871 45.8472 44.6245 49.5659 52.0619 49.5659C59.4993 49.5659 63.218 49.5659 63.218 60.722Z" fill="black"/>
<path d="M22.3122 45.8468C29.7496 49.5655 29.7496 49.5655 22.3122 42.1281C14.8748 34.6907 0 34.6907 0 38.4094C0 42.1281 3.7187 49.5655 11.1561 57.0029C26.0309 68.159 26.0309 71.8777 18.5935 71.8777C7.43739 71.8777 0 75.5964 0 79.3151C0 86.7525 3.7187 86.7525 18.5935 83.0338C37.187 79.3151 37.187 71.8777 22.3122 57.0029C11.1561 42.1281 11.1561 42.1281 22.3122 45.8468Z" fill="black"/>
<path d="M420.213 27.2522C427.65 1.22132 423.932 -2.49738 409.057 1.22132C401.62 4.94002 401.62 8.65872 401.62 45.8457V86.7514C405.338 94.1887 412.776 75.5953 416.494 64.4392C416.494 57.0018 416.494 38.4083 420.213 27.2522Z" fill="black"/>
<path d="M353.276 53.2836C356.995 53.2836 364.433 45.8462 368.151 42.1275C379.307 30.9715 379.307 30.9715 371.87 27.2528C368.151 23.5341 356.995 23.5341 349.558 23.5341H334.683V49.5649C334.683 60.721 338.402 79.3145 342.12 83.0332C345.839 101.627 353.276 90.4706 349.558 68.1584C345.839 53.2836 345.839 53.2836 353.276 53.2836ZM353.276 34.6902C356.995 34.6902 360.714 34.6902 360.714 34.6902C360.714 34.6902 356.995 38.4088 353.276 38.4088C349.558 38.4088 349.558 38.4088 349.558 34.6902C349.558 34.6902 349.558 34.6902 353.276 34.6902Z" fill="black"/>
<path d="M278.902 30.9715C260.309 30.9715 256.59 45.8463 271.465 64.4398C278.902 71.8772 286.34 71.8772 297.496 64.4398C312.371 53.2837 316.089 42.1276 308.652 27.2528C304.933 23.5341 301.214 19.8154 297.496 19.8154C297.496 19.8154 297.496 23.5341 301.214 30.9715C304.933 42.1276 301.215 53.2837 290.058 57.0024C282.621 60.7211 278.902 60.7211 278.902 57.0024C278.902 53.2837 275.184 49.565 275.184 45.8463C275.184 42.1276 275.184 38.4089 278.902 34.6902C282.621 30.9715 282.621 30.9715 278.902 30.9715Z" fill="black"/>
<path d="M163.623 83.0337C167.341 90.4711 174.779 90.4711 174.779 83.0337C174.779 79.315 174.779 75.5963 182.216 79.315C185.935 79.315 189.654 83.0337 197.091 83.0337C200.81 86.7524 204.528 83.0337 204.528 79.315C204.528 75.5963 197.091 71.8776 193.372 71.8776C182.216 68.1589 182.216 64.4402 189.654 60.7215C193.372 57.0028 189.654 42.128 178.498 34.6906C171.06 27.2532 167.341 27.2532 163.623 30.9719C159.904 34.6906 159.904 38.4093 159.904 38.4093C163.623 38.4093 163.623 49.5654 163.623 57.0028C159.904 68.1589 163.623 79.315 163.623 83.0337ZM178.498 45.8467C178.498 45.8467 182.216 45.8467 182.216 49.5654C182.216 53.2841 178.498 57.0028 178.498 57.0028C174.779 57.0028 174.779 53.2841 174.779 49.5654C174.779 45.8467 174.779 45.8467 178.498 45.8467Z" fill="black"/>
<path d="M208.247 49.5659C208.247 60.7219 211.966 71.878 211.966 71.878C215.685 83.0341 223.122 71.878 223.122 49.5659C223.122 34.6911 223.122 30.9724 226.841 30.9724C230.559 30.9724 234.278 30.9724 234.278 27.2537C234.278 23.535 226.841 19.8163 223.122 19.8163C211.966 16.0976 193.372 19.8163 189.654 27.2537C185.935 30.9724 200.81 34.6911 204.529 30.9724C208.247 30.9724 208.247 38.4098 208.247 49.5659Z" fill="black"/>
<path d="M122.717 19.8156C118.999 16.0969 92.9677 53.2839 89.249 68.1587C85.5303 79.3148 89.249 79.3148 100.405 71.8774C107.842 60.7213 118.999 60.7213 126.436 71.8774C130.155 79.3148 137.592 75.5961 133.873 68.1587C133.873 64.44 130.155 53.2839 126.436 42.1278C126.436 30.9717 122.717 23.5343 122.717 19.8156ZM111.561 53.2839C111.561 53.2839 111.561 49.5652 111.561 45.8465C111.561 38.4091 111.561 34.6904 111.561 34.6904C115.28 34.6904 115.28 38.4091 115.28 42.1278C115.28 45.8465 115.28 53.2839 111.561 53.2839Z" fill="black"/>
</svg>
