<svg width="208" height="176" viewBox="0 0 208 176" fill="none" xmlns="http://www.w3.org/2000/svg">
<path d="M63.6732 12.892C63.9081 12.2242 65.2516 12.321 65.5786 11.9896C65.9055 11.6583 65.742 10.6539 66.1915 10.3225C66.6411 9.9911 73.8591 9.88403 74.5947 10.1491C75.55 10.4907 75.1208 11.7755 75.7747 12.1426C76.3264 12.4536 79.795 12.8615 80.0146 12.6371V10.088H102.476C101.582 14.1717 104.473 12.061 105.03 12.632C105.204 12.8105 104.846 14.5082 105.02 14.6816C105.193 14.8549 106.884 14.498 107.073 14.6714C107.303 14.8855 106.813 18.9795 107.089 19.2395C107.329 19.4689 109.122 18.8316 109.556 20.0909C109.781 20.7333 109.781 31.5366 109.556 32.179C109.02 33.7289 106.103 31.7508 107.068 35.5592C111.002 34.8047 109.137 37.1193 109.617 37.5986C109.791 37.7719 111.492 37.415 111.671 37.5884C111.85 37.7617 111.482 39.9591 111.666 40.1426C111.85 40.3262 114.046 39.954 114.225 40.1375C114.404 40.3211 114.046 42.0035 114.22 42.1819C114.307 42.2737 116.692 42.2737 116.779 42.1819C116.958 41.9933 116.575 40.3516 116.779 40.1426C117.208 39.7195 127.619 40.0356 128.007 39.6328C128.181 39.4492 127.823 37.7719 128.002 37.5884C128.217 37.3589 132.319 37.8484 132.584 37.5731C132.768 37.3844 132.329 35.753 133.085 35.2635C133.657 34.8913 134.98 35.187 135.138 35.029C135.373 34.7945 134.97 33.1936 135.149 32.9999C135.598 32.5104 147.94 33.4689 148.405 32.9846C148.583 32.801 148.165 31.1951 148.895 30.675C150.101 29.8185 155.628 30.9758 157.298 30.4915C157.962 30.2977 157.191 28.7275 158.872 28.4012C161.089 27.9729 159.505 29.946 160.935 30.9605C162.177 31.2307 162.1 29.0538 162.693 28.651C163.249 28.2737 165.814 28.238 166.483 28.4776C167.678 28.9059 166.585 31.2613 169.349 30.4558C168.164 26.734 173.175 29.1812 173.926 28.391C174.145 28.1564 173.563 25.7092 175.223 25.8622C177.021 25.8622 176.138 28.3298 176.786 28.442C177.588 28.5847 184.868 28.6918 185.159 28.391C185.363 28.1768 184.776 25.2351 186.962 25.8724C187.948 26.1579 187.56 28.1411 187.785 28.3604C188.101 28.6663 189.772 28.0035 190.216 29.2424C190.441 29.8695 190.431 32.0108 190.063 32.5206C189.307 33.5709 187.264 32.0465 187.718 34.2795C188.157 36.4514 190.579 34.1113 190.283 36.8083C189.859 37.828 188.03 37.3742 187.79 37.6291C187.56 37.8688 187.902 39.0669 187.504 39.6379C187.166 40.1222 186.155 39.9387 185.833 40.2599C185.511 40.5811 185.675 41.5956 185.22 41.927C184.372 42.549 180.592 41.927 180.592 42.1616V53.3677C180.592 53.4697 178.758 53.1892 178.564 53.383C178.37 53.5767 178.819 55.2082 178.063 55.6976C177.491 56.0698 176.168 55.7741 176.01 55.9321C175.775 56.1667 176.179 57.7879 176 57.9613C175.821 58.1346 174.202 57.737 173.967 57.9715C173.808 58.1295 174.105 59.45 173.732 60.021C173.241 60.7756 171.596 60.3371 171.412 60.5155C171.177 60.7501 171.581 62.3509 171.402 62.5447C171.183 62.7843 168.138 62.147 167.28 62.7588C166.544 63.2788 166.963 64.8848 166.789 65.0684C166.529 65.3437 162.953 64.8542 162.723 65.0836C162.34 65.466 163.556 69.0094 161.85 69.5804C160.144 70.1514 159.934 68.8258 160.169 72.2162C160.971 72.3488 164.598 72.0276 164.767 72.2111C164.935 72.3947 164.583 74.0822 164.756 74.2606C164.93 74.4391 166.631 74.0771 166.81 74.2505C166.989 74.4238 166.621 76.6212 166.805 76.8047C166.989 76.9882 169.185 76.6161 169.364 76.7996C169.543 76.9831 169.18 78.6605 169.359 78.844C169.589 79.0837 175.765 78.5942 176 78.8389C176.184 79.0327 175.811 81.2097 175.995 81.3932C176.179 81.5767 178.38 81.2046 178.554 81.3881C178.728 81.5716 178.375 83.2694 178.544 83.4376C178.722 83.611 180.342 83.2133 180.577 83.4478C180.735 83.6059 180.439 84.9263 180.812 85.4974C181.302 86.2519 182.947 85.8134 183.131 85.9919C183.366 86.2264 182.962 87.8273 183.141 88.021C183.351 88.2505 187.453 87.761 187.718 88.0363C187.866 88.1893 187.606 89.4791 187.974 90.0858C188.428 90.8404 189.695 89.9074 190.053 90.5141C190.778 91.7377 189.945 96.8666 190.283 97.1827C190.472 97.3612 192.147 96.9992 192.336 97.1776C192.566 97.3918 192.076 101.486 192.351 101.746C192.592 101.975 194.385 101.338 194.819 102.597C195.038 103.234 195.054 108.843 194.89 109.663C194.497 111.606 192.781 110.596 192.387 110.989C192.142 111.234 192.576 112.758 191.861 113.268C191.008 113.88 187.968 113.237 187.739 113.482C187.565 113.666 187.917 115.353 187.744 115.527C187.57 115.7 185.358 115.338 185.184 115.516C185.011 115.695 185.363 117.398 185.195 117.566C185.016 117.739 183.397 117.342 183.162 117.576C182.978 117.76 183.422 119.401 182.666 119.891C182.094 120.263 180.771 119.967 180.612 120.125C180.378 120.36 180.781 121.981 180.602 122.154C180.424 122.328 178.804 121.93 178.569 122.165C178.411 122.323 178.707 123.643 178.334 124.214C177.844 124.969 176.199 124.53 176.015 124.709C175.78 124.943 176.184 126.544 176.005 126.738C175.269 127.543 170.023 124.816 171.407 129.282H158.136C159.025 125.198 156.139 127.309 155.582 126.738C155.408 126.559 155.766 124.877 155.587 124.693C155.357 124.454 149.181 124.943 148.946 124.698C148.793 124.54 149.048 122.715 148.946 122.149H141.8C142.464 118.866 140.221 120.574 139.751 120.115C139.603 119.967 139.864 118.127 139.756 117.561C135.935 116.597 137.917 119.508 136.369 120.044C135.68 120.283 125.703 120.314 124.697 120.115C122.735 119.722 123.726 117.897 123.41 117.581C123.175 117.347 121.56 117.744 121.377 117.571C120.912 117.122 122.741 114.762 118.828 115.527V123.934C118.828 124.8 116.391 124.617 116.294 124.714C116.054 124.953 116.457 126.564 116.284 126.738C116.11 126.911 114.485 126.513 114.251 126.748C114.067 126.931 114.511 128.573 113.755 129.063C113.183 129.435 111.86 129.139 111.701 129.297C111.466 129.532 111.87 131.143 111.691 131.326C111.512 131.51 109.827 131.143 109.638 131.316C109.428 131.515 109.857 135.706 109.648 135.905C109.459 136.083 107.783 135.721 107.594 135.899C107.385 136.098 107.85 139.244 107.533 140.162C107.099 141.421 105.291 140.784 105.061 141.008C104.831 141.232 105.224 142.864 105.05 143.037C104.877 143.21 103.252 142.808 103.017 143.047C102.839 143.226 103.263 144.837 102.527 145.362C101.633 145.999 99.6356 145.285 98.711 145.545C98.1491 145.704 98.4965 146.988 97.9243 147.391C97.3522 147.794 96.0445 147.473 95.8708 147.636C95.6001 147.886 96.0854 152 95.8555 152.204C95.6614 152.382 94.0574 151.98 93.8224 152.214C93.664 152.372 93.9603 153.693 93.5874 154.264C93.097 155.018 91.4573 154.585 91.2682 154.763C91.0077 155.013 91.5134 157.629 91.1916 158.511C90.8698 159.393 89.7102 159.097 89.3475 159.469C89.0257 159.79 89.1891 160.805 88.7345 161.136C87.6209 161.952 80.4743 160.932 80.0401 161.391C79.8307 161.61 80.4233 164.547 78.237 163.91C77.2306 163.619 77.5984 161.549 77.4451 161.391C77.0007 160.937 69.8593 161.942 68.7508 161.151C68.0152 160.631 68.4392 159.015 68.2604 158.837C68.0254 158.602 66.4112 159.005 66.2273 158.827C66.0434 158.648 66.4112 156.966 66.2375 156.777C65.9157 156.436 60.5673 157.277 59.561 156.563C58.8254 156.043 59.2494 154.427 59.0706 154.248C58.8356 154.014 57.2112 154.417 57.0375 154.238C56.8638 154.06 57.2622 152.444 57.0273 152.209C56.8434 152.025 55.1985 152.469 54.7081 151.714C54.3352 151.143 54.6315 149.823 54.4731 149.665C54.2381 149.43 52.6341 149.833 52.44 149.655C51.5154 148.814 53.1552 127.798 52.44 124.688C55.7553 125.336 54.0083 123.154 54.4833 122.649C54.6468 122.476 58.2788 122.781 59.0808 122.649V113.482L38.6578 112.977V110.933H24.8755C24.6967 110.933 25.3557 114.135 23.0927 113.477C22.1068 113.191 22.4951 111.213 22.2703 110.989C22.0149 110.734 20.5029 111.173 19.9869 110.464C19.3739 109.618 20.0175 106.579 19.7723 106.35C19.5833 106.176 17.8874 106.528 17.7188 106.36C17.5502 106.191 17.9436 104.565 17.7086 104.331C17.5503 104.173 16.2272 104.468 15.6551 104.096C14.8991 103.607 15.3384 101.965 15.1596 101.781C14.9246 101.547 13.3205 101.95 13.1264 101.771C12.9579 101.618 12.9579 97.3357 13.1264 97.1827C13.3205 97.0043 14.8735 97.4173 15.1494 97.1623C16.4213 95.9846 15.0931 81.9234 15.6806 81.3932C15.8747 81.2148 17.4788 81.6175 17.7137 81.383C17.9487 81.1485 17.305 79.3488 18.5617 78.9154C19.3841 78.635 22.1528 79.0378 22.3265 78.8542C22.5002 78.6707 22.1477 76.9831 22.3214 76.8098C22.4951 76.6365 24.6968 76.9984 24.8806 76.8149C25.0645 76.6314 24.6916 74.4391 24.8755 74.2606C25.0594 74.0822 26.7554 74.4442 26.9291 74.2708C27.1028 74.0975 26.7452 72.3997 26.9189 72.2213C27.4757 71.6503 30.367 73.761 29.473 69.6772H43.2553C43.3421 69.2031 43.1071 67.7858 43.2553 67.6328C43.4749 67.4034 48.103 67.7654 49.5333 67.1383C50.223 66.8375 49.7275 65.5068 50.7134 65.1499C51.592 64.8338 54.2279 65.3284 54.468 65.0735C54.6263 64.9052 54.2943 63.6153 54.7183 63.0239C55.0605 62.5396 56.072 62.7231 56.3938 62.407C56.7156 62.0909 56.5266 61.0764 57.017 60.7399C57.5892 60.3422 58.8151 60.6787 59.0348 60.4595C59.2544 60.2402 58.9224 59.0064 59.3106 58.4405C59.6989 57.8746 60.8483 58.1091 61.0526 57.895C61.2672 57.6707 61.2876 52.1033 61.1599 51.6496C60.9913 51.048 59.515 51.5476 59.1421 50.5177C58.7488 49.4165 59.3771 44.4864 59.0859 44.206C58.9378 44.0632 57.5177 44.2978 57.0375 44.206V28.4165C60.3374 29.069 58.6057 26.8768 59.0757 26.372C59.2392 26.1987 62.8712 26.5046 63.6732 26.372C64.327 23.2213 62.7945 15.3851 63.6732 12.8717V12.892ZM187.728 106.37H185.169V108.404H187.728V106.37Z" fill="#FFC74E" fill-opacity="0.75"/>
<path d="M55.5847 113.046C55.4913 113.133 55.7073 114.31 55.3161 114.794C54.5687 115.72 53.0156 115.143 52.7237 115.435C52.2799 115.878 53.4302 117.847 51.2114 118.29C48.4029 118.849 43.9829 118.96 44.1697 115.341H13.901C13.2645 115.452 14.0469 119.013 11.5362 118.278C10.4093 117.952 10.853 115.691 10.5961 115.435C10.3042 115.143 8.57589 115.644 7.98616 114.835C7.2855 113.867 8.02117 110.394 7.7409 110.132C7.52487 109.934 5.58635 110.336 5.39366 110.144C5.20098 109.951 5.65063 108.092 5.38204 107.824C5.20104 107.644 3.68876 107.982 3.0348 107.556C2.17065 106.997 2.67281 105.121 2.46845 104.911C2.19986 104.643 0.36639 105.103 0.144512 104.899C-0.0481708 104.724 -0.0481708 99.8296 0.144512 99.6548C0.36639 99.4508 2.19986 99.9112 2.46845 99.6431C2.67865 99.4333 2.17065 97.557 3.0348 96.9976C3.68876 96.5722 5.20104 96.9102 5.38204 96.7295C5.65063 96.4615 5.1893 94.6084 5.39366 94.4103C5.59802 94.2122 7.44901 94.6667 7.7176 94.3987C7.8986 94.218 7.55992 92.7088 7.98616 92.0561C8.5467 91.1937 10.421 91.689 10.637 91.4851C10.9348 91.1995 10.3567 88.2102 10.7246 87.2021C11.0924 86.194 12.4179 86.532 12.8325 86.1066C13.2003 85.7395 13.0134 84.5799 13.5331 84.2011C14.7242 83.3329 20.6916 84.3817 21.1353 83.9156C21.3397 83.7058 20.8609 81.8702 21.6958 81.2759C22.6826 80.5766 26.1451 81.3108 26.4079 81.0311C26.6064 80.8155 26.2035 78.8809 26.3962 78.6886C26.5889 78.4963 28.4515 78.945 28.72 78.677C28.9302 78.4672 28.4222 76.5908 29.2864 76.0314C29.9403 75.606 31.4526 75.944 31.6336 75.7634C31.9022 75.4953 31.441 73.6423 31.6453 73.4442C31.8497 73.246 33.7006 73.7006 33.9692 73.4325C34.1794 73.2227 33.6714 71.3464 34.5355 70.787C35.1895 70.3616 36.7018 70.6996 36.8828 70.5189C37.1514 70.2509 36.6901 68.3978 36.8945 68.1997C37.0988 68.0016 38.9497 68.4561 39.2183 68.188C39.4869 67.92 38.7512 65.8572 40.1876 65.3677C41.2853 64.9948 43.9654 65.6357 44.415 65.2104C44.6602 64.9831 44.4149 63.6545 45.0397 63.2233C45.6644 62.7921 47.095 63.1592 47.3519 62.9086C47.6088 62.6581 47.2176 61.2596 47.673 60.6069C48.0584 60.0533 49.2203 60.2631 49.5882 59.896C49.956 59.5289 49.74 58.3751 50.3005 57.9905C50.9545 57.536 52.3559 57.9206 52.6069 57.67C52.858 57.4194 52.4784 56.0093 52.9222 55.3625C53.3659 54.7156 54.6797 54.9837 54.9133 54.7389C55.3512 54.2786 55.468 42.4378 55.0009 42.0008C54.5104 41.5404 52.1281 43.1371 52.6419 40.5323C52.9923 38.755 54.3118 39.4776 54.8373 38.9357C55.2052 38.5627 54.995 37.4148 55.5497 37.0302C56.2036 36.5757 57.605 36.9603 57.8561 36.7097C58.1071 36.4591 57.7276 35.049 58.1713 34.408C58.8136 33.4814 61.0382 34.7226 60.25 31.5293H57.9086C58.6151 27.4969 56.8868 4.72438 58.183 2.95874C58.5625 2.44013 59.7303 2.6266 60.0923 2.25949C60.4544 1.89237 60.2733 0.732766 60.793 0.354C61.4411 -0.118 70.1469 -0.118 70.795 0.354C71.3146 0.732766 71.1278 1.8982 71.4957 2.25949C71.8635 2.62077 73.0197 2.41099 73.405 2.9704C73.8605 3.62304 73.475 5.02156 73.7261 5.27213C73.9772 5.5227 75.3786 5.13811 76.0325 5.59263C76.5872 5.97722 76.377 7.13683 76.7448 7.49811C77.1127 7.8594 78.263 7.65544 78.66 8.2032C79.1388 8.87915 78.7651 10.3476 78.9461 10.5399C79.3782 11.0002 85.363 9.95717 86.5541 10.8254C87.0738 11.2042 86.887 12.3638 87.2548 12.7309C87.6752 13.1505 89.0007 12.7892 89.3685 13.8206C89.7772 14.9744 88.9948 17.2062 89.6838 18.1677C90.2794 19.0009 92.1303 18.5231 92.3346 18.7271C92.6091 18.9951 92.1478 20.8248 92.3463 21.0463C92.6032 21.3318 99.5924 20.7258 99.9135 21.0638C100.077 21.2386 99.7909 22.7128 100.205 23.4063C100.708 24.2454 102.564 23.08 102.85 24.2454C103.487 26.8268 100.141 26.0809 99.9369 26.2791C99.8143 26.4014 99.8727 28.2137 100.188 28.6449C100.801 29.4782 102.634 29.0004 102.839 29.2043C103.107 29.4724 102.652 31.3196 102.85 31.5235C103.049 31.7275 104.906 31.2671 105.174 31.5352C105.385 31.745 104.877 33.6213 105.741 34.1807C106.395 34.6061 107.907 34.2681 108.088 34.4488C108.357 34.7168 107.895 36.564 108.1 36.768C108.304 36.9719 110.248 36.5582 110.447 36.7563C110.645 36.9544 110.237 38.8832 110.435 39.0988C110.692 39.3727 117.675 39.2678 117.95 39.0114C118.195 38.7783 117.95 37.4556 118.575 37.0244C119.199 36.5932 120.607 36.9661 120.881 36.7039C121.132 36.4591 120.694 34.1865 121.821 33.8602C124.303 33.1376 123.666 36.5116 123.9 36.733C123.999 36.8262 126.06 36.8262 126.153 36.733C126.358 36.5349 125.902 34.6877 126.732 34.0991C127.718 33.3999 131.181 34.1341 131.443 33.8544C131.648 33.6388 131.233 31.7275 131.438 31.5177C131.683 31.2555 136.372 31.8149 136.669 31.5002C136.932 31.2263 136.202 29.181 137.644 28.6857C139.711 27.9748 151.944 29.1519 152.452 28.6158C152.65 28.4002 152.247 26.4655 152.44 26.2732C152.633 26.0809 154.495 26.5355 154.764 26.2616C154.968 26.0576 154.484 24.2104 155.324 23.616C156.691 22.6429 163.009 23.9482 164.93 23.4063C165.613 23.214 165.081 21.5066 166.214 21.0929C169.139 20.0265 167.516 22.5613 169.087 23.9482C170.511 24.2512 170.412 21.7747 171.095 21.3085C171.732 20.8773 174.663 20.8365 175.428 21.1104C176.794 21.5999 175.545 24.292 178.703 23.3713C177.36 19.1117 183.048 21.9203 183.935 21.0113C184.11 20.8307 183.69 18.4648 184.84 18.1327C187.339 17.4101 186.662 20.7666 186.901 21.0113C187.228 21.3551 195.554 21.2327 196.471 21.0696C197.213 20.9356 196.208 18.1152 198.258 18.121C200.307 18.1269 199.42 20.6151 199.776 20.9763C200.062 21.2619 201.796 20.7666 202.38 21.5765C202.83 22.2059 202.83 25.1078 202.38 25.7371C201.516 26.9375 199.18 25.1952 199.7 27.7475C200.22 30.2998 202.97 27.5552 202.631 30.6378C202.146 31.8032 200.056 31.2846 199.782 31.576C199.519 31.8498 199.91 33.2192 199.455 33.8719C199.069 34.4254 197.913 34.2157 197.545 34.5828C197.125 34.9965 197.499 36.3076 196.448 36.6864C195.152 37.1584 189.57 36.4009 189.213 36.7505C188.898 38.4404 189.786 43.2245 188.951 44.3608C188.571 44.8794 187.403 44.6929 187.041 45.06C186.679 45.4271 186.889 46.5809 186.329 46.9655C185.675 47.42 184.274 47.0354 184.023 47.286C183.772 47.5366 184.151 48.9467 183.707 49.5877C183.065 50.5143 180.84 49.2731 181.629 52.4664C183.631 51.8487 185.033 53.1773 183.701 54.838C183.281 55.3566 182.16 55.1702 181.792 55.5373C181.372 55.9568 181.74 57.2679 180.694 57.6409C179.649 58.0138 176.683 57.4311 176.403 57.7283C176.198 57.9439 176.695 59.8144 175.831 60.3738C175.177 60.7992 173.664 60.4612 173.483 60.6419C173.215 60.9099 173.676 62.7513 173.472 62.9611C173.267 63.1709 171.341 62.7513 171.125 62.9494C170.844 63.2117 171.58 66.6846 170.879 67.652C170.295 68.4678 168.55 67.9666 168.269 68.2522C167.989 68.5377 168.485 70.2684 167.668 70.8569C166.699 71.5562 163.219 70.8219 162.956 71.1016C162.752 71.3172 163.166 73.2402 162.968 73.4442C162.769 73.6481 160.831 73.2402 160.62 73.4442C160.539 73.5257 160.544 75.6818 160.62 75.7692C160.901 76.0606 164.351 75.3205 165.332 76.0198C166.237 76.6666 165.478 78.5895 166.202 78.7119C168.077 79.0382 178.26 78.2516 178.692 78.7003C178.902 78.9159 178.4 80.7806 179.264 81.34C179.918 81.7654 181.43 81.4274 181.611 81.608C181.88 81.8761 181.418 83.7233 181.623 83.9272C181.827 84.1312 183.772 83.7174 183.97 83.9156C184.169 84.1137 183.76 86.0425 183.958 86.2581C184.326 86.6485 190.44 85.687 191.59 86.5028C192.431 87.0972 191.946 88.9502 192.15 89.1484C192.431 89.4164 194.153 88.9095 194.445 89.1833C194.603 89.329 194.241 91.8347 195.35 92.0736C196.775 92.3824 196.681 89.8884 197.359 89.4339C200.22 87.5168 199.466 90.7042 199.986 91.5317C200.564 92.4582 202.146 91.048 202.555 92.4349C202.964 93.8218 202.351 99.3809 202.631 99.6431C202.847 99.8471 204.762 99.4333 204.978 99.6373C205.241 99.882 204.681 104.561 204.996 104.858C205.27 105.121 207.32 104.392 207.816 105.832C208.061 106.537 208.061 113.716 207.816 114.409C207.314 115.831 205.381 115.073 205.031 115.417C204.751 115.697 205.247 117.439 204.429 118.022C203.454 118.721 199.98 117.987 199.718 118.267C199.513 118.482 199.928 120.394 199.723 120.603C199.361 120.982 189.616 120.213 189.237 120.621C189.056 120.819 189.429 122.282 188.951 122.958C188.559 123.505 187.403 123.301 187.041 123.669C186.154 124.548 187.725 125.731 184.274 125.883C179.988 126.069 181.576 123.727 180.7 123.47L155.751 123.435C154.396 123.197 155.027 120.883 154.776 120.621C154.495 120.324 151.494 120.895 150.484 120.533C149.124 120.05 150.361 117.346 147.208 118.267C147.086 118.82 147.378 120.429 147.208 120.603C146.765 121.07 134.848 120.714 134.322 120.335C133.411 119.677 134.649 117.486 131.449 118.261C131.327 118.814 131.619 120.423 131.449 120.598C131.268 120.79 126.369 120.79 126.188 120.598C126.019 120.417 126.317 118.809 126.188 118.261C122.989 117.474 124.232 119.694 123.304 120.335C122.662 120.778 121.249 120.399 120.992 120.65C120.735 120.901 121.126 122.299 120.671 122.952C120.285 123.505 119.123 123.296 118.761 123.663C118.399 124.03 118.604 125.178 118.049 125.568C117.372 126.046 115.9 125.673 115.708 125.854C115.305 126.227 116.099 131.739 115.62 133.044C115.241 134.087 113.927 133.715 113.512 134.14C113.15 134.513 113.355 135.655 112.8 136.045C112.123 136.523 110.657 136.15 110.459 136.331C110.149 136.622 110.704 141.307 110.441 141.552C110.225 141.756 108.31 141.342 108.094 141.546C107.703 141.913 108.666 148.014 107.849 149.162C107.253 150.001 105.402 149.518 105.198 149.722C104.929 149.99 105.39 151.843 105.186 152.041C104.982 152.239 103.131 151.779 102.862 152.053C102.658 152.257 103.142 154.098 102.302 154.698C101.28 155.427 98.9968 154.611 97.9399 154.908C97.2977 155.089 97.6948 156.557 97.0408 157.017C96.3868 157.478 94.8921 157.111 94.6936 157.297C94.3841 157.583 94.9388 162.285 94.676 162.518C94.4542 162.722 92.6208 162.262 92.3522 162.53C92.1712 162.711 92.5098 164.22 92.0836 164.872C91.5231 165.735 89.6488 165.24 89.4327 165.443C89.1349 165.729 89.713 168.718 89.3451 169.726C88.9773 170.735 87.6519 170.397 87.2373 170.822C86.8695 171.189 87.0563 172.349 86.5367 172.727C85.2579 173.66 77.1127 172.494 76.5989 173.019C76.4237 173.199 76.8441 175.565 75.6938 175.897C73.224 176.614 73.9013 173.351 73.5977 173.054C73.3349 172.792 71.9511 173.182 71.2971 172.727C70.7366 172.343 70.9526 171.183 70.5848 170.822C70.2169 170.461 69.0608 170.67 68.6696 170.111C68.2142 169.458 68.5996 168.06 68.3485 167.809C68.0975 167.559 66.6961 167.943 66.0421 167.489C65.4874 167.104 65.6977 165.95 65.3298 165.583C64.962 165.216 63.8 165.403 63.4205 164.884C62.4921 163.614 63.6482 155.456 63.1344 154.966C62.8599 154.704 60.8164 155.432 60.3201 153.993C58.4458 148.591 62.7724 149.448 63.1344 149.098C63.4964 148.749 63.3505 140.474 63.187 139.548C63.0585 138.825 61.1317 139.583 60.4894 138.679C60.0632 138.085 60.0573 135.096 60.3201 134.35C60.8164 132.91 62.8599 133.639 63.1344 133.377C63.5898 132.945 62.6848 125.428 63.2278 123.861C63.6716 122.585 65.4875 123.045 65.4875 122.917V113.016C64.0511 113.273 55.9234 112.673 55.5672 113.016L55.5847 113.046ZM71.338 137.205V157.291C75.5829 155.922 72.8036 161.679 73.6911 162.512C73.8896 162.699 75.3786 162.326 76.0384 162.792C76.6982 163.258 76.2894 164.715 76.9433 164.902C77.2878 165.001 80.5518 165.001 80.908 164.902C81.5911 164.709 81.0306 163.019 82.2042 162.6C83.191 162.25 86.2797 162.769 86.5191 162.536C86.8052 162.25 86.0637 158.818 86.7644 157.833C87.36 156.994 89.1992 157.478 89.4093 157.274C89.7246 156.977 89.1641 152.286 89.4269 152.053C89.6488 151.849 91.4763 152.309 91.7507 152.041C91.9551 151.837 91.4705 149.996 92.3113 149.395C93.3331 148.667 95.6161 149.483 96.673 149.186C97.3152 149.005 96.9181 147.537 97.5721 147.076C98.2261 146.616 99.7208 146.983 99.9193 146.797C100.229 146.505 99.6741 141.82 99.9369 141.575C100.153 141.371 102.068 141.785 102.284 141.581C102.564 141.319 101.829 137.858 102.529 136.879C103.125 136.04 104.964 136.523 105.174 136.319C105.49 136.016 104.929 131.343 105.192 131.098C105.408 130.894 107.323 131.308 107.539 131.104C107.819 130.842 107.084 127.38 107.784 126.401C108.38 125.562 110.219 126.046 110.429 125.842C111.329 124.985 108.526 119.275 112.788 120.621C113.693 117.049 109.641 119.193 110.447 115.382C114.703 116.355 111.749 112.463 113.034 110.68C113.617 109.864 115.363 110.365 115.643 110.08C115.924 109.794 115.427 108.063 116.245 107.475C116.87 107.026 122.703 107.026 123.333 107.475C124.174 108.069 123.689 109.922 123.894 110.12C124.174 110.388 125.897 109.881 126.188 110.155C126.346 110.301 125.984 112.807 127.094 113.046C128.652 113.384 128.034 110.528 129.99 110.126C135.256 109.054 134.077 112.463 134.38 112.463H147.22C147.319 111.921 147.051 110.301 147.22 110.126C147.483 109.852 154.414 110.074 154.852 110.388C155.476 110.843 155.097 112.323 155.745 112.498C158.191 113.174 160.568 110.761 160.977 115.4H188.91C189.505 115.301 189.085 112.457 190.113 112.457H199.741C200.938 108.815 196.816 111.041 196.816 108.675C196.816 106.694 199.437 107.457 199.706 107.178C199.805 107.079 199.799 105.016 199.706 104.928C199.519 104.742 198.036 105.097 197.37 104.625C196.816 104.235 197.026 103.081 196.658 102.72C196.29 102.359 195.134 102.568 194.749 102.009C194.293 101.356 194.679 99.9694 194.427 99.7072C194.153 99.4275 192.401 99.9228 191.818 99.1128C191.169 98.2096 191.806 94.4103 191.566 94.4103H178.727C178.61 94.4103 178.931 92.3125 178.709 92.0969C178.522 91.9163 177.016 92.2543 176.362 91.8289C175.498 91.2695 176 89.4048 175.79 89.1892C175.34 88.723 167.791 89.6612 166.249 89.1018C165.198 88.723 165.578 87.4119 165.151 86.9981C164.778 86.6369 163.633 86.8408 163.242 86.2872C162.763 85.6113 163.137 84.1487 162.956 83.9505C162.775 83.7524 157.923 83.7641 157.748 83.9505C157.543 84.1661 158.022 85.9959 157.187 86.5902C156.551 87.0389 153.649 87.0448 153.018 86.5902C152.201 86.0075 152.703 84.2594 152.423 83.9855C152.16 83.7291 150.77 84.1195 150.116 83.665C149.562 83.2746 149.772 82.1208 149.404 81.7595C149.036 81.3982 147.88 81.608 147.495 81.0486C147.039 80.396 147.425 79.0091 147.173 78.7469C146.677 78.2399 143.302 79.7258 144.307 74.9068C144.774 72.6517 146.613 73.9278 147.168 73.3917C147.425 73.1411 146.981 70.8744 148.108 70.5481C150.589 69.8255 149.953 73.1994 150.186 73.4208C150.286 73.5199 152.358 73.5141 152.446 73.4208C152.633 73.2344 152.277 71.7543 152.75 71.09C153.141 70.5364 154.297 70.7462 154.659 70.3791C155.021 70.012 154.811 68.8582 155.371 68.4736C156.025 68.0191 157.415 68.4037 157.678 68.1531C157.958 67.8792 157.462 66.1311 158.273 65.5483C159.248 64.8491 162.722 65.5833 162.985 65.3036C163.189 65.088 162.775 63.165 162.973 62.9611C163.172 62.7571 165.105 63.1709 165.321 62.9727C165.601 62.7105 164.865 59.2375 165.566 58.2702C166.15 57.4544 167.896 57.9555 168.176 57.67C168.456 57.3845 167.96 55.6538 168.777 55.0653C169.752 54.366 173.203 55.1061 173.489 54.8205C173.775 54.535 173.011 51.1378 173.752 50.118C174.132 49.5994 175.299 49.7859 175.661 49.4187C176.023 49.0516 175.819 47.9037 176.374 47.5133C177.051 47.0354 178.517 47.4084 178.715 47.2277C179.025 46.9364 178.47 42.2513 178.733 42.0066C178.949 41.8026 180.864 42.2164 181.08 42.0124C181.36 41.7502 180.624 38.2772 181.325 37.3099C181.915 36.4941 183.661 36.9952 183.935 36.7155C184.192 36.4533 183.807 35.0548 184.25 34.4138C184.694 33.7728 186.008 34.035 186.241 33.7903C186.399 33.6213 186.487 29.3616 186.323 29.2043C185.342 28.272 183.065 29.5073 183.988 31.541C180.169 32.3451 182.323 28.3011 178.738 29.2043C178.616 29.7579 178.908 31.3662 178.738 31.541C178.569 31.7158 174.429 31.6575 173.822 31.5468C173.104 31.4128 173.641 29.8336 173.483 29.1985C170.33 28.272 171.568 30.9758 170.208 31.4652C169.192 31.8265 166.214 31.2555 165.922 31.5585C165.747 31.7333 166.173 34.1108 165.017 34.4429C162.518 35.1655 163.195 31.809 162.956 31.5643C162.775 31.3778 157.929 31.372 157.748 31.5643C157.543 31.7799 158.022 33.6096 157.187 34.204C156.2 34.9033 152.738 34.1691 152.475 34.4488C152.271 34.6644 152.685 36.5757 152.481 36.7854C151.938 37.3565 137.282 36.226 136.745 36.8029C136.564 37.0011 136.938 38.4637 136.459 39.1396C136.068 39.6874 134.912 39.4834 134.55 39.8505C134.188 40.2176 134.369 41.3773 133.849 41.756C132.81 42.5136 129.505 41.6803 129.161 42.0416C128.962 42.2513 129.441 44.0869 128.6 44.6813C127.45 45.4971 121.342 44.5356 120.969 44.926C120.764 45.1416 121.179 47.0529 120.974 47.2627C120.7 47.5541 113.734 46.9422 113.407 47.2802C113.174 47.5249 113.845 50.8872 111.346 50.1588C110.213 49.8325 110.657 47.5599 110.406 47.3151C110.132 47.0529 108.742 47.4375 108.1 46.9946C107.171 46.3537 108.415 44.1335 105.215 44.9202C105.91 47.6007 103.866 48.3815 102.465 46.208C101.216 44.2792 100.626 44.926 100.229 44.3841C99.4698 43.3468 100.299 40.0428 99.9427 39.7049C99.7267 39.5009 97.8524 39.9962 97.2918 39.1338C96.8656 38.4812 97.2043 36.9719 97.0233 36.7913C96.7547 36.5232 94.9213 36.9836 94.6994 36.7796C94.4191 36.5232 95.0147 29.5423 94.6819 29.2276C94.495 29.047 92.9944 29.3849 92.3405 28.9596C91.488 28.406 91.9609 26.5296 91.7507 26.3257C91.6573 26.2383 89.5904 26.2325 89.4911 26.3257C89.2575 26.5529 89.8999 29.9152 87.4125 29.1985C86.2622 28.8663 86.6885 26.483 86.5133 26.314C86.2272 26.0343 84.4171 26.5005 84.1953 26.2965C83.9384 26.0635 84.4872 21.3609 84.1777 21.0754C83.9792 20.8948 82.5078 21.2677 81.8363 20.7899C81.2816 20.3995 81.4919 19.2457 81.124 18.8844C80.7562 18.5231 79.6 18.7329 79.2147 18.1735C78.7592 17.5208 79.1446 16.1223 78.8935 15.8717C78.6424 15.6212 77.2411 16.0058 76.5872 15.5513C76.0325 15.1667 76.2427 14.0071 75.8749 13.6458C75.507 13.2845 74.3567 13.4884 73.9597 12.9407C73.4809 12.2647 73.8546 10.8021 73.6736 10.604C72.8445 9.71243 67.0757 12.492 68.442 8.24981C65.6919 7.11934 65.4875 10.5341 66.0714 12.5619C66.3224 13.436 68.6697 11.851 68.4887 16.1281C68.331 19.7643 66.3341 18.1968 66.0714 19.0883C65.9429 19.5312 65.9429 27.8349 66.0714 28.2778C66.2348 28.843 69.4871 28.1146 68.4536 33.0094C68.039 34.9674 66.2757 34.0583 66.0714 34.8042C65.7794 35.8589 66.591 38.1374 65.8612 39.1513C65.213 40.0545 63.2862 39.297 63.1578 40.0195C62.9709 41.0917 63.0059 48.3757 63.2745 49.2148C63.7533 50.7124 65.3999 49.3838 65.8378 50.118C66.2757 50.8522 66.3399 54.1854 65.8553 54.8671C64.9503 56.1433 62.6148 54.0164 63.1753 57.4486C63.2745 58.0721 65.2306 57.402 65.8553 58.276C66.3049 58.9112 66.3107 61.8073 65.8553 62.4366C65.2714 63.2524 63.5198 62.7513 63.2454 63.031C62.9884 63.2932 63.3796 64.6801 62.9242 65.3327C62.533 65.8863 61.3769 65.6766 61.009 66.0437C60.6412 66.4108 60.8572 67.5645 60.2967 67.9491C59.6427 68.4037 58.2648 68.0132 57.9962 68.2755C57.7451 68.5202 58.1831 70.7928 57.0562 71.1191C54.5571 71.8475 55.2286 68.4852 54.995 68.2405C54.849 68.0832 51.2581 68.0832 50.6801 68.1822C49.956 68.3046 50.7151 70.2276 49.8101 70.8744C48.7591 71.6261 45.7053 70.7112 45.174 71.2065C44.8879 71.4746 45.2966 72.978 44.158 73.3859C43.1479 73.7472 40.1467 73.1819 39.8664 73.4733C39.6621 73.6889 40.1584 75.5594 39.2942 76.1188C38.6403 76.5442 37.128 76.2062 36.947 76.3869C36.6784 76.6549 37.1397 78.508 36.9353 78.7061C36.731 78.9042 34.88 78.4497 34.6115 78.7178C34.4013 78.9275 34.9093 80.8039 34.0451 81.3633C33.3911 81.7887 31.8789 81.4507 31.6979 81.6313C31.4293 81.8994 31.8905 83.7524 31.6862 83.9505C31.4818 84.1487 29.6309 83.6941 29.3623 83.9622C29.1813 84.1428 29.52 85.6521 29.0937 86.3047C28.5332 87.1671 26.6531 86.666 26.4429 86.8699C26.1743 87.138 26.6355 88.9677 26.4312 89.1892C26.1918 89.4514 21.4973 88.892 21.1996 89.2066C20.9952 89.4223 21.474 91.252 20.639 91.8464C19.6523 92.5514 16.2131 91.8056 15.927 92.0911C15.6409 92.3766 16.4058 95.7739 15.6643 96.7936C15.2848 97.3122 14.1228 97.1258 13.755 97.4929C13.3346 97.9124 13.7024 99.2235 12.6573 99.5965C10.3567 100.424 7.55992 97.9591 8.34233 101.991C14.5724 100.704 12.8908 104.165 13.6149 104.888C13.8834 105.156 15.7285 104.695 15.9387 104.899C16.1489 105.103 15.7285 107.026 15.927 107.242C16.1723 107.504 22.7585 107.393 23.1614 107.277C23.7278 107.114 22.9979 103.868 27.9026 104.899C29.8644 105.313 28.9477 107.055 29.7068 107.277C32.1533 107.982 43.7844 106.222 44.8529 107.795C45.6878 109.025 43.9128 110.697 47.1534 110.161C47.7372 110.062 47.2176 108.477 47.7081 107.789C48.1051 107.236 49.2554 107.446 49.6174 107.079C49.9794 106.711 49.7692 105.558 50.3297 105.173C50.9837 104.719 52.3616 105.109 52.6302 104.847C52.8813 104.602 52.4434 102.329 53.5703 102.003C56.0693 101.275 55.3979 104.637 55.6314 104.882C55.8825 105.144 62.0892 105.074 62.8658 104.94C63.5898 104.812 62.8308 102.889 63.7358 102.248C64.9503 101.385 68.9499 102.463 70.4271 102.038C71.0752 101.852 70.7074 100.412 71.3263 99.9286C73.9655 97.8658 73.551 101.362 73.9714 102.032C74.5494 102.959 76.1318 101.549 76.5405 102.935C76.8967 104.159 76.8382 112.276 76.0617 112.801C75.4252 113.232 73.913 112.9 73.7261 113.075C73.259 113.518 74.1932 121.046 73.6327 122.59C73.2181 123.744 71.5015 123.261 71.3322 123.849C70.2812 127.456 74.9464 124.304 73.6502 127.841C73.2473 128.936 71.7117 128.563 71.4548 128.843C70.9585 129.379 71.8752 132.421 71.122 133.47C70.5323 134.297 68.6813 133.843 68.4828 134.047C68.3894 134.14 68.3894 136.203 68.4828 136.296C68.6638 136.482 70.9936 136.063 71.3673 137.211L71.338 137.205Z" fill="black"/>
</svg>
