<svg width="286" height="168" viewBox="0 0 286 168" fill="none" xmlns="http://www.w3.org/2000/svg">
<path d="M228.493 163.623C235.93 167.341 247.086 167.341 247.086 167.341C258.242 167.341 265.68 152.467 265.68 130.154C265.68 107.842 265.68 107.842 273.117 107.842C280.555 107.842 284.273 104.124 284.273 96.6862C287.992 85.5301 284.273 81.8114 273.117 89.2488C269.399 92.9675 261.961 92.9675 261.961 92.9675C258.242 92.9675 258.242 78.0927 254.524 66.9366C250.805 48.3432 247.086 40.9058 243.368 40.9058C239.649 40.9058 239.649 44.6245 239.649 55.7805C243.368 63.2179 239.649 70.6553 235.93 70.6553C228.493 74.374 221.055 66.9366 224.774 59.4992C228.493 55.7806 232.212 52.0619 228.493 52.0619C213.618 48.3432 213.618 48.3432 213.618 59.4992C213.618 74.374 228.493 85.5301 239.649 81.8114C243.368 81.8114 243.368 81.8114 247.086 89.2488C247.086 92.9675 247.086 96.6862 247.086 96.6862C239.649 100.405 195.025 111.561 183.868 115.28C176.431 115.28 172.712 118.998 172.712 122.717C172.712 122.717 168.994 126.436 165.275 126.436C157.838 126.436 157.838 133.873 165.275 141.311C168.994 145.029 176.431 152.467 183.868 152.467C195.025 159.904 198.743 159.904 228.493 163.623ZM176.431 133.873C176.431 130.154 195.025 122.717 228.493 115.28C250.805 107.842 250.805 107.842 250.805 133.873L254.524 159.904L239.649 156.185C213.618 156.185 176.431 141.311 176.431 133.873Z" fill="black"/>
<path d="M157.838 52.0618C150.4 44.6244 146.682 40.9057 135.525 44.6244C128.088 44.6244 124.369 44.6244 124.369 40.9057C124.369 37.187 105.776 33.4683 98.3385 33.4683C94.6198 37.187 94.6198 29.7496 90.9011 18.5935C87.1824 0 87.1824 0 79.745 0C76.0263 0 72.3076 0 76.0263 7.43739C76.0263 11.1561 79.745 18.5935 79.745 26.0309L83.4637 40.9057H64.8702C49.9954 40.9057 46.2767 40.9057 46.2767 44.6244C46.2767 48.3431 46.2767 52.0618 53.7141 52.0618C61.1515 52.0618 68.5889 52.0618 72.3076 55.7805C76.0263 63.2178 79.745 63.2178 79.745 55.7805C79.745 44.6244 87.1824 52.0618 87.1824 63.2178C90.9011 70.6552 87.1824 74.3739 83.4637 70.6552C83.4637 63.2178 79.745 66.9365 83.4637 74.3739C83.4637 78.0926 87.1824 85.53 87.1824 92.9674C87.1824 100.405 90.9011 107.842 90.9011 107.842C90.9011 111.561 94.6198 111.561 98.3385 111.561C98.3385 111.561 98.3385 100.405 98.3385 78.0926C94.6198 48.3431 94.6198 48.3431 102.057 44.6244C109.495 44.6244 109.495 44.6244 109.495 63.2178C109.495 96.6861 139.244 111.561 157.838 85.53C168.994 66.9365 168.994 66.9365 157.838 52.0618ZM150.4 81.8113C139.244 89.2487 135.525 92.9674 131.807 85.53C124.369 78.0926 124.369 55.7805 128.088 55.7805H139.244C142.963 52.0618 146.682 52.0618 150.4 55.7805C157.838 63.2178 157.838 74.3739 150.4 81.8113Z" fill="black"/>
<path d="M49.9958 70.6548C42.5584 70.6548 35.121 66.9361 31.4023 66.9361H27.6836C20.2462 63.2174 23.9649 52.0613 31.4023 48.3426C42.5584 44.6239 42.5584 37.1865 35.121 37.1865C31.4023 37.1865 31.4023 37.1865 31.4023 37.1865C31.4023 40.9052 23.9649 44.6239 16.5275 48.3426C-5.78464 63.2174 1.65276 74.3735 31.4023 78.0922C31.4023 78.0922 35.121 78.0922 35.121 81.8109C35.121 81.8109 35.121 85.5296 35.121 89.2483H31.4023C27.6836 89.2483 20.2462 89.2483 12.8088 92.967C5.37145 96.6857 1.65275 100.404 1.65275 100.404C-2.06594 100.404 1.65275 104.123 1.65275 107.842C5.37145 115.279 5.37145 115.279 20.2462 107.842C27.6836 100.404 35.121 100.404 35.121 100.404C42.5584 100.404 46.2771 96.6857 57.4332 85.5296C64.8706 78.0922 64.8706 74.3735 49.9958 70.6548Z" fill="black"/>
<path d="M198.744 52.0613C206.181 52.0613 209.9 48.3426 209.9 44.6239C209.9 37.1866 206.181 37.1866 195.025 44.6239C187.588 48.3426 187.588 48.3426 180.15 44.6239C172.713 37.1866 172.713 37.1865 176.432 59.4987C176.432 70.6548 180.15 85.5296 183.869 89.2483C183.869 92.967 187.588 96.6857 191.306 96.6857C195.025 96.6857 198.744 92.967 195.025 74.3735C191.306 55.78 195.025 55.78 198.744 52.0613Z" fill="black"/>
</svg>
