<svg width="863" height="615" viewBox="0 0 863 615" fill="none" xmlns="http://www.w3.org/2000/svg">
<path d="M862.755 606.612C862.755 602.894 851.599 591.738 821.849 565.707C799.537 550.832 777.225 528.52 762.35 509.926C754.913 498.77 740.038 480.177 725.163 465.302C714.007 450.427 695.414 424.396 680.539 409.521L654.508 379.772H773.506C784.662 383.491 788.381 383.491 792.1 379.772C799.537 368.616 784.662 368.616 714.007 368.616H647.071L624.759 338.866C613.602 320.273 602.446 309.117 598.728 309.117C598.728 305.398 568.978 264.492 535.51 219.868C528.072 212.431 513.198 186.4 502.042 164.087L479.729 123.182H505.76C535.51 119.463 598.728 126.901 606.165 134.338C609.884 134.338 613.602 134.338 613.602 130.619C617.321 123.182 617.321 119.463 609.884 119.463C591.29 115.744 535.51 112.026 505.76 112.026C472.292 112.026 468.573 108.307 464.855 100.87C457.417 89.7136 438.824 48.8079 431.386 22.777C427.668 -3.25386 420.23 -6.97256 416.511 11.6209C416.511 15.3396 409.074 30.2144 405.355 41.3705C401.637 48.8079 397.918 59.964 397.918 59.964C397.918 59.964 386.762 82.2762 371.887 104.588C360.731 126.901 338.419 164.087 327.263 182.681L308.669 223.587L234.295 219.868C193.39 219.868 152.484 216.149 141.328 212.431C119.016 208.712 111.578 212.431 119.016 219.868C126.453 223.587 152.484 227.305 230.577 231.024C267.764 231.024 301.232 234.743 301.232 234.743C301.232 234.743 297.513 242.18 293.794 249.618C286.357 257.055 278.92 271.93 271.482 286.805C264.045 297.961 256.607 312.835 252.889 320.273C245.451 327.71 238.014 342.585 234.295 353.741C223.139 372.335 178.515 439.271 152.484 476.458C130.172 506.208 137.609 502.489 66.9539 502.489C3.7361 498.77 -11.1387 502.489 7.4548 513.645C11.1735 513.645 26.0483 517.364 48.3605 513.645H100.422C122.734 517.364 122.734 517.364 115.297 524.801C107.86 532.238 104.141 535.957 85.5474 565.707C74.3913 580.582 78.11 588.019 92.9848 591.738C100.422 591.738 122.734 591.738 141.328 595.456C167.359 599.175 208.264 602.894 338.419 602.894C427.668 602.894 513.198 606.612 524.354 606.612C535.51 606.612 572.697 610.331 606.165 614.05H725.163C754.913 614.05 799.537 610.331 821.849 610.331C847.88 610.331 862.755 610.331 862.755 606.612ZM576.415 297.961C577.717 299.262 578.498 300.526 578.759 301.641L575.188 305.211C574.481 305.323 573.664 305.398 572.697 305.398C571.061 306.216 564.107 306.661 553.695 306.847L570.168 290.336C572.4 293.125 574.482 295.692 576.415 297.961ZM566.561 285.726L545.364 306.921C539.414 306.959 532.795 306.922 525.581 306.811L558.008 274.383C560.983 278.399 563.847 282.193 566.561 285.726ZM554.513 269.587L517.437 306.662C511.19 306.55 504.681 306.402 497.988 306.253L546.257 257.985C549.046 261.964 551.835 265.869 554.513 269.587ZM542.836 253.149L489.956 306.03C483.597 305.844 477.164 305.657 470.693 305.434L534.729 241.399C537.406 245.341 540.121 249.282 542.836 253.149ZM531.383 236.49L462.735 305.137C456.301 304.913 449.868 304.653 443.621 304.356L523.387 224.591C525.99 228.495 528.668 232.473 531.383 236.49ZM520.115 219.606L435.737 303.985C429.155 303.688 422.796 303.353 416.809 303.056L512.268 207.595C514.759 211.463 517.4 215.479 520.115 219.606ZM509.033 202.538L408.962 302.609C403.607 302.311 398.624 301.976 394.162 301.641H390.035L501.372 190.304C503.678 194.097 506.281 198.187 509.033 202.538ZM494.604 178.962C495.683 180.822 496.91 182.94 498.286 185.209L381.816 301.679H361.958L491.22 172.416C492.336 174.462 493.451 176.694 494.604 178.962ZM487.985 167.323L353.666 301.641H333.808L469.317 166.132C477.238 165.686 482.518 164.979 483.448 164.049C484.973 164.087 486.497 165.352 487.985 167.323ZM355.488 215.443L346.303 224.627C345.039 224.33 343.662 223.996 342.1 223.587C336.15 223.587 331.316 223.586 328.044 222.991L385.795 165.241C391.671 165.65 398.067 165.946 404.723 166.206L358.426 212.505C356.641 212.691 355.339 213.286 355.488 215.443ZM356.975 222.21C356.864 225.148 356.268 226.226 353.219 225.965L356.975 222.21ZM412.718 166.466C419.226 166.652 425.808 166.765 432.241 166.802L377.502 221.54C373.635 218.193 369.247 215.219 365.528 213.62L412.718 166.466ZM371.887 238.461C383.043 242.18 386.762 238.461 386.762 234.743C386.762 232.288 384.68 228.979 381.668 225.669L440.497 166.838C447.786 166.838 454.666 166.727 460.69 166.504L325.59 301.605H316.144C312.425 301.605 308.967 301.605 305.694 301.605L369.061 238.238C370.065 238.387 371.069 238.461 371.887 238.461ZM334.7 197.556C337.266 193.688 339.832 189.411 342.1 185.283C343.848 182.085 345.41 179.037 346.637 176.322L360.917 162.041C363.595 162.45 367.127 163.158 371.887 164.087C373.821 164.311 375.94 164.495 378.134 164.681L323.879 218.938C324.883 216.112 328.49 206.853 334.7 197.556ZM297.513 268.211C301.232 260.774 304.951 249.618 308.669 245.899L312.165 238.944L319.417 231.692L334.7 234.743C335.184 234.743 335.667 234.742 336.187 234.779L286.394 284.573C289.927 278.14 294.092 271.595 297.513 268.211ZM279.292 299.931L343.922 235.3C349.761 235.895 356.12 236.825 361.586 237.532L297.439 301.679C285.911 301.679 278.957 301.679 278.957 301.679C278.92 301.27 279.069 300.674 279.292 299.931ZM792.1 599.175C747.476 602.894 673.102 602.894 669.383 602.894C665.664 599.175 461.136 591.738 330.981 591.738C230.577 591.738 159.921 588.019 152.484 588.019C145.047 584.3 126.453 580.582 115.297 580.582C104.141 580.582 96.7035 576.863 96.7035 576.863C96.7035 573.144 107.86 550.832 119.016 532.238L133.891 517.364H167.359C189.671 517.364 204.546 517.364 208.264 521.082C215.702 524.801 219.421 524.801 223.139 521.082C226.858 517.364 223.139 513.645 211.983 498.77C197.108 487.614 189.671 480.177 189.671 487.614C189.671 491.333 189.671 495.052 193.39 498.77C200.827 502.489 197.108 506.208 174.796 506.208C159.921 506.208 148.765 502.489 148.765 502.489C148.765 502.489 152.484 495.052 156.203 487.614C163.64 480.177 171.077 469.021 174.796 465.302C178.515 461.583 182.234 454.146 189.671 446.708C193.39 442.99 197.108 439.271 200.827 439.271C208.264 442.99 394.199 442.99 401.637 439.271C401.637 439.271 464.855 439.271 542.947 439.271C665.664 442.99 687.976 442.99 680.539 435.552C676.82 428.115 624.758 428.115 297.513 428.115H208.264C204.546 424.396 204.546 420.678 215.702 405.803C223.139 394.647 238.014 372.335 245.451 350.022L267.764 316.554L312.388 312.835H368.168C375.606 316.554 535.51 320.273 568.978 320.273H595.009L613.602 342.585C628.477 364.897 628.477 364.897 621.04 368.616H583.853C557.822 368.616 554.103 368.616 561.541 364.897C572.697 357.46 572.697 342.585 565.259 346.304C561.541 346.304 535.51 376.053 535.51 379.772C535.51 383.491 542.947 383.491 554.103 383.491C565.259 383.491 591.29 379.772 609.884 379.772C643.352 379.772 643.352 376.053 665.664 409.521C669.383 416.959 676.82 424.396 680.539 424.396C680.539 428.115 687.976 439.271 695.414 446.708C706.57 461.583 717.726 476.458 725.163 483.895C728.882 483.895 736.319 495.052 743.757 509.926C769.788 539.676 792.1 561.988 814.412 576.863C825.568 588.019 833.006 595.456 833.006 595.456C833.006 595.456 814.412 599.175 792.1 599.175Z" fill="black"/>
<path d="M314.433 396.878C310.082 396.878 310.082 399.629 314.471 399.629C318.859 399.629 318.821 396.878 314.433 396.878Z" fill="black"/>
<path d="M337.155 351.471C332.804 351.471 332.804 354.224 337.192 354.224C341.543 354.224 341.543 351.471 337.155 351.471Z" fill="black"/>
<path d="M375.198 391.113L377.093 394.906C377.986 396.654 385.201 395.91 384.271 394.051L382.374 390.258C381.482 388.473 374.268 389.254 375.198 391.113Z" fill="black"/>
<path d="M392.005 400.633C387.654 400.633 387.654 403.386 392.042 403.386C396.393 403.386 396.393 400.633 392.005 400.633Z" fill="black"/>
<path d="M270.255 382.933C268.395 382.97 263.449 384.233 265.681 387.097C266.424 388.026 268.098 388.139 269.399 388.064C269.66 388.102 269.846 388.138 269.921 388.175C271.445 388.324 273.304 388.213 274.494 387.135C275.238 386.428 275.313 385.312 274.718 384.456C273.825 383.118 271.668 382.933 270.255 382.933Z" fill="black"/>
<path d="M363.706 366.867V368.02C363.706 369.954 371.144 369.88 371.144 367.909V366.718C371.144 364.821 363.706 364.859 363.706 366.867Z" fill="black"/>
<path d="M354.149 383.639C349.798 383.639 349.798 386.39 354.186 386.39C358.574 386.39 358.574 383.639 354.149 383.639Z" fill="black"/>
<path d="M405.244 340.13C400.893 340.13 400.893 342.883 405.281 342.883C409.632 342.883 409.632 340.13 405.244 340.13Z" fill="black"/>
<path d="M431.796 371.813V375.606C431.796 377.54 439.233 377.466 439.233 375.495V371.702C439.233 369.769 431.796 369.805 431.796 371.813Z" fill="black"/>
<path d="M448.752 404.426C444.401 404.426 444.401 407.179 448.789 407.179C453.14 407.179 453.14 404.426 448.752 404.426Z" fill="black"/>
<path d="M480.882 355.228C476.531 355.228 476.531 357.979 480.919 357.979C485.307 357.979 485.307 355.228 480.882 355.228Z" fill="black"/>
<path d="M507.211 394.015C506.133 392.937 504.049 392.973 502.636 393.122C502.525 393.122 502.264 393.196 501.967 393.271C500.926 393.01 499.774 393.01 498.844 393.122C498.398 393.159 495.273 393.866 496.277 394.87C496.909 395.502 497.542 396.134 498.174 396.766C499.252 397.844 501.335 397.808 502.748 397.659C502.748 397.659 502.785 397.659 502.822 397.659C503.157 397.994 503.492 398.329 503.826 398.663C504.905 399.742 506.987 399.704 508.4 399.555C508.847 399.518 511.97 398.812 510.966 397.808C509.739 396.544 508.475 395.279 507.211 394.015Z" fill="black"/>
<path d="M499.774 337.639C499.737 336.374 496.725 336.337 496.018 336.337H494.122C493.304 336.337 490.403 336.486 490.44 337.788C490.478 339.052 493.49 339.09 494.196 339.09H496.092C496.873 339.09 499.811 338.903 499.774 337.639Z" fill="black"/>
<path d="M537.667 412.013C533.316 412.013 533.316 414.764 537.704 414.764C542.055 414.727 542.055 412.013 537.667 412.013Z" fill="black"/>
<path d="M598.245 350.431C602.596 350.431 602.596 347.68 598.208 347.68C593.819 347.68 593.82 350.431 598.245 350.431Z" fill="black"/>
</svg>
